<svg width="1263" height="799" viewBox="0 0 1263 799" fill="none" xmlns="http://www.w3.org/2000/svg">
<rect width="1263" height="799" fill="#CEFFEA"/>
<path d="M1211.58 742.483C1214.86 741.086 1218.95 741.254 1222.33 741.574C1224.1 741.674 1226.44 742.274 1227.67 744.295C1229.17 746.754 1227.84 748.603 1226.22 749.65C1224.09 746.888 1220.3 747.039 1217.56 747.114C1214.62 747.195 1211.58 747.574 1209.26 750.221C1208.43 749.736 1207.79 749.022 1207.63 747.938C1207.15 744.698 1209.87 743.215 1211.58 742.483V742.483ZM1213.76 751.344C1213.17 751.264 1212.25 751.183 1211.31 750.973C1214.49 748.716 1221.3 748.055 1224.37 750.482C1220.89 751.53 1217.31 751.816 1213.76 751.344V751.344ZM1213.76 753.532C1217.51 754.017 1221.3 753.684 1224.97 752.548C1226.9 751.952 1229.95 751.201 1230.6 748.071C1231.75 742.524 1225.15 739.545 1222.33 739.384C1218.17 738.99 1208.33 738.253 1205.99 745.085C1203.88 751.253 1210.97 753.172 1213.76 753.532" fill="#2E2D2D"/>
<path d="M1235.22 781.281C1230.52 783.752 1225.38 784.853 1218.55 784.853C1218.1 784.853 1217.66 784.85 1217.21 784.842C1207.29 784.546 1193.87 782.668 1189.15 770.454C1190.04 771.084 1191.05 771.176 1192.11 770.324C1192.81 769.762 1193.23 768.345 1193.88 767.905C1196.58 766.067 1196.41 768.562 1196.76 770.596C1197.12 772.65 1197.44 775.311 1198.48 776.985C1201.36 781.625 1202.02 774.324 1204.03 774.072C1205.32 773.908 1206.17 776.028 1207.63 776.067C1210.11 776.135 1210.83 772.539 1212.78 771.406C1216.31 769.356 1218.28 779.244 1221.71 779.599C1226.34 780.084 1225.42 769.445 1228.9 769.338C1231.83 769.251 1234.25 773.467 1236.85 770.296C1237.41 769.614 1237.97 767.378 1238.58 767.18C1240.06 766.701 1240.31 768.982 1240.88 770.222C1241.35 771.242 1241.99 772.96 1243.05 772.913C1244.04 772.868 1244.45 771.532 1244.82 770.494C1245.27 769.271 1245.93 762.957 1246.78 762.638C1247.88 762.232 1248.69 764.952 1250.02 764.345C1249.59 766.447 1248.95 768.32 1248.11 769.933C1245.08 775.76 1240.67 778.415 1235.22 781.281V781.281ZM1188.5 746.669C1190.58 739.893 1195.11 734.812 1201.28 732.359C1206.68 730.211 1212.41 729.912 1218.79 729.765C1219.06 729.76 1219.33 729.756 1219.6 729.756C1225.15 729.756 1230.54 731.059 1236.57 733.857C1240.58 735.721 1247.62 740.138 1249.65 748.802C1250.21 751.225 1250.56 753.89 1250.64 756.487C1250.66 756.769 1250.66 757.068 1250.66 757.36C1250.65 757.418 1250.63 757.467 1250.62 757.529C1250.56 758.282 1250.12 761.709 1249.58 761.988C1248.7 762.451 1247.99 760.551 1247.13 760.558C1246.27 760.566 1246.18 760.461 1245.52 761.33C1244.76 762.343 1244.54 764.686 1244.24 765.977C1243.72 768.276 1243.58 771.489 1242.08 768.663C1241 766.649 1240.41 762.906 1238.13 764.753C1236.79 765.84 1236.31 769.077 1234.68 769.373C1233.34 769.615 1231.02 767.78 1229.71 767.363C1227.26 766.576 1226.06 766.371 1225.21 769.873C1224.31 773.545 1223.16 779.646 1219.84 775.325C1218.5 773.576 1217.38 771.316 1215.85 769.864C1213.57 767.704 1212.09 769.36 1210.21 771.635C1208.55 773.648 1207.72 773.399 1205.64 772.106C1205.21 771.834 1204.96 771.203 1204.44 771.05C1203.52 770.781 1202.98 771.18 1202.34 772.023C1201.32 773.349 1201.79 775.081 1200.24 774.987C1198.88 774.906 1198.77 772.675 1198.47 771.07C1198.17 769.462 1198.13 767.391 1197.42 765.992C1196.78 764.725 1195.57 763.855 1194.44 764.282C1193.58 764.606 1193.38 765.689 1192.75 766.358C1190.55 768.717 1188.35 767.89 1187.53 763.94C1187.52 763.912 1187.5 763.894 1187.5 763.866C1187.43 763.399 1187.33 762.94 1187.28 762.463L1187.1 760.722C1186.71 755.78 1187.19 750.928 1188.5 746.669V746.669ZM1252.21 757.529C1252.23 757.346 1252.21 757.191 1252.18 757.057C1252.16 755.81 1252.11 754.543 1251.98 753.237C1251.27 745.895 1248.34 739.933 1243.26 735.516C1240.57 733.183 1237.45 731.874 1234.44 730.61L1233.84 730.358C1230.21 728.83 1227.08 727.985 1224.02 727.706C1222.06 727.525 1220.07 727.434 1218.12 727.434C1212.75 727.434 1207.74 728.101 1203.23 729.418C1198.65 730.757 1192.4 733.947 1188.69 741.548C1185.83 747.414 1184.75 755.259 1185.73 763.075C1186.89 772.365 1190.7 778.812 1197.05 782.235C1202.61 785.234 1209.18 786.808 1217.15 787.05C1217.65 787.058 1218.16 787.064 1218.66 787.064C1223.14 787.064 1229 786.703 1234.69 783.893C1239.28 781.628 1244.48 779.062 1248.05 773.556C1250.74 769.407 1252.12 764.062 1252.17 757.937C1252.19 757.801 1252.2 757.653 1252.21 757.529" fill="#2E2D2D"/>
<path d="M1200.37 757.944C1201.35 758.346 1201.77 756.234 1200.79 755.833C1197.55 754.507 1194.48 751.988 1193.33 747.372C1193 746.047 1191.46 746.616 1191.8 747.955C1193.14 753.332 1196.55 756.384 1200.37 757.944Z" fill="#2E2D2D"/>
<path d="M1203.85 759.023C1204.87 759.023 1204.88 756.831 1203.85 756.831C1202.83 756.831 1202.83 759.023 1203.85 759.023Z" fill="#2E2D2D"/>
<path d="M76.988 57.4685C76.3364 61.4947 74.6541 66.1146 73.3471 69.9224C70.2129 79.0546 61.2254 84.6742 54.8232 88.6594C47.1847 93.4158 40.1978 93.4652 32.0749 92.0373C19.8702 89.033 12.3345 72.843 13.6588 56.1941C14.1221 50.3698 15.5084 44.4415 16.9367 38.9549C19.06 30.7968 23.2918 19.9944 28.6447 15.0231C35.1856 8.948 42.4277 14.2895 49.5236 13.7197C51.5676 13.5542 53.5088 12.749 55.4946 12.1126C59.9395 10.6898 62.6996 11.5616 66.2302 15.6185C68.6793 18.4334 71.121 21.5639 73.0944 25.0237C76.1059 30.3038 76.8282 36.1656 77.175 42.6945C77.4302 47.5327 77.7622 52.6832 76.988 57.4685V57.4685ZM79.1299 47.7886C78.8487 36.3652 77.5541 27.2875 71.5013 19.0544C66.9449 12.8581 62.8445 7.55932 56.1834 9.44616C51.6271 10.7393 47.954 11.6094 43.2329 10.6762C39.794 9.99719 36.2559 8.98893 32.7935 10.0211C25.9639 12.0563 22.1632 20.629 18.728 28.2293C15.5034 35.3655 13.4916 44.0593 12.3444 52.3215C9.73426 71.108 17.4285 90.8738 31.6401 94.3489C31.6872 94.3609 31.7256 94.3421 31.7702 94.3455C31.8061 94.3575 31.8321 94.3848 31.8705 94.3916C39.5735 95.7649 46.3733 96.1471 53.6736 91.9537C60.1872 88.2176 68.6049 82.9341 73.1464 75.1547C75.2214 71.5976 76.4937 66.3107 77.7424 62.1498C79.1101 57.5879 79.2476 52.6559 79.1299 47.7886Z" fill="#2E2D2D"/>
<path d="M35.997 61.2082C30.0792 57.4976 27.1011 47.9474 29.0671 39.4276C31.427 29.2018 38.5861 27.6834 45.127 30.0821C59.1355 38.1566 50.2953 70.1749 35.997 61.2082ZM45.5891 27.779C38.041 25.0118 30.0668 27.3406 27.3947 38.7947C25.0781 48.7202 28.8936 60.0276 35.9672 63.8303C52.3827 72.6572 61.3765 36.8805 45.5891 27.779Z" fill="#2E2D2D"/>
<path d="M33.7696 37.5936C30.3815 40.4989 30.5525 46.4153 32.1555 50.8407C32.6535 52.2175 34.1499 51.0079 33.6532 49.6363C32.4937 46.4358 32.1133 41.8279 34.6442 39.6561C35.5894 38.8458 34.7198 36.7781 33.7696 37.5936Z" fill="#2E2D2D"/>
<path d="M36.7169 34.4699C35.602 34.4699 35.5995 36.86 36.7169 36.86C37.8331 36.86 37.8355 34.4699 36.7169 34.4699Z" fill="#2E2D2D"/>
<path d="M43.483 452.285C50.9452 449.138 41.242 432.97 40.7403 427.244C40.0632 419.525 45.0187 415.202 45.9528 408.215C46.5115 404.036 45.1529 400.324 43.7934 396.572C42.5155 393.045 41.2376 389.482 41.5543 385.464C42.1287 378.175 47.3904 372.943 47.4991 365.637C47.5561 361.762 46.0546 358.624 44.553 355.435C43.0163 352.173 41.4797 348.857 41.613 344.643C41.8595 336.838 46.0554 330.27 46.1809 322.48C46.2405 318.821 45.0065 315.609 43.7724 312.419C42.3147 308.651 40.8561 304.911 41.5306 300.499C42.2261 295.949 44.4837 292.757 47.9385 293.665C48.6753 293.858 48.5043 295.491 47.7631 295.459C44.1171 295.293 43.3944 301.343 43.932 304.768C44.296 307.086 45.3871 309.286 46.1695 311.355C47.3193 314.399 48.4245 317.38 48.5797 320.873C48.8884 327.843 45.9098 333.884 44.6126 340.366C43.5286 345.782 44.3074 349.883 46.5071 354.439C47.907 357.34 49.4989 360.123 49.8927 363.67C50.5733 369.8 47.6631 374.781 45.7686 379.915C42.2138 389.55 47.2948 394.488 48.6183 403.427C49.6585 410.458 46.2396 415.074 44.3302 421.063C41.4964 429.95 48.2218 436.026 48.9296 444.389C49.3638 449.517 48.0271 454.526 44.2451 456.092C42.4734 456.825 41.7209 453.027 43.483 452.285" fill="black"/>
<path d="M1232.02 471.309C1224.55 468.162 1234.26 451.994 1234.76 446.267C1235.44 438.549 1230.48 434.226 1229.55 427.239C1228.99 423.06 1230.35 419.348 1231.7 415.596C1232.98 412.069 1234.26 408.506 1233.94 404.488C1233.37 397.199 1228.11 391.967 1228 384.66C1227.94 380.786 1229.44 377.648 1230.95 374.459C1232.48 371.196 1234.02 367.881 1233.89 363.667C1233.64 355.861 1229.44 349.294 1229.32 341.504C1229.26 337.845 1230.49 334.633 1231.73 331.443C1233.18 327.675 1234.64 323.935 1233.97 319.523C1233.27 314.973 1231.01 311.781 1227.56 312.689C1226.82 312.882 1226.99 314.515 1227.74 314.483C1231.38 314.317 1232.1 320.367 1231.57 323.792C1231.2 326.109 1230.11 328.31 1229.33 330.379C1228.18 333.423 1227.07 336.404 1226.92 339.897C1226.61 346.867 1229.59 352.908 1230.89 359.39C1231.97 364.806 1231.19 368.906 1228.99 373.462C1227.59 376.364 1226 379.147 1225.61 382.694C1224.93 388.824 1227.84 393.805 1229.73 398.939C1233.28 408.574 1228.2 413.511 1226.88 422.451C1225.84 429.482 1229.26 434.098 1231.17 440.087C1234 448.974 1227.28 455.05 1226.57 463.413C1226.13 468.54 1227.47 473.549 1231.25 475.116C1233.02 475.849 1233.78 472.05 1232.02 471.309" fill="black"/>
<path d="M1250.48 111.774C1245.81 111.866 1241.14 111.821 1236.47 111.693C1236.93 109.361 1236.46 106.018 1236.48 103.719C1236.55 92.4562 1236.52 81.1903 1236.44 69.9262C1236.37 61.9621 1237.21 52.4493 1235.94 44.5963C1238.48 44.8186 1240.96 44.6088 1243.53 44.4816C1246.52 44.3328 1250.13 43.77 1253.11 44.2683C1253.3 45.9031 1253.22 47.8246 1253.27 49.3644C1253.42 54.0948 1253.51 58.827 1253.57 63.5628C1253.7 74.7086 1253.37 85.8437 1253.5 96.9913C1253.53 100.234 1253.58 103.477 1253.6 106.717C1253.63 111.086 1253.66 111.711 1250.48 111.774ZM1233.49 111.848C1231.19 111.493 1228.67 111.9 1226.35 111.889C1220.59 111.862 1214.84 111.772 1209.08 111.745C1206.51 111.736 1207.17 110.27 1207.11 106.954C1207.05 104.12 1207.02 101.286 1206.99 98.4522C1216.21 99.1495 1225.45 97.8105 1234.67 98.3231C1234.66 99.6675 1234.67 101.01 1234.66 102.353C1234.65 105.33 1234.96 108.872 1234.58 111.858C1234.21 111.907 1233.76 111.889 1233.49 111.848ZM1213.56 31.3909C1214.34 29.8565 1215.12 27.7449 1216.13 26.4579C1217.23 25.0562 1216.43 25.7248 1217.96 25.3394C1221.14 24.5364 1224.82 25.1745 1228.06 25.0401C1232.82 24.8429 1237.54 24.3034 1242.29 24.6995C1239.48 30.2168 1237.07 36.1877 1234.37 41.8197C1233.98 41.7014 1233.5 41.6369 1232.88 41.5491C1227.88 40.8428 1222.64 40.4467 1217.62 41.0113C1214.63 41.1744 1211.64 41.3375 1208.65 41.5007C1210.22 38.0716 1211.87 34.707 1213.56 31.3909ZM1217.44 13.6648C1218.43 11.512 1220.61 12.143 1222.33 12.0695C1226.09 11.9082 1229.87 11.4385 1233.63 11.478C1235.37 11.4959 1241.43 10.5279 1242.83 12.1466C1242.63 11.9189 1242.78 14.6812 1242.82 16.1564C1242.88 18.1927 1242.93 20.2272 1242.99 22.2635C1237.44 21.6845 1231.91 22.4105 1226.35 22.5915C1223.95 22.6704 1219.78 21.7311 1217.14 22.6094C1217.03 19.7235 1216.74 15.1777 1217.44 13.6648ZM1206.95 95.9409C1206.89 88.7207 1206.91 81.4968 1207 74.2766C1207.04 71.034 1207.09 67.7896 1207.17 64.5451C1216.17 65.0094 1225.62 65.6995 1234.59 64.5666C1234.66 71.1684 1234.67 77.7738 1234.68 84.372C1234.69 88.1865 1234.68 92.0009 1234.67 95.8136C1225.44 95.301 1216.19 96.6453 1206.95 95.9409ZM1217.62 43.5208C1222.52 42.9687 1227.65 43.3487 1232.53 44.0138C1232.84 44.055 1233.65 44.3113 1234.04 44.2969C1234.06 44.383 1234.08 44.4726 1234.1 44.5587C1234.39 45.9317 1234.26 47.7314 1234.3 49.1475C1234.43 53.4459 1234.51 57.7533 1234.56 62.0607C1225.62 63.1864 1216.2 62.5034 1207.23 62.0392C1207.29 59.2644 1207.36 56.4878 1207.45 53.713C1207.53 51.1551 1206.95 45.5051 1208.72 44.0048C1210.25 42.716 1215.93 43.614 1217.62 43.5208ZM1252.49 41.7122C1249.91 41.5042 1247.21 41.9685 1244.64 41.9524C1241.86 41.9345 1239.16 42.2732 1236.4 42.1101C1238.96 36.6501 1241.31 30.9285 1244.03 25.6352C1245.86 28.4602 1247.44 31.597 1248.99 34.7106C1250.03 36.815 1251.59 39.269 1252.49 41.7122ZM1255.11 50.024C1254.99 46.016 1255.15 43.1516 1253.61 39.7978C1250.97 34.0618 1248.24 28.0873 1244.84 23.1185C1244.84 19.9171 1245.57 12.9675 1244.35 10.7162C1243.31 8.80356 1240.47 9.3377 1238.93 9.2194C1234.82 8.90212 1230.81 9.11007 1226.71 9.37177C1223.51 9.57612 1219.08 8.5777 1216.1 10.5423C1215.81 10.7305 1215.66 11.2091 1215.65 11.6249C1215.59 15.6885 1215.43 19.7468 1215.36 23.8086C1214.47 24.9021 1213.83 26.5565 1213.14 27.8686C1210.71 32.5471 1208.33 37.299 1206.16 42.2141C1206.14 42.2571 1206.14 42.2983 1206.12 42.3413C1206.12 42.3611 1206.11 42.3844 1206.11 42.4041C1206.06 42.5547 1206.03 42.7016 1206.03 42.8433C1206.03 42.845 1206.03 42.8468 1206.03 42.8468C1205.07 66.214 1204.86 89.6061 1205.42 112.997C1205.43 113.674 1205.82 114.251 1206.33 114.251C1211.54 114.248 1216.74 114.323 1221.95 114.368C1225.94 114.402 1230.53 115.252 1234.48 114.316C1234.7 114.264 1234.89 114.181 1235.07 114.083C1235.16 114.133 1235.27 114.178 1235.39 114.181C1241.77 114.375 1248.14 114.364 1254.52 114.181C1255.02 114.167 1255.43 113.619 1255.43 112.927C1255.5 91.9992 1255.74 70.9372 1255.11 50.024Z" fill="#2E2D2D"/>
<path d="M1214.66 79.9841C1215.3 79.5969 1215.95 78.6899 1216.54 77.6557C1216.44 81.4217 1216.4 85.1878 1216.61 88.952C1216.7 90.5528 1218.52 90.5653 1218.43 88.952C1218.15 83.7233 1218.32 78.491 1218.49 73.2586C1218.54 71.9716 1217.25 71.6113 1216.8 72.6259C1216.3 73.7426 1215.26 76.1661 1214.28 77.3079C1213.09 75.7861 1212.07 73.9918 1210.73 72.6223C1210.15 72.029 1209.37 72.8392 1209.36 73.705C1209.3 78.7563 1209.24 83.8058 1209.33 88.857C1209.36 90.4685 1211.18 90.4739 1211.15 88.857C1211.08 84.7289 1211.11 80.6007 1211.15 76.4744C1211.95 77.6019 1212.67 78.8011 1213.56 79.7869C1213.91 80.1795 1214.25 80.2297 1214.66 79.9841" fill="#2E2D2D"/>
<path d="M1219.89 88.952C1219.96 90.5581 1221.78 90.567 1221.71 88.952C1221.61 86.4353 1221.82 83.9168 1221.71 81.4001C1221.65 79.794 1219.82 79.7833 1219.89 81.4001C1220 83.9168 1219.78 86.4353 1219.89 88.952Z" fill="#2E2D2D"/>
<path d="M1221.74 77.6269C1221.74 77.6072 1221.74 77.5893 1221.74 77.5695C1221.74 75.9563 1219.92 75.9527 1219.92 77.5695C1219.92 77.5893 1219.92 77.6072 1219.92 77.6269C1219.92 79.242 1221.74 79.2438 1221.74 77.6269Z" fill="#2E2D2D"/>
<path d="M1225.49 89.0614C1225.19 83.6014 1224.9 78.1504 1224.88 72.6725C1224.88 71.0592 1223.06 71.0557 1223.06 72.6725C1223.08 78.1504 1223.37 83.6014 1223.67 89.0614C1223.76 90.6603 1225.58 90.6746 1225.49 89.0614Z" fill="#2E2D2D"/>
<path d="M1229.06 88.952C1228.99 88.0145 1228.93 87.0752 1228.87 86.1377C1229.11 86.5948 1229.36 87.0411 1229.6 87.5054C1229.94 88.1758 1230.35 88.8444 1230.6 89.5865C1231.1 91.0456 1232.67 89.7729 1232.18 88.3192C1231.88 87.4624 1231.4 86.6791 1231 85.9083C1230.46 84.8435 1229.88 83.8003 1229.3 82.766C1230.01 81.9092 1230.73 81.0864 1231.5 80.3354C1232.45 79.4069 1231.54 77.2308 1230.58 78.1683C1229.88 78.853 1229.21 79.5897 1228.55 80.3533C1228.45 77.6807 1228.38 75.0045 1228.37 72.3211C1228.37 70.7078 1226.55 70.7042 1226.55 72.3211C1226.57 77.885 1226.8 83.4221 1227.24 88.952C1227.37 90.5401 1229.19 90.558 1229.06 88.952" fill="#2E2D2D"/>
<path d="M43.3988 669.831C40.0201 664.389 41.1211 659.726 44.5272 657.815C43.8977 659.396 43.7831 661.359 44.2724 663.769C44.7393 666.065 45.7915 668.119 46.8187 669.985C49.2774 674.452 49.9413 678.526 47.9002 682.319C47.9512 679.978 47.5834 677.607 46.7946 675.597C45.8999 673.319 44.6047 671.774 43.3988 669.831ZM45.252 686.097C45.0474 686.788 45.268 687.303 45.6249 687.573C45.9062 687.981 46.3261 688.143 46.7597 687.693C49.357 685.009 51.964 680.913 51.6272 676.1C51.2732 671.057 41.758 660.463 48.5315 656.834C49.5541 656.286 49.4938 654.051 48.2589 654.057C43.8364 654.077 39.3842 656.092 39.0634 663.015C38.6275 672.423 48.3368 675.672 45.252 686.097" fill="#2E2D2D"/>
<path d="M62.0445 724.366C51.3521 725.39 40.5035 723.685 29.7602 724.394C29.4492 721.306 29.1444 718.216 28.8145 715.13C40.2171 715.12 51.6077 716.015 63.0114 715.664C62.6775 718.562 62.3556 721.462 62.0445 724.366V724.366ZM57.7383 762.146C57.5345 763.598 57.5372 766.452 56.9449 767.752C55.5971 770.709 53.0644 769.822 50.7828 769.843C46.8793 769.875 41.8463 770.806 38.0265 769.699C33.025 768.249 33.8144 765.036 33.2534 759.613C33.1693 758.798 33.089 757.984 33.0072 757.168C41.1274 758.083 50.2522 758.963 58.3702 757.309C58.1634 758.923 57.964 760.536 57.7383 762.146V762.146ZM58.7494 754.401C54.331 755.362 49.9757 754.863 45.5217 754.72C41.2407 754.583 36.9896 754.734 32.7167 754.294C32.6382 753.502 32.5568 752.713 32.4784 751.923C31.6633 743.685 30.8676 735.445 30.0484 727.209C40.5958 726.555 51.2421 728.169 61.7402 727.216C61.0546 733.69 60.3889 740.171 59.6585 746.638C59.3652 749.227 59.0662 751.816 58.7494 754.401V754.401ZM31.9245 708.5C34.6821 708.506 37.4393 708.563 40.1976 708.561C43.4016 708.557 46.6043 708.468 49.8089 708.496C52.6858 708.524 55.5598 708.609 58.4343 708.743C59.8075 708.805 61.1857 708.797 62.5572 708.904C64.7826 709.08 65.3601 710.025 64.7684 712.78C51.8952 713.333 39.0422 712.125 26.1702 712.317C24.797 707.779 30.7341 708.496 31.9245 708.5V708.5ZM30.8372 696.524C31.5934 694.939 31.1465 695.361 32.8702 694.957C35.892 694.25 39.3138 694.709 42.3613 694.715C46.1324 694.723 49.9045 694.793 53.6762 694.868C56.0392 694.917 57.8203 694.381 59.6189 696.609C61.4607 698.889 61.88 702.664 62.3635 706.069C57.7172 705.735 53.0398 705.659 48.3882 705.659C41.9953 705.655 35.5312 705.319 29.1472 705.693C29.3833 702.831 29.7614 698.782 30.8372 696.524V696.524ZM64.5226 706.507C63.6524 700.937 63.7677 692.832 58.9442 692.15C53.309 691.352 47.348 691.885 41.6824 691.885C38.5632 691.887 33.7066 690.791 30.7363 692.441C27.7696 694.087 27.3904 701.735 27.0638 706.036C24.1532 706.905 22.5308 709.423 24.6401 714.448C24.6635 714.504 24.6974 714.529 24.7231 714.577C24.7666 714.668 24.8177 714.743 24.8766 714.817C24.9184 714.866 24.9592 714.908 25.0038 714.945C25.0657 714.997 25.1344 715.036 25.2101 715.066C25.2673 715.088 25.3223 715.104 25.3802 715.11C25.4311 715.118 25.4701 715.149 25.5263 715.149C25.9381 715.141 26.3488 715.147 26.7608 715.143C28.4295 730.619 29.7918 746.151 31.4061 761.637C31.8127 765.537 31.4633 770.537 34.6192 772.137C36.4328 773.056 38.8766 772.551 40.7635 772.589C43.7968 772.65 46.83 772.688 49.8633 772.674C52.192 772.662 56.3635 773.609 58.1719 770.879C60.1357 767.912 60.0939 760.231 60.5664 756.457C60.582 756.332 60.5952 756.204 60.6106 756.077C60.622 755.998 60.637 755.926 60.6382 755.845C62.2976 742.467 63.5235 728.997 65.084 715.597C65.2279 715.591 65.3716 715.591 65.5149 715.583C65.8689 715.567 66.1202 715.345 66.2848 715.038C66.3735 714.904 66.4514 714.745 66.5052 714.547C67.7742 709.833 66.9514 707.42 64.5226 706.507" fill="#2E2D2D"/>
<path d="M51.5131 742.241C50.678 746.194 48.2216 750.297 44.946 750.289C44.514 750.289 44.1055 750.231 43.7137 750.138C43.7235 750.061 43.7493 750 43.7509 749.916C43.8477 745.428 46.2727 743.094 48.1081 739.85C49.2446 737.841 49.8146 735.688 49.9842 733.214C50.7598 733.686 51.4169 734.444 51.7142 735.496C52.2635 737.441 51.9158 740.337 51.5131 742.241V742.241ZM40.444 741.007C41.7266 737.649 44.16 734.462 46.735 733.024C47.1079 732.81 47.5347 732.707 47.9746 732.683C47.7667 737.029 45.548 739.176 43.7464 742.36C42.5858 744.412 41.9178 746.642 41.7575 749.182C39.8395 747.613 39.0995 744.531 40.444 741.007ZM52.2091 731.558C50.6561 729.918 47.9798 729.272 46.1884 730.298C42.2817 732.479 37.8644 738.16 37.6048 744.293C37.3476 750.382 41.9878 753.886 46.0171 753.02C50.8974 751.967 53.8653 744.998 53.9735 738.681C54.017 736.14 53.7754 733.21 52.2091 731.558" fill="#2E2D2D"/>
<path d="M192.6 330.365C191.873 329.507 191.744 328.24 190.688 327.859C189.922 327.584 189.191 328.341 188.464 328.488C187.068 328.77 186.158 328.838 184.925 327.242C184.464 326.646 184.209 325.67 183.76 325.028C181.752 322.148 179.663 322.999 177.005 323.061C173.634 323.138 171.784 320.114 170.101 316.569C169.359 315.008 168.662 313.673 167.386 312.909C165.764 311.939 164.168 312.196 162.51 311.138C160.327 309.744 160.795 308.453 159.286 306.489C157.79 304.545 155.999 305.339 154.168 305.731C152.16 306.163 152.022 306.301 150.213 304.324C147.877 301.769 149.004 302.851 148.566 300.149C148.444 299.397 148.196 298.605 147.775 298.101C146.966 297.131 145.813 297.639 144.924 297.035C140.992 294.367 146.164 292.316 148.202 292.307C149.538 294.113 151.529 295.654 152.753 296.715C158.671 301.847 165.069 306.084 171.216 310.674C176.826 314.92 182.441 319.12 188.311 322.665C190.168 323.786 192.437 325.12 194.545 325.259C195.015 326.144 196.37 328.712 196.207 329.815C195.83 332.358 193.516 331.445 192.6 330.365V330.365ZM177.791 331.399C173.562 328.395 169.119 326.062 164.861 323.149C160.868 320.418 157.016 317.311 153.157 314.241C151.26 312.73 149.359 311.222 147.461 309.716C144.18 307.108 144.455 303.554 146.302 299.661C147.395 300.805 146.803 302.032 147.059 303.722C147.797 308.587 151.907 308.392 154.611 307.721C156.503 307.251 157.606 306.918 158.877 309.325C159.344 310.21 159.522 311.299 160.067 312.139C161.276 314.008 162.584 313.778 164.218 314.267C168.315 315.495 167.868 316.301 169.834 320.034C170.331 320.976 170.887 321.859 171.544 322.595C173.17 324.419 175.007 325.191 177.067 325.139C179.673 325.072 180.731 323.886 183.142 327.324C183.584 327.955 183.816 328.856 184.273 329.486C185.304 330.905 186.285 331.372 187.707 331.031C188.858 330.755 189.597 330.253 190.556 330.829C190.689 341.723 180.921 333.622 177.791 331.399V331.399ZM188.704 344.168C188.499 346.248 187.054 349.105 185.513 349.561C183.421 350.178 180.278 348.014 178.441 346.882C172.393 343.157 166.478 338.93 160.636 334.627C155.246 330.656 149.807 326.655 144.574 322.295C142.348 320.441 137.815 317.516 138.241 313.47C138.741 308.733 141.237 307.53 144.109 309.236C144.982 310.396 146.223 311.132 147.261 311.956C153.792 317.144 160.252 322.671 167.136 326.936C170.68 329.132 174.242 331.181 177.689 333.667C180.276 335.533 182.575 337.893 185.513 338.384C187.188 339.656 189.035 340.796 188.704 344.168V344.168ZM152.254 278.984C156.879 273.115 164.363 268.508 170.712 268.724C176.442 268.919 183.057 272.711 187.603 277.445C194.064 284.173 199.602 295.679 200.085 306.987C200.257 311.01 199.806 315.496 198.574 319.185C196.552 325.244 191.907 322.609 188.459 320.488C182.79 317.001 177.358 312.949 171.924 308.835C166.883 305.071 161.816 301.364 156.801 297.538C154.337 295.659 148.894 292.569 148.447 288.286C148.097 284.941 150.713 280.939 152.254 278.984V278.984ZM196.275 325.051C197.318 324.705 198.271 323.924 199.044 322.467C203.999 313.114 201.486 298.428 197.282 289.566C192.134 278.714 185.253 271.096 176.034 267.749C170.41 265.707 165.349 267.069 160.07 270.121C155.803 272.588 150.635 276.212 148.318 282.083C147.598 283.907 146.486 287.791 146.933 289.766C146.972 289.94 147.051 290.108 147.108 290.278C144.774 290.555 141.407 291.911 141.466 295.366C141.492 296.949 142.56 298.049 143.48 298.624C143.864 298.864 144.35 298.92 144.824 298.99C143.86 301.052 142.825 303.888 143.061 306.4C141.609 305.736 140.039 305.487 138.906 306.854C137.423 308.641 135.909 314.181 136.785 316.846C137.234 318.208 138.282 318.848 139.124 319.662C141.132 321.601 143.08 323.541 145.221 325.21C150.103 329.012 154.983 332.824 159.928 336.465C164.914 340.135 169.961 343.646 175.066 346.989C178.023 348.927 182.096 352.185 185.576 351.64C188.009 351.258 189.696 347.723 190.179 344.618C190.651 341.569 189.649 339.719 188.165 338.224C190.157 337.571 191.583 335.651 191.965 332.621C192.108 332.92 192.266 333.207 192.525 333.413C193.499 334.189 195.138 333.99 196.129 333.399C198.867 331.762 197.599 327.802 196.275 325.051" fill="#2E2D2D"/>
<path d="M155.314 293.335C156.188 293.911 156.9 292.078 156.022 291.498C154.497 290.495 151.598 288.806 153.013 285.985C153.979 284.061 155.846 282.769 157.399 282.052C158.32 281.625 157.88 279.635 156.956 280.062C154.853 281.035 151.53 283.447 150.872 286.694C150.221 289.9 153.724 292.29 155.314 293.335" fill="#2E2D2D"/>
<path d="M158.417 295.629C159.276 296.257 159.985 294.421 159.124 293.792C158.267 293.165 157.557 295.001 158.417 295.629Z" fill="#2E2D2D"/>
<path d="M170.428 274.08C170.822 274.376 171.217 274.108 171.45 273.649C171.608 273.336 171.767 273.022 171.926 272.707C172.161 272.243 171.94 271.547 171.613 271.301C171.218 271.006 170.825 271.274 170.592 271.732C170.433 272.047 170.274 272.361 170.114 272.673C169.879 273.139 170.101 273.836 170.428 274.08Z" fill="#2E2D2D"/>
<path d="M178.413 277.539C178.704 277.458 178.997 277.453 179.292 277.475C180.261 277.546 180.195 275.468 179.231 275.397C178.797 275.365 178.394 275.432 177.97 275.551C177.017 275.818 177.468 277.804 178.413 277.539Z" fill="#2E2D2D"/>
<path d="M185.7 282.435C186.277 283.504 187.565 282.415 186.984 281.34C186.71 280.834 186.475 280.31 186.267 279.746C185.826 278.551 184.545 279.657 184.983 280.841C185.191 281.405 185.426 281.929 185.7 282.435Z" fill="#2E2D2D"/>
<path d="M189.61 288.221C189.863 288.119 190.06 288.13 190.311 288.223C191.25 288.569 191.578 286.538 190.639 286.192C190.147 286.01 189.655 286.034 189.168 286.234C188.235 286.617 188.678 288.605 189.61 288.221Z" fill="#2E2D2D"/>
<path d="M179.218 287.241C179.404 288.554 180.846 287.933 180.661 286.63C180.619 286.336 180.564 286.057 180.489 285.773C180.159 284.518 178.714 285.121 179.046 286.384C179.119 286.666 179.175 286.946 179.218 287.241Z" fill="#2E2D2D"/>
<path d="M171.477 281.242C171.765 281.099 172.02 281.04 172.325 281.042C173.296 281.051 173.233 278.972 172.262 278.963C171.839 278.961 171.431 279.057 171.034 279.253C170.122 279.707 170.56 281.697 171.477 281.242Z" fill="#2E2D2D"/>
<path d="M185.258 291.934C185.813 293.029 187.099 291.939 186.542 290.839C186.34 290.439 186.222 290.06 186.194 289.57C186.118 288.24 184.608 288.315 184.684 289.656C184.732 290.483 184.911 291.25 185.258 291.934" fill="#2E2D2D"/>
<path d="M164.951 275.989C165.066 275.789 165.164 275.632 165.36 275.6C166.318 275.441 166.265 273.361 165.297 273.521C164.719 273.617 164.22 273.921 163.852 274.561C163.252 275.604 164.346 277.039 164.951 275.989" fill="#2E2D2D"/>
<path d="M191.941 294.307C192.306 295.538 193.754 294.937 193.385 293.697C193.275 293.324 193.164 292.952 193.052 292.58C192.687 291.348 191.24 291.949 191.61 293.189C191.72 293.562 191.831 293.934 191.941 294.307Z" fill="#2E2D2D"/>
<path d="M1039.2 129.917L1039.13 130.772C1039.03 131.93 1038.85 133.094 1038.67 134.217C1038.46 135.548 1038.24 136.922 1038.17 138.306C1038.04 140.913 1038.48 143.518 1038.9 146.038L1039.02 146.731C1039.24 148.066 1039.48 149.395 1039.71 150.727C1040.19 153.462 1040.69 156.292 1041.08 159.096C1041.15 159.644 1041.24 160.24 1041.33 160.873C1041.86 164.374 1042.58 169.168 1041.9 172.209C1040.92 176.561 1038.7 178.056 1036.44 179.022C1034.05 180.05 1032.84 180.416 1031.89 180.662C1031.4 180.788 1030.94 180.892 1030.44 181C1029.85 181.131 1029.2 181.273 1028.39 181.483L1028.28 181.513C1030.05 177.525 1029.12 171.264 1028.37 166.204C1028.19 164.962 1028.02 163.812 1027.91 162.818L1027.53 159.394C1027.24 156.654 1026.94 153.919 1026.62 151.184L1026.47 149.997C1026.13 147.198 1025.81 144.555 1026.14 141.76C1026.32 140.209 1026.71 138.739 1027.09 137.316C1027.3 136.516 1027.52 135.715 1027.7 134.893C1029.65 126.024 1027.94 116.766 1023.34 111.312C1020.64 108.104 1017.3 106.069 1013.17 105.108C1014.33 104.882 1015.37 104.69 1016.35 104.508C1018.33 104.143 1020.05 103.828 1021.83 103.367C1022.11 103.295 1022.94 103.07 1022.94 103.07C1027.72 101.835 1032.01 104.299 1035.7 110.402C1037.37 113.163 1038.56 116.32 1039.16 119.534C1039.77 122.806 1039.47 126.584 1039.2 129.917V129.917ZM1025.11 181.755C1023.94 182.551 1022.57 183.127 1020.65 183.622C1019.86 183.825 1019.07 183.992 1018.3 184.161C1017.54 184.322 1016.8 184.479 1016.09 184.663L1014.09 185.185C1011.32 185.907 1008.55 186.626 1005.8 187.423C1005.19 187.6 1004.58 187.762 1003.96 187.921C1002.98 188.174 1002 188.412 1001.01 188.65C1000.03 188.889 999.042 189.129 998.058 189.383L996.477 189.801C995.376 190.086 994.086 190.372 992.722 190.179C990.091 189.804 989.321 187.103 988.707 184.13C987.929 180.358 987.318 176.461 986.728 172.694C986.101 168.698 985.454 164.563 984.574 160.427C983.99 157.678 983.387 154.834 982.683 152.097C982.209 150.257 981.373 148.857 980.487 147.37C980.049 146.637 979.597 145.879 979.196 145.067C975.102 136.775 977.775 126.937 981.642 120.492C985.85 113.479 993.223 109.462 998.721 108.041C998.986 107.973 999.246 107.908 999.505 107.85C1002.73 107.13 1006.07 107.289 1009.2 107.514C1012.18 107.725 1015.89 107.991 1018.94 110.388C1025.37 115.449 1027.97 125.083 1025.54 134.93L1025.25 136.103C1024.57 138.802 1023.92 141.353 1023.91 144.284C1023.9 147.069 1024.29 149.931 1024.67 152.698C1024.83 153.88 1024.99 155.051 1025.12 156.208L1025.6 160.579C1025.85 162.899 1026.1 165.218 1026.37 167.535C1026.44 168.14 1026.54 168.816 1026.64 169.537C1027.24 173.838 1028.07 179.735 1025.11 181.755V181.755ZM1039.62 113.584C1037.31 107.625 1034.59 103.992 1031.08 102.142C1026.62 99.8008 1026.29 99.8757 1022.29 100.799L1021.31 101.021C1015.39 102.358 1013.09 102.695 1010.42 103.088C1008.22 103.407 1005.73 103.772 1000.67 104.801C1000.61 104.815 1000.57 104.835 1000.54 104.848C999.833 104.968 999.122 105.12 998.414 105.303C993.314 106.621 988.346 109.532 984.046 113.723C978.504 119.124 975.154 127.373 975.087 135.793C975.051 139.904 975.838 143.326 977.634 146.88C977.991 147.585 978.427 148.28 978.849 148.952C979.496 149.981 980.165 151.047 980.57 152.187C980.968 153.306 981.224 154.617 981.474 155.887C981.586 156.464 981.698 157.029 981.82 157.571C982.873 162.238 983.812 167.313 984.692 173.088C984.849 174.129 984.997 175.205 985.147 176.296C985.734 180.551 986.339 184.953 987.711 188.629C988.925 191.883 991.086 193.285 994.513 193.035C995.98 192.927 997.567 192.646 999.507 192.145C1000.9 191.786 1002.29 191.36 1003.65 190.943C1004.51 190.684 1005.35 190.425 1006.18 190.186C1008.93 189.394 1011.69 188.678 1014.44 187.96L1016.5 187.42C1017.18 187.244 1017.88 187.084 1018.58 186.922C1019.3 186.759 1020.02 186.595 1020.74 186.409L1021.03 186.328C1021.12 186.336 1021.21 186.333 1021.32 186.303C1021.33 186.303 1021.33 186.303 1021.33 186.303C1022.12 186.072 1022.89 185.863 1023.65 185.668C1025.76 185.12 1027.75 184.686 1029.62 184.277C1031.29 183.917 1032.86 183.574 1034.35 183.188C1034.35 183.188 1034.35 183.188 1034.36 183.188C1035.06 183.007 1035.74 182.814 1036.41 182.608C1041.29 181.1 1043.84 178.825 1044.26 170.577C1044.48 166.1 1043.29 159.375 1042.49 154.928L1042.41 154.467C1041.8 151.051 1041.17 147.392 1040.63 143.764C1040.11 140.298 1040.43 137.632 1040.83 134.257L1040.93 133.416C1041.71 126.875 1042.08 119.943 1039.62 113.584Z" fill="#2E2D2D"/>
<path d="M1020.34 153.537C1020.9 158.163 1021.62 162.748 1022.36 167.322C1022.96 171.053 1024.48 175.622 1021.19 178.195C1019.53 179.495 1016.83 179.565 1014.96 180.03C1010.74 181.077 1006.51 182.048 1002.29 183.101C1000.16 183.632 997.933 184.643 995.792 184.936C991.707 185.497 993.274 185.587 992.277 183.06C990.169 177.716 989.639 169.705 988.734 163.789C988.191 160.242 987.955 156.577 987.237 153.09C986.389 148.977 984.661 146.471 982.507 143.475C976.27 132.375 985.219 120.76 991.826 115.977C997.856 111.612 1004.78 111.277 1011.44 112.55C1016.92 113.593 1021.4 118.498 1021.96 126.611C1022.17 129.636 1021.43 132.692 1020.86 135.556C1019.49 142.333 1019.48 146.463 1020.34 153.537ZM1023.69 129.95C1024.29 123.076 1021.66 114.93 1016.95 111.845C1011.88 108.528 1004.17 108.678 998.747 109.993C992.712 111.456 986.161 116.017 982.206 122.582C978.616 128.546 977.469 138.705 981.096 145.159C986.16 152.21 986.367 161.504 987.963 170.727C988.704 175.015 989.098 183.016 991.286 186.472C992.323 188.108 993.953 187.947 995.356 187.701C1000.03 186.875 1004.76 185.113 1009.42 183.992C1013.61 182.982 1023.11 183.374 1024.86 176.366C1025.9 172.232 1024.15 166.675 1023.52 162.641C1022.78 157.845 1022.12 153.031 1021.64 148.173C1020.98 141.612 1023.14 136.339 1023.69 129.95" fill="#2E2D2D"/>
<path d="M987.627 134.881C986.445 135.186 986.788 137.716 987.972 137.41C989.152 137.105 988.81 134.575 987.627 134.881Z" fill="#2E2D2D"/>
<path d="M991.762 125.455C990.579 125.761 990.922 128.288 992.106 127.983C993.286 127.678 992.944 125.15 991.762 125.455Z" fill="#2E2D2D"/>
<path d="M997.526 132.771C996.346 133.076 996.689 135.604 997.87 135.299C999.052 134.993 998.711 132.465 997.526 132.771Z" fill="#2E2D2D"/>
<path d="M1002.11 121.885C1000.93 122.19 1001.27 124.717 1002.46 124.411C1003.64 124.106 1003.29 121.58 1002.11 121.885Z" fill="#2E2D2D"/>
<path d="M1009.44 129.543C1009.41 129.552 1009.37 129.561 1009.34 129.57C1008.16 129.875 1008.5 132.405 1009.68 132.099C1009.72 132.09 1009.75 132.081 1009.79 132.072C1010.97 131.767 1010.63 129.237 1009.44 129.543Z" fill="#2E2D2D"/>
<path d="M1013.86 121.383C1012.68 121.688 1013.02 124.214 1014.2 123.908C1015.38 123.603 1015.04 121.077 1013.86 121.383Z" fill="#2E2D2D"/>
<path d="M992.969 148.658C991.789 148.963 992.131 151.491 993.313 151.185C994.494 150.88 994.153 148.352 992.969 148.658Z" fill="#2E2D2D"/>
<path d="M1003.92 143.508C1002.74 143.813 1003.08 146.343 1004.26 146.037C1005.44 145.732 1005.1 143.202 1003.92 143.508Z" fill="#2E2D2D"/>
<path d="M1013.6 141.754C1012.42 142.059 1012.76 144.585 1013.94 144.279C1015.12 143.974 1014.78 141.448 1013.6 141.754Z" fill="#2E2D2D"/>
<path d="M999.524 156.929C998.344 157.234 998.686 159.762 999.868 159.456C1001.05 159.151 1000.71 156.623 999.524 156.929Z" fill="#2E2D2D"/>
<path d="M1011.81 155.65C1010.63 155.955 1010.97 158.483 1012.15 158.177C1013.33 157.872 1012.99 155.344 1011.81 155.65Z" fill="#2E2D2D"/>
<path d="M994.83 169.459C993.649 169.764 993.992 172.292 995.174 171.986C996.355 171.681 996.014 169.153 994.83 169.459Z" fill="#2E2D2D"/>
<path d="M1005.46 167.14C1004.28 167.445 1004.62 169.973 1005.81 169.667C1006.99 169.362 1006.64 166.834 1005.46 167.14Z" fill="#2E2D2D"/>
<path d="M1017.24 165.291C1016.06 165.596 1016.4 168.124 1017.58 167.818C1018.77 167.512 1018.42 164.985 1017.24 165.291Z" fill="#2E2D2D"/>
<path d="M1000.36 178.393C1000.33 178.451 1000.3 178.508 1000.28 178.564C999.597 179.933 1001.14 181.385 1001.82 180.015C1001.85 179.959 1001.87 179.904 1001.9 179.844C1002.58 178.477 1001.04 177.025 1000.36 178.393Z" fill="#2E2D2D"/>
<path d="M1012.4 174.305C1012.36 174.313 1012.33 174.322 1012.29 174.332C1011.11 174.636 1011.46 177.162 1012.64 176.857C1012.67 176.847 1012.71 176.838 1012.74 176.83C1013.92 176.524 1013.58 173.999 1012.4 174.305Z" fill="#2E2D2D"/>
<path d="M266.079 621.175L266.097 620.487C266.115 619.907 266.121 619.326 266.127 618.745L266.129 618.558C266.16 615.805 266.102 612.851 265.951 609.522L265.839 606.923C265.586 600.825 265.324 594.523 264.085 588.639C264.005 588.258 263.921 587.852 263.827 587.435C264.027 587.257 264.256 587.118 264.51 587.023C265.765 586.551 267.463 587.163 268.827 587.653C269.256 587.808 269.652 587.951 269.998 588.047L270.608 588.216C272.356 588.696 274.164 589.194 275.747 590.377C278.245 592.241 279.429 594.758 279.475 598.289C279.509 601.05 278.897 604.117 278.355 606.82L278.167 607.775C277.307 612.148 276.206 616.41 275.243 620C274.923 621.184 274.603 622.368 274.28 623.55C274.165 623.963 274.063 624.417 273.958 624.881C273.754 625.768 273.546 626.687 273.244 627.411C272.85 628.358 272.323 628.944 271.633 629.204C270.843 629.501 269.952 629.34 269.107 629.152C268.795 629.08 268.471 629.025 268.14 628.968C267.124 628.796 266.075 628.62 265.241 627.984C265.956 625.929 266.02 623.404 266.079 621.175V621.175ZM225.832 647.869C225.659 647.48 225.496 647.116 225.345 646.792C222.96 641.675 222.014 636.73 222.371 631.234C222.642 627.065 223.084 622.721 224.465 619.149L225.062 620.178C228.553 626.244 231.859 631.121 235.17 635.088C236.1 636.202 237.05 637.26 237.994 638.236C236.035 640.781 234.71 643.521 233.831 646.843C233.727 647.24 233.621 647.765 233.504 648.348C233.072 650.515 232.48 653.481 231.023 654.029C231.023 654.029 231.023 654.029 231.022 654.03C230.601 654.172 230.122 654.093 229.601 653.797C228.09 652.937 226.785 650.006 225.832 647.869V647.869ZM243.166 638.48C241.364 639.159 239.628 636.975 238.233 635.219C237.951 634.866 237.68 634.526 237.423 634.221L236.654 633.302C233.594 629.63 230.728 625.635 228.134 621.429C227.872 621.005 227.582 620.559 227.282 620.097C226.027 618.167 224.603 615.979 224.147 613.696C223.638 611.146 224.897 608.514 226.334 606.052C228.251 602.763 231.541 598.934 234.564 597.796C235.218 597.55 235.843 597.436 236.427 597.459C236.421 600.609 237.493 604.114 238.441 607.213C238.731 608.162 239.009 609.069 239.24 609.916C240.825 615.728 242.329 620.817 243.839 625.481C243.949 625.817 244.056 626.167 244.165 626.528L244.393 627.275C245.103 629.638 245.908 632.309 247.102 634.189C246.12 636.21 244.704 637.787 243.297 638.424L243.166 638.48ZM248.798 633.039C247.633 631.516 246.868 628.982 246.194 626.747C246.057 626.292 245.924 625.85 245.746 625.289L245.663 625.03C244.338 620.99 243.01 616.558 241.488 611.081C240.905 608.984 240.337 606.877 239.789 604.765C239.66 604.267 239.51 603.74 239.353 603.193C238.71 600.949 237.982 598.408 238.295 596.257C238.973 591.603 242.95 587.663 249.793 584.857C250.009 584.769 250.223 584.687 250.44 584.605C253.031 583.63 255.372 583.26 257.601 583.474C259.109 583.622 260.411 583.748 261.36 585.654C261.545 586.022 261.713 586.476 261.868 586.979C261.862 587.29 261.943 587.605 262.077 587.804C262.301 588.754 262.468 589.768 262.614 590.666L262.71 591.239C263.791 597.704 264.009 604.641 264.22 611.351L264.249 612.272C264.325 614.641 264.353 616.719 264.334 618.624C264.316 620.394 264.265 621.849 264.173 623.193C263.91 627.035 262.477 629.305 259.231 631.027C258.233 631.558 256.725 632.359 255.118 632.964C252.206 634.06 250.073 634.077 248.798 633.039V633.039ZM282.4 635.608L282.291 635.215C282.18 634.823 282.077 634.428 281.974 634.034C281.655 632.821 281.327 631.567 280.782 630.452C279.561 627.952 277.697 627.024 275.721 626.254C276.068 625.004 276.354 623.679 276.633 622.398C276.74 621.9 276.846 621.413 276.952 620.943C277.07 620.415 277.19 619.909 277.316 619.435C278.354 615.508 279.528 610.836 280.37 605.96L280.458 605.449C280.61 604.567 280.769 603.654 280.906 602.725C284.477 604.961 286.799 611.912 287.494 616.09C288.477 622 288.187 627.722 286.633 633.098C286.573 633.306 286.507 633.56 286.437 633.839C286.156 634.916 285.774 636.395 285.236 636.961C284.821 637.401 284.447 637.684 284.126 637.805C284.025 637.843 283.927 637.868 283.835 637.874C283.028 637.934 282.695 636.7 282.4 635.608V635.608ZM281.209 600.212C281.407 597.919 281.312 596.01 280.917 594.382C280.058 590.829 277.435 588.694 275.949 587.739C273.948 586.449 271.678 585.874 269.486 585.32C269.041 585.209 268.6 585.096 268.066 584.953C266.721 584.591 265.197 584.183 263.881 584.679C263.635 584.771 263.401 584.893 263.183 585.044C262.781 583.862 262.317 583.011 261.764 582.449C260.379 581.036 258.259 580.975 256.711 580.931C254.578 580.87 252.309 581.283 249.966 582.165C248.066 582.88 246.105 583.908 244.134 585.215C241.262 587.125 237.648 590.366 236.673 595.013C235.854 594.972 234.988 595.124 234.095 595.46C230.454 596.83 227.023 600.941 225.026 604.332C223.657 606.655 222.369 609.186 222.209 611.931C222.116 613.554 222.457 615.144 223.286 616.935C221.624 620.584 220.718 625.604 220.517 632.273C220.321 638.825 221.847 644.721 225.467 651.398C227.684 655.485 229.647 657.14 231.469 656.454C232.067 656.229 232.649 655.746 233.199 655.011C234.262 653.588 234.661 651.675 235.045 649.824C235.176 649.202 235.305 648.579 235.459 647.973C236.282 644.751 237.583 642.102 239.443 639.68L239.567 639.799C240.84 640.999 242.303 641.337 243.798 640.774C245.553 640.114 247.335 638.2 248.577 635.644C250.733 636.763 253.612 635.804 255.72 635.103L255.905 635.042C256.464 634.856 257.078 634.648 257.717 634.408C259.682 633.669 262.475 632.416 264.173 630.041C265.294 630.987 266.637 631.217 267.939 631.442C268.305 631.502 268.674 631.568 269.039 631.646C270.401 631.939 271.498 631.921 272.393 631.584C273.217 631.274 273.877 630.686 274.356 629.837C274.563 629.474 274.76 629.051 274.962 628.552C277.165 629.42 278.931 630.366 279.946 633.602C280.122 634.169 280.269 634.775 280.417 635.388C280.774 636.866 281.143 638.394 281.967 639.474C282.835 640.61 283.707 641.018 284.561 640.697C284.563 640.696 284.563 640.696 284.563 640.696C285.971 640.166 287.3 637.677 288.509 633.288C290.223 627.068 290.351 620.035 288.867 613.482C287.729 608.457 284.854 602.188 281.209 600.212" fill="#2E2D2D"/>
<path d="M243.768 606.092C243.039 603.345 241.386 598.727 243.275 596.323C244.067 595.316 242.871 593.703 242.08 594.709C239.587 597.88 241.179 603.033 242.154 606.7C242.521 608.082 244.139 607.487 243.768 606.092" fill="#2E2D2D"/>
<path d="M244.651 591.591C244.619 591.602 244.588 591.614 244.558 591.625C243.519 592.016 243.959 594.239 244.999 593.847C245.029 593.836 245.06 593.824 245.091 593.813C246.13 593.422 245.691 591.199 244.651 591.591Z" fill="#2E2D2D"/>
<path d="M361.768 67.2754C361.748 69.787 361.691 72.297 361.61 74.8065C360.926 74.9994 360.241 75.1939 359.559 75.3875C358.979 72.3334 358.4 69.277 357.822 66.2221C357.641 65.2695 357.485 64.2339 357.325 63.1889C357.198 61.6393 356.927 59.2611 357.304 58.3914C357.696 57.4861 358.948 57.8301 359.589 57.9982C360.737 58.3024 361.379 58.5311 361.726 60.3402C362.113 62.3629 361.781 65.1893 361.768 67.2754ZM365.751 92.7958C366.942 102.547 368.79 114.382 367.541 124.286C366.48 132.685 357.34 133.232 352.44 135.03C346.123 137.35 340.024 140.407 333.528 141.734C331.458 142.158 329.436 143.222 327.519 140.978C326.398 139.665 325.544 136.521 324.83 134.755C323.193 130.712 321.711 126.554 320.331 122.333C318.79 117.621 317.389 112.825 316.076 107.985C315.567 106.109 311.986 95.8059 312.947 93.8108C326.533 88.0716 340.28 83.1996 354.172 79.0929C356.083 78.5272 357.995 77.9754 359.908 77.4324C362.495 76.699 362.99 75.8861 363.929 79.2938C365.051 83.3558 365.228 88.5021 365.751 92.7958ZM311.418 82.3212C311.022 81.2202 310.346 79.7198 310.135 78.5223C309.659 75.8108 310.646 75.1582 312.275 74.477C314.566 73.5203 314.909 74.7345 315.829 77.0205C316.333 78.2802 316.84 79.5377 317.346 80.7956C318.383 83.3783 319.422 85.9592 320.46 88.5419C318.613 89.2704 316.769 90.0182 314.928 90.7808C313.654 88.0403 312.466 85.2388 311.418 82.3212ZM320.661 84.1703C320.382 81.7203 319.92 79.3392 319.482 76.9366C319.052 74.5735 317.995 71.1115 320.691 71.1645C322.159 71.1922 322.268 71.7508 322.839 73.6024C323.242 74.9045 323.402 76.453 323.657 77.8332C324.204 80.7789 324.692 83.7414 325.154 86.7142C324.095 87.1157 323.041 87.5377 321.984 87.9481C321.537 86.8332 321.094 85.7154 320.649 84.5969C320.67 84.4652 320.68 84.3235 320.661 84.1703V84.1703ZM318.65 65.5032C318.533 64.3481 318.78 64.511 319.428 64.2373C319.946 64.0195 320.5 63.9031 321.028 63.7365C321.839 63.4826 322.739 63.3199 323.535 62.9667C323.543 63.0172 323.551 63.0707 323.557 63.1231C323.543 63.704 323.735 64.408 323.788 64.9874C323.789 64.9903 323.789 64.9903 323.789 64.9932C323.565 66.5737 324.471 68.5495 324.879 69.7902C326.534 74.8331 328.078 79.9281 329.449 85.129C328.513 85.4715 327.576 85.8155 326.64 86.1657C326.18 83.1925 325.691 80.23 325.145 77.2839C324.726 75.0296 324.535 71.3896 323.496 69.5885C322.689 68.1925 320.803 68.5088 319.255 69.2274C319.001 68.0038 318.778 66.7654 318.65 65.5032ZM331.281 65.3197C331.315 65.4156 331.361 65.4756 331.404 65.5458C331.388 65.7792 331.381 66.0296 331.388 66.3153C331.564 72.141 332.411 77.9511 332.567 83.817C332.569 83.8823 332.589 83.9297 332.597 83.9894C332.043 84.1878 331.489 84.381 330.935 84.5809C329.654 79.7211 328.234 74.9476 326.702 70.2278C326.407 69.3248 325.313 66.8886 325.387 66.0865C325.477 65.0857 326.077 65.0225 326.803 64.5321C328.99 63.0538 330.091 61.7819 331.281 65.3197ZM336.501 54.426C337.216 55.5548 337.75 57.0722 338.234 58.4367C337.882 58.5463 337.545 58.6408 337.229 58.7007C336.928 58.7569 336.626 59.2997 336.659 59.7175C336.746 60.8553 336.788 61.3118 336.928 62.2228C336.127 62.4277 335.293 62.8137 334.635 62.9623C333.743 63.1645 332.961 63.2227 332.386 63.5414C332.072 62.5249 331.723 61.3913 331.159 60.7102C331.143 60.6173 331.136 60.5274 331.099 60.4327C330.778 59.5899 330.536 58.7305 330.326 57.8402C331.521 56.8266 332.773 56.2189 334.137 55.6247C334.91 55.2878 335.704 54.7392 336.501 54.426V54.426ZM333.578 73.0666C333.466 71.6336 333.333 70.2039 333.195 68.7744C333.128 68.073 332.726 66.4067 332.914 65.7758C333.06 65.294 333.046 65.6724 333.585 65.2961C334.161 64.8922 336.041 64.5293 336.704 64.5812C338.52 64.7236 338.18 67.0869 338.268 69.1107C338.45 73.2996 338.633 77.4917 338.815 81.6824C338.818 81.7364 338.835 81.7738 338.843 81.8244C337.257 82.3594 335.675 82.9116 334.094 83.4671C333.997 79.9928 333.846 76.5245 333.578 73.0666V73.0666ZM343.353 65.4759C344.019 70.1846 344.686 74.7704 344.943 79.5749C344.948 79.6593 344.973 79.7238 344.989 79.798C343.436 80.2974 341.888 80.812 340.34 81.3285C340.206 78.2461 340.071 75.1654 339.937 72.083C339.831 69.6315 340.151 66.016 339.558 63.6663C339.347 62.8345 338.969 62.4077 338.504 62.2172C338.2 60.3626 340.967 59.335 342 59.9233C343.244 60.6342 343.141 63.961 343.353 65.4759V65.4759ZM347.258 55.353C347.857 55.2212 349.066 54.5556 349.481 55.1241C349.873 55.6614 349.74 56.8117 349.717 57.5148C349.716 57.5402 349.725 57.5572 349.725 57.5807C348.998 58.097 348.728 58.9822 348.981 60.9702C349.14 62.2225 349.325 63.4716 349.518 64.7209C349.515 64.7533 349.502 64.7786 349.5 64.8121C349.293 69.3223 349.723 73.8262 349.647 78.3349C348.585 78.6623 347.525 78.9985 346.467 79.3342C346.12 73.0025 345.453 66.293 344.421 60.1355C344.242 59.0707 343.886 58.4101 343.421 58.0127C343.42 57.98 343.428 57.9534 343.425 57.92C343.368 57.3187 343.205 56.5379 343.177 55.8488C344.487 55.5319 345.954 55.6426 347.258 55.353V55.353ZM351.928 77.6342C351.681 77.7098 351.433 77.7809 351.185 77.8565C351.198 76.4969 351.178 75.1382 351.136 73.7799C351.393 75.07 351.66 76.3547 351.928 77.6342ZM354.825 58.8119C355.358 59.4294 355.633 62.4487 355.838 64.0167C355.838 64.0416 355.84 64.0725 355.841 64.0971C355.844 64.2686 355.872 64.4197 355.917 64.5473C355.923 64.5828 355.929 64.6371 355.935 64.6678C356.639 68.3852 357.344 72.1009 358.048 75.8183C356.509 76.2637 354.973 76.7222 353.438 77.1836C352.738 73.835 352.096 70.463 351.519 67.0689C351.221 65.3127 350.831 63.5025 350.659 61.7122C350.42 59.2065 350.573 59.2643 352.373 58.8386C353.32 58.6145 354.338 58.2452 354.825 58.8119V58.8119ZM361.704 56.0965C360.508 55.7049 357.455 54.9213 356.354 56.1433C356.141 56.38 355.986 56.7085 355.872 57.0911C354.971 55.6499 353.458 56.4308 351.974 56.79C351.724 56.8495 351.496 56.9055 351.273 56.9624C351.317 55.1693 351.242 52.8164 349.672 52.6462C348.531 52.5246 347.222 53.2505 346.085 53.4569C344.848 53.6844 343.454 53.4947 342.256 53.9274C342.01 54.0151 341.761 54.3137 341.712 54.6705C341.585 55.5862 341.709 56.5663 341.827 57.5124C341.18 57.5299 340.473 57.7091 339.767 57.932C339.085 56.0524 338.039 51.6693 336.149 52.3746C333.753 53.2679 331.05 54.4788 329.014 56.4643C328.736 56.736 328.564 57.1777 328.66 57.6535C328.847 58.5818 329.09 59.4426 329.365 60.2946C328.375 60.7556 327.187 61.9186 326.531 62.3582C326.205 62.5789 325.688 62.8198 325.195 63.1178C325.101 62.1675 324.914 61.2205 324.425 60.8629C324.068 60.6011 323.637 60.7661 323.263 60.8652C322.381 61.1043 321.505 61.4149 320.63 61.6894C319.551 62.0264 317.743 62.0565 317.197 63.646C316.608 65.3595 317.446 68.361 317.82 70.072C317.697 70.1631 317.581 70.2528 317.479 70.339C317.273 70.5186 317.068 70.8861 317.099 71.2477C317.314 73.6793 317.74 76.0488 318.169 78.42C317.5 76.7522 316.835 75.0809 316.145 73.4316C314.808 70.2314 313.792 71.2023 311.494 72.6478C309.266 74.0488 307.311 74.5317 308.331 78.0478C309.687 82.7214 311.446 87.1629 313.401 91.4099C313.026 91.5671 312.65 91.714 312.275 91.8726C312.254 91.8819 312.243 91.9001 312.225 91.9097C312.193 91.9248 312.162 91.9597 312.131 91.9806C312.073 92.0239 312.012 92.0606 311.969 92.1174C311.954 92.1321 311.94 92.1342 311.926 92.1518C310.75 93.6431 311.182 94.688 311.551 96.6707C312.295 100.685 313.534 104.652 314.588 108.534C316.657 116.159 318.938 123.697 321.62 130.955C323.219 135.285 325.376 144.506 329.554 144.843C331.887 145.033 335.05 143.618 337.368 142.979C340.519 142.111 343.596 140.863 346.665 139.572C351.718 137.45 356.99 136.17 361.987 133.851C365.254 132.333 368.282 130.417 369 125.394C370.044 118.1 368.967 109.353 368.301 102.077C367.465 92.949 366.165 83.9187 364.865 74.8994C364.78 74.3127 364.307 74.0432 363.922 74.151C363.667 74.2216 363.415 74.2958 363.16 74.3664C363.296 69.9294 363.35 65.49 363.279 61.0483C363.242 58.7283 363.553 56.7019 361.704 56.0965" fill="#2E2D2D"/>
<path d="M357.195 109.864C356.128 115.527 352.906 117.864 349.095 119.396C343.445 121.669 333.776 125.789 330.187 116.844C328.353 112.27 328.859 106.743 331.2 102.62C333.497 98.5735 337.029 97.4929 340.423 96.0506C345.095 94.079 349.514 93.5008 354.013 96.7853C357.667 99.4533 358.164 104.71 357.195 109.864V109.864ZM340.025 94.0021C336.293 95.5878 332.356 96.8946 329.879 101.403C327.753 105.272 326.954 110.606 327.864 115.306C330.376 128.286 342.88 124.104 349.493 121.444C353.052 120.015 356.483 117.81 358.058 112.903C359.268 109.135 359.946 103.256 358.513 99.4785C355.19 90.7129 345.674 91.6179 340.025 94.0021" fill="#2E2D2D"/>
<path d="M332.835 110.359C332.701 109.011 331.216 109.572 331.347 110.908C331.68 114.278 332.611 117.325 334.707 119.279C335.529 120.045 336.295 118.203 335.477 117.442C333.733 115.816 333.106 113.11 332.835 110.359Z" fill="#2E2D2D"/>
<path d="M332.242 107.483C333.2 107.13 332.802 105.081 331.844 105.435C330.886 105.788 331.283 107.837 332.242 107.483Z" fill="#2E2D2D"/>
<path d="M997.421 433.311C995.938 434.558 993.38 434.978 991.673 435.109C991.554 435.118 991.451 435.166 991.355 435.223C990.448 432.201 988.337 429.751 985.836 428.148C982.532 426.03 978.917 425.624 975.42 424.427C972.286 423.353 969.22 421.785 966.233 420.106C959.468 416.307 952.589 410.696 945.448 408.441C942.522 407.519 939.471 407.813 937.255 409.845C937.228 409.823 937.212 409.79 937.183 409.772C931.927 406.298 932.434 396.072 938.854 396.573C940.986 396.74 943.311 398.298 945.259 399.383C952.221 403.254 959.033 407.566 966.093 411.112C974.041 415.104 982.215 417.769 990.358 420.839C992.762 421.745 996.083 422.545 998.074 424.763C1000.13 427.056 999.548 431.52 997.421 433.311ZM989.225 442.231C983.613 455.171 966.173 446.778 958.242 443.042C951.085 439.347 935.671 431.732 935.779 418.815C935.933 400.251 959.911 419.153 965.645 422.375C969.152 424.345 972.744 426.093 976.449 427.195C981.119 428.585 993.855 431.55 989.225 442.231V442.231ZM959.864 399.048C963.034 401.349 966.257 403.472 969.592 405.282C973.366 407.329 977.237 409.015 981.178 410.328C984.201 411.333 993.55 412.094 992.775 418.762C992.764 418.866 992.78 418.948 992.784 419.04C990.375 418.114 987.882 417.463 985.683 416.684C978.486 414.137 971.385 411.306 964.425 407.689C958.725 404.724 953.16 401.334 947.544 398.084C946.043 397.215 944.373 396.128 942.667 395.301C945.697 387.387 956.589 396.673 959.864 399.048V399.048ZM1000.98 431.926C1002.03 428.428 1001.03 424.597 998.837 422.566C997.48 421.31 995.901 420.385 994.24 419.638C994.375 419.465 994.483 419.245 994.519 418.939C995.216 412.936 990.93 411.026 987.442 409.806C980.792 407.48 974.275 405.484 967.927 401.747C962.402 398.495 945.51 381.542 940.982 394.6C940.055 394.278 939.129 394.069 938.225 394.08C935.766 394.11 932.582 396.947 931.653 400.225C930.313 404.958 933.12 409.321 935.877 411.51C935.156 412.666 934.607 414.125 934.297 415.927C931.53 431.988 949.455 441.077 957.655 445.31C966.153 449.314 985.012 458.028 990.867 443.272C991.681 441.221 991.939 439.281 991.784 437.49C994.839 437.229 999.684 436.294 1000.98 431.926" fill="#2E2D2D"/>
<path d="M990.202 423.484C988.944 422.99 987.49 423.894 986.225 423.542C983.804 422.872 983.11 419.905 981.117 418.541C979.246 417.258 977.159 418.18 975.155 418.426C972.403 418.763 972.394 417.358 970.596 415.192C969.89 414.343 969.609 414.002 968.769 413.724C967.762 413.392 966.443 413.831 965.426 413.932C962.786 414.195 962.003 413.332 960.254 410.74C958.854 408.667 958.505 407.744 956.409 407.674C954.571 407.611 952.783 408.487 951.091 407.055C949.727 405.9 949.034 403.261 947.677 402.185C945.759 400.67 943.196 402.438 941.23 402.962C940.126 403.254 940.445 405.623 941.554 405.327C942.711 405.021 944.086 404.122 945.256 404.145C947.238 404.188 947.997 406.379 949.281 408.012C950.972 410.167 952.055 410.376 954.371 410.246C957.775 410.059 957.819 411.032 960.176 414.091C961.521 415.838 962.255 416.47 964.085 416.484C965.233 416.492 966.832 415.662 967.913 416.091C969.404 416.681 969.917 419.502 971.166 420.384C972.645 421.428 974.383 420.94 975.97 420.711C977.506 420.492 979.163 419.796 980.588 420.854C981.84 421.787 982.532 423.973 983.774 425.01C985.413 426.381 991.148 424.714 991.118 428.477C991.106 430.017 992.85 430.209 992.862 428.654C992.884 426.021 992.083 424.218 990.202 423.484" fill="#2E2D2D"/>
<path d="M946.936 430.181C945.275 429.648 943.481 427.417 942.331 425.742C940.84 423.567 940.266 421.162 939.944 418.259C939.775 416.728 938.056 417.172 938.226 418.706C938.593 422.018 939.303 424.811 940.994 427.293C942.372 429.312 944.348 431.807 946.349 432.45C947.432 432.796 948.032 430.532 946.936 430.181" fill="#2E2D2D"/>
<path d="M950.317 432.414C949.257 431.894 948.669 434.16 949.73 434.681C950.79 435.201 951.378 432.936 950.317 432.414Z" fill="#2E2D2D"/>
<path d="M1178.06 553.063C1178.13 552.82 1178.21 552.577 1178.29 552.364C1179.09 555.263 1179.87 558.356 1180.11 561.579C1180.53 567.225 1179.92 570.283 1178.31 570.673C1178.16 570.708 1178.02 570.723 1177.88 570.723C1174.72 570.724 1173.35 561.702 1172.69 557.367L1172.57 556.551C1172.68 556.572 1172.79 556.597 1172.9 556.621C1173.31 556.706 1173.73 556.796 1174.16 556.796C1174.55 556.796 1174.9 556.726 1175.24 556.579C1176.1 556.206 1176.95 555.358 1177.63 554.181C1177.8 553.898 1177.93 553.473 1178.06 553.063V553.063ZM1164.02 571.492C1164.56 574.823 1165.08 578.627 1164.44 581.6C1164.1 583.173 1163.57 583.97 1162.87 583.97C1161.38 583.97 1159.47 580.584 1158.82 578.859C1157.89 576.394 1157.36 573.629 1156.84 570.954L1156.56 569.5C1156.72 569.495 1156.89 569.49 1157.05 569.489C1157.9 569.475 1158.7 569.465 1159.6 568.974C1160.48 568.488 1161.22 567.738 1161.78 566.749C1162.07 566.223 1162.23 565.58 1162.38 564.955C1162.46 564.607 1162.55 564.272 1162.65 563.971C1163.18 566.302 1163.57 568.731 1163.96 571.084L1164.02 571.492ZM1147.12 597.086C1147.67 597.086 1148.16 596.888 1148.59 596.498C1150.51 594.728 1150.31 590.378 1150.21 588.287C1150.01 584.23 1149.16 580.418 1148.14 576.219C1148.55 575.701 1149.16 575.225 1149.7 574.802C1150.01 574.553 1150.31 574.317 1150.56 574.09C1151.76 572.965 1154.42 570.488 1154.42 570.488C1154.6 570.315 1154.76 570.168 1154.91 570.043C1155.01 570.556 1155.11 571.073 1155.21 571.592C1155.95 575.366 1156.71 579.269 1158.46 582.451C1159.94 585.138 1161.36 586.497 1162.67 586.497C1163.24 586.497 1163.79 586.244 1164.31 585.742C1166.75 583.389 1166.43 578.426 1166.24 575.463C1165.99 571.492 1165.2 566.799 1164.02 562.232C1164.19 562.104 1164.36 561.98 1164.52 561.861C1164.77 561.681 1165.01 561.506 1165.21 561.339L1165.71 560.911C1166.66 560.107 1167.6 559.307 1168.55 558.516C1168.75 558.346 1168.97 558.155 1169.18 557.955C1169.73 557.462 1170.29 556.956 1170.85 556.671C1170.92 557.087 1171 557.552 1171.08 558.055C1171.92 563.32 1173.49 573.118 1177.96 573.118C1178.33 573.118 1178.72 573.05 1179.11 572.916C1181.36 572.155 1181.69 567.68 1181.8 566.211C1182.19 560.91 1181.08 555.913 1179.78 551.223L1180.05 551.125C1180.32 551.025 1180.56 550.933 1180.74 550.848C1183.71 549.391 1186.61 548.648 1189.36 548.648C1189.83 548.648 1190.3 548.67 1190.77 548.716C1192.85 548.918 1194.62 549.579 1196.01 550.683C1198.28 552.492 1198.99 555.497 1199.39 558.181C1199.6 560.92 1198.9 564.36 1197.3 568.406C1195.68 572.522 1192.99 575.483 1190.39 578.341L1189.67 579.134C1184.05 585.348 1177.88 591.174 1170.8 596.94C1166.05 600.81 1160.4 605.262 1154.56 608.943C1151.71 610.737 1148.55 612.208 1145.18 613.312C1143.26 613.938 1141.23 614.549 1139.27 614.549C1138.15 614.549 1137.17 614.356 1136.27 613.956C1132.23 612.168 1131.08 605.962 1132.04 600.752C1132.98 595.644 1135.55 591.618 1138.09 587.936C1138.27 587.673 1138.47 587.351 1138.69 587.01C1139.02 586.472 1139.4 585.874 1139.76 585.408C1140.51 588.537 1141.38 591.75 1142.88 594.038C1143.85 595.506 1145.58 597.086 1147.12 597.086V597.086ZM1148.52 591.119C1148.43 592.916 1147.59 594.17 1146.49 594.17C1146.09 594.17 1145.67 594.007 1145.24 593.679C1144.41 593.054 1143.96 592.173 1143.45 591.087C1142.46 588.955 1141.82 586.522 1141.3 584.385C1141.5 584.342 1141.7 584.31 1141.91 584.277C1142.46 584.192 1143.04 584.102 1143.58 583.775C1144.6 583.166 1145.54 582.167 1146.31 580.882C1146.64 580.321 1146.86 579.658 1147.04 579.06C1147.89 582.715 1148.74 586.915 1148.52 591.119ZM1201.06 557.88L1201.04 557.705C1200.36 552.95 1198.91 550.039 1196.32 548.268C1194.42 546.974 1192.13 546.316 1189.49 546.316C1188.91 546.316 1188.34 546.348 1187.78 546.406C1184.79 546.703 1181.71 547.752 1178.37 549.612C1177.33 550.195 1177.23 550.48 1176.96 551.239C1176.86 551.506 1176.74 551.836 1176.55 552.27C1175.94 553.633 1174.94 554.397 1173.57 554.484C1173.21 554.484 1172.83 554.331 1172.47 554.181C1172.1 554.029 1171.72 553.873 1171.35 553.873C1171.3 553.873 1171.26 553.876 1171.21 553.881C1170.62 553.951 1169.97 554.539 1169.4 555.06C1169.23 555.223 1169.06 555.375 1168.9 555.5C1167.74 556.441 1166.6 557.412 1165.45 558.385L1165.08 558.703C1164.76 558.974 1164.41 559.234 1164.04 559.502C1163.31 560.042 1162.55 560.601 1161.98 561.306C1161.5 561.909 1161.31 562.662 1161.13 563.394C1160.99 563.944 1160.84 564.514 1160.58 565.042C1159.59 566.982 1158.22 567.137 1156.54 567.137H1155.85C1154.98 567.142 1154.64 567.467 1153.95 568.108L1150.2 571.599C1149.86 571.925 1149.47 572.248 1149.06 572.58C1148.18 573.306 1147.27 574.06 1146.62 574.991C1146.17 575.643 1145.96 576.469 1145.74 577.267C1145.55 578.013 1145.34 578.787 1144.94 579.442C1144.18 580.701 1143.36 581.492 1142.35 581.923C1142.01 582.073 1141.6 582.073 1141.2 582.073C1140.78 582.077 1140.39 582.077 1140.05 582.237C1139.29 582.606 1138.58 583.729 1137.95 584.716C1137.76 585.025 1137.57 585.316 1137.4 585.559C1135.82 587.801 1134.61 589.696 1133.6 591.527C1131.52 595.278 1129.51 601.3 1130.11 606.94C1130.44 610.12 1131.56 612.694 1133.45 614.587C1135.01 616.163 1137.03 616.961 1139.46 616.963C1143.19 616.963 1147.21 615.124 1150.15 613.785C1156.12 611.059 1161.74 606.708 1167.18 602.499L1167.69 602.105C1176.17 595.541 1183.52 588.82 1190.16 581.562L1190.92 580.729C1193.96 577.433 1197.09 574.021 1198.94 569.154C1200.64 564.644 1201.34 560.989 1201.06 557.88" fill="#2E2D2D"/>
</svg>
