<svg width="1280" height="761" viewBox="0 0 1280 761" fill="none" xmlns="http://www.w3.org/2000/svg">
<path d="M1227.89 706.705C1231.22 705.375 1235.36 705.534 1238.78 705.84C1240.57 705.935 1242.95 706.505 1244.19 708.429C1245.72 710.77 1244.37 712.53 1242.72 713.526C1240.57 710.898 1236.72 711.041 1233.95 711.112C1230.97 711.19 1227.89 711.55 1225.53 714.069C1224.7 713.608 1224.05 712.929 1223.89 711.897C1223.4 708.813 1226.15 707.402 1227.89 706.705V706.705ZM1230.1 715.138C1229.5 715.062 1228.57 714.985 1227.61 714.785C1230.84 712.637 1237.74 712.009 1240.85 714.318C1237.32 715.316 1233.69 715.588 1230.1 715.138V715.138ZM1230.1 717.221C1233.9 717.683 1237.74 717.366 1241.46 716.285C1243.41 715.718 1246.51 715.003 1247.16 712.023C1248.33 706.743 1241.64 703.908 1238.78 703.755C1234.57 703.38 1224.6 702.679 1222.22 709.181C1220.08 715.052 1227.27 716.879 1230.1 717.221" fill="#2E2D2D"/>
<path d="M1251.84 743.633C1247.09 745.985 1241.88 747.033 1234.95 747.033C1234.5 747.033 1234.05 747.03 1233.59 747.023C1223.54 746.74 1209.94 744.953 1205.16 733.327C1206.06 733.928 1207.08 734.015 1208.15 733.204C1208.86 732.669 1209.29 731.32 1209.95 730.902C1212.69 729.152 1212.51 731.527 1212.87 733.463C1213.23 735.418 1213.56 737.951 1214.61 739.544C1217.53 743.96 1218.2 737.011 1220.23 736.771C1221.54 736.615 1222.41 738.633 1223.88 738.67C1226.4 738.735 1227.13 735.312 1229.1 734.234C1232.68 732.282 1234.68 741.694 1238.15 742.032C1242.85 742.494 1241.92 732.367 1245.44 732.266C1248.41 732.182 1250.86 736.195 1253.5 733.177C1254.07 732.528 1254.63 730.4 1255.25 730.211C1256.76 729.755 1257.01 731.926 1257.58 733.107C1258.05 734.078 1258.71 735.713 1259.78 735.668C1260.79 735.625 1261.2 734.353 1261.58 733.366C1262.03 732.202 1262.7 726.192 1263.57 725.889C1264.67 725.501 1265.5 728.091 1266.84 727.513C1266.41 729.514 1265.76 731.296 1264.91 732.832C1261.84 738.378 1257.37 740.905 1251.84 743.633V743.633ZM1204.5 710.689C1206.6 704.239 1211.2 699.403 1217.45 697.068C1222.93 695.024 1228.73 694.739 1235.2 694.599C1235.47 694.595 1235.74 694.591 1236.01 694.591C1241.64 694.591 1247.11 695.831 1253.21 698.495C1257.28 700.268 1264.41 704.473 1266.47 712.719C1267.04 715.025 1267.39 717.562 1267.47 720.034C1267.49 720.302 1267.49 720.586 1267.5 720.865C1267.48 720.92 1267.46 720.966 1267.46 721.026C1267.39 721.742 1266.95 725.004 1266.4 725.269C1265.51 725.71 1264.79 723.902 1263.91 723.908C1263.05 723.916 1262.95 723.816 1262.29 724.644C1261.52 725.607 1261.29 727.838 1260.99 729.066C1260.46 731.255 1260.32 734.313 1258.79 731.623C1257.71 729.706 1257.11 726.143 1254.79 727.902C1253.43 728.936 1252.95 732.017 1251.3 732.299C1249.94 732.529 1247.59 730.783 1246.27 730.385C1243.78 729.636 1242.57 729.441 1241.7 732.775C1240.79 736.27 1239.63 742.077 1236.26 737.964C1234.9 736.299 1233.77 734.148 1232.21 732.766C1229.9 730.71 1228.41 732.287 1226.5 734.452C1224.82 736.368 1223.98 736.131 1221.87 734.9C1221.43 734.641 1221.18 734.041 1220.65 733.895C1219.72 733.639 1219.18 734.018 1218.52 734.821C1217.49 736.084 1217.96 737.732 1216.4 737.642C1215.02 737.565 1214.91 735.442 1214.61 733.914C1214.3 732.383 1214.26 730.412 1213.54 729.081C1212.89 727.875 1211.66 727.047 1210.51 727.453C1209.64 727.762 1209.44 728.792 1208.81 729.429C1206.57 731.675 1204.35 730.887 1203.51 727.127C1203.5 727.101 1203.49 727.084 1203.48 727.057C1203.41 726.612 1203.32 726.176 1203.26 725.722L1203.08 724.065C1202.68 719.361 1203.17 714.742 1204.5 710.689V710.689ZM1269.07 721.026C1269.08 720.851 1269.07 720.704 1269.03 720.576C1269.01 719.389 1268.96 718.183 1268.84 716.94C1268.11 709.952 1265.14 704.278 1259.99 700.073C1257.27 697.853 1254.11 696.607 1251.05 695.404L1250.44 695.164C1246.76 693.709 1243.6 692.905 1240.49 692.64C1238.5 692.467 1236.49 692.381 1234.52 692.381C1229.08 692.381 1224 693.015 1219.43 694.269C1214.78 695.543 1208.45 698.579 1204.69 705.814C1201.79 711.398 1200.7 718.865 1201.69 726.304C1202.87 735.147 1206.73 741.283 1213.16 744.541C1218.79 747.395 1225.46 748.893 1233.53 749.124C1234.04 749.131 1234.55 749.137 1235.06 749.137C1239.6 749.137 1245.54 748.793 1251.31 746.119C1255.96 743.963 1261.23 741.521 1264.85 736.28C1267.57 732.331 1268.98 727.244 1269.03 721.414C1269.04 721.285 1269.06 721.143 1269.07 721.026" fill="#2E2D2D"/>
<path d="M1216.53 721.42C1217.52 721.803 1217.95 719.793 1216.95 719.412C1213.67 718.149 1210.56 715.752 1209.39 711.358C1209.06 710.097 1207.5 710.639 1207.84 711.913C1209.2 717.031 1212.66 719.936 1216.53 721.42Z" fill="#2E2D2D"/>
<path d="M1220.06 722.448C1221.09 722.448 1221.09 720.362 1220.06 720.362C1219.02 720.362 1219.02 722.448 1220.06 722.448Z" fill="#2E2D2D"/>
<path d="M1248.6 448.598C1241.04 445.603 1250.87 430.213 1251.38 424.763C1252.06 417.417 1247.04 413.302 1246.1 406.651C1245.53 402.673 1246.91 399.14 1248.28 395.57C1249.58 392.213 1250.87 388.821 1250.55 384.996C1249.97 378.059 1244.64 373.079 1244.53 366.125C1244.47 362.436 1245.99 359.45 1247.51 356.415C1249.07 353.309 1250.63 350.154 1250.49 346.142C1250.24 338.713 1245.99 332.463 1245.86 325.047C1245.8 321.565 1247.05 318.508 1248.31 315.472C1249.78 311.885 1251.26 308.326 1250.58 304.126C1249.87 299.795 1247.58 296.757 1244.08 297.621C1243.34 297.805 1243.51 299.359 1244.26 299.328C1247.96 299.171 1248.69 304.929 1248.14 308.189C1247.77 310.395 1246.67 312.49 1245.88 314.459C1244.71 317.356 1243.59 320.194 1243.43 323.518C1243.12 330.152 1246.14 335.902 1247.45 342.071C1248.55 347.227 1247.76 351.13 1245.53 355.466C1244.11 358.228 1242.5 360.876 1242.1 364.253C1241.41 370.087 1244.36 374.829 1246.28 379.715C1249.88 388.886 1244.74 393.585 1243.39 402.094C1242.34 408.786 1245.8 413.18 1247.74 418.88C1250.61 427.339 1243.8 433.122 1243.08 441.082C1242.64 445.963 1243.99 450.73 1247.83 452.221C1249.62 452.919 1250.38 449.303 1248.6 448.598" fill="black"/>
<path d="M1267.31 106.388C1262.58 106.475 1257.85 106.432 1253.11 106.311C1253.58 104.092 1253.11 100.91 1253.12 98.7206C1253.2 88.001 1253.17 77.278 1253.08 66.5566C1253.02 58.9763 1253.86 49.9219 1252.57 42.4473C1255.15 42.6589 1257.66 42.4593 1260.27 42.3381C1263.3 42.1965 1266.96 41.6608 1269.98 42.1351C1270.17 43.6911 1270.09 45.5201 1270.14 46.9856C1270.29 51.4881 1270.39 55.9923 1270.44 60.4999C1270.57 71.1086 1270.24 81.7071 1270.37 92.3175C1270.41 95.4039 1270.45 98.4903 1270.48 101.575C1270.5 105.733 1270.53 106.328 1267.31 106.388V106.388ZM1250.1 106.458C1247.76 106.12 1245.21 106.507 1242.86 106.497C1237.02 106.472 1231.19 106.386 1225.35 106.361C1222.75 106.352 1223.42 104.957 1223.35 101.8C1223.3 99.1028 1223.26 96.4054 1223.23 93.708C1232.58 94.3717 1241.94 93.0972 1251.29 93.5852C1251.28 94.8648 1251.29 96.1427 1251.28 97.4206C1251.27 100.254 1251.59 103.626 1251.2 106.468C1250.82 106.514 1250.37 106.497 1250.1 106.458V106.458ZM1229.89 29.8783C1230.68 28.4178 1231.48 26.408 1232.5 25.183C1233.61 23.8488 1232.8 24.4852 1234.35 24.1184C1237.57 23.354 1241.31 23.9614 1244.59 23.8335C1249.41 23.6458 1254.19 23.1323 1259.01 23.5093C1256.16 28.7608 1253.72 34.4439 1250.99 39.8046C1250.59 39.692 1250.11 39.6305 1249.48 39.5469C1244.41 38.8747 1239.09 38.4977 1234.01 39.0351C1230.98 39.1903 1227.95 39.3456 1224.92 39.5009C1226.51 36.237 1228.18 33.0346 1229.89 29.8783V29.8783ZM1233.83 13.0064C1234.83 10.9573 1237.04 11.5579 1238.78 11.4879C1242.6 11.3344 1246.42 10.8874 1250.24 10.9249C1252 10.942 1258.13 10.0206 1259.56 11.5613C1259.35 11.3446 1259.51 13.9737 1259.55 15.3779C1259.61 17.316 1259.66 19.2525 1259.72 21.1907C1254.1 20.6396 1248.49 21.3306 1242.86 21.5029C1240.43 21.578 1236.2 20.6839 1233.52 21.5199C1233.41 18.7731 1233.12 14.4463 1233.83 13.0064V13.0064ZM1223.2 91.3177C1223.14 84.4454 1223.15 77.5697 1223.24 70.6974C1223.28 67.611 1223.34 64.523 1223.41 61.4349C1232.54 61.8768 1242.12 62.5336 1251.21 61.4553C1251.28 67.739 1251.29 74.0261 1251.3 80.3064C1251.31 83.937 1251.3 87.5677 1251.29 91.1966C1241.93 90.7086 1232.56 91.9882 1223.2 91.3177V91.3177ZM1234.01 41.4237C1238.98 40.8982 1244.17 41.2599 1249.12 41.8929C1249.43 41.9321 1250.26 42.176 1250.66 42.1624C1250.67 42.2443 1250.69 42.3296 1250.71 42.4115C1251.01 43.7184 1250.87 45.4314 1250.92 46.7792C1251.05 50.8705 1251.12 54.9703 1251.18 59.0702C1242.11 60.1416 1232.57 59.4916 1223.48 59.0497C1223.54 56.4086 1223.62 53.7658 1223.71 51.1247C1223.79 48.6901 1223.19 43.3123 1224.99 41.8843C1226.54 40.6576 1232.29 41.5124 1234.01 41.4237V41.4237ZM1269.35 39.7022C1266.73 39.5043 1264 39.9462 1261.39 39.9308C1258.57 39.9137 1255.84 40.2362 1253.04 40.0809C1255.64 34.8841 1258.01 29.4381 1260.77 24.3999C1262.63 27.0888 1264.23 30.0745 1265.8 33.038C1266.86 35.041 1268.44 37.3767 1269.35 39.7022V39.7022ZM1272.01 47.6135C1271.88 43.7986 1272.04 41.0722 1270.48 37.88C1267.8 32.4204 1265.04 26.7339 1261.6 22.0045C1261.59 18.9573 1262.33 12.3427 1261.1 10.1998C1260.05 8.37935 1257.17 8.88776 1255.61 8.77515C1251.44 8.47317 1247.38 8.67109 1243.22 8.92019C1239.98 9.11469 1235.49 8.16438 1232.47 10.0343C1232.18 10.2134 1232.02 10.6689 1232.01 11.0648C1231.95 14.9326 1231.79 18.7953 1231.72 22.6614C1230.81 23.7021 1230.16 25.2768 1229.47 26.5257C1227.01 30.9787 1224.59 35.5017 1222.39 40.1799C1222.37 40.2208 1222.37 40.2601 1222.36 40.301C1222.35 40.3198 1222.35 40.342 1222.34 40.3608C1222.29 40.5041 1222.27 40.644 1222.27 40.7787C1222.27 40.7805 1222.27 40.7822 1222.27 40.7822C1221.3 63.0233 1221.07 85.2882 1221.64 107.552C1221.66 108.196 1222.05 108.746 1222.56 108.746C1227.84 108.742 1233.12 108.814 1238.4 108.857C1242.44 108.889 1247.09 109.698 1251.1 108.807C1251.32 108.758 1251.51 108.679 1251.69 108.585C1251.79 108.633 1251.89 108.676 1252.02 108.679C1258.48 108.864 1264.94 108.853 1271.41 108.679C1271.91 108.666 1272.33 108.144 1272.33 107.485C1272.4 87.5659 1272.64 67.5189 1272.01 47.6135" fill="#2E2D2D"/>
<path d="M1231.01 76.1299C1231.66 75.7613 1232.31 74.898 1232.91 73.9136C1232.81 77.4982 1232.78 81.0828 1232.99 84.6656C1233.07 86.1892 1234.92 86.2012 1234.83 84.6656C1234.54 79.6889 1234.72 74.7087 1234.9 69.7285C1234.94 68.5035 1233.64 68.1605 1233.18 69.1262C1232.67 70.1891 1231.61 72.4958 1230.63 73.5826C1229.41 72.1341 1228.38 70.4263 1227.03 69.1228C1226.44 68.5581 1225.65 69.3292 1225.64 70.1533C1225.58 74.9612 1225.52 79.7673 1225.61 84.5752C1225.64 86.109 1227.48 86.1141 1227.46 84.5752C1227.38 80.646 1227.41 76.7168 1227.46 72.7893C1228.26 73.8624 1228.99 75.0038 1229.89 75.9422C1230.25 76.3158 1230.6 76.3636 1231.01 76.1299" fill="#2E2D2D"/>
<path d="M1236.31 84.6656C1236.38 86.1943 1238.23 86.2028 1238.16 84.6656C1238.05 82.2702 1238.27 79.873 1238.16 77.4776C1238.09 75.9489 1236.24 75.9387 1236.31 77.4776C1236.42 79.873 1236.2 82.2702 1236.31 84.6656Z" fill="#2E2D2D"/>
<path d="M1238.19 73.8862C1238.19 73.8675 1238.19 73.8504 1238.19 73.8316C1238.19 72.2961 1236.34 72.2927 1236.34 73.8316C1236.34 73.8504 1236.34 73.8675 1236.34 73.8862C1236.34 75.4235 1238.19 75.4252 1238.19 73.8862Z" fill="#2E2D2D"/>
<path d="M1241.99 84.7697C1241.68 79.5728 1241.39 74.3845 1241.37 69.1705C1241.36 67.635 1239.52 67.6316 1239.52 69.1705C1239.55 74.3845 1239.84 79.5728 1240.14 84.7697C1240.23 86.2915 1242.08 86.3052 1241.99 84.7697Z" fill="#2E2D2D"/>
<path d="M1245.61 84.6656C1245.53 83.7733 1245.47 82.8793 1245.41 81.987C1245.65 82.4221 1245.91 82.8469 1246.15 83.2888C1246.49 83.9268 1246.91 84.5633 1247.17 85.2696C1247.67 86.6584 1249.27 85.447 1248.76 84.0633C1248.46 83.2478 1247.97 82.5022 1247.57 81.7686C1247.02 80.7552 1246.44 79.7622 1245.85 78.7778C1246.56 77.9622 1247.3 77.1791 1248.08 76.4642C1249.04 75.5805 1248.12 73.5092 1247.14 74.4015C1246.43 75.0533 1245.75 75.7545 1245.09 76.4813C1244.98 73.9375 1244.92 71.3902 1244.91 68.8361C1244.9 67.3006 1243.06 67.2972 1243.06 68.8361C1243.08 74.132 1243.32 79.4022 1243.76 84.6656C1243.89 86.1772 1245.74 86.1943 1245.61 84.6656" fill="#2E2D2D"/>
<path d="M1169.79 565.683C1168.68 564.736 1168.49 563.337 1166.88 562.917C1165.72 562.614 1164.61 563.449 1163.5 563.611C1161.38 563.922 1159.99 563.998 1158.12 562.236C1157.42 561.578 1157.03 560.501 1156.35 559.792C1153.3 556.613 1150.12 557.553 1146.08 557.62C1140.96 557.706 1138.14 554.367 1135.59 550.454C1134.46 548.731 1133.4 547.257 1131.46 546.414C1128.99 545.343 1126.57 545.626 1124.05 544.459C1120.73 542.921 1121.44 541.496 1119.14 539.327C1116.87 537.182 1114.15 538.058 1111.36 538.491C1108.31 538.967 1108.1 539.12 1105.35 536.937C1101.8 534.117 1103.51 535.312 1102.85 532.328C1102.66 531.498 1102.29 530.624 1101.65 530.067C1100.42 528.997 1098.66 529.558 1097.31 528.891C1091.34 525.946 1099.2 523.682 1102.3 523.671C1104.33 525.666 1107.35 527.366 1109.21 528.537C1118.21 534.203 1127.94 538.879 1137.28 543.946C1145.81 548.633 1154.35 553.27 1163.27 557.184C1166.09 558.421 1169.54 559.893 1172.75 560.047C1173.46 561.024 1175.52 563.858 1175.27 565.076C1174.7 567.884 1171.18 566.875 1169.79 565.683V565.683ZM1147.28 566.825C1140.85 563.508 1134.09 560.933 1127.62 557.718C1121.55 554.703 1115.69 551.274 1109.83 547.884C1106.94 546.217 1104.05 544.552 1101.17 542.889C1096.18 540.011 1096.6 536.087 1099.41 531.79C1101.07 533.052 1100.17 534.407 1100.56 536.273C1101.68 541.643 1107.93 541.427 1112.04 540.687C1114.91 540.169 1116.59 539.801 1118.52 542.458C1119.23 543.435 1119.5 544.636 1120.33 545.564C1122.17 547.627 1124.16 547.373 1126.64 547.913C1132.87 549.269 1132.19 550.159 1135.18 554.279C1135.94 555.319 1136.78 556.294 1137.78 557.106C1140.25 559.12 1143.04 559.972 1146.18 559.914C1150.14 559.84 1151.75 558.531 1155.41 562.326C1156.08 563.023 1156.43 564.017 1157.13 564.713C1158.7 566.279 1160.19 566.794 1162.35 566.419C1164.1 566.114 1165.22 565.56 1166.68 566.196C1166.88 578.222 1152.03 569.279 1147.28 566.825V566.825ZM1163.87 580.92C1163.55 583.216 1161.36 586.371 1159.02 586.873C1155.84 587.555 1151.06 585.166 1148.26 583.916C1139.07 579.805 1130.08 575.138 1121.2 570.388C1113 566.004 1104.73 561.588 1096.78 556.775C1093.4 554.729 1086.5 551.499 1087.15 547.033C1087.91 541.804 1091.71 540.476 1096.07 542.359C1097.4 543.639 1099.29 544.452 1100.86 545.362C1110.79 551.089 1120.61 557.19 1131.08 561.898C1136.47 564.322 1141.88 566.584 1147.12 569.329C1151.05 571.388 1154.55 573.994 1159.02 574.535C1161.56 575.94 1164.37 577.198 1163.87 580.92V580.92ZM1108.46 508.965C1115.49 502.486 1126.86 497.401 1136.51 497.639C1145.23 497.854 1155.28 502.04 1162.19 507.266C1172.01 514.693 1180.43 527.394 1181.17 539.876C1181.43 544.318 1180.74 549.27 1178.87 553.342C1175.8 560.03 1168.74 557.121 1163.49 554.78C1154.88 550.931 1146.62 546.458 1138.36 541.917C1130.69 537.762 1122.99 533.669 1115.37 529.446C1111.62 527.372 1103.35 523.962 1102.67 519.233C1102.14 515.54 1106.11 511.123 1108.46 508.965V508.965ZM1175.37 559.818C1176.96 559.436 1178.41 558.573 1179.58 556.964C1187.12 546.64 1183.3 530.428 1176.91 520.646C1169.08 508.667 1158.62 500.258 1144.61 496.563C1136.06 494.308 1128.36 495.813 1120.34 499.181C1113.85 501.905 1105.99 505.904 1102.47 512.386C1101.38 514.399 1099.69 518.687 1100.37 520.867C1100.43 521.058 1100.54 521.244 1100.63 521.432C1097.08 521.738 1091.97 523.235 1092.06 527.049C1092.1 528.796 1093.72 530.01 1095.12 530.645C1095.7 530.91 1096.44 530.972 1097.16 531.049C1095.69 533.325 1094.12 536.456 1094.48 539.229C1092.27 538.496 1089.89 538.221 1088.16 539.73C1085.91 541.702 1083.61 547.818 1084.94 550.76C1085.62 552.264 1087.22 552.97 1088.49 553.868C1091.55 556.009 1094.51 558.15 1097.76 559.992C1105.18 564.19 1112.6 568.397 1120.12 572.417C1127.7 576.469 1135.37 580.344 1143.13 584.035C1147.63 586.173 1153.82 589.77 1159.11 589.168C1162.81 588.747 1165.37 584.845 1166.11 581.417C1166.83 578.051 1165.3 576.009 1163.05 574.359C1166.07 573.637 1168.24 571.518 1168.82 568.173C1169.04 568.503 1169.28 568.82 1169.67 569.048C1171.16 569.904 1173.65 569.685 1175.15 569.032C1179.32 567.226 1177.39 562.854 1175.37 559.818" fill="#2E2D2D"/>
<path d="M1113.11 524.807C1114.44 525.443 1115.52 523.419 1114.18 522.779C1111.87 521.672 1107.46 519.807 1109.61 516.693C1111.08 514.569 1113.92 513.143 1116.28 512.351C1117.68 511.88 1117.01 509.684 1115.6 510.155C1112.41 511.228 1107.36 513.891 1106.35 517.476C1105.37 521.015 1110.69 523.653 1113.11 524.807" fill="#2E2D2D"/>
<path d="M1117.82 527.339C1119.13 528.032 1120.21 526.005 1118.9 525.311C1117.6 524.619 1116.52 526.646 1117.82 527.339Z" fill="#2E2D2D"/>
<path d="M1136.08 503.551C1136.68 503.879 1137.28 503.582 1137.64 503.076C1137.88 502.73 1138.12 502.383 1138.36 502.036C1138.72 501.524 1138.38 500.755 1137.88 500.484C1137.28 500.158 1136.69 500.453 1136.33 500.96C1136.09 501.307 1135.85 501.654 1135.61 501.999C1135.25 502.512 1135.59 503.282 1136.08 503.551Z" fill="#2E2D2D"/>
<path d="M1148.22 507.37C1148.66 507.28 1149.11 507.275 1149.56 507.3C1151.03 507.378 1150.93 505.084 1149.46 505.006C1148.81 504.97 1148.19 505.044 1147.55 505.175C1146.1 505.47 1146.78 507.663 1148.22 507.37Z" fill="#2E2D2D"/>
<path d="M1159.3 512.774C1160.18 513.955 1162.13 512.753 1161.25 511.566C1160.84 511.007 1160.48 510.429 1160.16 509.806C1159.49 508.487 1157.54 509.708 1158.21 511.015C1158.53 511.638 1158.88 512.215 1159.3 512.774Z" fill="#2E2D2D"/>
<path d="M1165.24 519.162C1165.63 519.049 1165.93 519.061 1166.31 519.163C1167.74 519.546 1168.24 517.304 1166.81 516.922C1166.06 516.721 1165.31 516.748 1164.57 516.967C1163.15 517.39 1163.83 519.585 1165.24 519.162Z" fill="#2E2D2D"/>
<path d="M1149.44 518.079C1149.73 519.529 1151.92 518.844 1151.64 517.405C1151.58 517.08 1151.49 516.772 1151.38 516.459C1150.88 515.074 1148.68 515.739 1149.18 517.133C1149.3 517.445 1149.38 517.754 1149.44 518.079Z" fill="#2E2D2D"/>
<path d="M1137.68 511.457C1138.12 511.3 1138.5 511.235 1138.97 511.237C1140.44 511.246 1140.35 508.951 1138.87 508.942C1138.23 508.939 1137.61 509.046 1137 509.262C1135.62 509.763 1136.28 511.96 1137.68 511.457Z" fill="#2E2D2D"/>
<path d="M1158.63 523.26C1159.47 524.469 1161.43 523.265 1160.58 522.051C1160.27 521.609 1160.09 521.191 1160.05 520.65C1159.94 519.182 1157.64 519.266 1157.75 520.745C1157.83 521.658 1158.1 522.505 1158.63 523.26" fill="#2E2D2D"/>
<path d="M1127.76 505.659C1127.93 505.438 1128.08 505.265 1128.38 505.23C1129.83 505.053 1129.76 502.758 1128.28 502.935C1127.41 503.04 1126.65 503.376 1126.09 504.082C1125.17 505.234 1126.84 506.818 1127.76 505.659" fill="#2E2D2D"/>
<path d="M1168.79 525.88C1169.34 527.238 1171.54 526.575 1170.98 525.207C1170.81 524.795 1170.65 524.384 1170.48 523.973C1169.92 522.613 1167.72 523.276 1168.28 524.646C1168.45 525.058 1168.62 525.468 1168.79 525.88Z" fill="#2E2D2D"/>
<path d="M1180.19 282.584C1178.38 283.715 1175.26 284.111 1173.18 284.241C1173.03 284.251 1172.91 284.295 1172.79 284.347C1171.7 281.638 1169.14 279.453 1166.1 278.032C1162.09 276.154 1157.68 275.816 1153.42 274.766C1149.61 273.825 1145.88 272.439 1142.25 270.953C1134.02 267.59 1125.67 262.602 1116.98 260.629C1113.41 259.822 1109.69 260.109 1106.98 261.951C1106.95 261.931 1106.93 261.901 1106.9 261.885C1100.51 258.803 1101.18 249.615 1109 250.017C1111.6 250.151 1114.43 251.534 1116.8 252.494C1125.26 255.919 1133.54 259.742 1142.13 262.875C1151.79 266.402 1161.74 268.736 1171.65 271.433C1174.58 272.229 1178.62 272.923 1181.04 274.901C1183.53 276.945 1182.8 280.959 1180.19 282.584ZM1170.16 290.657C1163.25 302.322 1142.03 294.912 1132.39 291.614C1123.68 288.348 1104.94 281.622 1105.14 270.019C1105.42 253.342 1134.55 270.144 1141.52 272.996C1145.79 274.739 1150.15 276.282 1154.66 277.245C1160.35 278.459 1175.86 281.029 1170.16 290.657V290.657ZM1134.6 252.085C1138.45 254.128 1142.37 256.011 1146.42 257.612C1151.01 259.423 1155.72 260.909 1160.52 262.06C1164.2 262.94 1175.59 263.554 1174.61 269.549C1174.6 269.643 1174.61 269.717 1174.62 269.799C1171.69 268.986 1168.65 268.419 1165.98 267.736C1157.22 265.501 1148.58 263.011 1140.11 259.812C1133.18 257.192 1126.42 254.187 1119.59 251.31C1117.76 250.541 1115.73 249.577 1113.66 248.847C1117.39 241.715 1130.62 249.975 1134.6 252.085V252.085ZM1184.55 281.314C1185.83 278.163 1184.64 274.729 1181.98 272.922C1180.33 271.804 1178.41 270.984 1176.39 270.326C1176.56 270.169 1176.69 269.971 1176.73 269.696C1177.62 264.298 1172.4 262.615 1168.16 261.544C1160.06 259.504 1152.13 257.759 1144.41 254.45C1137.7 251.569 1117.2 236.466 1111.61 248.229C1110.48 247.946 1109.35 247.766 1108.25 247.782C1105.25 247.828 1101.36 250.399 1100.21 253.35C1098.55 257.612 1101.95 261.511 1105.29 263.456C1104.41 264.5 1103.73 265.815 1103.34 267.435C1099.89 281.883 1121.69 289.915 1131.66 293.656C1141.99 297.19 1164.94 304.877 1172.15 291.58C1173.16 289.732 1173.48 287.987 1173.3 286.379C1177.03 286.122 1182.94 285.247 1184.55 281.314" fill="#2E2D2D"/>
<path d="M1171.45 273.81C1169.92 273.376 1168.14 274.198 1166.6 273.892C1163.65 273.308 1162.82 270.648 1160.4 269.437C1158.13 268.299 1155.58 269.142 1153.13 269.378C1149.78 269.701 1149.77 268.44 1147.59 266.507C1146.74 265.75 1146.4 265.445 1145.37 265.202C1144.15 264.911 1142.54 265.315 1141.3 265.414C1138.08 265.669 1137.13 264.9 1135.01 262.585C1133.32 260.732 1132.9 259.906 1130.34 259.858C1128.1 259.815 1125.92 260.616 1123.86 259.342C1122.21 258.314 1121.38 255.949 1119.73 254.993C1117.4 253.646 1114.26 255.253 1111.86 255.739C1110.52 256.009 1110.89 258.134 1112.25 257.86C1113.66 257.577 1115.34 256.759 1116.77 256.772C1119.18 256.795 1120.1 258.758 1121.65 260.215C1123.7 262.138 1125.02 262.318 1127.84 262.184C1131.99 261.991 1132.04 262.865 1134.9 265.595C1136.53 267.154 1137.42 267.717 1139.65 267.715C1141.05 267.715 1143 266.957 1144.32 267.334C1146.13 267.853 1146.74 270.383 1148.26 271.166C1150.06 272.093 1152.18 271.642 1154.12 271.425C1155.99 271.217 1158.01 270.579 1159.74 271.519C1161.26 272.347 1162.1 274.306 1163.6 275.228C1165.59 276.448 1172.59 274.908 1172.54 278.288C1172.51 279.672 1174.64 279.832 1174.66 278.434C1174.7 276.069 1173.74 274.455 1171.45 273.81" fill="#2E2D2D"/>
<path d="M1118.67 280.145C1116.65 279.679 1114.48 277.688 1113.09 276.192C1111.28 274.25 1110.59 272.093 1110.22 269.488C1110.02 268.114 1107.92 268.526 1108.12 269.902C1108.55 272.875 1109.4 275.379 1111.45 277.595C1113.12 279.399 1115.51 281.626 1117.95 282.188C1119.26 282.491 1120.01 280.453 1118.67 280.145" fill="#2E2D2D"/>
<path d="M1122.78 282.127C1121.49 281.667 1120.77 283.707 1122.06 284.167C1123.34 284.627 1124.07 282.587 1122.78 282.127Z" fill="#2E2D2D"/>
</svg>
