<svg width="1280" height="761" viewBox="0 0 1280 761" fill="none" xmlns="http://www.w3.org/2000/svg">
<path d="M78.0243 54.6993C77.3639 58.5314 75.659 62.9287 74.3344 66.553C71.1581 75.2452 62.0495 80.594 55.5612 84.3872C47.8199 88.9143 40.7389 88.9614 32.5067 87.6023C20.1377 84.7428 12.5006 69.3329 13.8427 53.4863C14.3123 47.9426 15.7172 42.3 17.1647 37.0778C19.3166 29.3128 23.6054 19.0309 29.0303 14.2992C35.6593 8.51684 42.9988 13.601 50.1902 13.0586C52.2618 12.9011 54.2291 12.1347 56.2416 11.529C60.7463 10.1747 63.5435 11.0045 67.1217 14.8659C69.6038 17.5452 72.0783 20.5248 74.0783 23.8179C77.1304 28.8436 77.8623 34.4229 78.2139 40.6372C78.4725 45.2423 78.809 50.1445 78.0243 54.6993V54.6993ZM80.195 45.4859C79.91 34.6129 78.598 25.9726 72.4637 18.1362C67.8461 12.2386 63.6904 7.19508 56.9397 8.991C52.322 10.2218 48.5995 11.05 43.8149 10.1618C40.3296 9.51548 36.744 8.5558 33.2349 9.5382C26.3134 11.4754 22.4616 19.635 18.9801 26.869C15.7121 33.6613 13.6732 41.9362 12.5106 49.8003C9.86533 67.6815 17.6631 86.4949 32.0661 89.8025C32.1138 89.8139 32.1527 89.796 32.1979 89.7993C32.2343 89.8106 32.2606 89.8366 32.2996 89.8431C40.1062 91.1503 46.9975 91.514 54.3961 87.5227C60.9974 83.9666 69.5284 78.9377 74.131 71.5332C76.234 68.1476 77.5234 63.1154 78.7889 59.155C80.1749 54.8129 80.3143 50.1186 80.195 45.4859Z" fill="#2E2D2D"/>
<path d="M36.4816 58.2587C30.4842 54.7269 27.466 45.6369 29.4584 37.5277C31.8501 27.7946 39.1056 26.3494 45.7345 28.6325C59.9315 36.3179 50.9724 66.7934 36.4816 58.2587ZM46.2028 26.4404C38.5532 23.8066 30.4716 26.0231 27.7635 36.9252C25.4158 46.3725 29.2827 57.135 36.4515 60.7545C53.0879 69.156 62.2027 35.1033 46.2028 26.4404Z" fill="#2E2D2D"/>
<path d="M34.2242 35.7821C30.7905 38.5474 30.9637 44.1787 32.5883 48.3908C33.093 49.7012 34.6096 48.55 34.1062 47.2444C32.931 44.1982 32.5456 39.8123 35.1106 37.7452C36.0685 36.9739 35.1872 35.0059 34.2242 35.7821Z" fill="#2E2D2D"/>
<path d="M37.2111 32.8089C36.0812 32.8089 36.0787 35.0839 37.2111 35.0839C38.3423 35.0839 38.3448 32.8089 37.2111 32.8089Z" fill="#2E2D2D"/>
<path d="M44.0682 430.49C51.6309 427.496 41.7971 412.106 41.2887 406.656C40.6025 399.309 45.6247 395.195 46.5713 388.544C47.1376 384.566 45.7607 381.033 44.3829 377.463C43.0878 374.106 41.7927 370.714 42.1136 366.889C42.6958 359.952 48.0282 354.972 48.1385 348.018C48.1962 344.329 46.6745 341.343 45.1527 338.308C43.5953 335.202 42.038 332.047 42.1731 328.035C42.4229 320.606 46.6753 314.356 46.8025 306.94C46.8629 303.458 45.6122 300.401 44.3616 297.365C42.8842 293.778 41.406 290.219 42.0896 286.019C42.7945 281.688 45.0825 278.65 48.5838 279.514C49.3305 279.698 49.1571 281.252 48.406 281.221C44.7109 281.064 43.9785 286.822 44.5234 290.082C44.8922 292.288 45.998 294.383 46.7909 296.352C47.9562 299.249 49.0762 302.086 49.2336 305.411C49.5465 312.045 46.5278 317.795 45.2131 323.964C44.1144 329.119 44.9038 333.023 47.1331 337.359C48.5518 340.121 50.1651 342.769 50.5642 346.146C51.254 351.98 48.3047 356.722 46.3847 361.608C42.782 370.778 47.9313 375.478 49.2727 383.987C50.3269 390.679 46.862 395.073 44.9269 400.773C42.0549 409.232 48.8709 415.015 49.5882 422.975C50.0282 427.855 48.6736 432.623 44.8407 434.114C43.0451 434.812 42.2825 431.196 44.0682 430.49" fill="black"/>
<path d="M50.9828 635.554C47.5587 630.374 48.6746 625.935 52.1265 624.117C51.4885 625.622 51.3724 627.49 51.8682 629.783C52.3414 631.969 53.4078 633.924 54.4487 635.7C56.9406 639.952 57.6134 643.829 55.5449 647.439C55.5966 645.211 55.2238 642.955 54.4244 641.042C53.5176 638.874 52.205 637.403 50.9828 635.554ZM52.861 651.036C52.6537 651.693 52.8772 652.183 53.2389 652.441C53.524 652.829 53.9495 652.983 54.389 652.554C57.0213 650 59.6634 646.101 59.322 641.521C58.9632 636.721 49.32 626.637 56.1847 623.182C57.221 622.661 57.1599 620.534 55.9084 620.539C51.4263 620.559 46.9142 622.477 46.5891 629.066C46.1473 638.02 55.9873 641.113 52.861 651.036" fill="#2E2D2D"/>
<path d="M69.8796 687.46C59.0433 688.435 48.0487 686.813 37.1608 687.487C36.8455 684.548 36.5367 681.607 36.2023 678.67C47.7584 678.66 59.3023 679.512 70.8595 679.178C70.5211 681.936 70.1949 684.696 69.8796 687.46V687.46ZM65.5154 723.42C65.3088 724.802 65.3117 727.518 64.7114 728.756C63.3454 731.57 60.7786 730.726 58.4663 730.746C54.5103 730.776 49.4095 731.663 45.5383 730.609C40.4694 729.229 41.2695 726.171 40.701 721.009C40.6157 720.233 40.5344 719.458 40.4515 718.682C48.6809 719.552 57.9286 720.391 66.1558 718.816C65.9463 720.352 65.7442 721.888 65.5154 723.42V723.42ZM66.5402 716.048C62.0623 716.963 57.6483 716.488 53.1344 716.352C48.7958 716.221 44.4875 716.365 40.157 715.946C40.0775 715.193 39.995 714.441 39.9155 713.69C39.0895 705.849 38.283 698.006 37.4528 690.167C48.1422 689.544 58.9318 691.08 69.5712 690.173C68.8764 696.335 68.2017 702.504 67.4615 708.659C67.1643 711.123 66.8612 713.588 66.5402 716.048V716.048ZM39.3542 672.359C42.1489 672.365 44.9432 672.419 47.7386 672.417C50.9858 672.413 54.2316 672.329 57.4793 672.355C60.3949 672.382 63.3076 672.463 66.2208 672.59C67.6125 672.65 69.0093 672.642 70.3992 672.744C72.6546 672.911 73.2399 673.811 72.6402 676.433C59.5936 676.959 46.5676 675.81 33.5225 675.992C32.1307 671.673 38.1478 672.355 39.3542 672.359V672.359ZM38.2523 660.96C39.0186 659.451 38.5657 659.853 40.3126 659.469C43.375 658.796 46.8429 659.232 49.9314 659.238C53.7533 659.246 57.5762 659.313 61.3987 659.384C63.7935 659.43 65.5985 658.921 67.4214 661.041C69.288 663.211 69.7129 666.804 70.2029 670.045C65.494 669.728 60.7537 669.655 56.0395 669.655C49.5605 669.651 43.0094 669.332 36.5395 669.687C36.7788 666.964 37.162 663.109 38.2523 660.96V660.96ZM72.3911 670.462C71.5091 665.16 71.626 657.446 66.7376 656.797C61.0265 656.037 54.9853 656.545 49.2435 656.545C46.0822 656.547 41.1602 655.503 38.15 657.074C35.1433 658.64 34.759 665.92 34.428 670.014C31.4783 670.841 29.8341 673.238 31.9717 678.02C31.9955 678.074 32.0298 678.097 32.0558 678.143C32.1 678.23 32.1517 678.301 32.2114 678.372C32.2538 678.418 32.2951 678.459 32.3403 678.493C32.403 678.543 32.4727 678.58 32.5494 678.608C32.6074 678.63 32.6631 678.645 32.7218 678.651C32.7734 678.659 32.8129 678.687 32.8698 678.687C33.2872 678.68 33.7035 678.685 34.121 678.682C35.8122 693.412 37.1927 708.196 38.8288 722.936C39.2409 726.647 38.8867 731.407 42.0851 732.929C43.9232 733.804 46.3998 733.323 48.3122 733.36C51.3863 733.418 54.4603 733.454 57.5345 733.441C59.8945 733.429 64.1221 734.331 65.9549 731.732C67.9451 728.908 67.9028 721.598 68.3816 718.005C68.3974 717.886 68.4108 717.765 68.4264 717.644C68.438 717.569 68.4531 717.499 68.4543 717.423C70.1362 704.69 71.3785 691.868 72.96 679.114C73.1058 679.108 73.2515 679.108 73.3967 679.101C73.7554 679.085 74.0102 678.874 74.1769 678.582C74.2669 678.455 74.3458 678.303 74.4003 678.114C75.6864 673.628 74.8526 671.331 72.3911 670.462" fill="#2E2D2D"/>
<path d="M59.2065 704.474C58.36 708.236 55.8706 712.142 52.5509 712.135C52.1131 712.135 51.6992 712.079 51.302 711.99C51.312 711.917 51.3382 711.86 51.3398 711.779C51.4379 707.508 53.8955 705.286 55.7556 702.199C56.9074 700.286 57.4851 698.237 57.6569 695.882C58.443 696.332 59.109 697.053 59.4102 698.054C59.967 699.905 59.6146 702.662 59.2065 704.474V704.474ZM47.9883 703.3C49.2882 700.103 51.7543 697.07 54.364 695.701C54.7419 695.498 55.1744 695.4 55.6203 695.376C55.4096 699.513 53.161 701.556 51.3352 704.588C50.159 706.541 49.482 708.663 49.3195 711.081C47.3757 709.588 46.6257 706.654 47.9883 703.3ZM59.9118 694.306C58.3379 692.745 55.6255 692.13 53.8101 693.106C49.8507 695.182 45.374 700.59 45.111 706.427C44.8503 712.223 49.5529 715.558 53.6365 714.733C58.5824 713.732 61.5902 707.098 61.6999 701.086C61.7441 698.667 61.4991 695.878 59.9118 694.306" fill="#2E2D2D"/>
<path d="M147.491 254.702L147.519 253.943C147.545 253.302 147.555 252.661 147.564 252.02L147.566 251.814C147.614 248.775 147.526 245.514 147.296 241.839L147.126 238.97C146.742 232.239 146.342 225.282 144.46 218.786C144.338 218.366 144.21 217.918 144.067 217.458C144.371 217.262 144.72 217.108 145.105 217.003C147.013 216.481 149.594 217.157 151.668 217.699C152.32 217.869 152.922 218.027 153.449 218.133L154.376 218.319C157.033 218.85 159.781 219.399 162.188 220.705C165.986 222.763 167.785 225.541 167.855 229.439C167.906 232.487 166.977 235.873 166.153 238.857L165.867 239.911C164.559 244.738 162.886 249.442 161.421 253.406C160.936 254.712 160.449 256.019 159.957 257.324C159.783 257.78 159.627 258.281 159.468 258.794C159.159 259.773 158.842 260.787 158.382 261.587C157.784 262.632 156.983 263.279 155.935 263.565C154.733 263.893 153.379 263.715 152.094 263.509C151.62 263.429 151.126 263.368 150.623 263.306C149.079 263.115 147.485 262.921 146.217 262.218C147.304 259.95 147.402 257.163 147.491 254.702V254.702ZM86.307 284.17C86.0446 283.74 85.7973 283.339 85.5677 282.981C81.9418 277.332 80.5033 271.874 81.0464 265.807C81.4582 261.204 82.1304 256.409 84.23 252.467L85.1375 253.602C90.4437 260.298 95.4704 265.681 100.504 270.061C101.918 271.291 103.361 272.459 104.796 273.536C101.818 276.346 99.8043 279.37 98.4678 283.036C98.3089 283.476 98.1487 284.055 97.9704 284.699C97.3142 287.09 96.4132 290.364 94.1986 290.97C94.1986 290.97 94.1986 290.97 94.1969 290.97C93.5578 291.128 92.8292 291.04 92.0371 290.714C89.7408 289.764 87.7562 286.529 86.307 284.17V284.17ZM112.659 273.805C109.919 274.554 107.28 272.144 105.16 270.205C104.731 269.816 104.319 269.44 103.928 269.104L102.759 268.089C98.1073 264.036 93.7499 259.626 89.8072 254.983C89.4082 254.515 88.9684 254.023 88.5124 253.512C86.6039 251.383 84.44 248.967 83.7458 246.447C82.9728 243.632 84.8869 240.727 87.0704 238.008C89.9847 234.378 94.9857 230.151 99.5814 228.895C100.576 228.624 101.527 228.498 102.413 228.523C102.404 232 104.035 235.87 105.476 239.29C105.917 240.338 106.339 241.339 106.691 242.274C109.1 248.69 111.387 254.308 113.681 259.456C113.848 259.827 114.012 260.213 114.177 260.611L114.523 261.436C115.604 264.045 116.828 266.993 118.642 269.069C117.149 271.299 114.996 273.041 112.857 273.744L112.659 273.805ZM121.22 267.799C119.449 266.118 118.287 263.321 117.262 260.854C117.053 260.351 116.851 259.864 116.581 259.244L116.454 258.958C114.44 254.498 112.422 249.606 110.108 243.56C109.221 241.245 108.358 238.919 107.525 236.588C107.329 236.038 107.1 235.456 106.862 234.852C105.884 232.376 104.778 229.571 105.254 227.197C106.285 222.059 112.33 217.709 122.733 214.612C123.061 214.515 123.387 214.424 123.716 214.334C127.655 213.258 131.213 212.849 134.602 213.085C136.895 213.249 138.874 213.388 140.317 215.492C140.598 215.898 140.853 216.399 141.09 216.954C141.08 217.298 141.203 217.645 141.406 217.865C141.748 218.913 142.001 220.033 142.223 221.024L142.369 221.657C144.012 228.794 144.344 236.451 144.665 243.858L144.709 244.874C144.825 247.49 144.867 249.783 144.839 251.886C144.811 253.84 144.734 255.446 144.593 256.93C144.193 261.172 142.016 263.677 137.08 265.578C135.563 266.164 133.27 267.049 130.828 267.716C126.4 268.926 123.159 268.945 121.22 267.799V267.799ZM172.302 270.634L172.136 270.201C171.967 269.768 171.81 269.333 171.654 268.897C171.169 267.558 170.67 266.174 169.842 264.943C167.986 262.183 165.153 261.16 162.149 260.309C162.676 258.929 163.111 257.466 163.535 256.052C163.698 255.503 163.858 254.965 164.019 254.446C164.2 253.864 164.382 253.305 164.573 252.782C166.151 248.447 167.935 243.29 169.216 237.907L169.35 237.343C169.581 236.369 169.822 235.361 170.03 234.336C175.458 236.804 178.989 244.477 180.046 249.089C181.54 255.613 181.099 261.929 178.737 267.864C178.646 268.094 178.545 268.374 178.439 268.682C178.012 269.871 177.431 271.504 176.612 272.128C175.982 272.614 175.414 272.927 174.926 273.06C174.772 273.102 174.623 273.13 174.483 273.136C173.256 273.202 172.75 271.84 172.302 270.634V270.634ZM170.491 231.562C170.793 229.03 170.648 226.924 170.048 225.126C168.741 221.204 164.754 218.847 162.495 217.793C159.453 216.369 156.002 215.734 152.67 215.122C151.994 215 151.323 214.876 150.511 214.717C148.466 214.319 146.15 213.868 144.149 214.415C143.776 214.517 143.419 214.652 143.088 214.818C142.477 213.513 141.771 212.574 140.931 211.953C138.826 210.394 135.603 210.327 133.249 210.278C130.006 210.211 126.558 210.667 122.995 211.64C120.108 212.429 117.126 213.564 114.13 215.007C109.764 217.116 104.271 220.693 102.787 225.822C101.543 225.778 100.226 225.946 98.8691 226.316C93.3336 227.829 88.118 232.367 85.0819 236.11C83.0012 238.674 81.0438 241.468 80.7997 244.499C80.6579 246.29 81.1772 248.045 82.4372 250.023C79.9104 254.05 78.534 259.591 78.2281 266.954C77.9299 274.186 80.249 280.694 85.7529 288.065C89.1224 292.577 92.107 294.404 94.8774 293.647C95.7856 293.398 96.6704 292.864 97.5061 292.054C99.1231 290.483 99.7294 288.371 100.313 286.327C100.512 285.641 100.708 284.953 100.942 284.284C102.193 280.727 104.172 277.803 106.999 275.13L107.187 275.261C109.123 276.586 111.346 276.959 113.619 276.338C116.287 275.608 118.997 273.496 120.884 270.674C124.161 271.91 128.538 270.852 131.743 270.078L132.024 270.01C132.874 269.804 133.808 269.575 134.779 269.31C137.765 268.494 142.012 267.111 144.593 264.49C146.297 265.534 148.339 265.788 150.318 266.036C150.875 266.103 151.436 266.175 151.991 266.262C154.061 266.585 155.729 266.565 157.09 266.193C158.342 265.851 159.346 265.201 160.073 264.264C160.388 263.863 160.688 263.397 160.995 262.846C164.344 263.804 167.028 264.849 168.571 268.42C168.838 269.047 169.062 269.715 169.287 270.392C169.83 272.024 170.391 273.71 171.644 274.903C172.963 276.156 174.288 276.607 175.587 276.252C175.589 276.252 175.589 276.252 175.589 276.252C177.73 275.667 179.751 272.918 181.589 268.074C184.194 261.208 184.388 253.444 182.133 246.211C180.402 240.663 176.032 233.744 170.491 231.562" fill="#2E2D2D"/>
<path d="M113.574 238.053C112.465 235.021 109.953 229.923 112.825 227.269C114.028 226.158 112.21 224.376 111.007 225.487C107.217 228.987 109.638 234.676 111.119 238.724C111.678 240.25 114.138 239.593 113.574 238.053" fill="#2E2D2D"/>
<path d="M114.915 222.045C114.868 222.058 114.821 222.071 114.775 222.083C113.195 222.515 113.864 224.968 115.445 224.536C115.491 224.524 115.538 224.511 115.586 224.498C117.164 224.067 116.497 221.613 114.915 222.045Z" fill="#2E2D2D"/>
<path d="M191.335 513.087L191.261 513.753C191.162 514.655 190.963 515.56 190.771 516.434C190.545 517.471 190.31 518.54 190.238 519.617C190.099 521.647 190.569 523.675 191.026 525.636L191.15 526.176C191.389 527.215 191.641 528.25 191.891 529.287C192.406 531.416 192.94 533.619 193.356 535.801C193.436 536.229 193.531 536.692 193.633 537.185C194.196 539.911 194.968 543.643 194.24 546.009C193.199 549.397 190.819 550.559 188.402 551.31C185.841 552.11 184.549 552.394 183.531 552.585C183.011 552.683 182.519 552.764 181.986 552.848C181.351 552.949 180.657 553.059 179.786 553.223L179.669 553.246C181.563 550.143 180.568 545.268 179.764 541.33C179.568 540.363 179.386 539.467 179.268 538.693L178.867 536.028C178.548 533.895 178.228 531.766 177.882 529.637L177.729 528.713C177.361 526.534 177.016 524.477 177.37 522.301C177.567 521.094 177.985 519.949 178.387 518.842C178.614 518.219 178.841 517.596 179.035 516.956C181.122 510.053 179.292 502.846 174.371 498.599C171.476 496.1 167.905 494.515 163.481 493.766C164.721 493.59 165.841 493.441 166.889 493.299C169.009 493.017 170.84 492.772 172.75 492.413C173.049 492.357 173.938 492.183 173.938 492.183C179.052 491.224 183.644 493.144 187.589 497.895C189.374 500.045 190.656 502.503 191.298 505.006C191.952 507.553 191.624 510.493 191.335 513.087V513.087ZM176.278 553.433C175.032 554.052 173.561 554.5 171.508 554.885C170.668 555.043 169.824 555.172 168.993 555.303C168.186 555.428 167.39 555.55 166.627 555.693L164.491 556.098C161.531 556.66 158.57 557.218 155.626 557.837C154.972 557.975 154.315 558.101 153.659 558.224C152.609 558.421 151.555 558.606 150.502 558.79C149.448 558.976 148.394 559.162 147.341 559.36L145.65 559.685C144.472 559.906 143.092 560.128 141.632 559.977C138.818 559.684 137.994 557.581 137.336 555.267C136.502 552.33 135.847 549.296 135.215 546.364C134.543 543.253 133.849 540.035 132.907 536.815C132.282 534.674 131.635 532.46 130.881 530.33C130.373 528.897 129.479 527.807 128.53 526.649C128.061 526.078 127.578 525.488 127.148 524.856C122.766 518.4 125.622 510.743 129.758 505.728C134.258 500.27 142.145 497.146 148.027 496.043C148.31 495.99 148.588 495.939 148.865 495.894C152.32 495.335 155.884 495.46 159.24 495.637C162.427 495.802 166.393 496.011 169.657 497.878C176.543 501.82 179.321 509.32 176.729 516.984L176.416 517.897C175.688 519.998 175 521.983 174.987 524.265C174.973 526.433 175.395 528.661 175.802 530.814C175.975 531.735 176.147 532.647 176.287 533.547L176.8 536.95C177.069 538.756 177.338 540.561 177.627 542.365C177.701 542.835 177.802 543.362 177.912 543.923C178.561 547.271 179.449 551.862 176.278 553.433V553.433ZM191.783 500.374C189.31 495.735 186.404 492.905 182.64 491.464C177.873 489.64 177.524 489.698 173.245 490.415L172.196 490.587C165.862 491.626 163.398 491.887 160.543 492.191C158.19 492.44 155.526 492.723 150.106 493.521C150.049 493.532 149.999 493.547 149.976 493.557C149.215 493.651 148.455 493.769 147.698 493.911C142.241 494.935 136.927 497.199 132.328 500.459C126.4 504.661 122.819 511.081 122.749 517.635C122.712 520.835 123.555 523.499 125.478 526.266C125.86 526.816 126.327 527.357 126.778 527.88C127.471 528.681 128.187 529.511 128.621 530.399C129.047 531.27 129.321 532.291 129.588 533.28C129.709 533.728 129.829 534.168 129.959 534.591C131.088 538.224 132.093 542.174 133.037 546.67C133.205 547.48 133.364 548.318 133.525 549.168C134.153 552.48 134.802 555.906 136.271 558.769C137.571 561.302 139.884 562.394 143.549 562.201C145.119 562.117 146.817 561.899 148.893 561.51C150.379 561.231 151.865 560.9 153.327 560.576C154.241 560.375 155.146 560.174 156.035 559.988C158.97 559.373 161.922 558.816 164.868 558.259L167.073 557.84C167.802 557.703 168.549 557.579 169.299 557.453C170.066 557.326 170.839 557.198 171.609 557.054L171.914 556.991C172.018 556.998 172.112 556.995 172.232 556.972C172.234 556.972 172.234 556.972 172.235 556.972C173.081 556.792 173.909 556.63 174.716 556.478C176.983 556.053 179.108 555.715 181.11 555.398C182.893 555.119 184.575 554.852 186.172 554.553C186.172 554.553 186.172 554.553 186.173 554.552C186.924 554.412 187.653 554.262 188.368 554.101C193.586 552.93 196.316 551.16 196.76 544.74C197.001 541.255 195.719 536.02 194.872 532.558L194.783 532.199C194.132 529.54 193.452 526.691 192.871 523.867C192.317 521.169 192.658 519.093 193.09 516.466L193.196 515.812C194.022 510.721 194.421 505.325 191.783 500.374Z" fill="#2E2D2D"/>
<path d="M171.169 531.466C171.77 535.067 172.542 538.636 173.332 542.198C173.974 545.102 175.608 548.659 172.088 550.661C170.306 551.671 167.425 551.725 165.422 552.086C160.906 552.9 156.377 553.654 151.862 554.472C149.586 554.884 147.206 555.67 144.916 555.897C140.545 556.332 142.222 556.403 141.155 554.436C138.897 550.275 138.328 544.039 137.358 539.433C136.776 536.672 136.523 533.819 135.753 531.105C134.845 527.903 132.995 525.951 130.69 523.618C124.014 514.976 133.585 505.938 140.652 502.217C147.102 498.822 154.508 498.564 161.635 499.557C167.497 500.372 172.292 504.192 172.895 510.507C173.12 512.862 172.333 515.24 171.717 517.47C170.26 522.745 170.249 525.959 171.169 531.466ZM174.749 513.107C175.381 507.757 172.565 501.414 167.525 499.011C162.106 496.427 153.854 496.541 148.055 497.562C141.599 498.698 134.591 502.246 130.362 507.354C126.522 511.995 125.299 519.903 129.181 524.929C134.601 530.419 134.825 537.654 136.535 544.834C137.33 548.172 137.754 554.4 140.095 557.091C141.205 558.365 142.949 558.241 144.45 558.049C149.451 557.409 154.513 556.039 159.495 555.168C163.973 554.383 174.145 554.693 176.016 549.238C177.121 546.021 175.247 541.694 174.577 538.554C173.78 534.821 173.075 531.073 172.554 527.291C171.851 522.184 174.161 518.08 174.749 513.107" fill="#2E2D2D"/>
<path d="M136.166 516.93C134.901 517.168 135.269 519.137 136.535 518.899C137.797 518.662 137.431 516.693 136.166 516.93Z" fill="#2E2D2D"/>
<path d="M140.586 509.595C139.321 509.833 139.689 511.8 140.955 511.563C142.217 511.326 141.851 509.358 140.586 509.595Z" fill="#2E2D2D"/>
<path d="M146.755 515.293C145.493 515.529 145.86 517.497 147.124 517.26C148.389 517.023 148.023 515.055 146.755 515.293Z" fill="#2E2D2D"/>
<path d="M151.66 506.82C150.397 507.058 150.763 509.024 152.029 508.786C153.291 508.55 152.924 506.583 151.66 506.82Z" fill="#2E2D2D"/>
<path d="M159.503 512.784C159.467 512.791 159.429 512.798 159.391 512.805C158.128 513.042 158.494 515.012 159.761 514.774C159.798 514.767 159.836 514.76 159.873 514.753C161.136 514.516 160.768 512.547 159.503 512.784Z" fill="#2E2D2D"/>
<path d="M164.225 506.434C162.963 506.671 163.329 508.638 164.594 508.4C165.857 508.163 165.49 506.197 164.225 506.434Z" fill="#2E2D2D"/>
<path d="M141.885 527.657C140.622 527.894 140.989 529.862 142.254 529.624C143.517 529.387 143.151 527.419 141.885 527.657Z" fill="#2E2D2D"/>
<path d="M153.596 523.653C152.332 523.89 152.7 525.859 153.965 525.622C155.229 525.384 154.862 523.415 153.596 523.653Z" fill="#2E2D2D"/>
<path d="M163.954 522.291C162.69 522.528 163.056 524.495 164.323 524.257C165.585 524.02 165.219 522.054 163.954 522.291Z" fill="#2E2D2D"/>
<path d="M148.9 534.098C147.638 534.334 148.004 536.302 149.269 536.065C150.532 535.828 150.166 533.86 148.9 534.098Z" fill="#2E2D2D"/>
<path d="M162.041 533.107C160.779 533.344 161.145 535.312 162.41 535.075C163.673 534.837 163.306 532.87 162.041 533.107Z" fill="#2E2D2D"/>
<path d="M143.882 543.849C142.618 544.086 142.986 546.054 144.251 545.817C145.515 545.58 145.148 543.612 143.882 543.849Z" fill="#2E2D2D"/>
<path d="M155.255 542.048C153.993 542.285 154.359 544.253 155.624 544.016C156.886 543.779 156.52 541.811 155.255 542.048Z" fill="#2E2D2D"/>
<path d="M167.855 540.614C166.593 540.851 166.959 542.819 168.224 542.581C169.489 542.344 169.12 540.377 167.855 540.614Z" fill="#2E2D2D"/>
<path d="M149.802 550.806C149.773 550.851 149.741 550.895 149.711 550.939C148.985 552.004 150.634 553.135 151.36 552.069C151.391 552.026 151.421 551.982 151.451 551.936C152.178 550.873 150.529 549.741 149.802 550.806Z" fill="#2E2D2D"/>
<path d="M162.678 547.628C162.641 547.635 162.605 547.642 162.566 547.65C161.303 547.886 161.671 549.852 162.934 549.615C162.974 549.608 163.01 549.601 163.047 549.594C164.311 549.357 163.944 547.391 162.678 547.628Z" fill="#2E2D2D"/>
</svg>
