<svg width="122" height="115" viewBox="0 0 122 115" fill="none" xmlns="http://www.w3.org/2000/svg">
<path d="M90.7883 85.683C89.6828 84.7364 89.4878 83.337 87.8817 82.9175C86.7175 82.6135 85.6057 83.4494 84.5006 83.6113C82.3788 83.9224 80.9949 83.9975 79.1205 82.2363C78.4211 81.5775 78.0327 80.5007 77.3507 79.7917C74.2979 76.6125 71.1221 77.5526 67.0819 77.6201C61.957 77.7061 59.145 74.3669 56.5853 70.4543C55.4575 68.731 54.3979 67.2572 52.458 66.4136C49.9925 65.3431 47.5662 65.6264 45.0466 64.4585C41.7282 62.9206 42.4397 61.4955 40.1445 59.3273C37.8708 57.1815 35.1485 58.0577 32.3642 58.4908C29.3119 58.9672 29.1028 59.1199 26.3531 56.937C22.8016 54.117 24.5143 55.3117 23.8491 52.3281C23.6638 51.4983 23.2865 50.6243 22.6463 50.0674C21.4169 48.9974 19.664 49.5581 18.3119 48.8908C12.3351 45.9462 20.1977 43.6815 23.296 43.6713C25.3269 45.6659 28.3531 47.3662 30.2139 48.5372C39.2098 54.2031 48.9368 58.8794 58.2802 63.9463C66.8097 68.6333 75.3455 73.2699 84.2686 77.1836C87.091 78.4212 90.5408 79.8932 93.7452 80.0469C94.4596 81.0238 96.5201 83.8584 96.2713 85.076C95.6988 87.8837 92.1812 86.8751 90.7883 85.683ZM68.2761 86.825C61.8468 83.5085 55.093 80.9332 48.6195 77.7176C42.5498 74.7033 36.6948 71.2737 30.8278 67.8843C27.9439 66.2168 25.0548 64.5521 22.1685 62.889C17.1813 60.0108 17.5996 56.0873 20.4068 51.7901C22.0687 53.0524 21.1682 54.4069 21.5574 56.2731C22.6792 61.6431 28.9274 61.4273 33.0389 60.6867C35.9147 60.1685 37.5911 59.8011 39.5231 62.458C40.2339 63.4347 40.5042 64.6363 41.332 65.5638C43.1705 67.6271 45.1581 67.3729 47.643 67.9135C53.871 69.2685 53.1907 70.1588 56.1804 74.2792C56.9358 75.3186 57.7809 76.2942 58.7795 77.1062C61.2516 79.1196 64.0444 79.972 67.1754 79.9141C71.1372 79.8404 72.7454 78.5309 76.4105 82.3264C77.0826 83.0227 77.4349 84.0172 78.1297 84.7125C79.697 86.2793 81.1892 86.7944 83.3507 86.4189C85.0997 86.1141 86.2238 85.5596 87.6815 86.1956C87.8839 98.2215 73.0337 89.2787 68.2761 86.825ZM84.8667 100.92C84.5544 103.216 82.3573 106.371 80.0153 106.873C76.8354 107.555 72.0564 105.166 69.2644 103.916C60.0695 99.8046 51.0781 95.138 42.198 90.3875C34.003 86.0043 25.7348 81.5877 17.7806 76.7752C14.396 74.7288 7.50464 71.4995 8.15321 67.0335C8.91339 61.8043 12.7075 60.4757 17.0732 62.3594C18.4009 63.6394 20.2865 64.4523 21.8645 65.362C31.7935 71.0886 41.6131 77.1896 52.0788 81.8977C57.4666 84.3219 62.8811 86.5839 68.121 89.3287C72.054 91.3876 75.5484 93.9935 80.0155 94.535C82.5617 95.9398 85.3696 97.1975 84.8667 100.92ZM29.4557 28.9651C36.4855 22.4862 47.8628 17.4005 57.5143 17.6389C66.226 17.8537 76.2817 22.0398 83.1923 27.2658C93.0135 34.6933 101.433 47.3938 102.167 59.8764C102.428 64.3182 101.743 69.2697 99.87 73.3422C96.7967 80.0304 89.7355 77.1212 84.4932 74.7798C75.8752 70.9314 67.6186 66.4579 59.357 61.9167C51.6943 57.762 43.9911 53.6694 36.3667 49.4459C32.6219 47.3717 24.3469 43.9615 23.6681 39.2331C23.1359 35.5404 27.1132 31.1233 29.4557 28.9651ZM96.3749 79.8178C97.9607 79.4357 99.4099 78.5728 100.584 76.9645C108.117 66.6404 104.297 50.4283 97.9067 40.6459C90.0808 28.6669 79.6202 20.2579 65.6057 16.563C57.0556 14.3082 49.3625 15.8126 41.3375 19.1811C34.8504 21.9046 26.9936 25.9044 23.4711 32.3859C22.3771 34.3989 20.6867 38.6871 21.3662 40.867C21.4261 41.0584 21.5449 41.244 21.6328 41.4317C18.0842 41.7377 12.9663 43.2346 13.0553 47.0486C13.0953 48.7963 14.718 50.0101 16.1171 50.6447C16.7005 50.9097 17.44 50.9716 18.16 51.0491C16.6943 53.3253 15.1206 56.4558 15.4798 59.2287C13.2732 58.4961 10.8853 58.2205 9.16376 59.7298C6.90866 61.7023 4.60702 67.8179 5.93862 70.7596C6.62195 72.2639 8.2152 72.9699 9.49494 73.868C12.5471 76.009 15.5084 78.1501 18.7637 79.9924C26.1847 84.1897 33.6041 88.3972 41.1212 92.4171C48.7013 96.4686 56.373 100.344 64.1335 104.035C68.6295 106.173 74.821 109.77 80.1102 109.168C83.809 108.747 86.3748 104.845 87.1076 101.417C87.8257 98.0514 86.3029 96.0089 84.0465 94.3588C87.0747 93.6374 89.2424 91.5183 89.8236 88.1731C90.0401 88.5033 90.2804 88.8202 90.674 89.0476C92.1557 89.9043 94.6465 89.6849 96.153 89.0325C100.316 87.2257 98.3879 82.8537 96.3749 79.8178Z" fill="#2E2D2D"/>
<path d="M34.1071 44.807C35.435 45.4428 36.5183 43.4185 35.1832 42.7789C32.8653 41.6716 28.4581 39.8066 30.6094 36.6931C32.0781 34.5688 34.9157 33.1429 37.2758 32.3512C38.6767 31.8803 38.0078 29.6838 36.6033 30.1546C33.4067 31.2284 28.3552 33.8912 27.3538 37.4757C26.3652 41.015 31.6899 43.6526 34.1071 44.807Z" fill="#2E2D2D"/>
<path d="M38.8232 47.3389C40.1299 48.0322 41.2074 46.0048 39.8992 45.3108C38.5954 44.619 37.5165 46.6456 38.8232 47.3389Z" fill="#2E2D2D"/>
<path d="M57.0823 23.5509C57.6826 23.8786 58.2818 23.582 58.6359 23.0756C58.8768 22.73 59.1185 22.383 59.3602 22.0359C59.7173 21.5237 59.3808 20.7548 58.8841 20.4838C58.2846 20.1583 57.6861 20.4534 57.332 20.9599C57.0904 21.3069 56.8487 21.654 56.6063 21.9988C56.2484 22.5125 56.5863 23.2821 57.0823 23.5509Z" fill="#2E2D2D"/>
<path d="M69.221 27.37C69.6641 27.2802 70.1088 27.2748 70.5579 27.2996C72.0313 27.3777 71.9305 25.0835 70.4644 25.0055C69.8058 24.9698 69.1929 25.0438 68.5478 25.1749C67.0991 25.47 67.7849 27.6625 69.221 27.37Z" fill="#2E2D2D"/>
<path d="M80.2995 32.7744C81.177 33.9547 83.1347 32.7526 82.2515 31.5656C81.8351 31.0068 81.4771 30.4288 81.1613 29.8064C80.4911 28.4873 78.5439 29.708 79.2092 31.0152C79.5251 31.6376 79.8831 32.2156 80.2995 32.7744Z" fill="#2E2D2D"/>
<path d="M86.2428 39.1618C86.6278 39.0486 86.9275 39.061 87.3095 39.1634C88.7366 39.5456 89.2354 37.304 87.8082 36.9218C87.0589 36.721 86.3114 36.7477 85.571 36.9675C84.153 37.3903 84.8262 39.5854 86.2428 39.1618Z" fill="#2E2D2D"/>
<path d="M70.4449 38.0794C70.7283 39.5293 72.9208 38.8435 72.6386 37.4054C72.5753 37.0804 72.4917 36.7724 72.3775 36.4594C71.8762 35.0739 69.6798 35.7391 70.1839 37.1334C70.2952 37.4449 70.3802 37.7536 70.4449 38.0794Z" fill="#2E2D2D"/>
<path d="M58.6778 31.4574C59.1159 31.3 59.5034 31.2346 59.9662 31.2369C61.4428 31.2462 61.3478 28.9514 59.8713 28.9421C59.2287 28.939 58.6077 29.0458 58.0046 29.2623C56.6177 29.7629 57.2843 31.96 58.6778 31.4574Z" fill="#2E2D2D"/>
<path d="M79.6279 43.2598C80.4717 44.4687 82.4266 43.2651 81.58 42.051C81.2722 41.6093 81.0931 41.1912 81.0497 40.6502C80.9355 39.1824 78.6394 39.2656 78.7548 40.7452C78.8274 41.6581 79.1004 42.5047 79.6279 43.2598Z" fill="#2E2D2D"/>
<path d="M48.757 25.6592C48.9318 25.4382 49.0813 25.2649 49.3785 25.2296C50.8346 25.0535 50.7551 22.7576 49.2836 22.9348C48.4051 23.0405 47.6457 23.3764 47.0858 24.0819C46.174 25.2336 47.8377 26.8181 48.757 25.6592Z" fill="#2E2D2D"/>
<path d="M89.7868 45.88C90.3416 47.2381 92.5423 46.5753 91.9819 45.2067C91.8143 44.7948 91.6459 44.3843 91.4761 43.973C90.9207 42.6127 88.7214 43.2763 89.2832 44.6456C89.4508 45.0575 89.6192 45.468 89.7868 45.88Z" fill="#2E2D2D"/>
</svg>
