<svg width="124" height="102" viewBox="0 0 124 102" fill="none" xmlns="http://www.w3.org/2000/svg">
<path d="M81.4905 55.7024L81.5185 54.9429C81.5452 54.3025 81.5546 53.6611 81.564 53.0198L81.5661 52.8138C81.6138 49.7746 81.5257 46.5143 81.2957 42.8386L81.1262 39.97C80.7416 33.2388 80.3424 26.2817 78.4602 19.7863C78.3377 19.3657 78.2098 18.9183 78.067 18.4579C78.3714 18.2617 78.7195 18.1082 79.1053 18.0027C81.013 17.4815 83.5945 18.1573 85.6682 18.6986C86.3197 18.8692 86.9223 19.0268 87.4489 19.1335L88.3759 19.3192C91.0328 19.8501 93.7813 20.3993 96.1882 21.705C99.986 23.7632 101.785 26.5409 101.855 30.4392C101.906 33.4873 100.977 36.8729 100.153 39.8567L99.8665 40.9111C98.5587 45.738 96.8858 50.4424 95.4212 54.4058C94.9359 55.7123 94.4489 57.0193 93.9574 58.3238C93.7826 58.7805 93.6272 59.2808 93.4677 59.7936C93.1588 60.773 92.8422 61.7866 92.3824 62.5868C91.7843 63.6321 90.9831 64.2788 89.9345 64.5653C88.7334 64.8935 87.3789 64.7153 86.0939 64.5087C85.6199 64.429 85.1264 64.3679 84.6233 64.3056C83.0789 64.1152 81.4846 63.9215 80.2166 63.2184C81.304 60.9503 81.4016 58.1631 81.4905 55.7024ZM20.307 85.1696C20.0446 84.7402 19.7973 84.3386 19.5677 83.9811C15.9418 78.3316 14.5033 72.8738 15.0464 66.8068C15.4582 62.204 16.1304 57.4094 18.23 53.4666L19.1375 54.6017C24.4437 61.2977 29.4704 66.6813 34.5035 71.0607C35.9175 72.291 37.3615 73.4586 38.796 74.5364C35.8176 77.3457 33.8043 80.3699 32.4678 84.0364C32.3089 84.4757 32.1487 85.0547 31.9704 85.6988C31.3142 88.0901 30.4132 91.3644 28.1986 91.9695C28.1986 91.9695 28.1986 91.9695 28.1969 91.97C27.5578 92.1277 26.8292 92.0403 26.0371 91.7137C23.7408 90.7644 21.7562 87.5286 20.307 85.1696ZM46.6593 74.8054C43.9187 75.5542 41.2796 73.1436 39.1596 71.2054C38.7309 70.8157 38.3193 70.4401 37.9279 70.1043L36.7593 69.0895C32.1072 65.0356 27.7499 60.626 23.8072 55.9826C23.4082 55.515 22.9684 55.0228 22.5124 54.5124C20.6039 52.3826 18.44 49.9665 17.7458 47.4466C16.9728 44.6316 18.8869 41.7268 21.0704 39.0084C23.9847 35.3781 28.9857 31.1512 33.5814 29.8955C34.5756 29.6238 35.5266 29.4977 36.4135 29.523C36.4045 33.0001 38.0346 36.8698 39.476 40.2898C39.9169 41.3376 40.3395 42.3395 40.691 43.2742C43.0997 49.6897 45.3866 55.3075 47.6809 60.456C47.8482 60.8268 48.0123 61.2134 48.1774 61.6111L48.5235 62.4361C49.6037 65.0447 50.8276 67.9927 52.6423 70.069C51.1488 72.2992 48.996 74.0406 46.8572 74.7437L46.6593 74.8054ZM55.2198 68.7994C53.449 67.1182 52.287 64.3209 51.2624 61.8535C51.0534 61.351 50.8506 60.8637 50.5813 60.2439L50.4543 59.9583C48.4404 55.4982 46.4215 50.606 44.1081 44.5602C43.2213 42.2455 42.3575 39.9188 41.5246 37.5875C41.3292 37.0379 41.1004 36.456 40.862 35.8522C39.8838 33.3759 38.7782 30.5708 39.2543 28.1965C40.2851 23.059 46.3303 18.7088 56.7334 15.6119C57.0611 15.5148 57.3868 15.4239 57.7164 15.3338C61.6546 14.2577 65.2134 13.8487 68.602 14.0854C70.8946 14.2485 72.8735 14.388 74.3171 16.4922C74.5976 16.8979 74.8532 17.399 75.0898 17.9543C75.08 18.298 75.2031 18.645 75.4064 18.8646C75.7475 19.9133 76.0008 21.0331 76.2225 22.0239L76.369 22.6566C78.0121 29.7939 78.3445 37.4513 78.6648 44.8577L78.709 45.8745C78.8246 48.4904 78.8669 50.7833 78.8386 52.8864C78.811 54.8404 78.7336 56.4463 78.5925 57.9301C78.1932 62.1715 76.0155 64.6772 71.0798 66.578C69.5629 67.164 67.2702 68.0486 64.8277 68.716C60.4004 69.9257 57.1589 69.9447 55.2198 68.7994ZM106.302 71.6344L106.136 71.2012C105.967 70.7683 105.81 70.3327 105.654 69.8971C105.169 68.558 104.67 67.1737 103.842 65.9432C101.986 63.1831 99.1528 62.1595 96.1486 61.309C96.6759 59.9288 97.1111 58.4664 97.5349 57.0523C97.6976 56.5028 97.8579 55.9654 98.0195 55.4464C98.1995 54.8639 98.3822 54.3052 98.5728 53.7821C100.151 49.4467 101.935 44.2897 103.216 38.9068L103.35 38.3426C103.581 37.3692 103.822 36.3612 104.03 35.3359C109.458 37.804 112.989 45.4769 114.046 50.0893C115.54 56.6133 115.099 62.9291 112.737 68.8639C112.646 69.0942 112.545 69.3742 112.439 69.6822C112.012 70.8712 111.431 72.5035 110.612 73.1283C109.982 73.6136 109.414 73.927 108.926 74.0602C108.772 74.1023 108.623 74.1298 108.484 74.1363C107.256 74.2022 106.75 72.8404 106.302 71.6344ZM104.491 32.5624C104.793 30.0305 104.648 27.9236 104.048 26.1261C102.741 22.2041 98.7538 19.847 96.4948 18.7929C93.4525 17.3687 90.0024 16.7342 86.6695 16.1224C85.9935 16 85.3228 15.8761 84.5106 15.7174C82.4665 15.3187 80.15 14.8682 78.1494 15.4149C77.7759 15.5169 77.4191 15.6521 77.0875 15.8181C76.4766 14.5133 75.7714 13.5736 74.9311 12.9534C72.826 11.3936 69.6025 11.3266 67.249 11.2782C64.0065 11.2107 60.5584 11.6667 56.9955 12.6403C54.1076 13.4294 51.1259 14.5644 48.1301 16.0067C43.7638 18.1156 38.2706 21.6931 36.7873 26.8224C35.5428 26.778 34.2262 26.9456 32.8691 27.3164C27.3336 28.8289 22.118 33.367 19.0819 37.1097C17.0012 39.6737 15.0438 42.4679 14.7997 45.4986C14.6579 47.2898 15.1772 49.0454 16.4372 51.0225C13.9104 55.0501 12.534 60.5911 12.2281 67.9538C11.9299 75.1862 14.249 81.6941 19.7529 89.0653C23.1224 93.5767 26.107 95.4035 28.8774 94.6465C29.7856 94.3983 30.6704 93.8643 31.5061 93.0539C33.1231 91.4828 33.7294 89.371 34.3129 87.3273C34.5118 86.6415 34.7082 85.9534 34.9418 85.2845C36.1933 81.7273 38.1719 78.8034 40.9989 76.1297L41.1874 76.2609C43.1229 77.5862 45.3464 77.9585 47.6188 77.3376C50.2874 76.6084 52.9966 74.4964 54.8842 71.6742C58.1614 72.9099 62.5378 71.8516 65.7425 71.0777L66.0237 71.0103C66.8738 70.8044 67.8081 70.5754 68.7795 70.31C71.7655 69.4941 76.0118 68.1115 78.593 65.4898C80.297 66.5335 82.3394 66.7876 84.3181 67.0365C84.8751 67.1029 85.4357 67.1754 85.9907 67.2616C88.0613 67.5848 89.7291 67.5649 91.0897 67.1931C92.3417 66.8511 93.3456 66.2014 94.0731 65.2643C94.3875 64.8633 94.6879 64.3971 94.9952 63.8458C98.3435 64.8041 101.028 65.8489 102.571 69.4204C102.838 70.0465 103.062 70.7149 103.287 71.3918C103.83 73.0237 104.391 74.7098 105.644 75.9029C106.963 77.156 108.288 77.6073 109.587 77.2522C109.589 77.2518 109.589 77.2518 109.589 77.2518C111.73 76.6668 113.751 73.9182 115.589 69.0739C118.194 62.2079 118.388 54.4445 116.133 47.2107C114.402 41.6632 110.032 34.7436 104.491 32.5624Z" fill="#2E2D2D"/>
<path d="M47.5743 39.053C46.465 36.0209 43.9526 30.9226 46.8246 28.2686C48.0285 27.1576 46.2096 25.3765 45.0074 26.4869C41.2173 29.9873 43.6385 35.6758 45.1195 39.7238C45.6779 41.2501 48.1382 40.5929 47.5743 39.053Z" fill="#2E2D2D"/>
<path d="M48.9152 23.0448C48.8678 23.0578 48.8205 23.0707 48.7749 23.0832C47.1951 23.5148 47.8636 25.9683 49.4452 25.5362C49.4907 25.5237 49.5381 25.5108 49.5854 25.4978C51.1635 25.0666 50.4967 22.6127 48.9152 23.0448Z" fill="#2E2D2D"/>
</svg>
