<svg width="102" height="66" viewBox="0 0 102 66" fill="none" xmlns="http://www.w3.org/2000/svg">
<path d="M39.8375 16.6123C44.8247 15.0702 51.0345 15.255 56.1667 15.609C58.8605 15.7195 62.4178 16.3809 64.2915 18.612C66.5761 21.3266 64.5488 23.3677 62.0863 24.523C58.8553 21.4751 53.0807 21.6409 48.919 21.7238C44.4551 21.8136 39.8393 22.2315 36.301 25.1533C35.049 24.618 34.075 23.8305 33.8333 22.6338C33.1045 19.0575 37.2265 17.4205 39.8375 16.6123ZM43.1496 26.3932C42.243 26.3051 40.8495 26.2153 39.4145 25.9839C44.2566 23.4921 54.6056 22.7634 59.2715 25.4417C53.9856 26.5987 48.5357 26.9147 43.1496 26.3932ZM43.1496 28.8091C48.8465 29.3444 54.6055 28.9766 60.1867 27.7229C63.1224 27.0649 67.7624 26.236 68.745 22.7806C70.4909 16.6572 60.4613 13.3693 56.1667 13.1914C49.8567 12.7562 34.8936 11.9429 31.3345 19.4841C28.1209 26.293 38.905 28.4119 43.1496 28.8091Z" fill="#2E2D2D"/>
<path d="M75.7647 59.4399C68.6294 62.1683 60.8137 63.3839 50.4232 63.3839C49.7446 63.3839 49.0676 63.3806 48.3872 63.3718C33.3067 63.044 12.9125 60.9718 5.73402 47.4884C7.08615 48.1843 8.62133 48.2862 10.2325 47.345C11.291 46.7251 11.9403 45.1606 12.9194 44.6753C17.0293 42.6463 16.7669 45.4006 17.3039 47.6455C17.8479 49.9129 18.3435 52.8503 19.9218 54.6978C24.2977 59.8197 25.3044 51.7606 28.3489 51.4826C30.314 51.3013 31.6091 53.6411 33.8247 53.6845C37.5927 53.7601 38.6892 49.7903 41.6543 48.54C47.0161 46.2761 50.0243 57.1916 55.2255 57.5836C62.2676 58.119 60.8775 46.3746 66.1582 46.2571C70.6152 46.1604 74.2969 50.8143 78.2462 47.314C79.0975 46.5611 79.9437 44.0934 80.8779 43.8741C83.1332 43.3457 83.5114 45.8634 84.3731 47.2328C85.0811 48.3587 86.0602 50.2548 87.6748 50.203C89.1806 50.1529 89.7971 48.6782 90.367 47.5333C91.0404 46.1829 92.0524 39.2133 93.3492 38.861C95.0105 38.412 96.2521 41.415 98.2622 40.745C97.6111 43.0659 96.6424 45.133 95.3628 46.9133C90.7538 53.3459 84.0502 56.2762 75.7647 59.4399ZM4.74281 21.2333C7.90122 13.7526 14.8 8.14382 24.1716 5.43612C32.388 3.06515 41.0913 2.73531 50.7979 2.57299C51.2055 2.56781 51.613 2.56263 52.0205 2.56263C60.4597 2.56263 68.6587 4.00109 77.8197 7.09043C83.9206 9.14711 94.6168 14.0237 97.7009 23.587C98.5644 26.2619 99.0859 29.2045 99.2067 32.0711C99.2344 32.3819 99.2361 32.7117 99.243 33.0346C99.2257 33.0985 99.1912 33.1521 99.1825 33.2211C99.0858 34.0517 98.421 37.8353 97.606 38.1427C96.259 38.6538 95.1883 36.5574 93.8725 36.5643C92.5704 36.573 92.4271 36.4573 91.4325 37.4174C90.2772 38.5347 89.9301 41.1215 89.4863 42.5461C88.6971 45.0846 88.4795 48.6316 86.1915 45.5111C84.5613 43.2887 83.6616 39.1563 80.1924 41.1957C78.1495 42.3959 77.426 45.9688 74.9445 46.2951C72.9103 46.5628 69.3805 44.5372 67.3981 44.0761C63.675 43.2075 61.8498 42.9813 60.5477 46.8477C59.1835 50.9006 57.4411 57.6354 52.3935 52.8658C50.3507 50.9352 48.6515 48.4399 46.3202 46.8374C42.851 44.4526 40.6095 46.2813 37.755 48.7921C35.2304 51.0146 33.9628 50.74 30.8079 49.3119C30.1431 49.0115 29.7752 48.3155 28.9774 48.1463C27.5735 47.8493 26.7653 48.2896 25.781 49.2204C24.232 50.6848 24.9452 52.5964 22.5932 52.4928C20.5228 52.403 20.3656 49.9405 19.9097 48.1688C19.4521 46.3936 19.3917 44.1072 18.3072 42.5634C17.3281 41.1647 15.489 40.2045 13.7691 40.676C12.4653 41.0334 12.1596 42.2284 11.2099 42.9675C7.85804 45.5716 4.52349 44.6581 3.26462 40.2978C3.25598 40.2667 3.23354 40.2477 3.22318 40.2166C3.11266 39.7003 2.97279 39.1943 2.88472 38.6676L2.61878 36.7456C2.02647 31.2905 2.75693 25.9338 4.74281 21.2333ZM101.6 33.2211C101.623 33.0191 101.6 32.8481 101.545 32.6996C101.521 31.3233 101.445 29.9246 101.253 28.4827C100.17 20.3785 95.7082 13.7975 87.9874 8.92089C83.9086 6.34616 79.1666 4.90078 74.5784 3.50549L73.6649 3.22747C68.1459 1.54034 63.4022 0.607841 58.738 0.300468C55.7574 0.100151 52.7424 -7.62939e-06 49.7774 -7.62939e-06C41.6163 -7.62939e-06 34.0008 0.735619 27.1452 2.18963C20.1688 3.66781 10.6694 7.18887 5.03637 15.5796C0.688158 22.0553 -0.950634 30.7155 0.536185 39.3428C2.30621 49.5986 8.09464 56.7146 17.7426 60.4935C26.192 63.8035 36.1853 65.5412 48.3009 65.8082C49.0642 65.817 49.8292 65.8237 50.5942 65.8237C57.398 65.8237 66.3171 65.4252 74.9687 62.3236C81.9399 59.8229 89.8403 56.9912 95.2712 50.9127C99.3604 46.3331 101.464 40.4325 101.543 33.6719C101.562 33.5216 101.585 33.3575 101.6 33.2211Z" fill="#2E2D2D"/>
<path d="M22.7883 33.6788C24.282 34.1226 24.9209 31.7914 23.4307 31.3493C18.5005 29.885 13.8432 27.1047 12.0922 22.0088C11.5897 20.5462 9.25324 21.1747 9.76094 22.6529C11.8021 28.5881 16.9895 31.9572 22.7883 33.6788Z" fill="#2E2D2D"/>
<path d="M28.0844 34.8704C29.6386 34.8704 29.642 32.451 28.0844 32.451C26.5268 32.451 26.525 34.8704 28.0844 34.8704Z" fill="#2E2D2D"/>
</svg>
