<svg width="646" height="380" viewBox="0 0 646 380" fill="none" xmlns="http://www.w3.org/2000/svg">
<rect width="645.949" height="380" fill="#CEFFEA"/>
<path d="M619.403 290.157C621.081 289.493 623.17 289.573 624.896 289.725C625.803 289.773 626.999 290.058 627.63 291.019C628.398 292.188 627.716 293.068 626.888 293.566C625.801 292.252 623.858 292.324 622.458 292.36C620.956 292.398 619.403 292.578 618.213 293.837C617.792 293.607 617.464 293.267 617.383 292.752C617.138 291.211 618.524 290.506 619.403 290.157V290.157ZM620.517 294.371C620.212 294.333 619.743 294.295 619.26 294.195C620.889 293.121 624.371 292.807 625.941 293.961C624.163 294.46 622.329 294.596 620.517 294.371V294.371ZM620.517 295.412C622.434 295.643 624.371 295.484 626.249 294.944C627.236 294.661 628.797 294.304 629.128 292.815C629.715 290.177 626.341 288.76 624.896 288.683C622.773 288.496 617.739 288.146 616.542 291.395C615.461 294.328 619.089 295.241 620.517 295.412" fill="#2E2D2D"/>
<path d="M631.49 308.609C629.089 309.785 626.46 310.308 622.964 310.308C622.736 310.308 622.508 310.307 622.279 310.303C617.206 310.162 610.344 309.269 607.929 303.46C608.384 303.76 608.901 303.804 609.443 303.398C609.799 303.131 610.017 302.457 610.347 302.248C611.729 301.374 611.641 302.56 611.822 303.528C612.005 304.504 612.171 305.77 612.702 306.566C614.175 308.773 614.513 305.3 615.538 305.181C616.199 305.103 616.634 306.111 617.38 306.129C618.648 306.162 619.016 304.452 620.014 303.913C621.818 302.938 622.83 307.64 624.58 307.809C626.949 308.04 626.481 302.98 628.258 302.929C629.757 302.888 630.996 304.893 632.325 303.385C632.611 303.06 632.896 301.997 633.21 301.903C633.969 301.675 634.096 302.76 634.386 303.35C634.624 303.835 634.954 304.652 635.497 304.629C636.004 304.608 636.211 303.972 636.403 303.479C636.629 302.897 636.97 299.895 637.406 299.743C637.965 299.549 638.383 300.843 639.059 300.555C638.84 301.554 638.514 302.445 638.083 303.212C636.533 305.983 634.277 307.246 631.49 308.609V308.609ZM607.596 292.148C608.658 288.925 610.979 286.509 614.132 285.342C616.896 284.321 619.825 284.178 623.09 284.109C623.227 284.106 623.364 284.104 623.502 284.104C626.341 284.104 629.099 284.724 632.181 286.055C634.234 286.941 637.832 289.042 638.87 293.162C639.161 294.315 639.336 295.582 639.377 296.817C639.386 296.951 639.387 297.093 639.389 297.233C639.383 297.26 639.371 297.283 639.369 297.313C639.336 297.671 639.112 299.301 638.838 299.433C638.385 299.654 638.025 298.75 637.582 298.753C637.144 298.757 637.096 298.707 636.761 299.121C636.372 299.602 636.256 300.717 636.106 301.331C635.841 302.424 635.768 303.952 634.998 302.608C634.449 301.65 634.147 299.87 632.98 300.749C632.292 301.266 632.049 302.805 631.214 302.946C630.53 303.061 629.342 302.188 628.675 301.99C627.423 301.615 626.808 301.518 626.37 303.184C625.911 304.93 625.325 307.832 623.627 305.777C622.94 304.945 622.368 303.87 621.584 303.179C620.417 302.152 619.662 302.94 618.702 304.022C617.853 304.979 617.426 304.861 616.365 304.245C616.141 304.116 616.017 303.816 615.749 303.743C615.277 303.615 615.005 303.805 614.674 304.206C614.153 304.837 614.392 305.661 613.601 305.616C612.905 305.577 612.852 304.516 612.698 303.753C612.544 302.988 612.524 302.003 612.159 301.338C611.83 300.735 611.211 300.322 610.632 300.525C610.194 300.679 610.091 301.194 609.771 301.512C608.644 302.634 607.522 302.24 607.098 300.362C607.095 300.348 607.088 300.34 607.084 300.327C607.047 300.104 607 299.886 606.971 299.66L606.881 298.831C606.682 296.481 606.928 294.173 607.596 292.148V292.148ZM640.182 297.313C640.189 297.226 640.182 297.152 640.163 297.088C640.155 296.495 640.13 295.893 640.065 295.271C639.701 291.78 638.2 288.945 635.602 286.843C634.23 285.734 632.634 285.111 631.091 284.51L630.783 284.391C628.927 283.664 627.331 283.262 625.762 283.129C624.759 283.043 623.744 283 622.747 283C620.001 283 617.439 283.317 615.133 283.943C612.785 284.58 609.59 286.097 607.694 289.712C606.232 292.502 605.68 296.233 606.18 299.95C606.776 304.369 608.723 307.435 611.969 309.063C614.812 310.489 618.174 311.238 622.25 311.353C622.507 311.357 622.764 311.359 623.022 311.359C625.311 311.359 628.311 311.188 631.222 309.851C633.568 308.774 636.225 307.554 638.053 304.935C639.428 302.962 640.136 300.42 640.163 297.507C640.169 297.442 640.177 297.372 640.182 297.313" fill="#2E2D2D"/>
<path d="M613.667 297.51C614.169 297.702 614.384 296.697 613.883 296.507C612.224 295.876 610.657 294.678 610.068 292.482C609.899 291.852 609.113 292.123 609.284 292.76C609.971 295.317 611.716 296.769 613.667 297.51Z" fill="#2E2D2D"/>
<path d="M615.449 298.023C615.972 298.023 615.973 296.981 615.449 296.981C614.925 296.981 614.924 298.023 615.449 298.023Z" fill="#2E2D2D"/>
<path d="M39.3748 27.3318C39.0415 29.2466 38.1811 31.4438 37.5127 33.2547C35.9098 37.598 31.3132 40.2706 28.0388 42.166C24.1322 44.4281 20.5588 44.4516 16.4045 43.7725C10.1625 42.3437 6.30841 34.6438 6.9857 26.7257C7.22266 23.9556 7.93164 21.1362 8.66215 18.5268C9.7481 14.6468 11.9124 9.50926 14.6501 7.14494C17.9954 4.25566 21.6993 6.79606 25.3284 6.52506C26.3738 6.44636 27.3666 6.06338 28.3822 5.76074C30.6555 5.08406 32.0671 5.49867 33.8728 7.42811C35.1254 8.76686 36.3742 10.2557 37.3834 11.9012C38.9237 14.4124 39.293 17.2002 39.4704 20.3053C39.601 22.6063 39.7708 25.0559 39.3748 27.3318V27.3318ZM40.4702 22.7281C40.3264 17.2951 39.6643 12.9778 36.5687 9.06219C34.2384 6.11531 32.1412 3.59521 28.7345 4.49259C26.4042 5.1076 24.5256 5.5214 22.1111 5.07758C20.3523 4.75465 18.5428 4.27513 16.7719 4.76601C13.279 5.73397 11.3352 9.81108 9.5783 13.4257C7.9291 16.8197 6.90017 20.9544 6.31348 24.8839C4.97853 33.8186 8.91368 43.2191 16.1821 44.8719C16.2061 44.8776 16.2258 44.8686 16.2486 44.8703C16.267 44.8759 16.2803 44.8889 16.2999 44.8922C20.2395 45.5453 23.7172 45.7271 27.4509 43.7327C30.7822 41.9558 35.0874 39.443 37.4101 35.7432C38.4713 34.0515 39.122 31.5371 39.7606 29.5581C40.4601 27.3885 40.5304 25.0429 40.4702 22.7281Z" fill="#2E2D2D"/>
<path d="M18.4104 29.1103C15.3838 27.3455 13.8607 22.8035 14.8662 18.7515C16.0732 13.8882 19.7346 13.1661 23.0799 14.3069C30.2444 18.1471 25.7232 33.3748 18.4104 29.1103ZM23.3162 13.2115C19.4558 11.8955 15.3775 13.003 14.0109 18.4505C12.8261 23.1711 14.7775 28.5488 18.3952 30.3573C26.7907 34.5554 31.3905 17.5402 23.3162 13.2115Z" fill="#2E2D2D"/>
<path d="M17.2712 17.8793C15.5384 19.2611 15.6258 22.0749 16.4457 24.1796C16.7004 24.8344 17.4657 24.2591 17.2117 23.6068C16.6186 22.0846 16.4241 19.8931 17.7185 18.8602C18.2019 18.4748 17.7572 17.4915 17.2712 17.8793Z" fill="#2E2D2D"/>
<path d="M18.7785 16.3937C18.2083 16.3937 18.207 17.5305 18.7785 17.5305C19.3493 17.5305 19.3506 16.3937 18.7785 16.3937Z" fill="#2E2D2D"/>
<path d="M22.2388 215.104C26.0553 213.608 21.0927 205.918 20.8361 203.195C20.4898 199.524 23.0243 197.468 23.502 194.145C23.7878 192.157 23.0929 190.392 22.3976 188.608C21.7441 186.93 21.0905 185.236 21.2524 183.324C21.5462 179.858 24.2372 177.37 24.2929 173.895C24.322 172.052 23.5541 170.559 22.7861 169.043C22.0002 167.491 21.2143 165.914 21.2825 163.91C21.4085 160.198 23.5545 157.075 23.6187 153.37C23.6492 151.629 23.018 150.102 22.3869 148.585C21.6413 146.793 20.8954 145.014 21.2403 142.916C21.596 140.752 22.7507 139.233 24.5176 139.665C24.8944 139.757 24.8069 140.534 24.4279 140.518C22.5632 140.44 22.1935 143.317 22.4685 144.946C22.6547 146.048 23.2127 147.095 23.6128 148.079C24.2009 149.526 24.7661 150.944 24.8455 152.605C25.0034 155.92 23.48 158.793 22.8166 161.876C22.2622 164.452 22.6605 166.402 23.7855 168.569C24.5014 169.949 25.3156 171.272 25.517 172.959C25.8651 175.875 24.3767 178.244 23.4078 180.685C21.5898 185.268 24.1883 187.616 24.8652 191.868C25.3973 195.212 23.6487 197.407 22.6722 200.255C21.2228 204.482 24.6625 207.372 25.0245 211.349C25.2465 213.788 24.5629 216.17 22.6286 216.915C21.7225 217.264 21.3377 215.457 22.2388 215.104" fill="black"/>
<path d="M630.102 224.152C626.285 222.655 631.248 214.966 631.505 212.242C631.851 208.572 629.317 206.516 628.839 203.192C628.553 201.205 629.248 199.44 629.943 197.655C630.597 195.978 631.25 194.283 631.088 192.372C630.795 188.906 628.104 186.417 628.048 182.942C628.019 181.1 628.787 179.607 629.555 178.091C630.341 176.539 631.127 174.962 631.058 172.958C630.932 169.246 628.786 166.122 628.722 162.417C628.692 160.677 629.323 159.15 629.954 157.633C630.7 155.84 631.446 154.062 631.101 151.963C630.745 149.799 629.59 148.281 627.823 148.713C627.446 148.805 627.534 149.582 627.913 149.566C629.778 149.487 630.147 152.365 629.872 153.993C629.686 155.096 629.128 156.142 628.728 157.127C628.14 158.574 627.575 159.992 627.495 161.653C627.337 164.968 628.861 167.841 629.524 170.924C630.079 173.5 629.68 175.45 628.555 177.617C627.839 178.996 627.025 180.32 626.824 182.007C626.476 184.923 627.964 187.292 628.933 189.733C630.751 194.315 628.152 196.664 627.475 200.915C626.943 204.259 628.692 206.455 629.669 209.303C631.118 213.53 627.678 216.419 627.316 220.397C627.094 222.835 627.778 225.217 629.712 225.963C630.618 226.311 631.003 224.505 630.102 224.152" fill="black"/>
<path d="M639.545 53.1592C637.156 53.2026 634.769 53.1813 632.379 53.1208C632.615 52.0117 632.377 50.4217 632.384 49.328C632.423 43.9717 632.407 38.6137 632.363 33.2566C632.331 29.4689 632.757 24.9446 632.108 21.2098C633.41 21.3155 634.677 21.2158 635.989 21.1552C637.521 21.0845 639.368 20.8168 640.892 21.0538C640.985 21.8313 640.948 22.7452 640.972 23.4775C641.047 25.7272 641.097 27.9778 641.125 30.2302C641.191 35.531 641.023 40.8268 641.089 46.1285C641.107 47.6707 641.131 49.2129 641.142 50.7542C641.157 52.8318 641.17 53.1293 639.545 53.1592ZM630.858 53.1941C629.681 53.0253 628.39 53.2188 627.205 53.2137C624.26 53.2009 621.315 53.1583 618.37 53.1455C617.056 53.1412 617.394 52.4439 617.362 50.8668C617.334 49.5189 617.317 48.1711 617.301 46.8233C622.017 47.155 626.743 46.5181 631.459 46.762C631.457 47.4013 631.461 48.0399 631.457 48.6784C631.448 50.0944 631.609 51.7789 631.413 53.1992C631.225 53.2222 630.996 53.2137 630.858 53.1941ZM620.662 14.9294C621.062 14.1996 621.462 13.1954 621.977 12.5833C622.539 11.9166 622.131 12.2346 622.912 12.0513C624.538 11.6694 626.422 11.9729 628.077 11.909C630.513 11.8152 632.925 11.5586 635.356 11.747C633.92 14.371 632.688 17.2107 631.308 19.8893C631.108 19.833 630.864 19.8023 630.545 19.7606C627.988 19.4247 625.305 19.2363 622.741 19.5048C621.212 19.5824 619.682 19.66 618.153 19.7375C618.956 18.1067 619.798 16.5065 620.662 14.9294ZM622.647 6.49898C623.156 5.47512 624.268 5.77521 625.146 5.74026C627.072 5.66353 629.002 5.44017 630.929 5.45893C631.817 5.46745 634.914 5.0071 635.631 5.77691C635.53 5.66864 635.608 6.98234 635.63 7.68395C635.661 8.6524 635.685 9.62 635.714 10.5884C632.876 10.3131 630.047 10.6584 627.205 10.7445C625.979 10.782 623.844 10.3352 622.495 10.753C622.439 9.38044 622.289 7.21849 622.647 6.49898ZM617.284 45.629C617.253 42.1951 617.261 38.7595 617.306 35.3256C617.326 33.7834 617.356 32.2404 617.392 30.6973C621.998 30.9181 626.83 31.2464 631.419 30.7076C631.453 33.8473 631.459 36.9888 631.467 40.1269C631.471 41.941 631.464 43.7552 631.461 45.5684C626.739 45.3246 622.006 45.964 617.284 45.629ZM622.741 20.6983C625.246 20.4357 627.867 20.6165 630.366 20.9327C630.522 20.9524 630.94 21.0743 631.14 21.0674C631.15 21.1084 631.16 21.151 631.168 21.1919C631.318 21.8449 631.248 22.7008 631.271 23.3743C631.339 25.4186 631.376 27.4672 631.403 29.5158C626.829 30.0511 622.015 29.7263 617.424 29.5055C617.458 28.1858 617.494 26.8653 617.539 25.5456C617.581 24.3291 617.28 21.642 618.189 20.9285C618.972 20.3155 621.873 20.7426 622.741 20.6983ZM640.575 19.8381C639.251 19.7392 637.875 19.96 636.557 19.9524C635.136 19.9438 633.755 20.105 632.345 20.0274C633.656 17.4306 634.854 14.7095 636.245 12.192C637.181 13.5356 637.99 15.0274 638.781 16.5082C639.316 17.5091 640.115 18.6762 640.575 19.8381ZM641.914 23.7912C641.852 21.885 641.933 20.5227 641.145 18.9277C639.794 16.1996 638.399 13.3582 636.662 10.9951C636.66 9.47251 637.034 6.16736 636.409 5.09661C635.879 4.18699 634.426 4.44103 633.639 4.38476C631.536 4.23387 629.485 4.33277 627.387 4.45723C625.75 4.55442 623.488 4.07957 621.962 5.01392C621.816 5.10343 621.735 5.33103 621.732 5.52882C621.699 7.46144 621.621 9.39154 621.584 11.3233C621.127 11.8433 620.799 12.6302 620.45 13.2542C619.206 15.4793 617.988 17.7393 616.876 20.0768C616.866 20.0973 616.867 20.1169 616.86 20.1374C616.856 20.1467 616.854 20.1578 616.851 20.1672C616.828 20.2388 616.813 20.3087 616.813 20.3761C616.813 20.3769 616.813 20.3778 616.813 20.3778C616.323 31.491 616.211 42.6162 616.498 53.7405C616.506 54.0628 616.705 54.3373 616.964 54.3373C619.628 54.3356 622.291 54.3714 624.955 54.3927C626.996 54.4089 629.343 54.813 631.363 54.368C631.474 54.3433 631.572 54.3041 631.663 54.2572C631.712 54.281 631.764 54.3024 631.827 54.3041C635.089 54.3961 638.349 54.391 641.613 54.3041C641.865 54.2972 642.077 54.0364 642.078 53.7073C642.112 43.7543 642.236 33.7374 641.914 23.7912Z" fill="#2E2D2D"/>
<path d="M621.226 38.04C621.554 37.8559 621.884 37.4245 622.187 36.9326C622.136 38.7237 622.118 40.5148 622.223 42.3051C622.268 43.0664 623.201 43.0723 623.155 42.3051C623.008 39.8183 623.098 37.3299 623.187 34.8414C623.209 34.2293 622.552 34.0579 622.319 34.5405C622.062 35.0716 621.531 36.2242 621.033 36.7672C620.421 36.0434 619.9 35.1901 619.215 34.5387C618.918 34.2566 618.519 34.6419 618.514 35.0537C618.486 37.456 618.454 39.8575 618.5 42.2599C618.515 43.0263 619.447 43.0289 619.432 42.2599C619.394 40.2966 619.411 38.3333 619.433 36.3708C619.838 36.907 620.208 37.4773 620.662 37.9462C620.842 38.1329 621.017 38.1568 621.226 38.04" fill="#2E2D2D"/>
<path d="M623.902 42.3051C623.938 43.0689 624.87 43.0732 624.834 42.3051C624.779 41.1082 624.89 39.9104 624.834 38.7135C624.799 37.9496 623.866 37.9445 623.902 38.7135C623.958 39.9104 623.846 41.1082 623.902 42.3051Z" fill="#2E2D2D"/>
<path d="M624.849 36.9189C624.849 36.9095 624.849 36.901 624.849 36.8916C624.849 36.1244 623.917 36.1227 623.917 36.8916C623.917 36.901 623.917 36.9095 623.917 36.9189C623.917 37.687 624.849 37.6879 624.849 36.9189Z" fill="#2E2D2D"/>
<path d="M626.766 42.3571C626.612 39.7604 626.466 37.1679 626.455 34.5626C626.452 33.7954 625.519 33.7937 625.523 34.5626C625.533 37.1679 625.68 39.7604 625.834 42.3571C625.88 43.1175 626.812 43.1244 626.766 42.3571Z" fill="#2E2D2D"/>
<path d="M628.593 42.3051C628.555 41.8592 628.525 41.4125 628.493 40.9666C628.616 41.184 628.746 41.3963 628.866 41.6171C629.041 41.9359 629.25 42.2539 629.379 42.6069C629.635 43.3008 630.438 42.6955 630.184 42.0041C630.034 41.5966 629.787 41.2241 629.584 40.8575C629.304 40.3511 629.013 39.855 628.716 39.3631C629.075 38.9556 629.445 38.5643 629.838 38.2071C630.323 37.7655 629.859 36.7305 629.368 37.1764C629.01 37.5021 628.667 37.8524 628.332 38.2156C628.277 36.9445 628.245 35.6717 628.24 34.3955C628.237 33.6283 627.305 33.6266 627.308 34.3955C627.319 37.0417 627.436 39.6751 627.661 42.3051C627.726 43.0604 628.658 43.0689 628.593 42.3051" fill="#2E2D2D"/>
<path d="M24.0842 268.503C22.3562 265.914 22.9194 263.696 24.6614 262.787C24.3394 263.54 24.2808 264.473 24.531 265.619C24.7698 266.711 25.308 267.688 25.8333 268.576C27.0908 270.7 27.4303 272.637 26.3864 274.441C26.4125 273.328 26.2244 272.2 25.821 271.245C25.3634 270.161 24.701 269.427 24.0842 268.503ZM25.032 276.238C24.9274 276.567 25.0402 276.812 25.2228 276.941C25.3666 277.135 25.5814 277.211 25.8031 276.997C27.1315 275.721 28.4648 273.773 28.2926 271.484C28.1115 269.086 23.2451 264.047 26.7093 262.321C27.2323 262.06 27.2015 260.997 26.5699 261C24.308 261.01 22.031 261.968 21.8669 265.261C21.644 269.735 26.6097 271.28 25.032 276.238" fill="#2E2D2D"/>
<path d="M33.6205 294.439C28.152 294.926 22.6036 294.115 17.109 294.452C16.9499 292.984 16.7941 291.514 16.6253 290.047C22.4571 290.042 28.2827 290.467 34.115 290.3C33.9442 291.678 33.7796 293.058 33.6205 294.439V294.439ZM31.4181 312.407C31.3139 313.097 31.3153 314.455 31.0124 315.073C30.323 316.479 29.0277 316.058 27.8608 316.067C25.8644 316.083 23.2903 316.525 21.3367 315.999C18.7787 315.309 19.1825 313.781 18.8956 311.202C18.8525 310.814 18.8115 310.427 18.7697 310.039C22.9226 310.474 27.5895 310.893 31.7413 310.106C31.6356 310.874 31.5335 311.641 31.4181 312.407V312.407ZM31.9353 308.723C29.6755 309.181 27.448 308.943 25.1701 308.875C22.9806 308.81 20.8064 308.882 18.6211 308.672C18.5809 308.296 18.5393 307.92 18.4992 307.545C18.0823 303.627 17.6754 299.708 17.2564 295.791C22.6507 295.48 28.0957 296.248 33.4649 295.794C33.1142 298.873 32.7737 301.956 32.4002 305.031C32.2502 306.263 32.0973 307.494 31.9353 308.723V308.723ZM18.2159 286.893C19.6263 286.896 21.0364 286.923 22.4471 286.922C24.0858 286.92 25.7238 286.878 27.3627 286.891C28.834 286.905 30.304 286.945 31.7741 287.009C32.4764 287.038 33.1813 287.034 33.8827 287.085C35.0209 287.169 35.3162 287.618 35.0136 288.929C28.4297 289.192 21.8562 288.617 15.2729 288.709C14.5706 286.55 17.6071 286.891 18.2159 286.893V286.893ZM17.6598 281.198C18.0466 280.444 17.818 280.644 18.6996 280.452C20.245 280.116 21.9951 280.334 23.5537 280.337C25.4824 280.341 27.4116 280.374 29.3406 280.41C30.5491 280.433 31.46 280.178 32.38 281.238C33.3219 282.322 33.5363 284.117 33.7836 285.737C31.4073 285.578 29.0151 285.542 26.6361 285.542C23.3665 285.54 20.0605 285.38 16.7955 285.558C16.9163 284.197 17.1096 282.271 17.6598 281.198V281.198ZM34.8879 285.945C34.4428 283.296 34.5018 279.442 32.0349 279.117C29.1528 278.738 26.1041 278.991 23.2065 278.991C21.6112 278.992 19.1273 278.471 17.6082 279.255C16.0909 280.038 15.897 283.676 15.7299 285.721C14.2414 286.134 13.4116 287.332 14.4904 289.722C14.5024 289.749 14.5197 289.76 14.5328 289.783C14.5551 289.827 14.5812 289.862 14.6114 289.898C14.6327 289.921 14.6536 289.941 14.6764 289.958C14.708 289.983 14.7432 290.001 14.7819 290.016C14.8112 290.026 14.8393 290.034 14.8689 290.037C14.8949 290.041 14.9149 290.055 14.9436 290.055C15.1542 290.051 15.3643 290.054 15.575 290.052C16.4284 297.413 17.1251 304.8 17.9508 312.165C18.1588 314.02 17.98 316.398 19.5941 317.158C20.5216 317.595 21.7715 317.355 22.7366 317.374C24.2879 317.402 25.8392 317.421 27.3905 317.414C28.5815 317.408 30.715 317.859 31.6399 316.56C32.6443 315.149 32.6229 311.496 32.8645 309.701C32.8725 309.642 32.8792 309.581 32.8871 309.521C32.893 309.483 32.9006 309.449 32.9012 309.41C33.75 303.048 34.3769 296.641 35.175 290.268C35.2486 290.266 35.3221 290.266 35.3954 290.262C35.5764 290.254 35.705 290.148 35.7891 290.002C35.8345 289.939 35.8743 289.863 35.9019 289.769C36.5509 287.527 36.1301 286.379 34.8879 285.945" fill="#2E2D2D"/>
<path d="M28.2343 302.94C27.8072 304.82 26.5509 306.772 24.8756 306.768C24.6547 306.768 24.4458 306.74 24.2454 306.696C24.2504 306.659 24.2636 306.63 24.2644 306.59C24.314 304.456 25.5542 303.346 26.4929 301.803C27.0741 300.847 27.3657 299.824 27.4524 298.647C27.8491 298.872 28.1851 299.232 28.3372 299.732C28.6181 300.657 28.4403 302.035 28.2343 302.94V302.94ZM22.5731 302.353C23.2291 300.756 24.4736 299.241 25.7906 298.557C25.9813 298.455 26.1996 298.406 26.4246 298.394C26.3183 300.461 25.1835 301.482 24.2621 302.997C23.6686 303.973 23.3269 305.033 23.2449 306.241C22.264 305.495 21.8855 304.029 22.5731 302.353ZM28.5903 297.859C27.796 297.079 26.4272 296.772 25.5111 297.26C23.513 298.297 21.2538 300.999 21.1211 303.916C20.9895 306.812 23.3627 308.478 25.4235 308.066C27.9194 307.566 29.4373 304.251 29.4927 301.247C29.5149 300.039 29.3913 298.645 28.5903 297.859" fill="#2E2D2D"/>
<path d="M98.5033 157.12C98.1314 156.712 98.0658 156.109 97.5254 155.928C97.1338 155.797 96.7597 156.157 96.3879 156.227C95.6741 156.361 95.2085 156.393 94.5779 155.635C94.3426 155.351 94.2119 154.887 93.9825 154.581C92.9554 153.212 91.887 153.617 90.5277 153.646C88.8035 153.683 87.8575 152.244 86.9963 150.559C86.6169 149.816 86.2604 149.181 85.6078 148.818C84.7783 148.356 83.962 148.478 83.1143 147.975C81.9979 147.313 82.2373 146.699 81.4651 145.765C80.7002 144.84 79.7843 145.218 78.8476 145.404C77.8207 145.609 77.7503 145.675 76.8253 144.735C75.6304 143.52 76.2066 144.034 75.9828 142.749C75.9205 142.392 75.7935 142.015 75.5782 141.775C75.1646 141.314 74.5748 141.556 74.1199 141.268C72.1092 139.999 74.7544 139.024 75.7968 139.019C76.48 139.879 77.4981 140.611 78.1241 141.116C81.1506 143.557 84.4231 145.572 87.5665 147.755C90.4361 149.774 93.3079 151.772 96.3099 153.458C97.2594 153.991 98.42 154.625 99.4981 154.691C99.7385 155.112 100.432 156.334 100.348 156.858C100.155 158.068 98.9719 157.633 98.5033 157.12V157.12ZM90.9295 157.612C88.7665 156.183 86.4943 155.073 84.3164 153.688C82.2743 152.389 80.3045 150.912 78.3307 149.451C77.3604 148.733 76.3884 148.016 75.4174 147.299C73.7396 146.059 73.8803 144.369 74.8247 142.517C75.3839 143.061 75.0809 143.645 75.2118 144.449C75.5892 146.762 77.6913 146.669 79.0746 146.35C80.0421 146.127 80.6061 145.969 81.2561 147.113C81.4952 147.534 81.5861 148.052 81.8646 148.452C82.4832 149.34 83.1519 149.231 83.9879 149.464C86.0831 150.048 85.8543 150.431 86.8601 152.206C87.1143 152.654 87.3985 153.075 87.7345 153.424C88.5662 154.292 89.5058 154.659 90.5592 154.634C91.8921 154.602 92.4331 154.038 93.6662 155.673C93.8923 155.973 94.0108 156.402 94.2446 156.702C94.7718 157.377 95.2739 157.598 96.0011 157.437C96.5895 157.305 96.9676 157.066 97.4581 157.341C97.5262 162.522 92.5301 158.669 90.9295 157.612V157.612ZM96.5111 163.684C96.406 164.674 95.6669 166.033 94.8789 166.249C93.8091 166.543 92.2013 165.514 91.262 164.975C88.1685 163.204 85.1435 161.193 82.156 159.147C79.3989 157.258 76.6172 155.355 73.9412 153.282C72.8025 152.4 70.484 151.009 70.7022 149.085C70.958 146.832 72.2344 146.259 73.7032 147.071C74.1499 147.622 74.7842 147.973 75.3151 148.365C78.6556 150.832 81.9592 153.46 85.4802 155.489C87.2928 156.533 89.1144 157.508 90.8773 158.69C92.2005 159.577 93.3761 160.7 94.879 160.933C95.7356 161.539 96.6803 162.081 96.5111 163.684V163.684ZM77.8691 132.683C80.2341 129.892 84.0618 127.701 87.3089 127.804C90.2397 127.896 93.6228 129.7 95.9478 131.951C99.2519 135.151 102.085 140.623 102.332 146.001C102.419 147.915 102.189 150.048 101.559 151.803C100.525 154.684 98.1491 153.431 96.3854 152.422C93.4861 150.764 90.7083 148.837 87.9288 146.88C85.3508 145.09 82.7593 143.327 80.1942 141.507C78.9343 140.614 76.1503 139.144 75.9219 137.107C75.7429 135.516 77.081 133.613 77.8691 132.683V132.683ZM100.383 154.593C100.916 154.428 101.404 154.056 101.799 153.363C104.333 148.915 103.048 141.931 100.898 137.716C98.2653 132.555 94.746 128.932 90.0311 127.34C87.1545 126.369 84.5663 127.017 81.8665 128.468C79.684 129.641 77.0407 131.365 75.8557 134.157C75.4876 135.024 74.9189 136.872 75.1475 137.811C75.1676 137.894 75.2076 137.974 75.2372 138.054C74.0433 138.186 72.3215 138.831 72.3515 140.474C72.3649 141.227 72.9108 141.75 73.3815 142.024C73.5778 142.138 73.8266 142.165 74.0688 142.198C73.5757 143.179 73.0463 144.527 73.1671 145.722C72.4248 145.406 71.6214 145.288 71.0422 145.938C70.2835 146.788 69.5092 149.423 69.9572 150.69C70.1871 151.338 70.7231 151.642 71.1536 152.029C72.1805 152.952 73.1767 153.874 74.2719 154.668C76.7686 156.476 79.2647 158.289 81.7937 160.021C84.3439 161.767 86.9249 163.436 89.5358 165.026C91.0484 165.948 93.1314 167.497 94.9109 167.238C96.1552 167.056 97.0185 165.375 97.265 163.898C97.5066 162.448 96.9943 161.568 96.2352 160.858C97.2539 160.547 97.9832 159.634 98.1787 158.192C98.2516 158.335 98.3324 158.471 98.4648 158.569C98.9634 158.938 99.8013 158.844 100.308 158.563C101.709 157.784 101.06 155.901 100.383 154.593" fill="#2E2D2D"/>
<path d="M79.4339 139.509C79.8806 139.783 80.2451 138.911 79.7959 138.635C79.0161 138.158 77.5334 137.354 78.2571 136.013C78.7512 135.098 79.7059 134.483 80.4999 134.142C80.9712 133.939 80.7462 132.993 80.2737 133.196C79.1982 133.659 77.4988 134.806 77.1618 136.35C76.8292 137.875 78.6206 139.011 79.4339 139.509" fill="#2E2D2D"/>
<path d="M81.0205 140.6C81.4601 140.898 81.8226 140.025 81.3825 139.726C80.9439 139.428 80.5809 140.301 81.0205 140.6Z" fill="#2E2D2D"/>
<path d="M87.1635 130.351C87.3655 130.492 87.5671 130.364 87.6862 130.146C87.7672 129.997 87.8486 129.848 87.9299 129.698C88.05 129.477 87.9368 129.146 87.7697 129.029C87.568 128.889 87.3667 129.016 87.2475 129.234C87.1662 129.384 87.0849 129.533 87.0034 129.682C86.8829 129.903 86.9966 130.235 87.1635 130.351Z" fill="#2E2D2D"/>
<path d="M91.2474 131.996C91.3965 131.957 91.5461 131.955 91.6972 131.966C92.1929 131.999 92.1589 131.011 91.6657 130.977C91.4441 130.962 91.2379 130.994 91.0209 131.05C90.5335 131.178 90.7642 132.122 91.2474 131.996Z" fill="#2E2D2D"/>
<path d="M94.9744 134.325C95.2697 134.833 95.9283 134.315 95.6312 133.804C95.4911 133.563 95.3706 133.314 95.2644 133.046C95.0389 132.478 94.3838 133.003 94.6076 133.567C94.7139 133.835 94.8343 134.084 94.9744 134.325Z" fill="#2E2D2D"/>
<path d="M96.9741 137.077C97.1036 137.028 97.2044 137.033 97.3329 137.077C97.8131 137.242 97.9808 136.276 97.5007 136.111C97.2486 136.025 96.9971 136.036 96.748 136.131C96.271 136.313 96.4975 137.259 96.9741 137.077Z" fill="#2E2D2D"/>
<path d="M91.6591 136.61C91.7544 137.235 92.4921 136.939 92.3971 136.32C92.3758 136.18 92.3477 136.047 92.3093 135.912C92.1406 135.315 91.4017 135.602 91.5713 136.203C91.6087 136.337 91.6373 136.47 91.6591 136.61Z" fill="#2E2D2D"/>
<path d="M87.7002 133.757C87.8476 133.689 87.978 133.661 88.1337 133.662C88.6304 133.666 88.5985 132.677 88.1018 132.673C87.8856 132.672 87.6766 132.718 87.4737 132.811C87.0071 133.027 87.2314 133.974 87.7002 133.757Z" fill="#2E2D2D"/>
<path d="M94.7485 138.842C95.0324 139.363 95.6901 138.844 95.4053 138.321C95.3017 138.131 95.2415 137.951 95.2269 137.718C95.1884 137.085 94.416 137.121 94.4548 137.759C94.4792 138.152 94.5711 138.517 94.7485 138.842" fill="#2E2D2D"/>
<path d="M84.3626 131.259C84.4214 131.164 84.4717 131.089 84.5717 131.074C85.0616 130.998 85.0348 130.009 84.5398 130.085C84.2442 130.131 83.9887 130.276 83.8004 130.579C83.4936 131.076 84.0533 131.758 84.3626 131.259" fill="#2E2D2D"/>
<path d="M98.1664 139.971C98.353 140.556 99.0934 140.271 98.9049 139.681C98.8485 139.503 98.7918 139.327 98.7347 139.149C98.5478 138.563 97.8079 138.849 97.9969 139.439C98.0533 139.617 98.11 139.794 98.1664 139.971Z" fill="#2E2D2D"/>
<path d="M531.486 61.7877L531.451 62.1944C531.403 62.7453 531.308 63.2988 531.216 63.8328C531.108 64.4659 530.995 65.1195 530.96 65.7776C530.894 67.0175 531.118 68.2567 531.336 69.4548L531.396 69.7845C531.509 70.4193 531.63 71.0516 531.749 71.6851C531.995 72.9858 532.25 74.3315 532.448 75.6651C532.486 75.9261 532.532 76.2093 532.58 76.5105C532.849 78.1756 533.217 80.4556 532.869 81.9016C532.371 83.9715 531.233 84.6824 530.077 85.142C528.853 85.6309 528.235 85.8051 527.748 85.922C527.5 85.9818 527.265 86.0313 527.01 86.0828C526.706 86.145 526.374 86.2123 525.958 86.3123L525.902 86.3268C526.808 84.4301 526.333 81.4522 525.95 79.0459C525.856 78.4551 525.769 77.9081 525.713 77.4354L525.522 75.8069C525.37 74.504 525.217 73.2031 525.052 71.9024L524.979 71.3378C524.804 70.0068 524.639 68.7497 524.808 67.4202C524.903 66.6829 525.103 65.9833 525.296 65.307C525.404 64.9262 525.513 64.5455 525.606 64.1544C526.605 59.9362 525.731 55.5333 523.379 52.9396C521.996 51.4136 520.289 50.4461 518.174 49.9891C518.767 49.8813 519.303 49.7899 519.804 49.7033C520.817 49.53 521.693 49.3801 522.606 49.1607C522.749 49.1264 523.174 49.0198 523.174 49.0198C525.619 48.4323 527.813 49.6043 529.698 52.5065C530.551 53.8196 531.163 55.3212 531.47 56.85C531.782 58.4059 531.625 60.2026 531.486 61.7877V61.7877ZM524.281 86.4417C523.685 86.8202 522.982 87.094 522.001 87.3299C521.599 87.4264 521.196 87.5055 520.798 87.5858C520.412 87.6626 520.032 87.7373 519.667 87.8249L518.646 88.0728C517.231 88.4166 515.815 88.7585 514.408 89.1373C514.095 89.2214 513.781 89.2986 513.467 89.374C512.965 89.4947 512.461 89.6078 511.958 89.7208C511.454 89.8348 510.95 89.9486 510.447 90.0696L509.638 90.2684C509.075 90.4037 508.415 90.5399 507.718 90.4479C506.372 90.2699 505.979 88.9851 505.665 87.5712C505.266 85.7772 504.954 83.9238 504.652 82.1324C504.332 80.2319 504.001 78.2655 503.551 76.2984C503.252 74.9907 502.944 73.6383 502.584 72.3366C502.341 71.4617 501.914 70.7955 501.46 70.0886C501.236 69.7398 501.005 69.3794 500.8 68.9931C498.707 65.0496 500.073 60.3707 502.051 57.3055C504.203 53.9701 507.974 52.0596 510.786 51.384C510.921 51.3514 511.054 51.3204 511.187 51.2929C512.839 50.9503 514.542 51.0262 516.147 51.1331C517.67 51.2336 519.566 51.3602 521.126 52.4999C524.417 54.9069 525.744 59.4889 524.503 64.1722L524.353 64.7299C524.005 66.0135 523.676 67.2266 523.669 68.621C523.662 69.9452 523.863 71.3064 524.058 72.6222C524.14 73.1846 524.222 73.7416 524.289 74.2917L524.533 76.3706C524.662 77.4738 524.79 78.5771 524.928 79.6789C524.963 79.9664 525.012 80.288 525.064 80.631C525.373 82.6765 525.797 85.4808 524.281 86.4417V86.4417ZM531.703 54.0201C530.522 51.1862 529.133 49.4579 527.334 48.5784C525.055 47.4648 524.888 47.5004 522.843 47.9395L522.341 48.0449C519.313 48.6809 518.135 48.8413 516.77 49.0279C515.645 49.18 514.372 49.3537 511.78 49.843C511.754 49.8494 511.729 49.8588 511.718 49.865C511.355 49.9221 510.991 49.9944 510.629 50.0814C508.021 50.7082 505.48 52.0928 503.28 54.086C500.446 56.6548 498.733 60.5781 498.698 64.5823C498.68 66.5375 499.082 68.1651 500.001 69.8552C500.184 70.1909 500.407 70.5212 500.622 70.8409C500.954 71.3302 501.296 71.8372 501.503 72.3794C501.707 72.9117 501.838 73.5352 501.965 74.1392C502.022 74.4134 502.08 74.6822 502.142 74.9402C502.681 77.1597 503.161 79.573 503.611 82.3195C503.691 82.8149 503.767 83.3264 503.844 83.8456C504.144 85.8692 504.453 87.9626 505.155 89.7112C505.776 91.2586 506.881 91.9252 508.634 91.8065C509.384 91.755 510.196 91.6214 511.188 91.383C511.899 91.2122 512.609 91.0096 513.308 90.8114C513.745 90.6883 514.177 90.565 514.603 90.4513C516.006 90.0749 517.417 89.7342 518.826 89.3928L519.88 89.1361C520.228 89.0523 520.585 88.9764 520.944 88.8992C521.311 88.8218 521.68 88.7435 522.048 88.655L522.194 88.6166C522.244 88.6205 522.289 88.6188 522.346 88.6049C522.347 88.6048 522.347 88.6048 522.348 88.6046C522.752 88.4949 523.148 88.3953 523.534 88.3025C524.617 88.0422 525.634 87.8355 526.591 87.641C527.443 87.4699 528.247 87.3068 529.011 87.1233C529.011 87.1233 529.01 87.1234 529.011 87.1232C529.37 87.037 529.719 86.9453 530.06 86.8472C532.555 86.1304 533.86 85.0481 534.074 81.1254C534.19 78.9965 533.578 75.798 533.174 73.6829L533.131 73.4638C532.82 71.8392 532.496 70.0987 532.219 68.3735C531.954 66.7252 532.118 65.4568 532.325 63.8518L532.376 63.452C532.771 60.3412 532.963 57.0441 531.703 54.0201Z" fill="#2E2D2D"/>
<path d="M521.842 73.0212C522.129 75.2213 522.497 77.4019 522.874 79.5777C523.181 81.3517 523.961 83.5247 522.278 84.7488C521.426 85.3667 520.049 85.4 519.091 85.6212C516.932 86.1194 514.767 86.581 512.609 87.082C511.521 87.3344 510.383 87.8151 509.288 87.9546C507.198 88.2212 508 88.264 507.49 87.0624C506.412 84.5208 506.141 80.7108 505.678 77.8971C505.4 76.2103 505.28 74.467 504.913 72.8088C504.479 70.8528 503.595 69.661 502.494 68.236C499.304 62.9571 503.88 57.4329 507.259 55.1581C510.344 53.0821 513.884 52.9228 517.291 53.528C520.093 54.0243 522.384 56.357 522.671 60.2155C522.779 61.6544 522.402 63.1075 522.107 64.4697C521.409 67.693 521.404 69.6568 521.842 73.0212ZM523.557 61.8033C523.86 58.5344 522.515 54.6599 520.107 53.1927C517.516 51.6154 513.572 51.6869 510.799 52.3122C507.713 53.0076 504.362 55.1771 502.34 58.2991C500.503 61.1357 499.917 65.9676 501.772 69.0369C504.362 72.3901 504.467 76.8104 505.284 81.1968C505.663 83.2361 505.864 87.0412 506.983 88.6851C507.514 89.4634 508.347 89.3867 509.065 89.2695C511.456 88.8769 513.876 88.0388 516.257 87.5054C518.398 87.0251 523.261 87.2117 524.156 83.8789C524.685 81.9127 523.79 79.2697 523.471 77.3511C523.09 75.0704 522.754 72.7808 522.505 70.4701C522.17 67.3501 523.275 64.8423 523.557 61.8033" fill="#2E2D2D"/>
<path d="M505.112 64.1486C504.508 64.2939 504.683 65.4968 505.288 65.3514C505.892 65.2064 505.717 64.0033 505.112 64.1486Z" fill="#2E2D2D"/>
<path d="M507.227 59.6659C506.622 59.8112 506.797 61.0133 507.403 60.8678C508.006 60.7228 507.831 59.5206 507.227 59.6659Z" fill="#2E2D2D"/>
<path d="M510.175 63.1454C509.571 63.2904 509.747 64.4925 510.351 64.3474C510.956 64.2021 510.781 62.9998 510.175 63.1454Z" fill="#2E2D2D"/>
<path d="M512.521 57.968C511.917 58.1131 512.092 59.3146 512.697 59.1691C513.3 59.0241 513.125 57.8228 512.521 57.968Z" fill="#2E2D2D"/>
<path d="M516.269 61.6098C516.252 61.614 516.234 61.6183 516.216 61.6227C515.612 61.7678 515.786 62.9709 516.392 62.8255C516.41 62.8211 516.428 62.8168 516.446 62.8126C517.05 62.6674 516.874 61.4645 516.269 61.6098Z" fill="#2E2D2D"/>
<path d="M518.528 57.729C517.924 57.874 518.099 59.0754 518.704 58.9301C519.308 58.7849 519.132 57.5837 518.528 57.729Z" fill="#2E2D2D"/>
<path d="M507.844 70.701C507.241 70.846 507.415 72.0483 508.02 71.903C508.624 71.7578 508.45 70.5556 507.844 70.701Z" fill="#2E2D2D"/>
<path d="M513.443 68.2518C512.839 68.3969 513.015 69.5999 513.62 69.4546C514.224 69.3094 514.049 68.1063 513.443 68.2518Z" fill="#2E2D2D"/>
<path d="M518.395 67.4174C517.791 67.5625 517.966 68.7639 518.571 68.6185C519.175 68.4735 519 67.2721 518.395 67.4174Z" fill="#2E2D2D"/>
<path d="M511.197 74.6344C510.593 74.7794 510.768 75.9817 511.373 75.8364C511.977 75.6912 511.802 74.4889 511.197 74.6344Z" fill="#2E2D2D"/>
<path d="M517.479 74.0262C516.875 74.1711 517.05 75.3735 517.655 75.2281C518.259 75.083 518.083 73.8809 517.479 74.0262Z" fill="#2E2D2D"/>
<path d="M508.796 80.5937C508.192 80.7389 508.367 81.941 508.972 81.7957C509.576 81.6506 509.401 80.4483 508.796 80.5937Z" fill="#2E2D2D"/>
<path d="M514.233 79.4907C513.63 79.6357 513.804 80.8381 514.409 80.6927C515.012 80.5478 514.838 79.3454 514.233 79.4907Z" fill="#2E2D2D"/>
<path d="M520.257 78.6113C519.653 78.7563 519.828 79.9586 520.433 79.8133C521.038 79.668 520.861 78.466 520.257 78.6113Z" fill="#2E2D2D"/>
<path d="M511.625 84.8429C511.611 84.8703 511.595 84.8973 511.581 84.9239C511.234 85.5751 512.022 86.2657 512.37 85.6143C512.384 85.5875 512.399 85.5612 512.413 85.5327C512.761 84.8829 511.972 84.1919 511.625 84.8429Z" fill="#2E2D2D"/>
<path d="M517.78 82.8983C517.763 82.9025 517.746 82.9066 517.727 82.9112C517.123 83.0561 517.299 84.2572 517.903 84.1121C517.922 84.1076 517.939 84.1034 517.956 84.0992C518.561 83.9539 518.386 82.7528 517.78 82.8983Z" fill="#2E2D2D"/>
<path d="M136.083 295.427L136.093 295.1C136.102 294.824 136.105 294.548 136.108 294.272L136.109 294.183C136.125 292.873 136.095 291.469 136.018 289.885L135.961 288.649C135.831 285.749 135.697 282.752 135.064 279.953C135.023 279.772 134.98 279.579 134.932 279.381C135.034 279.297 135.151 279.23 135.281 279.185C135.923 278.96 136.791 279.252 137.489 279.485C137.708 279.558 137.911 279.626 138.088 279.672L138.4 279.752C139.294 279.981 140.218 280.217 141.028 280.78C142.306 281.667 142.911 282.864 142.935 284.543C142.952 285.856 142.639 287.315 142.362 288.6L142.266 289.055C141.826 291.134 141.263 293.161 140.77 294.869C140.607 295.432 140.443 295.995 140.278 296.557C140.219 296.754 140.167 296.969 140.113 297.19C140.009 297.612 139.902 298.049 139.748 298.393C139.547 298.844 139.277 299.122 138.924 299.246C138.52 299.387 138.064 299.31 137.632 299.221C137.473 299.187 137.307 299.161 137.137 299.134C136.618 299.052 136.081 298.968 135.655 298.666C136.021 297.688 136.053 296.488 136.083 295.427V295.427ZM115.499 308.123C115.411 307.938 115.328 307.765 115.251 307.611C114.031 305.177 113.547 302.826 113.729 300.212C113.868 298.229 114.094 296.163 114.8 294.464L115.106 294.953C116.891 297.838 118.582 300.158 120.275 302.044C120.751 302.574 121.237 303.077 121.72 303.542C120.718 304.752 120.04 306.055 119.59 307.635C119.537 307.824 119.483 308.073 119.423 308.351C119.202 309.381 118.899 310.792 118.154 311.053C118.154 311.053 118.154 311.053 118.154 311.053C117.939 311.121 117.694 311.083 117.427 310.942C116.654 310.533 115.987 309.139 115.499 308.123V308.123ZM124.365 303.658C123.443 303.98 122.555 302.942 121.842 302.107C121.698 301.939 121.559 301.777 121.427 301.632L121.034 301.195C119.469 299.448 118.003 297.549 116.677 295.548C116.543 295.347 116.395 295.135 116.241 294.915C115.599 293.997 114.871 292.956 114.638 291.87C114.378 290.658 115.021 289.406 115.756 288.235C116.737 286.671 118.419 284.85 119.965 284.309C120.3 284.192 120.62 284.137 120.918 284.148C120.915 285.646 121.463 287.314 121.948 288.787C122.097 289.239 122.239 289.67 122.357 290.073C123.167 292.837 123.937 295.257 124.709 297.475C124.765 297.635 124.82 297.802 124.876 297.973L124.992 298.329C125.356 299.452 125.767 300.723 126.378 301.617C125.875 302.578 125.151 303.328 124.432 303.631L124.365 303.658ZM127.245 301.07C126.649 300.346 126.258 299.141 125.914 298.078C125.843 297.861 125.775 297.651 125.684 297.384L125.642 297.261C124.964 295.339 124.285 293.232 123.507 290.627C123.208 289.63 122.918 288.627 122.638 287.623C122.572 287.386 122.495 287.135 122.415 286.875C122.086 285.808 121.714 284.6 121.874 283.577C122.22 281.363 124.254 279.489 127.754 278.155C127.864 278.113 127.974 278.074 128.085 278.035C129.41 277.571 130.607 277.395 131.747 277.497C132.519 277.568 133.184 277.628 133.67 278.534C133.764 278.709 133.85 278.925 133.93 279.164C133.927 279.312 133.968 279.462 134.036 279.556C134.151 280.008 134.236 280.491 134.311 280.917L134.36 281.19C134.913 284.265 135.025 287.564 135.133 290.755L135.148 291.193C135.186 292.32 135.201 293.308 135.191 294.214C135.182 295.056 135.156 295.748 135.108 296.387C134.974 298.215 134.241 299.294 132.581 300.113C132.071 300.365 131.299 300.747 130.477 301.034C128.988 301.555 127.897 301.564 127.245 301.07V301.07ZM144.431 302.292L144.375 302.105C144.318 301.918 144.265 301.731 144.213 301.543C144.05 300.966 143.882 300.37 143.603 299.84C142.979 298.65 142.025 298.209 141.015 297.843C141.192 297.248 141.339 296.618 141.481 296.009C141.536 295.772 141.59 295.541 141.644 295.317C141.705 295.066 141.766 294.825 141.83 294.6C142.361 292.732 142.962 290.51 143.392 288.191L143.437 287.948C143.515 287.529 143.596 287.095 143.666 286.653C145.493 287.716 146.68 291.022 147.036 293.009C147.539 295.82 147.39 298.541 146.596 301.098C146.565 301.197 146.531 301.318 146.495 301.45C146.352 301.963 146.156 302.666 145.881 302.935C145.669 303.144 145.478 303.279 145.314 303.337C145.262 303.355 145.212 303.367 145.165 303.369C144.752 303.398 144.581 302.811 144.431 302.292V302.292ZM143.822 285.458C143.923 284.367 143.874 283.459 143.672 282.685C143.233 280.995 141.891 279.98 141.131 279.525C140.108 278.912 138.947 278.638 137.826 278.375C137.598 278.322 137.373 278.269 137.099 278.2C136.412 278.029 135.632 277.834 134.959 278.07C134.834 278.114 134.714 278.172 134.602 278.244C134.397 277.682 134.159 277.277 133.877 277.01C133.168 276.338 132.084 276.309 131.292 276.288C130.201 276.259 129.041 276.455 127.842 276.875C126.871 277.215 125.868 277.704 124.86 278.325C123.391 279.234 121.543 280.775 121.044 282.985C120.625 282.966 120.182 283.038 119.726 283.198C117.863 283.849 116.109 285.804 115.087 287.417C114.387 288.522 113.729 289.725 113.646 291.031C113.599 291.803 113.773 292.559 114.197 293.411C113.347 295.146 112.884 297.534 112.781 300.706C112.681 303.822 113.461 306.626 115.313 309.801C116.446 311.745 117.451 312.532 118.383 312.206C118.688 312.099 118.986 311.869 119.267 311.52C119.811 310.843 120.015 309.933 120.211 309.053C120.278 308.757 120.344 308.461 120.423 308.172C120.844 306.64 121.51 305.38 122.461 304.228L122.524 304.285C123.175 304.856 123.923 305.016 124.688 304.749C125.586 304.435 126.497 303.525 127.132 302.309C128.235 302.841 129.707 302.385 130.785 302.052L130.88 302.023C131.166 301.934 131.48 301.835 131.807 301.721C132.812 301.369 134.24 300.774 135.109 299.644C135.682 300.094 136.369 300.203 137.035 300.311C137.222 300.339 137.411 300.37 137.597 300.408C138.294 300.547 138.855 300.538 139.313 300.378C139.734 300.231 140.072 299.951 140.317 299.547C140.422 299.374 140.523 299.173 140.627 298.936C141.753 299.349 142.656 299.799 143.175 301.338C143.265 301.607 143.341 301.895 143.416 302.187C143.599 302.89 143.788 303.616 144.209 304.131C144.653 304.67 145.099 304.865 145.536 304.712C145.537 304.712 145.537 304.712 145.537 304.712C146.257 304.46 146.937 303.275 147.555 301.188C148.432 298.23 148.497 294.885 147.738 291.769C147.156 289.379 145.686 286.398 143.822 285.458" fill="#2E2D2D"/>
<path d="M124.673 288.254C124.3 286.948 123.454 284.751 124.421 283.608C124.826 283.129 124.214 282.362 123.809 282.84C122.534 284.348 123.349 286.799 123.847 288.543C124.035 289.201 124.863 288.918 124.673 288.254" fill="#2E2D2D"/>
<path d="M125.124 281.357C125.108 281.363 125.092 281.368 125.077 281.374C124.545 281.56 124.77 282.617 125.302 282.431C125.318 282.425 125.334 282.42 125.35 282.414C125.88 282.228 125.656 281.171 125.124 281.357Z" fill="#2E2D2D"/>
<path d="M185.023 31.9958C185.013 33.1903 184.984 34.3841 184.942 35.5775C184.592 35.6693 184.242 35.7618 183.893 35.8539C183.596 34.4014 183.3 32.9478 183.004 31.4949C182.912 31.0418 182.832 30.5493 182.75 30.0523C182.685 29.3153 182.547 28.1842 182.739 27.7706C182.94 27.3401 183.581 27.5037 183.908 27.5836C184.495 27.7283 184.824 27.8371 185.001 28.6974C185.199 29.6594 185.029 31.0037 185.023 31.9958ZM187.06 44.1332C187.669 48.771 188.614 54.3995 187.975 59.1096C187.433 63.1042 182.758 63.3643 180.252 64.2197C177.021 65.323 173.902 66.7768 170.58 67.4081C169.521 67.6095 168.487 68.1157 167.506 67.0484C166.933 66.424 166.496 64.9285 166.131 64.0886C165.294 62.1659 164.536 60.1883 163.83 58.1808C163.042 55.9399 162.326 53.6588 161.654 51.3569C161.393 50.4648 159.562 45.5648 160.054 44.6159C167.002 41.8864 174.033 39.5692 181.138 37.6161C182.115 37.3471 183.093 37.0847 184.072 36.8264C185.395 36.4776 185.648 36.091 186.128 37.7117C186.702 39.6436 186.792 42.0911 187.06 44.1332ZM159.272 39.1515C159.069 38.6279 158.723 37.9143 158.616 37.3448C158.372 36.0552 158.877 35.7448 159.71 35.4208C160.882 34.9659 161.057 35.5433 161.528 36.6305C161.786 37.2296 162.045 37.8277 162.303 38.4259C162.834 39.6543 163.365 40.8817 163.896 42.11C162.952 42.4565 162.008 42.8122 161.067 43.1748C160.416 41.8715 159.808 40.5391 159.272 39.1515ZM163.999 40.0309C163.856 38.8657 163.62 37.7333 163.396 36.5906C163.176 35.4668 162.636 33.8202 164.014 33.8454C164.765 33.8586 164.821 34.1243 165.113 35.0049C165.319 35.6242 165.401 36.3606 165.531 37.017C165.811 38.418 166.061 39.827 166.297 41.2408C165.755 41.4317 165.216 41.6325 164.676 41.8276C164.447 41.2974 164.22 40.7658 163.993 40.2338C164.003 40.1712 164.009 40.1038 163.999 40.0309V40.0309ZM162.97 31.153C162.911 30.6036 163.037 30.6811 163.369 30.5509C163.633 30.4473 163.917 30.3919 164.187 30.3127C164.602 30.1919 165.062 30.1146 165.469 29.9466C165.473 29.9706 165.477 29.9961 165.48 30.021C165.473 30.2973 165.571 30.6321 165.598 30.9076C165.599 30.909 165.599 30.909 165.599 30.9104C165.484 31.6621 165.947 32.6018 166.156 33.1918C167.003 35.5902 167.792 38.0134 168.494 40.4869C168.015 40.6498 167.536 40.8133 167.057 40.9799C166.822 39.5659 166.572 38.1569 166.292 36.7558C166.078 35.6837 165.98 33.9525 165.449 33.0959C165.036 32.432 164.071 32.5824 163.28 32.9242C163.15 32.3422 163.036 31.7533 162.97 31.153ZM169.431 31.0657C169.448 31.1113 169.471 31.1398 169.493 31.1732C169.485 31.2842 169.481 31.4033 169.485 31.5392C169.575 34.3099 170.008 37.0731 170.088 39.8629C170.089 39.894 170.1 39.9165 170.104 39.9449C169.82 40.0392 169.537 40.1311 169.253 40.2262C168.599 37.9149 167.872 35.6447 167.088 33.4C166.938 32.9705 166.378 31.8118 166.416 31.4304C166.462 30.9544 166.769 30.9244 167.14 30.6911C168.259 29.988 168.822 29.3831 169.431 31.0657ZM172.1 25.8847C172.466 26.4215 172.739 27.1432 172.986 27.7922C172.806 27.8443 172.634 27.8892 172.473 27.9177C172.319 27.9444 172.164 28.2026 172.181 28.4013C172.225 28.9424 172.247 29.1596 172.319 29.5928C171.909 29.6902 171.482 29.8738 171.146 29.9445C170.69 30.0407 170.29 30.0684 169.996 30.2199C169.835 29.7365 169.656 29.1974 169.368 28.8734C169.36 28.8292 169.356 28.7865 169.337 28.7415C169.173 28.3406 169.049 27.9319 168.942 27.5085C169.553 27.0264 170.194 26.7374 170.891 26.4548C171.286 26.2946 171.692 26.0336 172.1 25.8847V25.8847ZM170.605 34.7501C170.548 34.0685 170.48 33.3886 170.409 32.7087C170.375 32.3751 170.17 31.5826 170.266 31.2826C170.34 31.0534 170.333 31.2334 170.609 31.0545C170.904 30.8624 171.865 30.6898 172.204 30.7145C173.133 30.7822 172.959 31.9062 173.004 32.8687C173.097 34.8609 173.191 36.8546 173.284 38.8477C173.285 38.8734 173.294 38.8912 173.298 38.9152C172.487 39.1697 171.678 39.4323 170.869 39.6965C170.82 38.0441 170.742 36.3946 170.605 34.7501V34.7501ZM175.605 31.14C175.945 33.3794 176.286 35.5604 176.418 37.8454C176.42 37.8855 176.433 37.9162 176.441 37.9515C175.647 38.189 174.855 38.4337 174.063 38.6794C173.995 37.2134 173.926 35.7483 173.857 34.2823C173.803 33.1164 173.967 31.3969 173.663 30.2793C173.556 29.8837 173.362 29.6808 173.124 29.5901C172.969 28.7081 174.385 28.2194 174.913 28.4992C175.549 28.8373 175.496 30.4195 175.605 31.14V31.14ZM177.602 26.3256C177.908 26.2629 178.526 25.9464 178.739 26.2167C178.939 26.4722 178.871 27.0193 178.859 27.3537C178.859 27.3658 178.864 27.3739 178.864 27.3851C178.492 27.6306 178.354 28.0516 178.483 28.9971C178.564 29.5927 178.659 30.1867 178.758 30.7809C178.756 30.7963 178.749 30.8083 178.749 30.8243C178.642 32.9693 178.862 35.1113 178.823 37.2556C178.281 37.4113 177.739 37.5712 177.197 37.7309C177.02 34.7196 176.679 31.5286 176.151 28.6001C176.06 28.0937 175.877 27.7795 175.639 27.5905C175.639 27.5749 175.643 27.5623 175.642 27.5464C175.612 27.2604 175.529 26.8891 175.515 26.5614C176.184 26.4107 176.935 26.4633 177.602 26.3256V26.3256ZM179.99 36.9224C179.864 36.9583 179.737 36.9922 179.61 37.0281C179.617 36.3815 179.607 35.7353 179.585 35.0893C179.716 35.7029 179.853 36.3139 179.99 36.9224ZM181.472 27.9706C181.744 28.2643 181.885 29.7002 181.99 30.446C181.99 30.4578 181.991 30.4725 181.992 30.4842C181.993 30.5658 182.007 30.6377 182.031 30.6983C182.033 30.7152 182.037 30.741 182.04 30.7556C182.4 32.5236 182.76 34.2908 183.12 36.0588C182.333 36.2706 181.548 36.4886 180.763 36.7081C180.404 35.1155 180.076 33.5118 179.781 31.8976C179.628 31.0624 179.429 30.2014 179.341 29.3499C179.219 28.1583 179.297 28.1858 180.218 27.9833C180.702 27.8767 181.223 27.7011 181.472 27.9706V27.9706ZM184.99 26.6792C184.378 26.4929 182.817 26.1203 182.254 26.7014C182.145 26.814 182.066 26.9702 182.007 27.1522C181.546 26.4668 180.773 26.8382 180.014 27.009C179.886 27.0373 179.769 27.0639 179.655 27.091C179.678 26.2382 179.639 25.1192 178.836 25.0383C178.253 24.9804 177.584 25.3256 177.002 25.4238C176.369 25.532 175.656 25.4418 175.043 25.6476C174.917 25.6893 174.791 25.8313 174.765 26.001C174.7 26.4365 174.764 26.9026 174.824 27.3526C174.493 27.3609 174.132 27.4461 173.771 27.5521C173.422 26.6582 172.887 24.5736 171.92 24.909C170.695 25.3339 169.312 25.9098 168.271 26.8541C168.129 26.9833 168.041 27.1934 168.09 27.4197C168.186 27.8612 168.31 28.2706 168.451 28.6758C167.944 28.895 167.337 29.4481 167.001 29.6572C166.834 29.7622 166.57 29.8767 166.318 30.0185C166.27 29.5665 166.174 29.1161 165.924 28.9461C165.741 28.8215 165.521 28.9 165.33 28.9472C164.879 29.0609 164.431 29.2086 163.983 29.3392C163.431 29.4994 162.507 29.5137 162.228 30.2697C161.926 31.0846 162.355 32.5121 162.546 33.3259C162.483 33.3692 162.424 33.4118 162.372 33.4528C162.266 33.5383 162.161 33.713 162.177 33.885C162.287 35.0415 162.505 36.1684 162.725 37.2961C162.382 36.5029 162.042 35.7081 161.689 34.9236C161.006 33.4017 160.486 33.8634 159.311 34.5509C158.171 35.2172 157.171 35.4469 157.693 37.1191C158.386 39.3418 159.286 41.4542 160.286 43.4741C160.094 43.5488 159.902 43.6186 159.71 43.6941C159.699 43.6985 159.694 43.7072 159.685 43.7117C159.668 43.7189 159.652 43.7355 159.636 43.7455C159.607 43.766 159.576 43.7835 159.553 43.8105C159.546 43.8175 159.539 43.8185 159.532 43.8269C158.93 44.5361 159.151 45.0331 159.339 45.9761C159.72 47.8854 160.354 49.7721 160.893 51.6182C161.951 55.2448 163.118 58.8297 164.489 62.2816C165.307 64.3407 166.41 68.7262 168.547 68.8863C169.741 68.9767 171.358 68.3038 172.544 67.9998C174.155 67.5871 175.729 66.9935 177.298 66.3796C179.883 65.3704 182.579 64.7615 185.135 63.6586C186.806 62.9368 188.354 62.0258 188.721 59.6367C189.255 56.1679 188.705 52.0077 188.364 48.5474C187.937 44.206 187.272 39.9113 186.607 35.6217C186.563 35.3427 186.322 35.2145 186.124 35.2658C185.994 35.2994 185.865 35.3347 185.735 35.3682C185.804 33.258 185.832 31.1467 185.795 29.0342C185.777 27.9308 185.936 26.9671 184.99 26.6792" fill="#2E2D2D"/>
<path d="M182.684 52.2508C182.138 54.9441 180.49 56.0556 178.541 56.784C175.652 57.865 170.706 59.8245 168.871 55.5703C167.933 53.395 168.192 50.7664 169.389 48.8057C170.564 46.881 172.37 46.3671 174.106 45.6812C176.495 44.7435 178.755 44.4685 181.057 46.0306C182.926 47.2995 183.18 49.7997 182.684 52.2508V52.2508ZM173.902 44.7069C171.994 45.4611 169.98 46.0825 168.714 48.2267C167.626 50.067 167.217 52.6037 167.683 54.839C168.967 61.0119 175.362 59.0234 178.745 57.7583C180.565 57.0786 182.32 56.0296 183.125 53.6962C183.744 51.9041 184.091 49.1081 183.358 47.3115C181.659 43.1426 176.791 43.573 173.902 44.7069" fill="#2E2D2D"/>
<path d="M170.225 52.4861C170.157 51.845 169.397 52.1116 169.464 52.7471C169.634 54.3499 170.11 55.7991 171.183 56.7283C171.603 57.0927 171.995 56.2169 171.576 55.8547C170.684 55.0816 170.364 53.7945 170.225 52.4861Z" fill="#2E2D2D"/>
<path d="M169.922 51.1185C170.412 50.9505 170.208 49.976 169.718 50.1442C169.229 50.3122 169.431 51.2869 169.922 51.1185Z" fill="#2E2D2D"/>
<path d="M510.121 206.08C509.362 206.673 508.054 206.873 507.181 206.936C507.12 206.94 507.068 206.963 507.019 206.99C506.555 205.552 505.475 204.387 504.196 203.625C502.506 202.618 500.657 202.425 498.869 201.855C497.266 201.345 495.698 200.599 494.17 199.8C490.71 197.993 487.192 195.325 483.54 194.252C482.043 193.814 480.483 193.954 479.35 194.92C479.336 194.91 479.328 194.894 479.313 194.885C476.625 193.233 476.884 188.37 480.167 188.608C481.258 188.687 482.447 189.428 483.443 189.944C487.004 191.785 490.488 193.836 494.099 195.523C498.164 197.421 502.344 198.689 506.509 200.149C507.738 200.579 509.437 200.96 510.455 202.015C511.508 203.106 511.209 205.228 510.121 206.08ZM505.929 210.323C503.059 216.477 494.14 212.485 490.084 210.708C486.423 208.951 478.54 205.329 478.595 199.186C478.673 190.357 490.937 199.347 493.869 200.879C495.663 201.816 497.5 202.647 499.395 203.172C501.783 203.833 508.297 205.243 505.929 210.323V210.323ZM490.913 189.785C492.534 190.879 494.182 191.889 495.888 192.75C497.818 193.724 499.798 194.525 501.814 195.15C503.36 195.628 508.141 195.99 507.745 199.161C507.739 199.21 507.747 199.25 507.749 199.293C506.518 198.853 505.242 198.543 504.118 198.173C500.437 196.961 496.805 195.615 493.245 193.894C490.33 192.485 487.484 190.872 484.612 189.327C483.844 188.913 482.99 188.396 482.118 188.003C483.667 184.239 489.238 188.655 490.913 189.785V189.785ZM511.944 205.422C512.476 203.758 511.966 201.936 510.845 200.97C510.151 200.373 509.344 199.933 508.494 199.578C508.563 199.495 508.619 199.391 508.637 199.245C508.993 196.39 506.801 195.482 505.018 194.902C501.616 193.795 498.283 192.846 495.037 191.069C492.211 189.522 483.572 181.459 481.256 187.669C480.782 187.516 480.308 187.417 479.846 187.422C478.588 187.437 476.96 188.786 476.485 190.345C475.799 192.596 477.235 194.671 478.645 195.712C478.276 196.262 477.996 196.956 477.837 197.813C476.422 205.451 485.589 209.774 489.783 211.787C494.129 213.691 503.774 217.835 506.769 210.818C507.185 209.842 507.317 208.92 507.238 208.068C508.801 207.944 511.278 207.499 511.944 205.422" fill="#2E2D2D"/>
<path d="M506.429 201.406C505.786 201.172 505.042 201.601 504.395 201.434C503.157 201.115 502.802 199.704 501.783 199.056C500.825 198.446 499.758 198.884 498.733 199.001C497.326 199.162 497.321 198.493 496.402 197.463C496.041 197.059 495.897 196.897 495.467 196.765C494.952 196.607 494.278 196.816 493.758 196.864C492.407 196.989 492.007 196.578 491.113 195.346C490.397 194.36 490.218 193.921 489.146 193.887C488.206 193.857 487.291 194.274 486.426 193.593C485.729 193.044 485.374 191.789 484.68 191.277C483.699 190.556 482.389 191.397 481.383 191.647C480.818 191.786 480.982 192.912 481.548 192.771C482.14 192.626 482.843 192.198 483.442 192.209C484.455 192.229 484.844 193.272 485.5 194.048C486.365 195.073 486.919 195.172 488.104 195.111C489.845 195.022 489.867 195.485 491.072 196.939C491.761 197.77 492.136 198.071 493.072 198.077C493.659 198.081 494.477 197.687 495.03 197.89C495.792 198.171 496.055 199.513 496.693 199.932C497.449 200.429 498.339 200.197 499.15 200.088C499.936 199.984 500.783 199.653 501.512 200.156C502.152 200.599 502.506 201.639 503.141 202.132C503.98 202.784 506.913 201.991 506.897 203.781C506.891 204.514 507.783 204.605 507.789 203.865C507.8 202.613 507.391 201.756 506.429 201.406" fill="#2E2D2D"/>
<path d="M484.301 204.592C483.451 204.338 482.534 203.277 481.946 202.481C481.183 201.446 480.89 200.302 480.725 198.922C480.639 198.193 479.759 198.405 479.846 199.134C480.034 200.709 480.397 202.038 481.262 203.218C481.967 204.178 482.978 205.365 484 205.671C484.555 205.835 484.861 204.759 484.301 204.592" fill="#2E2D2D"/>
<path d="M486.03 205.654C485.488 205.406 485.187 206.484 485.73 206.732C486.272 206.979 486.573 205.902 486.03 205.654Z" fill="#2E2D2D"/>
<path d="M461.578 292.209C461.616 292.093 461.655 291.978 461.697 291.876C462.105 293.255 462.504 294.726 462.626 296.259C462.842 298.944 462.532 300.398 461.706 300.584C461.631 300.6 461.558 300.608 461.486 300.608C459.871 300.608 459.17 296.318 458.833 294.256L458.77 293.868C458.827 293.878 458.882 293.89 458.939 293.901C459.149 293.941 459.367 293.984 459.587 293.984C459.784 293.984 459.965 293.951 460.14 293.881C460.578 293.704 461.012 293.3 461.361 292.74C461.446 292.606 461.512 292.404 461.578 292.209V292.209ZM454.4 300.974C454.675 302.558 454.94 304.367 454.615 305.781C454.442 306.529 454.171 306.908 453.809 306.908C453.051 306.908 452.07 305.298 451.738 304.477C451.264 303.305 450.991 301.99 450.727 300.718L450.581 300.026C450.667 300.024 450.752 300.021 450.836 300.021C451.269 300.014 451.679 300.01 452.137 299.776C452.591 299.545 452.967 299.188 453.251 298.718C453.401 298.467 453.482 298.162 453.56 297.865C453.603 297.699 453.645 297.54 453.697 297.396C453.971 298.505 454.171 299.66 454.366 300.779L454.4 300.974ZM445.756 313.146C446.037 313.146 446.29 313.052 446.507 312.866C447.492 312.024 447.385 309.955 447.335 308.961C447.236 307.032 446.798 305.218 446.279 303.222C446.489 302.975 446.799 302.749 447.074 302.547C447.236 302.429 447.389 302.317 447.513 302.209C448.128 301.674 449.489 300.496 449.489 300.496C449.583 300.414 449.664 300.344 449.739 300.284C449.792 300.528 449.844 300.774 449.895 301.021C450.272 302.816 450.662 304.672 451.558 306.186C452.313 307.463 453.038 308.11 453.711 308.11C454 308.11 454.282 307.989 454.548 307.751C455.796 306.632 455.633 304.271 455.536 302.862C455.405 300.974 455.003 298.741 454.4 296.569C454.486 296.508 454.572 296.45 454.656 296.393C454.784 296.307 454.906 296.224 455.007 296.145L455.264 295.941C455.747 295.559 456.229 295.178 456.715 294.802C456.819 294.721 456.928 294.63 457.04 294.535C457.319 294.301 457.606 294.06 457.894 293.925C457.93 294.123 457.968 294.344 458.009 294.583C458.44 297.087 459.243 301.747 461.528 301.747C461.716 301.747 461.915 301.714 462.116 301.651C463.267 301.289 463.437 299.16 463.492 298.462C463.692 295.94 463.124 293.564 462.459 291.334L462.597 291.287C462.735 291.239 462.86 291.196 462.95 291.155C464.469 290.462 465.952 290.109 467.358 290.109C467.598 290.109 467.839 290.119 468.079 290.141C469.146 290.237 470.048 290.552 470.758 291.077C471.922 291.937 472.285 293.366 472.487 294.643C472.595 295.945 472.237 297.582 471.421 299.506C470.59 301.463 469.214 302.871 467.884 304.231L467.515 304.608C464.645 307.563 461.489 310.334 457.868 313.076C455.438 314.917 452.55 317.034 449.561 318.785C448.104 319.638 446.489 320.337 444.763 320.863C443.784 321.16 442.744 321.451 441.74 321.451C441.168 321.451 440.666 321.359 440.206 321.169C438.139 320.319 437.554 317.367 438.044 314.889C438.525 312.46 439.836 310.545 441.138 308.794C441.231 308.669 441.334 308.516 441.444 308.354C441.615 308.098 441.806 307.813 441.991 307.592C442.376 309.08 442.821 310.608 443.588 311.696C444.082 312.394 444.97 313.146 445.756 313.146V313.146ZM446.472 310.308C446.424 311.162 445.997 311.759 445.435 311.759C445.228 311.759 445.012 311.681 444.793 311.525C444.37 311.228 444.139 310.809 443.88 310.293C443.372 309.279 443.045 308.122 442.779 307.105C442.881 307.085 442.985 307.07 443.09 307.054C443.375 307.013 443.67 306.971 443.947 306.815C444.465 306.525 444.946 306.05 445.34 305.439C445.512 305.173 445.625 304.857 445.714 304.573C446.152 306.311 446.586 308.308 446.472 310.308ZM473.341 294.5L473.334 294.416C472.986 292.155 472.241 290.77 470.918 289.928C469.949 289.313 468.775 289 467.426 289C467.131 289 466.838 289.015 466.549 289.043C465.021 289.184 463.448 289.683 461.739 290.568C461.207 290.845 461.155 290.98 461.016 291.341C460.966 291.468 460.906 291.625 460.807 291.832C460.494 292.48 459.982 292.843 459.286 292.885C459.101 292.885 458.907 292.812 458.72 292.74C458.532 292.668 458.337 292.594 458.149 292.594C458.125 292.594 458.1 292.595 458.076 292.598C457.773 292.631 457.443 292.911 457.152 293.159C457.061 293.236 456.975 293.308 456.897 293.368C456.304 293.815 455.718 294.277 455.133 294.74L454.943 294.891C454.779 295.02 454.598 295.144 454.411 295.271C454.036 295.528 453.648 295.794 453.357 296.129C453.109 296.416 453.012 296.774 452.919 297.122C452.848 297.384 452.775 297.655 452.637 297.906C452.132 298.829 451.433 298.902 450.572 298.902H450.22C449.777 298.905 449.6 299.059 449.25 299.364L447.333 301.024C447.155 301.179 446.956 301.333 446.75 301.491C446.299 301.836 445.831 302.195 445.502 302.638C445.271 302.947 445.161 303.34 445.052 303.72C444.951 304.075 444.847 304.443 444.643 304.754C444.253 305.353 443.831 305.729 443.318 305.935C443.14 306.006 442.931 306.006 442.73 306.006C442.515 306.007 442.312 306.007 442.139 306.083C441.749 306.259 441.386 306.793 441.066 307.263C440.967 307.409 440.872 307.548 440.785 307.664C439.975 308.73 439.358 309.631 438.84 310.502C437.777 312.286 436.75 315.15 437.054 317.832C437.225 319.345 437.8 320.569 438.762 321.469C439.562 322.219 440.596 322.598 441.837 322.599C443.747 322.599 445.803 321.725 447.304 321.087C450.359 319.791 453.234 317.722 456.015 315.72L456.276 315.533C460.614 312.411 464.373 309.215 467.769 305.763L468.159 305.367C469.71 303.799 471.314 302.176 472.256 299.861C473.13 297.716 473.487 295.978 473.341 294.5" fill="#2E2D2D"/>
</svg>
