<svg width="110" height="118" viewBox="0 0 110 118" fill="none" xmlns="http://www.w3.org/2000/svg">
<path d="M86.9555 27.2639C86.9263 30.0365 86.8395 32.8072 86.7161 35.5773C85.6756 35.7903 84.6355 36.0049 83.5987 36.2187C82.7161 32.8473 81.8363 29.4735 80.9569 26.1012C80.6821 25.0496 80.445 23.9065 80.2017 22.7529C80.0082 21.0424 79.5974 18.4171 80.1694 17.4571C80.7655 16.4577 82.6694 16.8374 83.6436 17.0231C85.3886 17.3588 86.3652 17.6113 86.8917 19.6083C87.4813 21.8411 86.9756 24.9612 86.9555 27.2639ZM93.0117 55.4354C94.821 66.2001 97.6308 79.2641 95.7318 90.1966C94.12 99.4681 80.2242 100.072 72.7753 102.057C63.1729 104.618 53.9009 107.992 44.0257 109.458C40.8789 109.925 37.8058 111.1 34.8914 108.623C33.1873 107.173 31.8885 103.702 30.8035 101.753C28.3145 97.2903 26.0614 92.7003 23.9646 88.0408C21.6222 82.8394 19.492 77.5448 17.4961 72.2021C16.7214 70.1314 11.2779 58.7582 12.7393 56.5558C33.3918 50.2204 54.2903 44.8423 75.4084 40.309C78.314 39.6845 81.2202 39.0755 84.1291 38.4761C88.0618 37.6664 88.8134 36.7691 90.242 40.5308C91.9473 45.0148 92.2161 50.6956 93.0117 55.4354ZM10.4142 43.8727C9.81329 42.6574 8.78432 41.001 8.46476 39.6792C7.74065 36.686 9.24072 35.9655 11.7174 35.2136C15.1999 34.1576 15.7218 35.4979 17.1198 38.0213C17.8872 39.4119 18.6573 40.8001 19.4258 42.1886C21.0034 45.0396 22.5822 47.8886 24.1598 50.7396C21.3525 51.5437 18.5493 52.3693 15.7504 53.211C13.8145 50.1859 12.0077 47.0933 10.4142 43.8727ZM24.4664 45.9139C24.0412 43.2094 23.3387 40.5809 22.673 37.9288C22.0191 35.3202 20.4134 31.4986 24.5112 31.557C26.7423 31.5876 26.9093 32.2042 27.7772 34.2482C28.3892 35.6856 28.6325 37.3949 29.02 38.9184C29.8514 42.1702 30.5944 45.4404 31.2954 48.722C29.6864 49.1652 28.0835 49.6311 26.4771 50.0841C25.7976 48.8534 25.1242 47.6195 24.4471 46.3848C24.4791 46.2394 24.4944 46.083 24.4664 45.9139ZM21.4085 25.3077C21.2313 24.0325 21.6067 24.2124 22.5921 23.9102C23.3795 23.6698 24.221 23.5413 25.0235 23.3574C26.2572 23.0771 27.6252 22.8975 28.8348 22.5076C28.8462 22.5634 28.8586 22.6224 28.8689 22.6802C28.8468 23.3215 29.1382 24.0987 29.2195 24.7382C29.2204 24.7414 29.2204 24.7414 29.2212 24.7447C28.8802 26.4893 30.2575 28.6704 30.8773 30.0399C33.3937 35.6067 35.7405 41.231 37.8258 46.9722C36.4019 47.3502 34.9784 47.7299 33.5551 48.1165C32.8557 44.8345 32.1128 41.5643 31.2829 38.3121C30.6456 35.8237 30.3549 31.8055 28.7748 29.8173C27.5482 28.2763 24.6814 28.6255 22.3283 29.4187C21.9421 28.068 21.6035 26.701 21.4085 25.3077ZM40.6106 25.1051C40.6614 25.2109 40.7311 25.2771 40.7969 25.3547C40.7724 25.6123 40.7617 25.8887 40.7735 26.2041C41.0406 32.635 42.3281 39.0486 42.5656 45.5238C42.5676 45.596 42.5989 45.6482 42.6114 45.7141C41.7681 45.9332 40.9268 46.1464 40.084 46.3671C38.1375 41.0025 35.9777 35.7332 33.6485 30.523C33.2014 29.5262 31.5373 26.8369 31.6498 25.9515C31.7865 24.8467 32.6993 24.777 33.8024 24.2356C37.1271 22.6038 38.8006 21.1997 40.6106 25.1051ZM48.5461 13.0797C49.633 14.3258 50.4437 16.0008 51.1797 17.5071C50.6443 17.628 50.1321 17.7324 49.6529 17.7985C49.1952 17.8605 48.736 18.4597 48.7851 18.9209C48.9174 20.1769 48.9814 20.6808 49.1954 21.6864C47.9767 21.9126 46.7094 22.3388 45.7094 22.5028C44.3531 22.726 43.1636 22.7902 42.2901 23.142C41.8129 22.0199 41.282 20.7686 40.4244 20.0168C40.4003 19.9141 40.3893 19.815 40.3336 19.7104C39.8454 18.78 39.4769 17.8313 39.1582 16.8486C40.9757 15.7297 42.8786 15.0588 44.9517 14.4029C46.1262 14.0311 47.3334 13.4254 48.5461 13.0797ZM44.1017 33.6568C43.9323 32.0748 43.7293 30.4967 43.5194 28.9186C43.4175 28.1444 42.807 26.3049 43.093 25.6085C43.314 25.0767 43.2927 25.4944 44.1128 25.0791C44.9887 24.6331 47.847 24.2326 48.8543 24.2899C51.6144 24.447 51.0981 27.0558 51.231 29.2899C51.5092 33.9139 51.7866 38.5415 52.0636 43.1675C52.0675 43.2271 52.0941 43.2684 52.1056 43.3242C49.6947 43.9148 47.2907 44.5244 44.8858 45.1376C44.7394 41.3023 44.5099 37.4738 44.1017 33.6568ZM58.9627 25.2775C59.9745 30.4753 60.9882 35.5376 61.3792 40.8411C61.3868 40.9343 61.4249 41.0054 61.4486 41.0874C59.0878 41.6386 56.735 42.2067 54.3809 42.7769C54.1772 39.3742 53.9724 35.9736 53.7687 32.5709C53.608 29.8648 54.095 25.8737 53.1922 23.2799C52.8717 22.3617 52.2971 21.8906 51.5898 21.6802C51.1278 19.6331 55.3355 18.4987 56.9048 19.1481C58.7961 19.9328 58.6392 23.6052 58.9627 25.2775ZM64.8981 14.103C65.8096 13.9575 67.6469 13.2228 68.2772 13.8503C68.8742 14.4434 68.6708 15.7132 68.6364 16.4894C68.6352 16.5174 68.6489 16.5362 68.649 16.5622C67.5431 17.132 67.1332 18.1092 67.5169 20.3037C67.7592 21.6861 68.0404 23.065 68.3337 24.4441C68.3295 24.4798 68.3093 24.5078 68.307 24.5447C67.9912 29.5235 68.6448 34.4952 68.5294 39.4723C66.9158 39.8337 65.3047 40.2048 63.6953 40.5754C63.1677 33.5859 62.1543 26.1795 60.5858 19.3823C60.3141 18.2069 59.7725 17.4777 59.0646 17.039C59.0636 17.0029 59.0765 16.9735 59.0718 16.9367C58.984 16.2729 58.7374 15.411 58.6946 14.6504C60.6853 14.3005 62.9167 14.4228 64.8981 14.103ZM71.9975 38.6988C71.6217 38.7822 71.2445 38.8608 70.8687 38.9441C70.8872 37.4434 70.8576 35.9435 70.7934 34.4441C71.1836 35.8682 71.5896 37.2864 71.9975 38.6988ZM76.402 17.9212C77.2114 18.6029 77.6301 21.9358 77.9415 23.6667C77.942 23.6942 77.9441 23.7283 77.9462 23.7554C77.9502 23.9448 77.9932 24.1116 78.0621 24.2524C78.0709 24.2916 78.0799 24.3515 78.089 24.3854C79.1592 28.4891 80.2305 32.5906 81.3006 36.6943C78.9619 37.1859 76.6271 37.692 74.2931 38.2014C73.2282 34.505 72.2533 30.7826 71.3758 27.036C70.9221 25.0974 70.3296 23.0991 70.0684 21.1228C69.7046 18.3568 69.9381 18.4206 72.6739 17.9507C74.1138 17.7034 75.6613 17.2956 76.402 17.9212ZM86.8587 14.9237C85.0411 14.4915 80.3999 13.6265 78.7254 14.9754C78.4025 15.2368 78.1672 15.5993 77.993 16.0217C76.6232 14.4307 74.3231 15.2928 72.068 15.6893C71.6874 15.755 71.3404 15.8168 71.0024 15.8797C71.0692 13.9003 70.9549 11.3029 68.5675 11.1151C66.8332 10.9808 64.8441 11.7821 63.115 12.01C61.2347 12.2611 59.115 12.0517 57.2936 12.5294C56.9196 12.6261 56.5423 12.9557 56.4678 13.3497C56.2746 14.3605 56.4624 15.4424 56.6418 16.4867C55.6585 16.5061 54.5844 16.7039 53.5112 16.9499C52.474 14.8751 50.8832 10.0367 48.0102 10.8152C44.3688 11.8013 40.2588 13.138 37.1637 15.3298C36.7421 15.6297 36.4797 16.1172 36.6257 16.6425C36.9106 17.6672 37.2795 18.6175 37.6977 19.558C36.1928 20.0668 34.3866 21.3507 33.3896 21.8359C32.894 22.0796 32.1083 22.3455 31.3586 22.6745C31.216 21.6255 30.9307 20.5801 30.1878 20.1853C29.6447 19.8963 28.9906 20.0785 28.4209 20.1878C27.0807 20.4517 25.7495 20.7946 24.418 21.0977C22.7778 21.4697 20.0306 21.5029 19.2006 23.2575C18.3052 25.149 19.579 28.4622 20.1474 30.351C19.9597 30.4516 19.7837 30.5506 19.6291 30.6457C19.3153 30.8441 19.0033 31.2497 19.0514 31.6488C19.3776 34.3331 20.0248 36.9487 20.6777 39.5662C19.6598 37.7251 18.6496 35.8803 17.6008 34.0596C15.5688 30.527 14.0243 31.5987 10.5307 33.1945C7.14328 34.7409 4.17166 35.274 5.72238 39.1554C7.78338 44.3144 10.4578 49.2173 13.4297 53.9055C12.8598 54.079 12.287 54.2412 11.7176 54.4162C11.6857 54.4265 11.6686 54.4467 11.642 54.4572C11.5928 54.4739 11.546 54.5124 11.4985 54.5355C11.4109 54.5833 11.3179 54.6238 11.2516 54.6865C11.23 54.7027 11.2081 54.7051 11.1873 54.7245C9.3986 56.3706 10.0557 57.5241 10.6161 59.7128C11.7482 64.1444 13.6314 68.5236 15.2331 72.8085C18.3784 81.226 21.8458 89.5468 25.9229 97.5589C28.3548 102.338 31.6327 112.517 37.9855 112.889C41.5318 113.098 46.3399 111.537 49.8643 110.831C54.6542 109.873 59.3315 108.495 63.9962 107.071C71.6784 104.728 79.6927 103.315 87.2889 100.755C92.2552 99.0796 96.8581 96.9651 97.9501 91.42C99.5373 83.3686 97.9004 73.7125 96.8875 65.681C95.6175 55.6045 93.6407 45.6361 91.6637 35.6799C91.5352 35.0322 90.8167 34.7348 90.2305 34.8538C89.8428 34.9317 89.4596 35.0136 89.072 35.0915C89.2796 30.1936 89.3618 25.293 89.253 20.3899C89.1969 17.8289 89.6692 15.592 86.8587 14.9237Z" fill="#2E2D2D"/>
<path d="M80.0036 74.2768C78.3824 80.5281 73.4836 83.108 67.6904 84.7987C59.1023 87.3076 44.4024 91.8559 38.9469 81.9817C36.1588 76.9326 36.9287 70.8315 40.4874 66.2805C43.9786 61.8133 49.3478 60.6205 54.5078 59.0284C61.6095 56.852 68.327 56.2137 75.1673 59.8394C80.7225 62.7845 81.4777 68.5877 80.0036 74.2768ZM53.9019 56.767C48.2285 58.5175 42.2442 59.96 38.4793 64.9367C35.2472 69.2081 34.0325 75.096 35.4157 80.2843C39.234 94.6119 58.2422 89.9965 68.2963 87.0601C73.706 85.4824 78.9225 83.0477 81.3163 77.6316C83.1552 73.4722 84.1863 66.9825 82.0076 62.8124C76.9566 53.1362 62.4899 54.1352 53.9019 56.767Z" fill="#2E2D2D"/>
<path d="M42.9722 74.823C42.7691 73.3349 40.5112 73.9537 40.7109 75.4289C41.216 79.149 42.6314 82.5126 45.8183 84.6693C47.0681 85.5151 48.2321 83.4823 46.9889 82.6417C44.3371 80.8472 43.3843 77.8599 42.9722 74.823Z" fill="#2E2D2D"/>
<path d="M42.0714 71.6487C43.5267 71.2587 42.9224 68.9969 41.4654 69.3873C40.0101 69.7773 40.6128 72.0395 42.0714 71.6487Z" fill="#2E2D2D"/>
</svg>
