<svg width="15" height="180" viewBox="0 0 15 180" fill="none" xmlns="http://www.w3.org/2000/svg">
<path d="M9.89769 175.268C-1.44631 171.795 13.3044 153.947 14.067 147.626C15.0964 139.106 7.56303 134.334 6.14303 126.62C5.2937 122.007 7.35901 117.91 9.42568 113.768C11.3683 109.875 13.311 105.942 12.8297 101.506C11.9563 93.4603 3.95768 87.6842 3.79234 79.6189C3.70568 75.3416 5.98836 71.8776 8.27102 68.3576C10.607 64.7563 12.943 61.0963 12.7404 56.4443C12.3657 47.8283 5.98701 40.5789 5.79635 31.9789C5.70568 27.9403 7.58167 24.3949 9.45767 20.8736C11.6737 16.7136 13.891 12.5856 12.8657 7.71492C11.8083 2.69226 8.37634 -0.831737 3.12434 0.17093C2.00434 0.384264 2.26434 2.18693 3.39101 2.15093C8.93367 1.96826 10.0323 8.64692 9.215 12.4269C8.66166 14.9856 7.00303 17.4149 5.8137 19.6989C4.0657 23.0589 2.38567 26.3496 2.14967 30.2056C1.68033 37.8989 6.20836 44.5683 8.18036 51.7229C9.82836 57.7016 8.64435 62.2283 5.30035 67.2576C3.17235 70.4603 0.752339 73.5322 0.153672 77.4482C-0.880994 84.2149 3.54301 89.7136 6.42301 95.3803C11.827 106.016 4.10301 111.467 2.09101 121.335C0.509679 129.096 5.70703 134.192 8.6097 140.803C12.9177 150.614 2.69367 157.32 1.61767 166.552C0.957674 172.212 2.9897 177.742 8.73903 179.471C11.4324 180.28 12.5764 176.087 9.89769 175.268Z" fill="black"/>
</svg>
