<svg width="15" height="180" viewBox="0 0 15 180" fill="none" xmlns="http://www.w3.org/2000/svg">
<path d="M5.10231 175.268C16.4463 171.795 1.69564 153.947 0.932977 147.626C-0.0963558 139.106 7.43697 134.334 8.85697 126.62C9.7063 122.007 7.64099 117.91 5.57432 113.768C3.63165 109.875 1.68898 105.942 2.17032 101.506C3.04365 93.4603 11.0423 87.6842 11.2077 79.6189C11.2943 75.3416 9.01164 71.8776 6.72898 68.3576C4.39298 64.7563 2.05697 61.0963 2.25964 56.4443C2.63431 47.8283 9.01299 40.5789 9.20365 31.9789C9.29432 27.9403 7.41833 24.3949 5.54233 20.8736C3.32633 16.7136 1.10898 12.5856 2.13432 7.71492C3.19165 2.69226 6.62366 -0.831737 11.8757 0.17093C12.9957 0.384264 12.7357 2.18693 11.609 2.15093C6.06633 1.96826 4.96767 8.64692 5.785 12.4269C6.33834 14.9856 7.99697 17.4149 9.1863 19.6989C10.9343 23.0589 12.6143 26.3496 12.8503 30.2056C13.3197 37.8989 8.79164 44.5683 6.81964 51.7229C5.17164 57.7016 6.35565 62.2283 9.69965 67.2576C11.8276 70.4603 14.2477 73.5322 14.8463 77.4482C15.881 84.2149 11.457 89.7136 8.57699 95.3803C3.17299 106.016 10.897 111.467 12.909 121.335C14.4903 129.096 9.29297 134.192 6.3903 140.803C2.0823 150.614 12.3063 157.32 13.3823 166.552C14.0423 172.212 12.0103 177.742 6.26097 179.471C3.56764 180.28 2.42364 176.087 5.10231 175.268Z" fill="black"/>
</svg>
