<svg width="123" height="89" viewBox="0 0 123 89" fill="none" xmlns="http://www.w3.org/2000/svg">
<path d="M111.269 56.3232C109.015 57.6999 105.126 58.1635 102.531 58.3081C102.35 58.3181 102.194 58.3713 102.049 58.4343C100.669 55.098 97.4607 52.3936 93.6574 50.6239C88.6356 48.2864 83.1395 47.8379 77.8238 46.5164C73.0601 45.3313 68.3985 43.6001 63.8572 41.7465C53.5735 37.5524 43.1158 31.3592 32.2603 28.87C27.812 27.8519 23.1742 28.1771 19.805 30.4201C19.7647 30.3957 19.7409 30.359 19.696 30.339C11.7068 26.5037 12.4769 15.2164 22.2363 15.7686C25.4769 15.9529 29.0119 17.6733 31.9736 18.8708C42.557 23.1435 52.9131 27.9035 63.6452 31.8181C75.7278 36.2245 88.1533 39.1668 100.532 42.5561C104.187 43.5553 109.236 44.4389 112.263 46.8872C115.393 49.4188 114.502 54.3459 111.269 56.3232ZM98.8096 66.1703C90.2781 80.4541 63.7666 71.1895 51.7105 67.0648C40.8292 62.9861 17.3983 54.5804 17.5615 40.3212C17.7955 19.8286 54.2465 40.695 62.9636 44.2517C68.2958 46.4257 73.7555 48.3549 79.3886 49.5719C86.487 51.106 105.849 54.3798 98.8096 66.1703ZM54.1763 18.5014C58.9952 21.0406 63.8938 23.3845 68.9642 25.3825C74.7011 27.6424 80.5862 29.5036 86.5778 30.9533C91.1731 32.0622 105.384 32.9022 104.206 40.2626C104.19 40.3775 104.214 40.4687 104.22 40.5697C100.559 39.5481 96.7679 38.8289 93.426 37.9695C82.4841 35.1573 71.6898 32.0328 61.1089 28.0391C52.4435 24.7669 43.9842 21.0241 35.4473 17.4369C33.165 16.4778 30.6261 15.2779 28.0336 14.3653C32.6392 5.62922 49.1976 15.8791 54.1763 18.5014ZM116.687 54.7945C118.27 50.9326 116.755 46.7035 113.422 44.4626C111.359 43.0756 108.959 42.0545 106.433 41.2302C106.638 41.0393 106.804 40.796 106.858 40.4584C107.917 33.8318 101.402 31.7238 96.0999 30.3767C85.99 27.8088 76.0827 25.6054 66.4334 21.4805C58.0347 17.8902 32.355 -0.823528 25.4715 13.5906C24.0627 13.2352 22.6551 13.0052 21.2809 13.017C17.5424 13.0502 12.7019 16.1815 11.29 19.8C9.2522 25.0255 13.5202 29.8415 17.7111 32.2574C16.6149 33.5334 15.7804 35.1446 15.309 37.1332C11.1033 54.8628 38.3519 64.8963 50.8176 69.5682C63.7358 73.9884 92.4048 83.6073 101.307 67.3189C102.543 65.055 102.936 62.9134 102.7 60.9364C107.344 60.6478 114.709 59.6161 116.687 54.7945Z" fill="#2E2D2D"/>
<path d="M100.295 45.4751C98.3834 44.9302 96.1732 45.9277 94.2494 45.5399C90.5688 44.7996 89.5136 41.5246 86.4849 40.019C83.6398 38.6031 80.4672 39.6202 77.4211 39.8923C73.2369 40.2644 73.2236 38.7137 70.4908 36.3219C69.418 35.385 68.9899 35.0085 67.7124 34.7021C66.1822 34.3356 64.1772 34.8198 62.6316 34.9317C58.6178 35.2215 57.4277 34.2689 54.7695 31.4079C52.6411 29.1188 52.1092 28.1007 48.924 28.0228C46.1289 27.9531 43.4113 28.9208 40.8387 27.3401C38.766 26.0646 37.7128 23.1512 35.6491 21.9636C32.7343 20.2911 28.8379 22.2433 25.8483 22.8218C24.1702 23.1444 24.6558 25.7586 26.3406 25.4323C28.0997 25.0943 30.1897 24.1022 31.9685 24.1279C34.9814 24.1746 36.1361 26.594 38.0874 28.3966C40.6578 30.7748 42.3049 31.0055 45.825 30.8622C51.0003 30.6561 51.0667 31.73 54.6497 35.1063C56.695 37.0351 57.8106 37.7334 60.593 37.7482C62.3373 37.7575 64.7686 36.8409 66.4119 37.3141C68.679 37.9655 69.4589 41.0798 71.3572 42.0532C73.6049 43.2056 76.2481 42.6668 78.6602 42.4145C80.9958 42.1732 83.5135 41.4042 85.681 42.5724C87.5835 43.6017 88.6357 46.0149 90.5232 47.1598C93.0149 48.6734 101.734 46.8328 101.688 50.9867C101.67 52.6875 104.321 52.8996 104.339 51.1825C104.372 48.2756 103.155 46.2854 100.295 45.4751Z" fill="#2E2D2D"/>
<path d="M34.5231 52.8676C31.9977 52.2793 29.2699 49.8168 27.5226 47.968C25.2548 45.5667 24.3836 42.9117 23.8936 39.7074C23.6367 38.0173 21.0231 38.5082 21.2815 40.2008C21.839 43.8566 22.9184 46.9405 25.489 49.6796C27.5845 51.9086 30.589 54.6633 33.6295 55.3729C35.2772 55.7549 36.1886 53.2561 34.5231 52.8676Z" fill="#2E2D2D"/>
<path d="M39.6624 55.3336C38.0512 54.7589 37.1571 57.26 38.7701 57.8353C40.3812 58.41 41.2753 55.9089 39.6624 55.3336Z" fill="#2E2D2D"/>
</svg>
