<svg width="66" height="132" viewBox="0 0 66 132" fill="none" xmlns="http://www.w3.org/2000/svg">
<path d="M29.9742 17.4135C24.838 11.4054 26.5118 6.25777 31.6897 4.14879C30.7326 5.89438 30.5585 8.06132 31.3022 10.7209C32.012 13.2557 33.6116 15.523 35.1731 17.5829C38.9108 22.5143 39.92 27.0109 36.8172 31.1977C36.8948 28.6138 36.3357 25.9965 35.1365 23.7783C33.7764 21.2636 31.8074 19.5581 29.9742 17.4135ZM32.7914 35.3688C32.4804 36.1312 32.8157 36.6997 33.3584 36.9985C33.7859 37.4488 34.4242 37.6272 35.0834 37.13C39.0319 34.1672 42.995 29.646 42.4829 24.3334C41.9447 18.7667 27.48 7.07151 37.777 3.06535C39.3315 2.46119 39.2399 -0.00671005 37.3625 -2.28882e-05C30.6394 0.022274 23.8713 2.24715 23.3835 9.8894C22.721 20.2738 37.4809 23.8608 32.7914 35.3688Z" fill="#2E2D2D"/>
<path d="M58.3194 77.613C42.0649 78.7433 25.573 76.8617 9.24116 77.6442C8.76831 74.2355 8.30505 70.8246 7.80344 67.4181C25.1376 67.407 42.4535 68.3946 59.7893 68.0067C59.2816 71.2058 58.7923 74.4072 58.3194 77.613ZM51.7731 119.318C51.4633 120.921 51.4675 124.071 50.5671 125.506C48.5181 128.77 44.6679 127.791 41.1995 127.814C35.2654 127.849 27.6142 128.877 21.8074 127.655C14.2042 126.055 15.4042 122.508 14.5515 116.522C14.4235 115.621 14.3016 114.723 14.1772 113.822C26.5214 114.832 40.3929 115.804 52.7338 113.978C52.4194 115.76 52.1162 117.541 51.7731 119.318ZM53.3103 110.768C46.5934 111.829 39.9725 111.279 33.2017 111.12C26.6937 110.969 20.2312 111.136 13.7356 110.65C13.6163 109.776 13.4926 108.904 13.3733 108.033C12.1342 98.939 10.9245 89.8433 9.67923 80.7519C25.7132 80.0296 41.8977 81.8109 57.8568 80.7586C56.8146 87.906 55.8025 95.06 54.6923 102.198C54.2464 105.056 53.7918 107.914 53.3103 110.768ZM12.5312 60.0992C16.7233 60.1059 20.9148 60.1682 25.108 60.166C29.9787 60.1615 34.8474 60.0635 39.719 60.0947C44.0923 60.1259 48.4614 60.2195 52.8312 60.3667C54.9188 60.4358 57.0139 60.4269 59.0988 60.545C62.4819 60.739 63.3598 61.7823 62.4603 64.8232C42.8905 65.434 23.3515 64.1008 3.78368 64.3126C1.69611 59.3033 10.7217 60.0947 12.5312 60.0992ZM10.8784 46.879C12.0279 45.129 11.3486 45.5949 13.969 45.149C18.5626 44.3688 23.7643 44.8748 28.3972 44.8815C34.13 44.8904 39.8643 44.9685 45.598 45.051C49.1902 45.1045 51.8978 44.5137 54.6321 46.9726C57.4319 49.4896 58.0693 53.6563 58.8043 57.415C51.741 57.0472 44.6305 56.9624 37.5592 56.9624C27.8407 56.958 18.0141 56.5879 8.30929 57.0003C8.66821 53.8413 9.24294 49.3715 10.8784 46.879ZM62.0866 57.8988C60.7637 51.7502 60.9389 42.8037 53.6063 42.0502C45.0398 41.1696 35.9779 41.7582 27.3652 41.7582C22.6233 41.7604 15.2404 40.5499 10.725 42.3713C6.21502 44.1882 5.63851 52.6308 5.14203 57.3793C0.717418 58.3379 -1.7489 61.118 1.45756 66.6646C1.49323 66.727 1.54473 66.7538 1.58375 66.8073C1.64996 66.9076 1.72754 66.9901 1.81716 67.0726C1.8807 67.1261 1.94267 67.1729 2.01045 67.213C2.10453 67.271 2.20908 67.3133 2.32412 67.3468C2.41106 67.3713 2.49466 67.3892 2.58272 67.3959C2.66008 67.4048 2.71938 67.4382 2.80477 67.4382C3.43077 67.4293 4.05522 67.436 4.68144 67.4315C7.21823 84.5151 9.28909 101.661 11.7432 118.756C12.3614 123.061 11.8301 128.581 16.6277 130.346C19.3848 131.361 23.0998 130.803 25.9683 130.846C30.5795 130.913 35.1905 130.955 39.8017 130.939C43.3417 130.926 49.6831 131.972 52.4324 128.957C55.4177 125.682 55.3542 117.204 56.0725 113.038C56.0961 112.899 56.1162 112.759 56.1396 112.618C56.157 112.531 56.1797 112.451 56.1815 112.362C58.7042 97.5948 60.5677 82.7249 62.94 67.9331C63.1587 67.9264 63.3772 67.9264 63.595 67.9175C64.1332 67.8997 64.5153 67.6544 64.7654 67.3156C64.9003 67.1684 65.0187 66.9923 65.1005 66.7739C67.0296 61.5705 65.7789 58.9064 62.0866 57.8988Z" fill="#2E2D2D"/>
<path d="M42.3097 97.3451C41.0401 101.708 37.3059 106.238 32.3264 106.229C31.6696 106.229 31.0487 106.165 30.4531 106.062C30.468 105.977 30.5072 105.91 30.5097 105.817C30.6568 100.863 34.3433 98.286 37.1333 94.7056C38.8611 92.4874 39.7277 90.1109 39.9854 87.3799C41.1645 87.9016 42.1635 88.7376 42.6153 89.8991C43.4505 92.046 42.9219 95.2429 42.3097 97.3451ZM25.4825 95.983C27.4323 92.2756 31.1315 88.7577 35.046 87.1704C35.6129 86.934 36.2617 86.8204 36.9305 86.7936C36.6144 91.5912 33.2416 93.961 30.5028 97.4767C28.7385 99.7417 27.723 102.203 27.4793 105.007C24.5635 103.275 23.4386 99.8733 25.4825 95.983ZM43.3678 85.5518C41.0069 83.7416 36.9383 83.0282 34.2151 84.1607C28.2761 86.5684 21.561 92.8396 21.1664 99.6102C20.7754 106.332 27.8293 110.2 33.9547 109.243C41.3736 108.082 45.8854 100.388 46.0499 93.4148C46.1161 90.6103 45.7487 87.3755 43.3678 85.5518Z" fill="#2E2D2D"/>
</svg>
