<svg width="17" height="18" viewBox="0 0 17 18" fill="none" xmlns="http://www.w3.org/2000/svg">
<g clip-path="url(#clip0)">
<path d="M9.80422 3.29436L8.47609 0.372481C8.44953 0.314177 8.40281 0.26746 8.34451 0.240897C8.211 0.180069 8.05348 0.239005 7.99266 0.372481L6.66453 3.29436C6.64869 3.32885 6.64053 3.36637 6.64063 3.40433V16.42C6.65165 16.8554 7.00204 17.2058 7.4375 17.2168H9.03125C9.46671 17.2058 9.8171 16.8554 9.82812 16.42V3.40433C9.82822 3.36637 9.82006 3.32885 9.80422 3.29436ZM8.23438 1.12447L8.54625 1.81058H7.92253L8.23438 1.12447ZM7.68105 2.34183H8.78774L9.14995 3.1387H7.31883L7.68105 2.34183ZM9.29687 16.42C9.28794 16.5628 9.17409 16.6766 9.03125 16.6856H7.4375C7.29466 16.6766 7.18084 16.5628 7.17188 16.42V15.3575H9.29687V16.42ZM9.29687 14.8262H7.17188V14.295H9.29687V14.8262ZM9.29687 13.7637H7.17188V3.66995H7.96875V11.9043H8.5V3.66995H9.29687V13.7637Z" fill="black"/>
<path d="M5.3125 0.216827H1.32813C1.03471 0.216827 0.796875 0.454661 0.796875 0.748077V16.6856C0.796875 16.979 1.03471 17.2168 1.32813 17.2168H5.3125C5.45919 17.2168 5.57812 17.0979 5.57812 16.9512V0.482452C5.57812 0.335761 5.45922 0.216827 5.3125 0.216827ZM5.04688 16.6856H1.32813V15.3575H3.71875V14.8262H1.32813V13.2325H3.1875V12.7012H1.32813V11.1075H3.71875V10.5762H1.32813V8.98245H3.1875V8.4512H1.32813V6.85745H3.71875V6.3262H1.32813V4.73245H3.1875V4.2012H1.32813V2.60745H3.71875V2.0762H1.32813V0.748077H5.04688V16.6856Z" fill="black"/>
<path d="M15.6717 8.71683H11.4217C11.4144 8.71666 11.4071 8.71666 11.3997 8.71683C11.1124 8.72291 10.8844 8.96074 10.8905 9.24808V11.6387V16.9512C10.8905 17.0979 11.0094 17.2168 11.1561 17.2168H15.9374C16.0841 17.2168 16.203 17.0979 16.203 16.9512V11.6387V9.24808C16.2032 9.24074 16.2032 9.2334 16.203 9.22607C16.1969 8.93873 15.9591 8.71075 15.6717 8.71683ZM15.6717 16.6856H11.4217V16.1543H15.6717V16.6856ZM15.6717 15.6231H11.4217V11.9043H15.6717V15.6231ZM15.6717 11.3731H11.4217V9.24808H15.6717V11.3731Z" fill="black"/>
<path d="M15.1406 13.4981H13.5469V14.0293H15.1406V13.4981Z" fill="black"/>
<path d="M15.1406 14.5606H13.0156V15.0918H15.1406V14.5606Z" fill="black"/>
</g>
<defs>
<clipPath id="clip0">
<rect width="17" height="17" fill="white" transform="translate(0 0.216827)"/>
</clipPath>
</defs>
</svg>
