<svg width="34" height="35" viewBox="0 0 34 35" fill="none" xmlns="http://www.w3.org/2000/svg">
<path d="M6.97163 33.2593C6.88316 33.2593 6.7947 33.258 6.70489 33.2551C4.91267 33.1911 3.23592 32.2686 2.22029 30.7859C1.30595 29.4535 1.07702 27.8368 1.59227 26.3511C1.93261 25.3686 2.70919 23.5939 4.09151 22.7539C5.26111 22.0428 6.6799 21.9726 8.05276 21.9043C8.05276 21.9043 8.27763 21.8949 8.35191 21.8949C9.89697 21.8949 11.3387 22.6654 12.3071 24.0072C13.3193 25.4104 13.6178 27.1696 13.1053 28.712C12.1578 31.5596 9.86524 33.2593 6.97163 33.2593ZM8.35259 21.0845C8.27493 21.0845 8.1993 21.0866 8.12232 21.0906C6.56983 21.1676 4.63783 21.2635 3.20892 22.3811C1.72869 23.5379 0.788673 25.6515 0.51248 27.2337C0.253169 28.7254 0.694142 30.2609 1.75435 31.5569C2.97999 33.0555 4.87485 34.0164 6.70016 34.0649L6.92301 34.0684C10.6108 34.0684 13.528 31.5638 14.1803 27.836C14.4484 26.3032 13.9561 24.6541 12.8284 23.313C11.6561 21.9179 9.98273 21.0845 8.35259 21.0845Z" fill="#2E2D2D"/>
<path d="M7.85397 24.5008C8.72374 24.5008 9.52868 24.9263 10.0622 25.6664C10.5963 26.4078 10.7503 27.3458 10.4734 28.1744C9.9514 29.7392 8.78992 30.5682 7.10642 30.573C6.11442 30.573 5.14336 30.0982 4.57274 29.3345C4.08045 28.6748 3.93931 27.8713 4.17498 27.0702C4.66119 25.4246 5.81189 24.6082 7.79589 24.5015L7.85397 24.5008ZM7.86207 23.6905L7.79116 23.6918C5.18454 23.8316 3.62058 25.1066 3.26808 27.3788C3.12492 28.306 3.4099 29.2427 4.07236 30.0167C4.828 30.8977 5.98882 31.4461 7.10169 31.4461H7.11384C9.30853 31.4382 11.0359 29.9652 11.4141 27.7792C11.5775 26.8325 11.2851 25.8305 10.6105 25.0296C9.90481 24.1909 8.87703 23.6905 7.86207 23.6905Z" fill="#2E2D2D"/>
<path d="M22.5568 7.34985C23.2091 5.27267 24.6974 4.2442 27.2385 4.11117L27.3196 4.11049C28.4993 4.11049 29.5615 4.68787 30.2341 5.69405C30.9546 6.77248 31.0944 8.11765 30.6089 9.29333C29.8823 11.0511 28.2555 12.1863 26.466 12.1863C26.1331 12.1863 25.7954 12.1478 25.4618 12.0715C24.3706 11.823 23.4299 11.1308 22.8795 10.1726C22.3751 9.29333 22.2603 8.29121 22.5568 7.34985ZM25.9116 12.9561C26.0892 12.9716 26.2654 12.9797 26.439 12.9797C29.0024 12.9797 31.0627 11.2834 31.6867 8.65857C31.9764 7.44102 31.6603 6.13366 30.8216 5.07076C29.9451 3.96261 28.6377 3.30014 27.3236 3.30014L27.2338 3.30149C23.989 3.47032 22.0908 5.0039 21.5924 7.85969C21.4047 8.9334 21.7025 10.047 22.4311 10.9978C23.2813 12.1052 24.5819 12.8372 25.9116 12.9561Z" fill="#2E2D2D"/>
<path d="M27.0375 6.00603C27.6365 6.00603 28.1923 6.29911 28.5596 6.8103C28.9276 7.32285 29.033 7.96977 28.8412 8.54106C28.4752 9.63098 27.6655 10.209 26.4946 10.2124C25.8065 10.2124 25.1332 9.88286 24.7375 9.35343C24.3992 8.89964 24.3019 8.34726 24.4647 7.7969C24.8091 6.63405 25.5904 6.08166 26.9963 6.00603H27.0375ZM26.4912 11.0646H26.5C28.1632 11.0592 29.4652 9.94297 29.742 8.28716C29.8616 7.56798 29.636 6.80828 29.1235 6.20254C28.59 5.57182 27.8141 5.19636 26.9936 5.19636C26.9929 5.19636 26.9923 5.19636 26.9916 5.19636C25.0319 5.30103 23.8555 6.26331 23.5902 7.9772C23.4808 8.68422 23.6982 9.39733 24.202 9.9855C24.7733 10.6513 25.6505 11.0646 26.4912 11.0646Z" fill="#2E2D2D"/>
<path d="M7.07177 17.8594C4.86695 18.1126 2.73236 18.611 0.923264 19.0708C0.463392 15.6363 1.34801 12.3382 3.4826 9.52834C5.96766 6.25657 9.85059 4.05242 14.1339 3.4791C14.2737 3.46087 14.3892 3.39605 14.4587 3.29745C14.5222 3.20697 14.5432 3.09419 14.5168 2.97128L14.1522 1.26281L14.974 1.77468C16.1888 2.531 17.4449 3.31163 18.6293 4.16047C17.3584 5.27132 16.384 6.55167 15.6567 8.06634C15.4129 7.29044 15.2387 6.6219 15.1118 5.97362C15.0733 5.77847 14.8774 5.67312 14.7127 5.67312C14.6782 5.67312 14.6438 5.67785 14.612 5.68595C9.205 7.16146 5.76846 12.7225 7.07177 17.8594ZM15.5986 9.60262C15.7729 9.60262 15.9228 9.4939 15.9896 9.31967C16.7264 7.39375 17.9291 5.74402 19.5653 4.41776C19.6497 4.34955 19.6936 4.25569 19.6916 4.14764C19.6882 4.01191 19.6112 3.86807 19.4944 3.78163C18.2248 2.83758 16.8601 1.99279 15.5412 1.17637C14.9463 0.808338 14.3521 0.439631 13.7625 0.0614681C13.6991 0.0202751 13.6302 1.52588e-05 13.5599 1.52588e-05C13.4452 1.52588e-05 13.3344 0.0553894 13.2554 0.15263C13.171 0.256624 13.1379 0.388311 13.1649 0.513241L13.6403 2.74439C9.14491 3.47032 5.13436 5.86962 2.62837 9.33588C0.4249 12.3841 -0.417188 15.9584 0.193273 19.6739C0.22231 19.8522 0.348589 19.967 0.514035 19.9724L0.584943 19.9778C0.620734 19.9778 0.655855 19.9737 0.69232 19.9642C2.86472 19.4044 5.18569 18.8385 7.58162 18.6062C7.7214 18.5934 7.84836 18.5198 7.92129 18.4111C7.98409 18.3172 7.99962 18.2038 7.96585 18.0924C6.52614 13.4275 9.48254 8.18182 14.4263 6.59827C14.6397 7.57878 14.897 8.46949 15.2124 9.319C15.2772 9.4939 15.4251 9.60262 15.5986 9.60262Z" fill="#2E2D2D"/>
<path d="M20.7099 31.0591C20.6133 31.0781 20.5289 31.1396 20.4722 31.2322C20.4107 31.3321 20.3925 31.4543 20.4215 31.559L20.9172 33.3079C19.312 32.5152 17.7406 31.6284 16.2422 30.6703C17.4259 29.4851 18.3389 28.1076 18.9575 26.5719C19.2452 27.3147 19.4599 27.9631 19.6301 28.6012C19.6767 28.7782 19.8286 28.8922 20.017 28.8922C20.0859 28.8922 20.1554 28.876 20.2196 28.8471C25.2471 26.5463 28.3683 21.0879 27.5039 16.1273C29.3137 15.7997 30.9688 15.2744 32.9292 14.6227C33.6106 18.0262 32.9461 21.3736 31.0053 24.307C28.7363 27.7367 24.9844 30.1968 20.7099 31.0591ZM33.6268 13.99C33.6025 13.8873 33.5464 13.8083 33.4654 13.7597C33.4026 13.7104 33.3283 13.6841 33.2513 13.6841C33.2095 13.6841 33.1669 13.6915 33.1237 13.7057L32.8489 13.7968C30.8662 14.4566 28.9923 15.0799 26.9401 15.4148C26.8489 15.429 26.7719 15.4797 26.7166 15.5614C26.649 15.6606 26.6227 15.7943 26.6483 15.9112C27.7801 21.0204 24.216 25.8919 20.2662 27.9151C19.9866 26.9563 19.6665 26.0783 19.2884 25.2322C19.2296 25.1012 19.1121 25.0262 18.9663 25.0262C18.7779 25.0262 18.5969 25.1525 18.5449 25.3206C17.9243 27.3324 16.8661 29.0103 15.3096 30.4513C15.2238 30.5318 15.1813 30.6418 15.1921 30.7608C15.2029 30.8932 15.2765 31.0145 15.3879 31.0881C17.2902 32.3342 19.2985 33.4564 21.3561 34.4247C21.4149 34.4524 21.4783 34.4667 21.5439 34.4667C21.6809 34.4667 21.8092 34.4052 21.8882 34.3013C21.9598 34.2061 21.9801 34.0858 21.9463 33.9628L21.319 31.7513C25.734 30.7526 29.571 28.1042 31.8535 24.4779C33.8658 21.279 34.479 17.6527 33.6268 13.99Z" fill="#2E2D2D"/>
<path d="M2.27243 13.8164C2.13535 13.8164 2.01785 13.892 1.94964 14.0231C1.31892 15.2453 1.4182 16.5304 1.58702 17.8492C1.61944 18.0984 1.83687 18.2294 2.03473 18.2294C2.15088 18.2294 2.25488 18.1862 2.32173 18.1106C2.3663 18.0606 2.41493 17.9715 2.39669 17.8324C2.25623 16.7404 2.09687 15.5033 2.65331 14.4262C2.72219 14.2938 2.71812 14.1534 2.64384 14.0312C2.56416 13.9002 2.41897 13.8164 2.27243 13.8164Z" fill="#2E2D2D"/>
<path d="M2.74917 12.4929C2.62762 12.4929 2.52564 12.5367 2.45271 12.6212C2.39058 12.6948 2.35547 12.7934 2.35547 12.8973C2.35547 13.0986 2.49053 13.3025 2.74917 13.3025C2.87072 13.3025 2.97268 13.258 3.04494 13.1735C3.10774 13.0999 3.14287 13.0013 3.14287 12.8973C3.14287 12.6961 3.0078 12.4929 2.74917 12.4929Z" fill="#2E2D2D"/>
<path d="M31.0138 21.3668C31.1509 21.3668 31.2698 21.3006 31.3481 21.1811C32.0862 20.0453 32.3171 18.7352 32.5062 17.3799C32.5244 17.2543 32.4893 17.1341 32.4076 17.0396C32.3212 16.9396 32.1882 16.8788 32.0592 16.8788C31.8775 16.8788 31.7479 16.995 31.7222 17.1814C31.5601 18.3395 31.3765 19.6516 30.6519 20.7658C30.5715 20.8894 30.5634 21.0231 30.6282 21.1433C30.7005 21.277 30.8558 21.3668 31.0138 21.3668Z" fill="#2E2D2D"/>
<path d="M31.9664 16.5169C32.0873 16.5169 32.19 16.4723 32.2622 16.3879C32.325 16.3143 32.3601 16.2157 32.3601 16.1117C32.3601 15.9105 32.2244 15.7066 31.9664 15.7066C31.8449 15.7066 31.7422 15.7511 31.67 15.8355C31.6072 15.9091 31.5728 16.0077 31.5728 16.1117C31.5728 16.313 31.7078 16.5169 31.9664 16.5169Z" fill="#2E2D2D"/>
</svg>
