<svg width="34" height="44" viewBox="0 0 34 44" fill="none" xmlns="http://www.w3.org/2000/svg">
<path d="M32.731 12.5148C32.6259 12.3799 32.4803 12.3032 32.3279 12.3032H16.164C16.0115 12.3032 15.8659 12.3799 15.7609 12.5148C15.6555 12.6496 15.5999 12.8317 15.6071 13.0187L16.0097 23.6344C16.0239 24.0109 16.2889 24.308 16.5924 24.2853C16.8999 24.2678 17.1376 23.9474 17.1234 23.5703L16.7479 13.6703H31.7444L30.6814 41.6939H18.1637C17.8559 41.6939 17.6063 41.9995 17.6063 42.3774C17.6063 42.7553 17.8559 43.0609 18.1637 43.0609H31.2132C31.511 43.0609 31.7561 42.7739 31.7701 42.4093L32.8848 13.0187C32.8918 12.8317 32.8364 12.6496 32.731 12.5148Z" fill="black"/>
<path d="M22.2949 37.5928H2.22928C1.92147 37.5928 1.67188 37.8984 1.67188 38.2763C1.67188 40.9142 3.42214 43.0608 5.57354 43.0608H18.9506C21.1019 43.0608 22.8523 40.9141 22.8523 38.2763C22.8522 37.8984 22.6027 37.5928 22.2949 37.5928ZM18.9506 41.6938H5.57354C4.22759 41.6938 3.10143 40.5176 2.84269 38.9597H21.6814C21.4225 40.5176 20.2964 41.6938 18.9506 41.6938Z" fill="black"/>
<path d="M22.2951 33.4917H2.22954C1.00026 33.4917 0 34.7179 0 36.2257C0 37.7336 1.00018 38.9598 2.22954 38.9598H22.2951C23.5244 38.9598 24.5246 37.7336 24.5246 36.2257C24.5246 34.7179 23.5244 33.4917 22.2951 33.4917ZM22.2951 37.5927H2.22954C1.61473 37.5927 1.11481 36.9793 1.11481 36.2257C1.11481 35.4722 1.61482 34.8588 2.22954 34.8588H22.2951C22.9099 34.8588 23.4098 35.4722 23.4098 36.2257C23.4098 36.9793 22.9098 37.5927 22.2951 37.5927Z" fill="black"/>
<path d="M23.9667 20.5052C21.4237 20.5052 19.2044 22.6119 18.5696 25.6275C18.4926 25.9934 18.6719 26.3657 18.9699 26.4605C19.2687 26.5541 19.5719 26.3351 19.649 25.9692C20.1565 23.5568 21.932 21.8721 23.9667 21.8721C26.4255 21.8721 28.4257 24.325 28.4257 27.3401C28.4257 30.3552 26.4255 32.8081 23.9667 32.8081C23.4554 32.8081 22.9546 32.7034 22.4786 32.4964C22.1887 32.3717 21.8698 32.5566 21.7672 32.9123C21.6643 33.2681 21.8162 33.6585 22.1063 33.7847C22.7022 34.0436 23.3281 34.1752 23.9668 34.1752C27.0403 34.1752 29.5405 31.1088 29.5405 27.3401C29.5405 23.5714 27.0403 20.5052 23.9667 20.5052Z" fill="black"/>
<path d="M13.3768 22.5558H11.1473C5.92242 22.5558 1.67188 27.7681 1.67188 34.1753C1.67188 34.553 1.92147 34.8588 2.22928 34.8588H22.2949C22.6027 34.8588 22.8523 34.5531 22.8523 34.1753C22.8522 27.7682 18.6016 22.5558 13.3768 22.5558ZM2.80514 33.4918C3.09302 28.1559 6.72444 23.9228 11.1473 23.9228H13.3768C17.7996 23.9228 21.431 28.1559 21.7189 33.4918H2.80514Z" fill="black"/>
<path d="M12.7295 29.6129H11.6147V30.9799H12.7295V29.6129Z" fill="black"/>
<path d="M7.24559 30.7097H6.13086V32.0766H7.24559V30.7097Z" fill="black"/>
<path d="M9.43894 26.3226H8.32422V27.6895H9.43894V26.3226Z" fill="black"/>
<path d="M17.2788 29.3906H16.1641V30.7575H17.2788V29.3906Z" fill="black"/>
<path d="M16.0195 25.2258H14.9048V26.5928H16.0195V25.2258Z" fill="black"/>
<path d="M33.4428 9.56919H14.492C14.1842 9.56919 13.9346 9.87487 13.9346 10.2527V12.9868C13.9346 13.3645 14.1842 13.6703 14.492 13.6703H33.4428C33.7506 13.6703 34.0002 13.3646 34.0002 12.9868V10.2527C34.0002 9.87487 33.7506 9.56919 33.4428 9.56919ZM32.8854 12.3031H15.0494V10.9362H32.8854V12.3031Z" fill="black"/>
<path d="M18.9384 10.1092L17.2663 0.54018C17.2018 0.17173 16.906 -0.064559 16.6044 0.015639C16.3034 0.0944354 16.1116 0.45818 16.1761 0.827331L17.8482 10.3963C17.9042 10.7167 18.1355 10.9363 18.3928 10.9363C18.4314 10.9363 18.4709 10.9315 18.5101 10.9209C18.8111 10.8421 19.003 10.4782 18.9384 10.1092Z" fill="black"/>
</svg>
