<svg width="34" height="34" viewBox="0 0 34 34" fill="none" xmlns="http://www.w3.org/2000/svg">
<path d="M15.5292 12.1142L15.52 16.5853C15.4385 16.5595 15.3576 16.5325 15.2807 16.5021C14.6332 16.2489 13.7761 15.6669 13.4932 14.8586C13.3382 14.4166 13.3841 13.9764 13.6292 13.551C14.0488 12.8249 14.8777 12.372 15.5292 12.1142ZM16.2071 17.4354C16.4827 17.4848 16.7611 17.529 17.0389 17.5726C17.3868 17.6277 17.7335 17.6823 18.0699 17.7477C18.1014 19.3205 18.1468 20.9232 18.2094 22.6436C17.9648 22.6792 17.7208 22.7061 17.4849 22.7234C17.2634 22.7394 17.0481 22.748 16.838 22.748C16.6181 22.748 16.404 22.7383 16.1968 22.7199L16.2071 17.4354ZM17.4023 16.9957C16.9936 16.9263 16.5906 16.858 16.2089 16.7724L16.218 11.884C16.7972 11.7273 17.4195 11.6441 18.0199 11.6441H18.0216C18.0188 13.5952 18.032 15.385 18.0612 17.1105C17.842 17.0704 17.6215 17.0325 17.4023 16.9957ZM18.8936 22.5098C18.8333 20.8675 18.7903 19.3613 18.761 17.9102C19.137 18.0152 19.4343 18.1312 19.6938 18.2735C20.3671 18.642 20.8682 19.2356 21.0347 19.8607C21.1604 20.3343 21.0875 20.8113 20.8246 21.2406C20.4452 21.8594 19.8126 22.2756 18.8936 22.5098ZM18.7524 17.2535C18.7214 15.5182 18.7076 13.6951 18.711 11.6849C19.5009 11.779 20.5341 12.0867 21.1036 12.9988C21.169 13.1033 21.2695 13.1607 21.3871 13.1607C21.5186 13.1607 21.6495 13.0849 21.7121 12.9718C21.7689 12.8702 21.7631 12.7548 21.6971 12.6481C21.1748 11.8111 20.1163 11.2538 18.7116 11.0758L18.7122 10.5276C18.7116 10.2085 18.7116 9.88987 18.7145 9.57014C18.7156 9.47657 18.6846 9.39507 18.6244 9.3348C18.5618 9.27165 18.4705 9.23492 18.3729 9.23492C18.2025 9.23492 18.0279 9.34971 18.0262 9.56899C18.0228 9.87896 18.0234 10.1889 18.0234 10.4983V11.0196C17.943 11.0173 17.8615 11.0155 17.7805 11.0155C17.2605 11.0155 16.7358 11.0678 16.2198 11.17L16.2226 9.66199C16.2232 9.569 16.1911 9.48748 16.1308 9.42663C16.0682 9.36406 15.9758 9.3279 15.8788 9.3279C15.7077 9.3279 15.5344 9.44214 15.5338 9.66199L15.5304 11.3387C14.2652 11.717 13.3405 12.3725 12.9237 13.1882C12.6172 13.7869 12.5902 14.4522 12.8428 15.1634C13.3451 16.5807 14.5287 17.048 15.5189 17.2908L15.5086 22.616C14.213 22.321 13.3571 21.5024 12.8939 20.1167C12.8445 19.9709 12.7182 19.8796 12.5632 19.8796C12.4438 19.8796 12.3302 19.9342 12.2665 20.0226C12.2096 20.1024 12.197 20.2028 12.2314 20.3061C12.8083 22.0294 13.88 23.0184 15.5068 23.3278L15.5011 26.4074C15.5005 26.501 15.5327 26.5825 15.5929 26.6428C15.6561 26.7059 15.7479 26.7427 15.8449 26.7427C16.016 26.7427 16.1893 26.6273 16.1899 26.4074L16.1957 23.4168C16.3954 23.4317 16.6015 23.4397 16.8122 23.4397C17.1043 23.4397 17.4137 23.4248 17.7323 23.3961C17.8954 23.3812 18.0653 23.3565 18.2381 23.3267L18.2461 23.5258C18.2822 24.4569 18.319 25.3874 18.3649 26.3179C18.3758 26.5355 18.5538 26.6491 18.7237 26.6491C18.8213 26.6491 18.9114 26.6124 18.9722 26.5492C19.0302 26.4884 19.0583 26.4063 19.0532 26.3122C19.0021 25.2669 18.9607 24.2216 18.9206 23.1763C19.6662 22.969 20.9532 22.4748 21.5398 21.4358C21.8504 20.8865 21.9107 20.2677 21.7184 19.5966C21.2752 18.0462 19.9768 17.5388 18.7524 17.2535Z" fill="#2E2D2D"/>
<path d="M33.3288 19.196C33.2536 20.7665 32.7415 22.6166 31.8087 24.6957C30.4121 27.8075 28.0931 30.1891 25.1013 31.5828C22.9779 32.5719 20.6749 33.073 18.2566 33.073C14.5042 33.073 10.769 31.8371 7.73871 29.5921C5.46615 27.9097 3.57761 25.6658 2.27744 23.1034C0.666155 19.9307 0.378567 16.6869 1.3435 12.5855C1.92844 10.1028 2.71657 8.4439 3.97885 7.03869C5.15847 5.7259 6.66931 4.48255 8.4683 3.34483C11.2489 1.58717 14.1885 0.695713 17.205 0.695713C18.3794 0.695713 19.5757 0.833488 20.7576 1.10558C24.0416 1.95915 26.9341 3.66916 29.1229 6.04965C31.0608 8.15747 32.3087 10.9742 32.9384 14.6595C33.1732 16.036 33.4034 17.6507 33.3288 19.196ZM33.9596 17.4021C33.6066 12.6813 32.4356 9.10403 30.3794 6.46524C28.131 3.57904 24.7781 1.43964 20.9373 0.440262C19.6658 0.148083 18.3852 -1.14441e-05 17.1326 -1.14441e-05C14.6081 -1.14441e-05 12.1581 0.592953 9.85113 1.76282C7.51829 2.94588 3.34857 5.50604 1.63281 9.35947C0.0439058 12.9265 -0.419331 16.9613 0.392915 20.1529C1.12881 23.0431 2.84285 25.9448 5.22046 28.3224C8.67667 31.7792 13.4216 33.7618 18.2388 33.7624C18.2388 33.7624 18.2388 33.7624 18.2394 33.7624C19.7313 33.7624 21.2111 33.5719 22.6381 33.1964C29.6292 31.3561 34.4963 24.5665 33.9596 17.4021Z" fill="#2E2D2D"/>
<path d="M29.2044 21.8572C28.3956 24.1378 26.7798 26.2157 24.6559 27.7088C22.7736 29.0325 20.8053 29.6759 18.6389 29.6759C18.1912 29.6759 17.728 29.6478 17.2613 29.5927C14.3303 29.2449 11.3046 28.6106 9.02516 26.3414C6.69577 24.023 4.97197 20.724 4.63272 17.9406C4.34284 13.3294 7.47989 8.03749 11.7753 5.89293C13.3235 5.1203 15.1035 4.7116 16.9232 4.7116C20.0728 4.7116 23.1749 5.90212 25.4348 7.97837C29.1126 11.3577 30.7681 17.4538 29.2044 21.8572ZM16.918 4.02047C15.8205 4.02047 14.7407 4.15881 13.7086 4.43262C8.04874 5.93197 3.57709 12.1211 3.94446 17.9515C4.24353 20.4054 5.5259 23.201 7.46266 25.6216C9.28347 27.8965 11.6232 29.2914 14.615 29.8849C15.7424 30.1082 17.224 30.3648 18.6877 30.3648C20.2778 30.3648 21.6893 30.0686 23.0033 29.4584C25.3481 28.37 27.3825 26.5705 28.732 24.3903C31.4167 20.0547 30.8737 13.7846 27.4112 9.14365C25.0531 5.98364 21.0326 4.02047 16.918 4.02047Z" fill="#2E2D2D"/>
<path d="M11.2149 8.55642C11.1535 8.55642 11.0938 8.57479 11.0358 8.61267C8.73629 10.0937 7.20881 12.38 6.73524 15.0492C6.71687 15.156 6.7427 15.2587 6.81044 15.3385C6.88162 15.424 6.9947 15.4769 7.10549 15.4769C7.26048 15.4769 7.37413 15.3793 7.40225 15.222C7.84827 12.7106 9.26382 10.5735 11.3877 9.20392C11.5215 9.11839 11.5766 8.96914 11.5318 8.81588C11.4864 8.66319 11.3567 8.55642 11.2149 8.55642Z" fill="#2E2D2D"/>
<path d="M12.5685 8.40545C12.6225 8.34288 12.6517 8.25965 12.6517 8.17068C12.6517 7.99962 12.5369 7.82684 12.3171 7.82684C12.2143 7.82684 12.1276 7.86472 12.0657 7.93647C12.0123 7.99904 11.9824 8.08228 11.9824 8.17126C11.9824 8.34232 12.0978 8.51567 12.3171 8.51567C12.4204 8.51567 12.5071 8.4772 12.5685 8.40545Z" fill="#2E2D2D"/>
</svg>
