<svg width="34" height="48" viewBox="0 0 34 48" fill="none" xmlns="http://www.w3.org/2000/svg">
<path d="M1.20777 36.5361C1.21179 36.2424 1.21583 35.9914 1.20618 35.824C0.935831 30.6585 0.892372 25.1928 1.07502 19.1181L1.09352 19.1173C1.16674 19.1173 1.23916 19.1189 1.32042 19.1238C1.66721 19.1447 2.01802 19.1511 2.36882 19.1511C2.6094 19.1511 3.57008 19.1398 3.80824 19.1398C3.96916 19.1398 4.12847 19.1406 4.30951 19.1447C4.38916 19.1447 4.52193 19.1366 4.68285 19.127C4.92504 19.1141 5.22998 19.0964 5.50998 19.0964C6.0893 19.0964 6.19631 19.176 6.21562 19.1994C6.28723 19.308 6.18021 20.1416 6.12872 20.5414C6.09493 20.8029 6.06757 21.021 6.06837 21.1095L6.07482 22.981C6.07964 24.5234 6.07882 26.0658 6.07721 27.6091C6.0756 31.0729 6.07319 34.6533 6.13917 38.1735C6.14239 38.3457 6.15366 38.4961 6.16492 38.6289C6.20354 39.0931 6.21964 39.2854 5.80929 39.4858C5.67412 39.5518 5.44481 39.5839 5.10849 39.5839C4.90171 39.5839 4.68366 39.5727 4.48412 39.5622C4.31596 39.5526 4.16146 39.5445 3.98767 39.5445C3.98284 39.5445 3.97802 39.5445 3.974 39.5445C3.87583 39.5461 3.73906 39.5542 3.57733 39.5638C3.30216 39.5791 2.95618 39.5992 2.62709 39.5992C2.13227 39.5992 1.8072 39.5534 1.65916 39.4632C1.16916 39.1639 1.19248 37.5193 1.20777 36.5361ZM7.08377 36.8016C7.07653 35.1683 7.03712 22.24 7.03712 22.24C7.03631 22.0219 7.06447 21.7266 7.09585 21.3959C7.19642 20.3218 7.33482 18.851 6.65413 18.3537C6.43125 18.192 6.06194 18.1172 5.49148 18.1172C5.21148 18.1172 4.92182 18.1349 4.66354 18.151C4.45998 18.1639 4.27652 18.1759 4.1325 18.1759L4.09146 18.2556L4.04239 18.1751L3.98686 18.254C3.96675 16.1153 3.92813 13.9799 3.89031 11.8429C3.86698 10.5145 3.84203 9.18613 3.82272 7.85693C3.81789 7.55037 3.57331 7.38945 3.33434 7.38945C3.19836 7.38945 3.06962 7.44014 2.98192 7.52864C2.89904 7.61393 2.85559 7.72739 2.858 7.85934C2.87732 9.18854 2.90146 10.5169 2.92479 11.8453C2.96261 13.9566 3.00042 16.0671 3.02134 18.1808C2.82019 18.1832 2.61985 18.184 2.4195 18.184C2.0703 18.184 1.72192 18.1791 1.36226 18.1566C1.28663 18.1518 1.20696 18.151 1.12731 18.151L0.603532 18.1598C0.437784 18.1614 0.30422 18.2363 0.221346 18.369C0.156978 18.4527 0.124775 18.5412 0.121557 18.6402C-0.125455 26.3772 0.00329087 33.3579 0.514212 39.9798C0.531914 40.2139 0.708123 40.4561 0.999389 40.4561C1.00019 40.4561 1.001 40.4561 1.00181 40.4561C1.31721 40.436 1.63261 40.4288 1.94802 40.4288C2.37204 40.4288 2.79686 40.4424 3.22088 40.4553L3.24905 40.4561C3.311 42.6213 3.3987 44.7833 3.48882 46.9468C3.50169 47.2518 3.74951 47.4119 3.98847 47.4119C4.12525 47.4119 4.25239 47.3604 4.33768 47.2719C4.41894 47.1866 4.45917 47.0716 4.45353 46.9404C4.36503 44.7969 4.27732 42.6535 4.20974 40.4786L4.49135 40.4803C4.67962 40.4803 4.8679 40.4778 5.05698 40.4706L5.17767 40.469C5.17767 40.469 5.65964 40.4786 5.76665 40.4786C6.24539 40.4786 6.76998 40.4239 7.03067 40.016C7.34688 39.5244 7.23745 38.4808 7.15056 37.6424C7.11596 37.3158 7.08538 37.0197 7.08377 36.8016Z" fill="#2E2D2D"/>
<path d="M14.8944 18.5686C14.9016 18.6201 14.9065 18.7215 14.9024 18.8156C14.6932 18.855 14.4688 18.8607 14.2563 18.8607L13.7277 18.8615C13.3809 18.8711 13.035 18.8944 12.6898 18.9186C12.236 18.9492 11.7838 18.9797 11.3292 18.9797C11.2318 18.9797 11.1345 18.9789 11.0371 18.9757C10.3669 18.9548 10.0636 18.9194 9.90505 18.3023C9.81011 17.9354 9.82862 17.4824 9.84551 17.0447C9.85356 16.8499 9.86079 16.6609 9.85758 16.4871C9.83505 15.0645 9.84068 13.5849 9.85999 12.0095C10.0113 11.7971 10.4844 11.6892 11.2664 11.6892C11.6084 11.6892 11.9447 11.7102 12.2014 11.7247C12.3615 11.7343 12.491 11.7424 12.5739 11.7424C12.7115 11.7424 12.9078 11.7262 13.1291 11.7094C13.4115 11.686 13.7341 11.6595 14.0286 11.6595C14.3907 11.6595 14.6361 11.7013 14.76 11.7826C15.1503 12.0425 15.0296 13.5712 14.9571 14.4844C14.933 14.7998 14.9113 15.071 14.9105 15.2496C14.9089 15.6036 14.892 15.9721 14.8735 16.3455C14.8373 17.0905 14.801 17.8605 14.8944 18.5686ZM15.3586 10.8975C15.0923 10.7559 14.7117 10.6899 14.1606 10.6899C13.8186 10.6899 13.4614 10.7149 13.1331 10.739L12.8901 10.7551C12.8684 8.64062 12.8314 6.52853 12.7936 4.41565C12.7702 3.10013 12.7469 1.7846 12.7268 0.467472C12.7228 0.160114 12.4782 -3.8147e-06 12.2384 -3.8147e-06C12.1024 -3.8147e-06 11.9745 0.0499001 11.8868 0.13921C11.8031 0.223694 11.7597 0.338741 11.7621 0.470695C11.7814 1.78782 11.8047 3.10335 11.8281 4.41968C11.8659 6.53176 11.9037 8.64384 11.9246 10.7583L11.7749 10.7495C11.507 10.7342 11.2182 10.7165 10.9325 10.7165C10.2518 10.7165 9.30723 10.8074 8.97251 11.5911C8.93389 11.6627 8.91378 11.7367 8.91217 11.8156C8.87113 13.6034 8.83896 15.9584 8.94195 18.3248C8.99988 19.6532 9.34424 19.8487 10.6871 19.9227C11.0484 19.9428 11.4193 19.9501 11.7959 19.9501L11.9994 19.9493C12.0445 21.7411 12.0638 23.5354 12.0839 25.328C12.1121 27.8151 12.1402 30.3865 12.2368 32.9138C12.248 33.2195 12.4959 33.3789 12.7348 33.3789C12.8708 33.3789 12.9987 33.3282 13.084 33.2389C13.1661 33.1544 13.2071 33.0393 13.2015 32.9074C13.1058 30.3793 13.0768 27.8062 13.0494 25.3168C13.0293 23.5201 13.0092 21.7234 12.965 19.9276C13.603 19.9002 14.2266 19.8527 14.8188 19.7859C15.563 19.7007 15.7617 19.5928 15.8519 18.8027C15.9725 17.7382 15.942 16.6231 15.9106 15.5449C15.8953 14.9688 15.8784 14.3951 15.8849 13.8311C15.8873 13.634 15.9098 13.4087 15.9331 13.1721C16.0136 12.3378 16.115 11.299 15.3586 10.8975Z" fill="#2E2D2D"/>
<path d="M32.9058 32.9725C32.9122 33.0248 32.9179 33.127 32.9131 33.2195C32.7039 33.2598 32.4761 33.2654 32.2605 33.2654L31.7383 33.267C31.3923 33.2759 31.0456 33.3 30.6988 33.3233C30.245 33.3539 29.7904 33.3845 29.335 33.3845C29.24 33.3845 29.1443 33.3829 29.0485 33.3805C28.3783 33.3587 28.075 33.3233 27.9157 32.7062C27.8215 32.3393 27.84 31.8871 27.8569 31.4494C27.865 31.2547 27.8722 31.0656 27.869 30.891C27.8457 29.4685 27.8513 27.9896 27.8714 26.4142C28.0227 26.2018 28.4958 26.094 29.2779 26.094C29.6174 26.094 29.9521 26.1141 30.208 26.1294C30.3705 26.1391 30.5017 26.1463 30.5877 26.1463C30.7261 26.1463 30.9233 26.1302 31.1437 26.1133C31.4253 26.0908 31.7464 26.0642 32.0392 26.0642C32.4021 26.0642 32.6475 26.1061 32.7714 26.1881C33.1617 26.4472 33.041 27.976 32.9686 28.8892C32.9436 29.2046 32.9227 29.4757 32.9219 29.6536C32.9203 30.0084 32.9034 30.3777 32.8849 30.7502C32.8487 31.4945 32.8116 32.2645 32.9058 32.9725ZM33.8963 28.2358C33.8987 28.0395 33.9204 27.8142 33.9445 27.5785C34.0258 26.7433 34.1272 25.7038 33.37 25.3015C33.1045 25.1599 32.724 25.0939 32.1736 25.0939C31.8341 25.0939 31.4792 25.1196 31.1526 25.143L30.9015 25.159L30.8685 21.3702C30.8356 17.5001 30.8018 13.6291 30.7382 9.75818C30.7334 9.45163 30.4888 9.29072 30.249 9.29072C30.113 9.29072 29.9851 9.34141 29.8974 9.43072C29.8145 9.51521 29.7711 9.62945 29.7735 9.7614C29.837 13.6315 29.87 17.5033 29.903 21.3734L29.9368 25.1623L29.788 25.1542C29.5192 25.1381 29.2304 25.1212 28.9448 25.1212C28.2633 25.1212 27.3187 25.2113 26.9855 25.9958C26.9453 26.0666 26.9252 26.1399 26.9236 26.2203C26.8834 28.0009 26.8504 30.3503 26.9534 32.7295C27.0105 34.0571 27.3557 34.2535 28.6985 34.3275C29.0534 34.3476 29.4203 34.354 29.792 34.354L30.0132 34.3532C30.0623 36.0445 30.1339 37.7342 30.2056 39.4246L30.2482 40.4272C30.2603 40.7329 30.5089 40.8922 30.7479 40.8922C30.8846 40.8922 31.0118 40.8415 31.0963 40.7522C31.1783 40.6677 31.2186 40.5519 31.2129 40.4207L31.1751 39.5172C31.1011 37.7897 31.0287 36.0614 30.9772 34.3323C31.6241 34.3041 32.2468 34.2559 32.831 34.1899C33.5744 34.1054 33.7732 33.9976 33.8633 33.2067C33.9832 32.143 33.9526 31.0278 33.922 29.9504C33.9067 29.3735 33.8898 28.7999 33.8963 28.2358Z" fill="#2E2D2D"/>
<path d="M18.8771 19.1181L18.8956 19.1173C18.9689 19.1173 19.0413 19.1189 19.1234 19.1238C19.4701 19.1447 19.8209 19.1511 20.1717 19.1511C20.4115 19.1511 21.8051 19.1398 21.9121 19.1407C20.78 20.0482 19.7646 20.8834 18.8168 21.6856C18.8305 20.8311 18.8514 19.975 18.8771 19.1181ZM23.3008 30.5869L23.9196 30.076L23.9228 30.5684C23.9252 30.9828 23.9284 31.3963 23.9365 31.8107C23.9373 31.8879 23.9509 32.0102 23.9654 32.1543C24.0016 32.501 24.0692 33.1479 23.9357 33.2952C23.9123 33.3209 23.8021 33.3821 23.3008 33.3821C23.0458 33.3821 22.7626 33.3676 22.5284 33.3539C22.3595 33.3451 22.2146 33.3378 22.1221 33.3378L21.6755 33.3547C21.4342 33.366 21.1879 33.3764 20.9417 33.3764C20.5266 33.3764 20.1983 33.3435 19.9086 33.2719L19.9062 33.271C21.0777 32.4262 22.2082 31.4921 23.3008 30.5869ZM18.9141 26.7457C20.6384 25.4648 22.2476 24.0342 23.8769 22.557L23.8842 24.6144L23.8641 25.1446C22.5268 26.4279 21.0777 27.6332 19.6761 28.7983L18.964 29.3913C18.9125 28.5215 18.8731 27.6517 18.8474 26.7836C18.8683 26.7747 18.8916 26.7634 18.9141 26.7457ZM23.4569 19.1044C23.7763 19.1205 23.8681 19.1664 23.8946 19.1937C24.0556 19.3587 23.9695 20.6911 23.9526 21.2061L23.8866 21.2471L23.7546 21.3662C22.1768 22.8016 20.5451 24.2853 18.8232 25.604C18.8071 24.7004 18.8015 23.7961 18.8087 22.8917C18.8739 22.8732 18.9286 22.8434 18.9801 22.8C20.4188 21.5705 21.9041 20.35 23.3926 19.1728C23.4207 19.1503 23.4408 19.1262 23.4569 19.1044ZM23.9075 28.886L23.8697 28.8707C23.4272 29.2287 22.9894 29.5916 22.5509 29.9553C21.4752 30.8484 20.364 31.7705 19.2054 32.5928C19.195 32.5139 19.1821 32.4246 19.1644 32.3184C19.0968 31.8976 19.0751 31.4559 19.0541 31.027L19.0469 30.5748C19.454 30.2321 19.8628 29.8909 20.2707 29.5506C21.4736 28.548 22.7151 27.5133 23.889 26.4336C23.8906 26.9437 23.9075 28.886 23.9075 28.886ZM24.8859 30.644L24.8392 21.8143C24.8384 21.6156 24.8626 21.3549 24.8891 21.0653C24.98 20.0635 25.0927 18.818 24.4562 18.3538C24.2334 18.192 23.8649 18.1172 23.2936 18.1172C23.0136 18.1172 22.7239 18.1349 22.4665 18.151C22.2621 18.1639 22.0786 18.1759 21.9354 18.1759L21.8944 18.2556L21.8453 18.1751L21.7898 18.254C21.7496 14.0741 21.6908 9.8982 21.6256 5.71669C21.6208 5.41094 21.3754 5.24923 21.1365 5.24923C21.0005 5.24923 20.8717 5.30072 20.7848 5.38923C20.702 5.47451 20.6585 5.58795 20.6609 5.71991C20.7253 9.87406 20.784 14.0258 20.8243 18.1808C20.6231 18.1832 20.4228 18.184 20.2224 18.184C19.8724 18.184 19.524 18.1792 19.1652 18.1566C19.0896 18.1518 19.0099 18.151 18.9302 18.151L18.4064 18.1598C18.2399 18.1615 18.1055 18.2363 18.0227 18.3706C17.9599 18.4543 17.9277 18.5428 17.9245 18.6402C17.7636 23.5064 17.8915 28.4636 18.3163 33.794C18.3348 34.0282 18.511 34.2704 18.8015 34.2704C18.8023 34.2704 18.8031 34.2704 18.8039 34.2704C19.1193 34.2494 19.4347 34.243 19.7509 34.243C20.175 34.243 20.5998 34.2559 21.0238 34.2696L21.0512 34.2704C21.0866 35.6575 21.1099 37.0462 21.1349 38.4342C21.1711 40.564 21.2073 42.7653 21.2917 44.9305C21.303 45.2363 21.5508 45.3956 21.7898 45.3956C21.9266 45.3956 22.0537 45.3441 22.1398 45.2556C22.2211 45.1711 22.2621 45.056 22.2565 44.9241C22.1736 42.7605 22.1358 40.5599 22.0996 38.4326C22.077 37.0615 22.0529 35.6913 22.0119 34.2913L22.3184 34.2937C22.4986 34.2937 22.6789 34.2913 22.8591 34.284L22.9838 34.2824L23.5696 34.2929C24.0483 34.2929 24.5721 34.2382 24.8336 33.8302C25.149 33.3378 25.0396 32.3071 24.9527 31.4792C24.9189 31.1558 24.8875 30.8613 24.8859 30.644Z" fill="#2E2D2D"/>
</svg>
