<svg width="68" height="80" viewBox="0 0 68 80" fill="none" xmlns="http://www.w3.org/2000/svg">
<g clip-path="url(#clip0)">
<g filter="url(#filter0_d)">
<path d="M63.4756 22.189C61.1818 16.8563 57.8781 12.3207 53.6562 8.70783C52.5084 7.72612 50.9897 9.50107 52.1373 10.4829C56.0854 13.8614 59.1781 18.1104 61.3295 23.1119C63.5242 28.2152 64.6372 33.8708 64.6372 39.9221C64.6372 50.4477 61.1538 59.9871 54.8284 66.783C51.6794 70.1664 47.9179 72.8025 43.6488 74.6183C39.2173 76.5029 34.3354 77.4584 29.1387 77.4584H19.2156C9.90833 77.4584 2.33628 69.7481 2.33628 60.2705V19.5737C2.33628 10.0962 9.90833 2.38584 19.2156 2.38584H29.1387C35.8509 2.38584 41.9631 3.95754 47.3057 7.05732C48.6118 7.81537 49.7846 5.79448 48.478 5.03644C42.7747 1.72732 36.268 0.0495605 29.1387 0.0495605H19.2156C8.62011 0.0495605 0 8.80797 0 19.5737V60.2707C0 71.0363 8.62011 79.7947 19.2156 79.7947H29.1387C34.6514 79.7947 39.8409 78.7764 44.563 76.7681C49.1356 74.8234 53.1649 71.9995 56.5387 68.3746C63.2676 61.1449 66.9734 51.0403 66.9734 39.9221C66.9734 33.5517 65.7966 27.5853 63.4756 22.189Z" fill="black"/>
<path d="M43.2884 53.8815C40.9974 53.8815 38.7649 52.7032 37.0018 50.5636C36.0409 49.3981 34.2383 50.8838 35.1988 52.0493C37.4139 54.7373 40.2869 56.2177 43.2884 56.2177C46.5896 56.2177 49.6674 54.4721 51.9548 51.3024C54.1591 48.2477 55.3731 44.2061 55.3731 39.9222C55.3731 35.6382 54.1591 31.5964 51.9548 28.542C49.6674 25.3723 46.5897 23.6266 43.2884 23.6266C39.9871 23.6266 36.9094 25.3723 34.622 28.542C32.4177 31.5966 31.2037 35.6382 31.2037 39.9222C31.2037 42.0977 31.5146 44.2099 32.1278 46.2001C32.5725 47.6436 34.805 46.9555 34.3607 45.5121C33.8162 43.7451 33.54 41.8644 33.54 39.9222C33.54 32.225 37.9131 25.9629 43.2884 25.9629C48.6637 25.9629 53.0368 32.225 53.0368 39.9222C53.0368 47.6193 48.6636 53.8815 43.2884 53.8815Z" fill="black"/>
<path d="M8.30974 58.8748V50.2309C8.30974 48.7206 5.97346 48.7206 5.97346 50.2309V58.8592C5.9596 59.4415 5.89418 67.8382 13.2385 71.8163C14.5205 72.5108 15.6764 70.4798 14.3514 69.7621C11.7857 68.3724 9.99093 66.1472 9.01686 63.1484C8.26878 60.8452 8.30896 58.9267 8.30927 58.9102C8.30959 58.8983 8.30974 58.8865 8.30974 58.8748Z" fill="black"/>
</g>
<mask id="path-4-inside-1" fill="white">
<path d="M26.7893 31.1168C26.7893 31.5068 26.4727 31.8258 26.0838 31.7963C25.0982 31.7217 24.1291 31.4911 23.2131 31.1117C22.0793 30.642 21.0491 29.9537 20.1813 29.0859C19.3136 28.2181 18.6252 27.1879 18.1556 26.0541C17.6859 24.9203 17.4442 23.7051 17.4442 22.4779C17.4442 21.2507 17.6859 20.0355 18.1556 18.9017C18.6252 17.7679 19.3136 16.7377 20.1813 15.8699C21.0491 15.0021 22.0793 14.3137 23.2131 13.8441C24.1291 13.4647 25.0982 13.234 26.0838 13.1594C26.4727 13.13 26.7893 13.4489 26.7893 13.8389C26.7893 14.229 26.4726 14.5419 26.0841 14.5765C25.2841 14.6479 24.4982 14.8406 23.7536 15.149C22.7912 15.5476 21.9167 16.1319 21.18 16.8686C20.4434 17.6052 19.8591 18.4797 19.4604 19.4421C19.0618 20.4046 18.8566 21.4361 18.8566 22.4779C18.8566 23.5196 19.0618 24.5512 19.4604 25.5136C19.8591 26.4761 20.4434 27.3506 21.18 28.0872C21.9167 28.8238 22.7912 29.4081 23.7536 29.8068C24.4982 30.1152 25.2841 30.3078 26.0841 30.3792C26.4726 30.4139 26.7893 30.7268 26.7893 31.1168Z"/>
</mask>
<path d="M26.7893 31.1168C26.7893 31.5068 26.4727 31.8258 26.0838 31.7963C25.0982 31.7217 24.1291 31.4911 23.2131 31.1117C22.0793 30.642 21.0491 29.9537 20.1813 29.0859C19.3136 28.2181 18.6252 27.1879 18.1556 26.0541C17.6859 24.9203 17.4442 23.7051 17.4442 22.4779C17.4442 21.2507 17.6859 20.0355 18.1556 18.9017C18.6252 17.7679 19.3136 16.7377 20.1813 15.8699C21.0491 15.0021 22.0793 14.3137 23.2131 13.8441C24.1291 13.4647 25.0982 13.234 26.0838 13.1594C26.4727 13.13 26.7893 13.4489 26.7893 13.8389C26.7893 14.229 26.4726 14.5419 26.0841 14.5765C25.2841 14.6479 24.4982 14.8406 23.7536 15.149C22.7912 15.5476 21.9167 16.1319 21.18 16.8686C20.4434 17.6052 19.8591 18.4797 19.4604 19.4421C19.0618 20.4046 18.8566 21.4361 18.8566 22.4779C18.8566 23.5196 19.0618 24.5512 19.4604 25.5136C19.8591 26.4761 20.4434 27.3506 21.18 28.0872C21.9167 28.8238 22.7912 29.4081 23.7536 29.8068C24.4982 30.1152 25.2841 30.3078 26.0841 30.3792C26.4726 30.4139 26.7893 30.7268 26.7893 31.1168Z" stroke="black" stroke-width="18" mask="url(#path-4-inside-1)"/>
<mask id="path-5-inside-2" fill="white">
<path d="M26.7893 13.9841C26.7893 14.3741 26.4727 14.693 26.0838 14.6636C25.0982 14.589 24.1291 14.3583 23.2131 13.9789C22.0793 13.5093 21.0491 12.8209 20.1813 11.9531C19.3136 11.0854 18.6252 10.0552 18.1556 8.92136C17.6859 7.78756 17.4442 6.57235 17.4442 5.34513C17.4442 4.11791 17.6859 2.90271 18.1556 1.7689C18.6252 0.635101 19.3136 -0.395099 20.1813 -1.26287C21.0491 -2.13065 22.0793 -2.81901 23.2131 -3.28864C24.1291 -3.66805 25.0982 -3.89871 26.0838 -3.97333C26.4727 -4.00278 26.7893 -3.68383 26.7893 -3.29382C26.7893 -2.9038 26.4726 -2.59089 26.0841 -2.55622C25.2841 -2.48481 24.4982 -2.29219 23.7536 -1.98379C22.7912 -1.58513 21.9167 -1.0008 21.18 -0.264179C20.4434 0.472446 19.8591 1.34695 19.4604 2.30939C19.0618 3.27184 18.8566 4.30339 18.8566 5.34513C18.8566 6.38688 19.0618 7.41842 19.4604 8.38087C19.8591 9.34332 20.4434 10.2178 21.18 10.9544C21.9167 11.6911 22.7912 12.2754 23.7536 12.6741C24.4982 12.9825 25.2841 13.1751 26.0841 13.2465C26.4726 13.2812 26.7893 13.5941 26.7893 13.9841Z"/>
</mask>
<path d="M26.7893 13.9841C26.7893 14.3741 26.4727 14.693 26.0838 14.6636C25.0982 14.589 24.1291 14.3583 23.2131 13.9789C22.0793 13.5093 21.0491 12.8209 20.1813 11.9531C19.3136 11.0854 18.6252 10.0552 18.1556 8.92136C17.6859 7.78756 17.4442 6.57235 17.4442 5.34513C17.4442 4.11791 17.6859 2.90271 18.1556 1.7689C18.6252 0.635101 19.3136 -0.395099 20.1813 -1.26287C21.0491 -2.13065 22.0793 -2.81901 23.2131 -3.28864C24.1291 -3.66805 25.0982 -3.89871 26.0838 -3.97333C26.4727 -4.00278 26.7893 -3.68383 26.7893 -3.29382C26.7893 -2.9038 26.4726 -2.59089 26.0841 -2.55622C25.2841 -2.48481 24.4982 -2.29219 23.7536 -1.98379C22.7912 -1.58513 21.9167 -1.0008 21.18 -0.264179C20.4434 0.472446 19.8591 1.34695 19.4604 2.30939C19.0618 3.27184 18.8566 4.30339 18.8566 5.34513C18.8566 6.38688 19.0618 7.41842 19.4604 8.38087C19.8591 9.34332 20.4434 10.2178 21.18 10.9544C21.9167 11.6911 22.7912 12.2754 23.7536 12.6741C24.4982 12.9825 25.2841 13.1751 26.0841 13.2465C26.4726 13.2812 26.7893 13.5941 26.7893 13.9841Z" stroke="black" stroke-width="18" mask="url(#path-5-inside-2)"/>
<mask id="path-6-inside-3" fill="white">
<path d="M26.7893 48.2496C26.7893 48.6396 26.4727 48.9585 26.0838 48.9291C25.0982 48.8545 24.1291 48.6238 23.2131 48.2444C22.0793 47.7748 21.0491 47.0864 20.1813 46.2186C19.3136 45.3509 18.6252 44.3207 18.1556 43.1869C17.6859 42.0531 17.4442 40.8379 17.4442 39.6106C17.4442 38.3834 17.6859 37.1682 18.1556 36.0344C18.6252 34.9006 19.3136 33.8704 20.1813 33.0026C21.0491 32.1349 22.0793 31.4465 23.2131 30.9769C24.1291 30.5975 25.0982 30.3668 26.0838 30.2922C26.4727 30.2627 26.7893 30.5817 26.7893 30.9717C26.7893 31.3617 26.4726 31.6746 26.0841 31.7093C25.2841 31.7807 24.4982 31.9733 23.7536 32.2817C22.7912 32.6804 21.9167 33.2647 21.18 34.0013C20.4434 34.7379 19.8591 35.6125 19.4604 36.5749C19.0618 37.5373 18.8566 38.5689 18.8566 39.6106C18.8566 40.6524 19.0618 41.6839 19.4604 42.6464C19.8591 43.6088 20.4434 44.4833 21.18 45.2199C21.9167 45.9566 22.7912 46.5409 23.7536 46.9396C24.4982 47.248 25.2841 47.4406 26.0841 47.512C26.4726 47.5467 26.7893 47.8596 26.7893 48.2496Z"/>
</mask>
<path d="M26.7893 48.2496C26.7893 48.6396 26.4727 48.9585 26.0838 48.9291C25.0982 48.8545 24.1291 48.6238 23.2131 48.2444C22.0793 47.7748 21.0491 47.0864 20.1813 46.2186C19.3136 45.3509 18.6252 44.3207 18.1556 43.1869C17.6859 42.0531 17.4442 40.8379 17.4442 39.6106C17.4442 38.3834 17.6859 37.1682 18.1556 36.0344C18.6252 34.9006 19.3136 33.8704 20.1813 33.0026C21.0491 32.1349 22.0793 31.4465 23.2131 30.9769C24.1291 30.5975 25.0982 30.3668 26.0838 30.2922C26.4727 30.2627 26.7893 30.5817 26.7893 30.9717C26.7893 31.3617 26.4726 31.6746 26.0841 31.7093C25.2841 31.7807 24.4982 31.9733 23.7536 32.2817C22.7912 32.6804 21.9167 33.2647 21.18 34.0013C20.4434 34.7379 19.8591 35.6125 19.4604 36.5749C19.0618 37.5373 18.8566 38.5689 18.8566 39.6106C18.8566 40.6524 19.0618 41.6839 19.4604 42.6464C19.8591 43.6088 20.4434 44.4833 21.18 45.2199C21.9167 45.9566 22.7912 46.5409 23.7536 46.9396C24.4982 47.248 25.2841 47.4406 26.0841 47.512C26.4726 47.5467 26.7893 47.8596 26.7893 48.2496Z" stroke="black" stroke-width="18" mask="url(#path-6-inside-3)"/>
<mask id="path-7-inside-4" fill="white">
<path d="M26.7893 65.3823C26.7893 65.7723 26.4727 66.0912 26.0838 66.0618C25.0982 65.9872 24.1291 65.7565 23.2131 65.3771C22.0793 64.9075 21.0491 64.2191 20.1813 63.3513C19.3136 62.4836 18.6252 61.4534 18.1556 60.3196C17.6859 59.1858 17.4442 57.9705 17.4442 56.7433C17.4442 55.5161 17.6859 54.3009 18.1556 53.1671C18.6252 52.0333 19.3136 51.0031 20.1813 50.1353C21.0491 49.2675 22.0793 48.5792 23.2131 48.1095C24.1291 47.7301 25.0982 47.4995 26.0838 47.4249C26.4727 47.3954 26.7893 47.7144 26.7893 48.1044C26.7893 48.4944 26.4726 48.8073 26.0841 48.842C25.2841 48.9134 24.4982 49.106 23.7536 49.4144C22.7912 49.8131 21.9167 50.3974 21.18 51.134C20.4434 51.8706 19.8591 52.7451 19.4604 53.7076C19.0618 54.67 18.8566 55.7016 18.8566 56.7433C18.8566 57.7851 19.0618 58.8166 19.4604 59.7791C19.8591 60.7415 20.4434 61.616 21.18 62.3526C21.9167 63.0893 22.7912 63.6736 23.7536 64.0722C24.4982 64.3807 25.2841 64.5733 26.0841 64.6447C26.4726 64.6794 26.7893 64.9923 26.7893 65.3823Z"/>
</mask>
<path d="M26.7893 65.3823C26.7893 65.7723 26.4727 66.0912 26.0838 66.0618C25.0982 65.9872 24.1291 65.7565 23.2131 65.3771C22.0793 64.9075 21.0491 64.2191 20.1813 63.3513C19.3136 62.4836 18.6252 61.4534 18.1556 60.3196C17.6859 59.1858 17.4442 57.9705 17.4442 56.7433C17.4442 55.5161 17.6859 54.3009 18.1556 53.1671C18.6252 52.0333 19.3136 51.0031 20.1813 50.1353C21.0491 49.2675 22.0793 48.5792 23.2131 48.1095C24.1291 47.7301 25.0982 47.4995 26.0838 47.4249C26.4727 47.3954 26.7893 47.7144 26.7893 48.1044C26.7893 48.4944 26.4726 48.8073 26.0841 48.842C25.2841 48.9134 24.4982 49.106 23.7536 49.4144C22.7912 49.8131 21.9167 50.3974 21.18 51.134C20.4434 51.8706 19.8591 52.7451 19.4604 53.7076C19.0618 54.67 18.8566 55.7016 18.8566 56.7433C18.8566 57.7851 19.0618 58.8166 19.4604 59.7791C19.8591 60.7415 20.4434 61.616 21.18 62.3526C21.9167 63.0893 22.7912 63.6736 23.7536 64.0722C24.4982 64.3807 25.2841 64.5733 26.0841 64.6447C26.4726 64.6794 26.7893 64.9923 26.7893 65.3823Z" stroke="black" stroke-width="18" mask="url(#path-7-inside-4)"/>
<mask id="path-8-inside-5" fill="white">
<path d="M26.7893 83.2938C26.7893 83.6838 26.4727 84.0027 26.0838 83.9733C25.0982 83.8987 24.1291 83.668 23.2131 83.2886C22.0793 82.819 21.0491 82.1306 20.1813 81.2628C19.3136 80.3951 18.6252 79.3649 18.1556 78.2311C17.6859 77.0972 17.4442 75.882 17.4442 74.6548C17.4442 73.4276 17.6859 72.2124 18.1556 71.0786C18.6252 69.9448 19.3136 68.9146 20.1813 68.0468C21.0491 67.179 22.0793 66.4907 23.2131 66.021C24.1291 65.6416 25.0982 65.411 26.0838 65.3364C26.4727 65.3069 26.7893 65.6259 26.7893 66.0159C26.7893 66.4059 26.4726 66.7188 26.0841 66.7535C25.2841 66.8249 24.4982 67.0175 23.7536 67.3259C22.7912 67.7246 21.9167 68.3089 21.18 69.0455C20.4434 69.7821 19.8591 70.6566 19.4604 71.6191C19.0618 72.5815 18.8566 73.6131 18.8566 74.6548C18.8566 75.6966 19.0618 76.7281 19.4604 77.6906C19.8591 78.653 20.4434 79.5275 21.18 80.2641C21.9167 81.0008 22.7912 81.5851 23.7536 81.9837C24.4982 82.2922 25.2841 82.4848 26.0841 82.5562C26.4726 82.5909 26.7893 82.9038 26.7893 83.2938Z"/>
</mask>
<path d="M26.7893 83.2938C26.7893 83.6838 26.4727 84.0027 26.0838 83.9733C25.0982 83.8987 24.1291 83.668 23.2131 83.2886C22.0793 82.819 21.0491 82.1306 20.1813 81.2628C19.3136 80.3951 18.6252 79.3649 18.1556 78.2311C17.6859 77.0972 17.4442 75.882 17.4442 74.6548C17.4442 73.4276 17.6859 72.2124 18.1556 71.0786C18.6252 69.9448 19.3136 68.9146 20.1813 68.0468C21.0491 67.179 22.0793 66.4907 23.2131 66.021C24.1291 65.6416 25.0982 65.411 26.0838 65.3364C26.4727 65.3069 26.7893 65.6259 26.7893 66.0159C26.7893 66.4059 26.4726 66.7188 26.0841 66.7535C25.2841 66.8249 24.4982 67.0175 23.7536 67.3259C22.7912 67.7246 21.9167 68.3089 21.18 69.0455C20.4434 69.7821 19.8591 70.6566 19.4604 71.6191C19.0618 72.5815 18.8566 73.6131 18.8566 74.6548C18.8566 75.6966 19.0618 76.7281 19.4604 77.6906C19.8591 78.653 20.4434 79.5275 21.18 80.2641C21.9167 81.0008 22.7912 81.5851 23.7536 81.9837C24.4982 82.2922 25.2841 82.4848 26.0841 82.5562C26.4726 82.5909 26.7893 82.9038 26.7893 83.2938Z" stroke="black" stroke-width="18" mask="url(#path-8-inside-5)"/>
<rect x="34.613" y="5.50085" width="1.24602" height="6.23009" rx="0.623009" transform="rotate(46.9522 34.613 5.50085)" fill="black"/>
<rect x="46.4247" y="14.9672" width="1.24602" height="6.23009" rx="0.623009" transform="rotate(116.089 46.4247 14.9672)" fill="black"/>
<rect x="51.9304" y="17.8333" width="1.24602" height="6.23009" rx="0.623009" transform="rotate(11.5101 51.9304 17.8333)" fill="black"/>
<rect x="32.8191" y="21.7073" width="1.24602" height="6.23009" rx="0.623009" transform="rotate(146.528 32.8191 21.7073)" fill="black"/>
<rect x="32.744" y="56.8991" width="1.24602" height="6.23009" rx="0.623009" transform="rotate(46.9522 32.744 56.8991)" fill="black"/>
<rect x="32.9302" y="67.6748" width="1.24602" height="6.23009" rx="0.623009" transform="rotate(-44.741 32.9302 67.6748)" fill="black"/>
<path d="M47.3488 62.5486C47.6002 62.3138 47.9945 62.3272 48.2293 62.5786C48.4642 62.8301 48.4508 63.2243 48.1993 63.4592L44.5571 66.8614C44.3056 67.0962 43.9114 67.0828 43.6765 66.8313C43.4416 66.5799 43.4551 66.1857 43.7065 65.9508L47.3488 62.5486Z" fill="black"/>
<rect x="52.7488" y="56.2529" width="1.24602" height="6.23009" rx="0.623009" transform="rotate(-23.6081 52.7488 56.2529)" fill="black"/>
<rect x="61.0908" y="44.9062" width="1.24602" height="6.23009" rx="0.623009" transform="rotate(46.9522 61.0908 44.9062)" fill="black"/>
<rect x="56.6394" y="29.4648" width="1.24602" height="6.23009" rx="0.623009" transform="rotate(-43.632 56.6394 29.4648)" fill="black"/>
</g>
<defs>
<filter id="filter0_d" x="-4" y="0.0495605" width="74.9734" height="87.7451" filterUnits="userSpaceOnUse" color-interpolation-filters="sRGB">
<feFlood flood-opacity="0" result="BackgroundImageFix"/>
<feColorMatrix in="SourceAlpha" type="matrix" values="0 0 0 0 0 0 0 0 0 0 0 0 0 0 0 0 0 0 127 0"/>
<feOffset dy="4"/>
<feGaussianBlur stdDeviation="2"/>
<feColorMatrix type="matrix" values="0 0 0 0 0 0 0 0 0 0 0 0 0 0 0 0 0 0 0.25 0"/>
<feBlend mode="normal" in2="BackgroundImageFix" result="effect1_dropShadow"/>
<feBlend mode="normal" in="SourceGraphic" in2="effect1_dropShadow" result="shape"/>
</filter>
<clipPath id="clip0">
<rect width="68" height="80" fill="white"/>
</clipPath>
</defs>
</svg>
