<svg width="20" height="18" viewBox="0 0 20 18" fill="none" xmlns="http://www.w3.org/2000/svg">
<path d="M18.4544 10.9372C18.154 10.87 17.9789 10.6279 17.6373 10.7087C17.3897 10.7673 17.2649 11.0337 17.0745 11.1734C16.7089 11.4418 16.4579 11.593 15.9332 11.4498C15.7372 11.3961 15.5579 11.2334 15.3603 11.1686C14.4749 10.8772 13.9748 11.3676 13.2268 11.7807C12.2779 12.3047 11.4217 11.9596 10.5557 11.4824C10.1743 11.2723 9.83023 11.102 9.38425 11.1367C8.81758 11.181 8.39241 11.4744 7.80598 11.506C7.03366 11.5476 7.02534 11.2109 6.38168 11.0333C5.74427 10.8578 5.32257 11.2913 4.84538 11.6482C4.32241 12.0397 4.29848 12.089 3.56847 11.9537C2.62553 11.7789 3.06388 11.8323 2.64391 11.3409C2.52704 11.2043 2.36994 11.0784 2.19515 11.0378C1.85945 10.9598 1.58756 11.2383 1.26886 11.2476C-0.139484 11.2899 1.10482 10.0876 1.68258 9.7786C2.25965 9.94992 2.99348 9.9676 3.45715 10.0019C5.69919 10.1687 7.97972 10.0782 10.2273 10.0987C12.2852 10.1289 14.3393 10.149 16.3941 9.9957C17.044 9.94714 17.8343 9.88021 18.4481 9.59133C18.6784 9.70299 19.3443 10.0283 19.4185 10.2804C19.5898 10.8616 18.8327 11.0219 18.4544 10.9372ZM14.3622 13.3818C12.8325 13.3995 11.3156 13.5878 9.78758 13.6287C8.35496 13.6672 6.9213 13.6069 5.48937 13.5552C4.78538 13.5296 4.08069 13.5049 3.37669 13.4803C2.15978 13.437 1.84905 12.6626 1.94754 11.5816C2.38312 11.6527 2.34913 11.995 2.6068 12.305C3.3486 13.197 4.49442 12.5374 5.18905 11.9915C5.67491 11.6097 5.95166 11.3749 6.57589 11.6797C6.80547 11.7918 6.97506 11.9894 7.22163 12.0806C7.76957 12.2839 8.11567 12.0394 8.63344 11.8941C9.93115 11.5299 9.89231 11.7637 10.8592 12.237C11.1033 12.3563 11.3579 12.4548 11.6249 12.5075C12.2862 12.6386 12.8924 12.5211 13.4716 12.1999C14.2044 11.7935 14.375 11.3895 15.4359 11.7352C15.6304 11.7987 15.7948 11.9495 15.9935 12.0106C16.4416 12.1479 16.7714 12.0962 17.1379 11.8119C17.4344 11.5816 17.5895 11.3666 17.9248 11.3409C19.1546 13.5674 15.4941 13.3686 14.3622 13.3818ZM18.8584 14.3705C19.0276 14.8304 18.9298 15.6374 18.5421 15.9634C18.0157 16.4059 16.8862 16.4333 16.2408 16.4766C14.1156 16.6199 11.9734 16.6393 9.84375 16.632C7.87846 16.6254 5.89617 16.6199 3.9333 16.5092C3.09821 16.4624 1.49081 16.5422 1.16933 15.6436C0.793057 14.5914 1.37012 13.9672 2.37237 13.8864C2.74725 13.9939 3.18005 13.9589 3.565 13.9724C5.98737 14.0581 8.42639 14.2245 10.8481 14.0667C12.0948 13.9856 13.3305 13.8715 14.5813 13.8649C15.5201 13.8597 16.4312 14.0002 17.3193 13.6586C17.9342 13.6686 18.5834 13.6253 18.8584 14.3705ZM1.37567 6.42091C2.04673 4.51388 3.668 2.43622 5.49458 1.52414C7.14325 0.700848 9.43661 0.486179 11.2455 0.777489C13.8163 1.19156 16.6479 2.7296 18.0223 4.98864C18.5112 5.79251 18.874 6.7854 18.9277 7.73181C19.0165 9.2858 17.4091 9.44221 16.1978 9.5244C14.2065 9.65965 12.2207 9.64231 10.2273 9.61283C8.38409 9.59619 6.53948 9.59515 4.6966 9.56185C3.79146 9.54555 1.90766 9.72866 1.31221 8.91265C0.846806 8.27559 1.15199 7.05624 1.37567 6.42091ZM18.9167 9.28788C19.175 9.05934 19.3602 8.75451 19.4202 8.33766C19.8041 5.66247 17.4837 3.01259 15.3204 1.81857C12.6712 0.356478 9.88364 -0.177588 6.89945 0.52121C5.07877 0.947422 3.79077 1.99093 2.62553 3.41557C1.68363 4.56729 0.612375 6.09319 0.59677 7.65308C0.591914 8.13756 0.701152 9.10616 1.04413 9.44602C1.07431 9.47584 1.11488 9.49873 1.14991 9.52509C0.517351 9.93396 -0.290343 10.7208 0.104311 11.4245C0.284992 11.747 0.708432 11.8129 1.03269 11.7928C1.16794 11.7845 1.31221 11.7227 1.4544 11.6659C1.40619 12.2363 1.42249 12.9771 1.76443 13.4595C1.27961 13.5413 0.806229 13.7265 0.634218 14.1791C0.408453 14.7711 0.584631 16.1416 1.12494 16.5592C1.40168 16.7725 1.76929 16.7464 2.09736 16.7874C2.87973 16.8848 3.64511 16.9913 4.43581 17.0128C6.23811 17.0613 8.04111 17.112 9.84375 17.1179C11.6613 17.1234 13.4785 17.087 15.294 17.0072C16.3458 16.9611 17.8589 17.0194 18.7873 16.3827C19.4365 15.9374 19.5291 14.9542 19.3262 14.2412C19.1268 13.5413 18.6399 13.3107 18.0549 13.2261C18.549 12.7912 18.7439 12.1805 18.521 11.498C18.5941 11.5382 18.6704 11.5736 18.7665 11.5771C19.1282 11.5903 19.5718 11.3024 19.7885 11.0312C20.3871 10.2811 19.5936 9.65548 18.9167 9.28788Z" fill="#2E2D2D"/>
<path d="M3.81461 8.91927C4.12569 8.90643 4.12742 8.42092 3.81461 8.43375C3.27188 8.45664 2.26375 8.54507 2.35703 7.75022C2.42084 7.20783 2.8096 6.66023 3.17201 6.2784C3.38702 6.0516 3.04438 5.70758 2.82867 5.93473C2.33795 6.45215 1.65824 7.45024 1.82643 8.21909C1.99255 8.97822 3.24864 8.9432 3.81461 8.91927Z" fill="#2E2D2D"/>
<path d="M4.94675 8.9248C5.25956 8.9248 5.25991 8.43929 4.94675 8.43929C4.63463 8.43929 4.63394 8.9248 4.94675 8.9248Z" fill="#2E2D2D"/>
<path d="M5.99987 2.67137C6.14448 2.6731 6.22702 2.55831 6.24298 2.42861C6.25373 2.34018 6.26448 2.25139 6.27523 2.16261C6.29119 2.03152 6.15212 1.92124 6.03248 1.91985C5.88821 1.91847 5.80567 2.03291 5.78972 2.16261C5.77897 2.25139 5.76821 2.34018 5.75711 2.42861C5.74116 2.56005 5.88057 2.67033 5.99987 2.67137Z" fill="#2E2D2D"/>
<path d="M8.646 2.18169C8.71987 2.121 8.8024 2.07592 8.88876 2.03603C9.17174 1.9046 8.92552 1.48601 8.64392 1.61675C8.51734 1.67536 8.41018 1.74993 8.30267 1.83836C8.0613 2.03708 8.40671 2.37867 8.646 2.18169Z" fill="#2E2D2D"/>
<path d="M11.2511 2.09322C11.532 2.22674 11.7786 1.80816 11.4959 1.67395C11.3627 1.61084 11.2386 1.53835 11.1179 1.45339C10.862 1.2734 10.6192 1.69441 10.8731 1.87267C10.9937 1.95763 11.1179 2.03011 11.2511 2.09322Z" fill="#2E2D2D"/>
<path d="M12.9944 2.6974C13.0551 2.63809 13.1123 2.6107 13.1938 2.59197C13.4983 2.52192 13.3693 2.05374 13.0648 2.12379C12.905 2.16055 12.768 2.23962 12.6515 2.35406C12.4285 2.57359 12.7718 2.91692 12.9944 2.6974Z" fill="#2E2D2D"/>
<path d="M9.93606 4.06098C10.1327 4.30374 10.4743 3.95833 10.279 3.71765C10.235 3.66321 10.1889 3.61396 10.1365 3.56679C9.90554 3.35767 9.56117 3.69962 9.79353 3.91013C9.8452 3.95729 9.89167 4.00653 9.93606 4.06098Z" fill="#2E2D2D"/>
<path d="M7.0816 3.9902C7.14783 3.91738 7.21372 3.86675 7.30042 3.82132C7.57716 3.6767 7.33198 3.25742 7.05524 3.40204C6.9349 3.46515 6.82947 3.54665 6.73826 3.64688C6.5288 3.87784 6.87109 4.22221 7.0816 3.9902Z" fill="#2E2D2D"/>
<path d="M12.1649 4.11854C12.4424 4.26073 12.6882 3.84214 12.4098 3.69926C12.3085 3.64724 12.2336 3.5869 12.1719 3.49014C12.0051 3.22727 11.5844 3.47037 11.7526 3.73533C11.8566 3.89867 11.9915 4.02976 12.1649 4.11854Z" fill="#2E2D2D"/>
<path d="M4.65362 3.89036C4.66437 3.83175 4.67511 3.78458 4.72713 3.74851C4.98168 3.5713 4.73928 3.15029 4.48195 3.32924C4.32832 3.43605 4.21977 3.57408 4.18509 3.76135C4.12891 4.06688 4.59674 4.19796 4.65362 3.89036Z" fill="#2E2D2D"/>
<path d="M14.3222 3.60111C14.5605 3.79983 14.9059 3.45789 14.6655 3.25779C14.5934 3.19745 14.5213 3.13745 14.4488 3.07746C14.2102 2.87839 13.8651 3.22033 14.1058 3.42043C14.1779 3.48078 14.2501 3.54077 14.3222 3.60111Z" fill="#2E2D2D"/>
</svg>
