<svg width="14" height="25" viewBox="0 0 14 25" fill="none" xmlns="http://www.w3.org/2000/svg">
<path d="M10.7325 22.2919C10.6769 22.6274 10.6781 23.1455 10.5527 23.5092C10.5163 23.5149 10.4697 23.5186 10.4023 23.5121C10.1878 23.4916 9.95163 23.5264 9.7367 23.5325C8.47654 23.5664 7.21557 23.5844 5.95501 23.584C5.36947 23.5836 4.7827 23.586 4.19798 23.5595C4.04312 23.5521 3.8143 23.5803 3.66638 23.5272C3.63573 23.5161 3.61612 23.5116 3.59773 23.5076C3.48823 23.2362 3.50538 22.7071 3.46983 22.4681C3.37871 21.8568 3.29005 21.2455 3.20057 20.6342C2.67836 17.0585 2.16391 13.4815 1.64008 9.90615C5.19131 9.74189 8.707 9.77089 12.2599 9.80644C11.9538 13.9914 11.4218 18.1539 10.7325 22.2919ZM10.6197 23.4933C10.6344 23.4826 10.636 23.4859 10.6197 23.4933V23.4933ZM1.10847 8.47356C1.28949 8.39061 1.61474 8.41553 1.81455 8.39837C2.32327 8.35506 2.83608 8.32564 3.34602 8.29949C4.30462 8.25046 5.26528 8.25291 6.22428 8.2382C7.37207 8.22104 8.50637 8.25005 9.65293 8.29377C10.4146 8.32278 11.1783 8.30481 11.9395 8.35302C12.1855 8.36855 12.8822 8.31788 13.0497 8.46416C13.1686 8.56836 13.2438 8.94141 13.2908 9.2446C9.03716 9.20293 4.84563 9.14409 0.59363 9.38844C0.626319 8.97942 0.699045 8.6607 1.10847 8.47356ZM5.70943 3.00064C5.75234 3.30587 5.79524 3.61069 5.83814 3.91592C5.56641 4.09693 5.34904 4.38459 5.39521 4.69187C4.22863 4.84469 3.0363 5.26065 3.55442 6.36595C2.74292 6.549 2.14512 6.94617 2.36005 7.78791C2.13654 7.80262 1.91344 7.81651 1.69033 7.83531C1.93673 5.60143 3.5581 3.58944 5.70943 3.00064ZM6.09271 1.64936C6.06983 1.48591 5.87655 1.42625 5.7413 1.44913C4.92858 1.58888 4.11626 1.72862 3.30395 1.86796C3.24061 1.66978 3.18913 1.46753 3.14908 1.26363C4.14691 0.995993 5.18886 0.828861 6.22142 0.815378C6.87928 0.806797 6.94384 1.01438 7.02352 1.60686C7.05335 1.82424 7.07991 2.04203 7.1077 2.25982C7.00677 2.25818 6.90666 2.25165 6.8041 2.25533C6.59448 2.26269 6.38936 2.28475 6.18628 2.3154C6.15522 2.09311 6.12418 1.87123 6.09271 1.64936ZM6.87274 4.18192C7.10892 4.11859 7.3451 4.02175 7.52203 3.84768C7.55922 3.81091 7.58863 3.76678 7.61764 3.72224C7.66259 3.7586 7.70918 3.79252 7.74718 3.83624C7.94699 4.07324 7.98539 4.3609 7.93186 4.6457C7.54409 4.61465 7.20005 4.60769 6.98144 4.60565C6.74812 4.60361 6.38282 4.60647 5.97339 4.63467C5.82139 4.36049 6.73341 4.21911 6.87274 4.18192ZM7.23478 3.24048C7.23641 3.25233 7.24254 3.26092 7.24499 3.27195C7.236 3.2838 7.22946 3.29483 7.21802 3.30668C7.05866 3.47054 6.94956 3.5637 6.72074 3.6303C6.60878 3.66299 6.49437 3.68341 6.38159 3.70671C6.34278 3.4313 6.30478 3.1559 6.26596 2.88009C6.44248 2.85312 6.62186 2.83433 6.8041 2.82738C6.932 2.82248 7.05662 2.82779 7.18207 2.83187C7.19923 2.96794 7.21721 3.10401 7.23478 3.24048ZM9.75713 6.24009C8.61751 6.10974 7.29606 6.23846 6.23735 6.22825C5.7605 6.22375 4.93062 6.18494 4.15671 6.2687C3.37913 4.78218 10.4313 4.76623 9.75713 6.24009ZM2.95172 7.75277C2.71554 6.83911 4.71487 6.82155 5.15576 6.80725C5.78707 6.78682 6.41919 6.80153 7.05008 6.81869C7.84687 6.84035 10.7717 6.53715 11.0079 7.74255C9.29907 7.68167 7.58904 7.64612 5.879 7.67186C4.9016 7.68657 3.92666 7.70455 2.95172 7.75277ZM12.2243 7.79037C12.038 7.77933 11.8308 7.77156 11.5995 7.76298C11.5873 7.05731 11.345 6.61275 10.5997 6.39659C10.5204 6.37371 10.4342 6.359 10.3512 6.34021C10.8003 5.28232 9.63291 4.86961 8.50555 4.70903C8.57093 4.31186 8.49861 3.90734 8.25794 3.56737C8.16028 3.43008 7.98662 3.23844 7.79621 3.13915C7.78844 3.06029 7.78272 2.97489 7.77741 2.88213C10.2135 3.2364 12.0515 5.26475 12.2243 7.79037ZM13.8919 9.56414C13.8931 9.54902 13.8943 9.53472 13.8935 9.51919C13.8943 9.49876 13.8992 9.48037 13.8959 9.4579C13.717 8.3383 13.4403 7.98608 12.8021 7.85615C12.6436 4.97871 10.5441 2.65086 7.74798 2.30313C7.70099 1.50226 7.58332 0.577978 6.97653 0.327908C6.44207 0.107258 5.70861 0.274786 5.15494 0.325863C4.332 0.401457 3.53563 0.548559 2.74088 0.777788C2.57866 0.824369 2.519 0.974335 2.54147 1.12961C2.59827 1.52637 2.69062 1.89084 2.82914 2.26717C2.88634 2.42326 3.0171 2.49518 3.18095 2.46699C3.97938 2.32969 4.77821 2.1924 5.57663 2.05511C5.5942 2.18014 5.61177 2.30517 5.62934 2.4298C3.17196 3.06927 1.34751 5.36322 1.10888 7.91254C0.259381 8.08579 0.0779632 8.51524 0.000735832 9.6904C-0.00539333 9.78357 0.0272923 9.85262 0.0791859 9.89838C0.12495 9.94987 0.194009 9.98215 0.286763 9.97643C0.551951 9.96009 0.81632 9.94905 1.08069 9.93516C1.08028 9.95232 1.07538 9.96785 1.07783 9.98624C1.55018 13.2081 2.01437 16.4308 2.48386 19.6531C2.65058 20.8013 2.81565 21.9495 2.9889 23.0965C3.05142 23.5076 3.00851 23.8373 3.36646 24.0563C3.84208 24.3481 5.02542 24.1524 5.55702 24.1552C6.76732 24.1613 7.97844 24.1446 9.18875 24.1176C9.57161 24.109 10.5229 24.2696 10.8575 24.0396C11.354 23.6984 11.3156 22.258 11.3969 21.7534C12.0343 17.7919 12.5385 13.8141 12.8315 9.81217C13.0943 9.81503 13.3566 9.81748 13.6201 9.81993C13.7803 9.82157 13.8665 9.71287 13.8874 9.5907C13.8898 9.58212 13.8902 9.57313 13.8919 9.56414Z" fill="#2E2D2D"/>
<path d="M9.60025 14.7159C10.0011 16.1481 8.79407 17.4949 7.45015 17.8168C5.99754 18.1654 4.46607 16.9355 4.26053 15.507C4.03294 13.9314 5.20197 12.8318 6.68727 12.6549C7.95519 12.6373 9.24476 13.4459 9.60025 14.7159V14.7159ZM3.64557 15.2099C3.68276 16.9363 5.33722 18.5789 7.09016 18.4563C8.73809 18.3415 10.3901 16.8198 10.2455 15.1073C10.0951 13.3262 8.39935 12.0591 6.68727 12.0828C5.01769 12.2814 3.60635 13.4051 3.64557 15.2099Z" fill="#2E2D2D"/>
</svg>
