<svg width="38" height="39" viewBox="0 0 38 39" fill="none" xmlns="http://www.w3.org/2000/svg">
<path d="M37.9467 21.7078C37.9466 21.7076 37.9466 21.7075 37.9465 21.7074L30.7719 3.21859C30.6197 2.82575 30.1858 2.63398 29.803 2.79025C29.8028 2.79035 29.8025 2.79044 29.8022 2.79063L0.695971 14.6855C0.577272 14.7381 0.474331 14.8221 0.397591 14.9289C0.155531 15.058 0.00261082 15.3135 0 15.5934V35.4985C0 35.9213 0.333999 36.2641 0.74595 36.2641H32.0758C32.4878 36.2641 32.8218 35.9213 32.8218 35.4985V24.6273L37.5302 22.7026C37.9129 22.546 38.0993 22.1006 37.9467 21.7078ZM31.3299 34.7329H1.4919V16.359H31.3299V34.7329ZM12.4462 14.8317L24.9364 9.72373C26.0511 10.9263 27.5957 11.6097 29.2129 11.6162L30.4586 14.8317H12.4462ZM32.8218 22.9828V15.5934C32.8218 15.1706 32.4878 14.8279 32.0758 14.8279H32.0639L30.4832 10.7534C30.4657 10.7195 30.4453 10.6871 30.4221 10.657C30.3421 10.2882 30.0094 10.0367 29.6426 10.0675C28.1378 10.2082 26.6658 9.55769 25.7315 8.33879C25.4991 8.04433 25.0905 7.97112 24.7745 8.1673C24.7391 8.17161 24.7039 8.17831 24.6693 8.18721L9.4206 14.419C9.23607 14.4933 9.08847 14.6406 9.01108 14.8279H4.38022L29.662 4.49635L36.2852 21.565L32.8218 22.9828Z" fill="black"/>
<path d="M3.5165 29.5645C4.96476 30.0039 6.09804 31.1655 6.5279 32.6513C6.62217 32.9756 6.91281 33.1979 7.24252 33.1979C7.28121 33.1955 7.31963 33.1895 7.35739 33.1803C7.39087 33.1901 7.42509 33.1973 7.45959 33.2018H25.3624C25.3932 33.1977 25.4236 33.1913 25.4534 33.1826C25.8261 33.2757 26.2017 33.0411 26.2924 32.6586C26.2927 32.6572 26.2931 32.6558 26.2933 32.6544C26.7221 31.1671 27.8555 30.0038 29.3047 29.5637C29.6562 29.4535 29.8745 29.0941 29.8165 28.7216C29.8264 28.6845 29.8336 28.6466 29.8381 28.6083V22.4837C29.8337 22.4453 29.8262 22.4074 29.8157 22.3703C29.8742 21.9978 29.6557 21.6382 29.304 21.5282C27.8548 21.0883 26.7216 19.9245 26.2941 18.4368C26.1861 18.0736 25.8324 17.8489 25.4676 17.9116C25.4331 17.9018 25.3979 17.8946 25.3624 17.8902H7.45959C7.42201 17.8948 7.38481 17.9024 7.34844 17.9131C6.98563 17.8538 6.63559 18.0778 6.5279 18.4383C6.09888 19.9254 4.9655 21.0883 3.5165 21.5282C3.16506 21.6385 2.94668 21.9979 3.00477 22.3703C2.99508 22.4076 2.98808 22.4454 2.98389 22.4837V28.6083C2.98818 28.6443 2.99517 28.6799 3.00477 28.7147C2.94361 29.0896 3.16245 29.453 3.5165 29.5645ZM4.47579 22.7945C5.97365 22.177 7.16083 20.9586 7.76244 19.4213H25.0588C25.6607 20.9586 26.8481 22.177 28.3462 22.7945V28.2975C26.8488 28.9156 25.6618 30.1338 25.0595 31.6706H7.76244C7.16018 30.1338 5.97319 28.9156 4.47579 28.2975V22.7945Z" fill="black"/>
<path d="M16.411 30.1395C18.8829 30.1395 20.8867 28.0829 20.8867 25.546C20.8867 23.009 18.8829 20.9525 16.411 20.9525C13.9391 20.9525 11.9353 23.009 11.9353 25.546C11.9377 28.0819 13.9401 30.137 16.411 30.1395ZM16.411 22.4837C18.0589 22.4837 19.3948 23.8547 19.3948 25.546C19.3948 27.2372 18.0589 28.6083 16.411 28.6083C14.7631 28.6083 13.4272 27.2372 13.4272 25.546C13.4272 23.8547 14.7631 22.4837 16.411 22.4837Z" fill="black"/>
<path d="M8.20535 26.6943C8.82328 26.6943 9.32427 26.1802 9.32427 25.546C9.32427 24.9118 8.82328 24.3976 8.20535 24.3976C7.58742 24.3976 7.08643 24.9118 7.08643 25.546C7.08643 26.1803 7.58742 26.6943 8.20535 26.6943ZM8.20535 25.1632C8.41133 25.1632 8.57832 25.3346 8.57832 25.546C8.57832 25.7574 8.41133 25.9288 8.20535 25.9288C7.99937 25.9288 7.83238 25.7574 7.83238 25.546C7.83238 25.3346 7.99937 25.1632 8.20535 25.1632Z" fill="black"/>
<path d="M24.6162 26.6943C25.2342 26.6943 25.7352 26.1802 25.7352 25.546C25.7352 24.9118 25.2342 24.3976 24.6162 24.3976C23.9983 24.3976 23.4973 24.9118 23.4973 25.546C23.4973 26.1803 23.9983 26.6943 24.6162 26.6943ZM24.6162 25.1632C24.8222 25.1632 24.9892 25.3346 24.9892 25.546C24.9892 25.7574 24.8222 25.9288 24.6162 25.9288C24.4103 25.9288 24.2433 25.7574 24.2433 25.546C24.2433 25.3346 24.4103 25.1632 24.6162 25.1632Z" fill="black"/>
</svg>
