<svg width="1317" height="660" viewBox="0 0 1317 660" fill="none" xmlns="http://www.w3.org/2000/svg">
<rect width="1317" height="660" fill="#CEFFEA"/>
<path d="M1266.13 608.852C1269.55 607.698 1273.81 607.836 1277.33 608.101C1279.18 608.184 1281.62 608.679 1282.9 610.348C1284.47 612.38 1283.08 613.907 1281.39 614.771C1279.17 612.491 1275.21 612.615 1272.36 612.677C1269.3 612.744 1266.13 613.057 1263.7 615.243C1262.84 614.843 1262.18 614.253 1262.01 613.358C1261.51 610.682 1264.34 609.457 1266.13 608.852ZM1268.4 616.171C1267.78 616.105 1266.82 616.038 1265.84 615.865C1269.16 614 1276.26 613.455 1279.46 615.459C1275.83 616.325 1272.1 616.561 1268.4 616.171ZM1268.4 617.979C1272.31 618.379 1276.26 618.104 1280.09 617.166C1282.1 616.674 1285.28 616.053 1285.96 613.468C1287.16 608.885 1280.28 606.425 1277.33 606.292C1273 605.966 1262.74 605.358 1260.3 611.001C1258.09 616.096 1265.49 617.682 1268.4 617.979Z" fill="#2E2D2D"/>
<path d="M1290.77 640.899C1285.88 642.941 1280.52 643.851 1273.39 643.851C1272.92 643.851 1272.46 643.848 1271.99 643.842C1261.65 643.596 1247.66 642.046 1242.74 631.956C1243.66 632.477 1244.72 632.553 1245.82 631.849C1246.55 631.385 1246.99 630.214 1247.66 629.851C1250.48 628.333 1250.3 630.394 1250.67 632.074C1251.05 633.77 1251.39 635.968 1252.47 637.351C1255.47 641.184 1256.16 635.153 1258.25 634.945C1259.6 634.809 1260.48 636.56 1262 636.593C1264.59 636.649 1265.34 633.679 1267.38 632.743C1271.05 631.049 1273.12 639.217 1276.68 639.51C1281.51 639.911 1280.56 631.123 1284.18 631.035C1287.24 630.962 1289.77 634.445 1292.48 631.826C1293.06 631.262 1293.64 629.416 1294.28 629.252C1295.83 628.856 1296.09 630.74 1296.68 631.765C1297.16 632.607 1297.84 634.026 1298.94 633.987C1299.98 633.95 1300.4 632.846 1300.79 631.99C1301.25 630.979 1301.95 625.764 1302.84 625.5C1303.97 625.164 1304.83 627.411 1306.21 626.91C1305.76 628.647 1305.09 630.194 1304.22 631.526C1301.05 636.339 1296.46 638.532 1290.77 640.899ZM1242.06 612.309C1244.22 606.712 1248.95 602.515 1255.38 600.488C1261.02 598.714 1266.99 598.467 1273.65 598.346C1273.93 598.342 1274.21 598.338 1274.49 598.338C1280.27 598.338 1285.9 599.415 1292.18 601.726C1296.37 603.265 1303.7 606.915 1305.82 614.071C1306.41 616.072 1306.77 618.274 1306.85 620.419C1306.87 620.652 1306.87 620.899 1306.88 621.14C1306.87 621.188 1306.84 621.228 1306.84 621.28C1306.77 621.901 1306.31 624.733 1305.76 624.963C1304.83 625.345 1304.1 623.776 1303.19 623.782C1302.3 623.788 1302.2 623.702 1301.52 624.42C1300.73 625.256 1300.49 627.192 1300.19 628.258C1299.64 630.157 1299.49 632.812 1297.93 630.477C1296.81 628.813 1296.19 625.721 1293.81 627.247C1292.41 628.145 1291.91 630.819 1290.21 631.063C1288.82 631.263 1286.39 629.748 1285.03 629.403C1282.48 628.753 1281.23 628.583 1280.34 631.477C1279.4 634.509 1278.2 639.549 1274.74 635.98C1273.34 634.535 1272.18 632.668 1270.58 631.469C1268.2 629.684 1266.66 631.053 1264.7 632.932C1262.97 634.595 1262.1 634.389 1259.94 633.321C1259.48 633.096 1259.23 632.575 1258.68 632.448C1257.72 632.226 1257.16 632.556 1256.49 633.252C1255.42 634.348 1255.91 635.778 1254.3 635.701C1252.88 635.634 1252.77 633.791 1252.46 632.465C1252.15 631.137 1252.1 629.426 1251.36 628.271C1250.69 627.224 1249.43 626.506 1248.25 626.858C1247.35 627.126 1247.14 628.02 1246.49 628.573C1244.19 630.522 1241.91 629.838 1241.04 626.575C1241.04 626.552 1241.02 626.538 1241.01 626.515C1240.94 626.128 1240.84 625.75 1240.78 625.356L1240.6 623.917C1240.19 619.835 1240.69 615.827 1242.06 612.309ZM1308.49 621.28C1308.51 621.129 1308.49 621.001 1308.46 620.89C1308.44 619.86 1308.39 618.813 1308.26 617.734C1307.51 611.67 1304.45 606.745 1299.16 603.096C1296.36 601.169 1293.11 600.088 1289.96 599.044L1289.33 598.836C1285.55 597.573 1282.29 596.875 1279.09 596.645C1277.05 596.496 1274.98 596.421 1272.95 596.421C1267.35 596.421 1262.13 596.971 1257.42 598.059C1252.64 599.165 1246.12 601.8 1242.26 608.079C1239.27 612.925 1238.15 619.405 1239.17 625.861C1240.38 633.535 1244.36 638.86 1250.97 641.688C1256.77 644.165 1263.62 645.465 1271.93 645.665C1272.46 645.671 1272.98 645.676 1273.51 645.676C1278.17 645.676 1284.29 645.378 1290.23 643.057C1295.01 641.186 1300.43 639.067 1304.15 634.519C1306.96 631.092 1308.4 626.676 1308.46 621.617C1308.47 621.505 1308.48 621.382 1308.49 621.28Z" fill="#2E2D2D"/>
<path d="M1254.43 621.623C1255.46 621.955 1255.9 620.21 1254.88 619.88C1251.49 618.784 1248.3 616.703 1247.1 612.89C1246.75 611.795 1245.15 612.265 1245.5 613.372C1246.9 617.813 1250.46 620.335 1254.43 621.623Z" fill="#2E2D2D"/>
<path d="M1258.07 622.514C1259.13 622.514 1259.14 620.703 1258.07 620.703C1257 620.703 1257 622.514 1258.07 622.514Z" fill="#2E2D2D"/>
<path d="M80.2795 47.8763C79.6 51.2021 77.8458 55.0182 76.483 58.1636C73.2148 65.7071 63.8429 70.3491 57.1671 73.641C49.202 77.5699 41.9164 77.6108 33.4462 76.4313C20.7196 73.9496 12.8617 60.5761 14.2426 46.8236C14.7258 42.0125 16.1713 37.1155 17.6607 32.5835C19.8748 25.8446 24.2875 16.9214 29.8693 12.815C36.6898 7.79677 44.2415 12.209 51.6408 11.7384C53.7723 11.6017 55.7965 10.9365 57.8672 10.4109C62.5021 9.23557 65.3802 9.95569 69.0617 13.3068C71.6156 15.632 74.1616 18.2179 76.2194 21.0758C79.3597 25.4374 80.1128 30.2794 80.4745 35.6725C80.7407 39.669 81.0868 43.9235 80.2795 47.8763ZM82.513 39.8804C82.2197 30.4443 80.8698 22.9458 74.5582 16.145C69.8071 11.0267 65.5313 6.64968 58.5854 8.20827C53.8343 9.27646 50.0042 9.99516 45.0812 9.22431C41.4952 8.66344 37.8059 7.83058 34.1954 8.68316C27.0739 10.3644 23.1107 17.4457 19.5286 23.7237C16.1661 29.6185 14.0683 36.7999 12.8721 43.6247C10.1503 59.143 18.1735 75.4702 32.9928 78.3407C33.0419 78.3506 33.0819 78.3351 33.1284 78.3379C33.1659 78.3478 33.193 78.3703 33.233 78.376C41.2653 79.5104 48.3559 79.826 55.9683 76.3622C62.7604 73.276 71.538 68.9117 76.2737 62.4856C78.4374 59.5474 79.7641 55.1803 81.0662 51.7432C82.4923 47.9749 82.6357 43.9009 82.513 39.8804Z" fill="#2E2D2D"/>
<path d="M37.5358 50.9653C31.365 47.9003 28.2596 40.0115 30.3096 32.9739C32.7704 24.527 40.2356 23.2728 47.0562 25.2542C61.6636 31.924 52.4455 58.3722 37.5358 50.9653ZM47.538 23.3517C39.6672 21.066 31.3521 22.9896 28.5657 32.451C26.1501 40.6499 30.1288 49.9901 37.5048 53.1313C54.6221 60.4226 64.0004 30.8699 47.538 23.3517Z" fill="#2E2D2D"/>
<path d="M35.2134 31.4589C31.6804 33.8588 31.8587 38.746 33.5302 42.4015C34.0495 43.5387 35.61 42.5396 35.092 41.4066C33.8829 38.7629 33.4863 34.9566 36.1254 33.1626C37.111 32.4933 36.2042 30.7853 35.2134 31.4589Z" fill="#2E2D2D"/>
<path d="M38.2867 28.8787C37.1241 28.8787 37.1216 30.853 38.2867 30.853C39.4506 30.853 39.4532 28.8787 38.2867 28.8787Z" fill="#2E2D2D"/>
<path d="M45.3417 374.007C53.1229 371.408 43.0049 358.053 42.4818 353.322C41.7757 346.947 46.9431 343.376 47.9171 337.604C48.4997 334.152 47.083 331.086 45.6654 327.987C44.3329 325.074 43.0004 322.13 43.3305 318.811C43.9296 312.79 49.4161 308.468 49.5296 302.433C49.589 299.232 48.0232 296.64 46.4575 294.006C44.8551 291.311 43.2528 288.572 43.3918 285.091C43.6488 278.644 48.0242 273.219 48.1549 266.784C48.2171 263.762 46.9303 261.109 45.6435 258.474C44.1235 255.361 42.6025 252.272 43.3058 248.627C44.0311 244.869 46.3852 242.232 49.9878 242.982C50.756 243.142 50.5777 244.491 49.8048 244.464C46.0029 244.327 45.2493 249.325 45.81 252.153C46.1895 254.068 47.3272 255.886 48.143 257.595C49.3421 260.109 50.4944 262.572 50.6563 265.457C50.9783 271.214 47.8723 276.205 46.5197 281.558C45.3892 286.032 46.2014 289.42 48.4952 293.183C49.9548 295.58 51.6148 297.878 52.0254 300.809C52.7352 305.872 49.7006 309.987 47.7251 314.227C44.0183 322.186 49.3165 326.265 50.6966 333.649C51.7813 339.457 48.2162 343.27 46.2252 348.217C43.2701 355.558 50.2832 360.577 51.0212 367.485C51.474 371.721 50.0801 375.858 46.1364 377.152C44.289 377.758 43.5043 374.62 45.3417 374.007Z" fill="black"/>
<path d="M1284.69 389.722C1276.91 387.123 1287.03 373.767 1287.55 369.037C1288.26 362.661 1283.09 359.09 1282.12 353.318C1281.53 349.866 1282.95 346.8 1284.37 343.701C1285.7 340.788 1287.03 337.845 1286.7 334.525C1286.1 328.505 1280.62 324.183 1280.5 318.147C1280.44 314.947 1282.01 312.355 1283.58 309.721C1285.18 307.026 1286.78 304.287 1286.64 300.806C1286.38 294.358 1282.01 288.934 1281.88 282.498C1281.82 279.476 1283.1 276.823 1284.39 274.188C1285.91 271.075 1287.43 267.986 1286.73 264.342C1286 260.583 1283.65 257.946 1280.04 258.697C1279.28 258.856 1279.45 260.205 1280.23 260.178C1284.03 260.041 1284.78 265.039 1284.22 267.868C1283.84 269.782 1282.71 271.6 1281.89 273.309C1280.69 275.824 1279.54 278.286 1279.38 281.171C1279.05 286.928 1282.16 291.919 1283.51 297.273C1284.64 301.747 1283.83 305.134 1281.54 308.897C1280.08 311.294 1278.42 313.593 1278.01 316.523C1277.3 321.587 1280.33 325.701 1282.31 329.942C1286.01 337.901 1280.72 341.979 1279.34 349.363C1278.25 355.171 1281.82 358.985 1283.81 363.931C1286.76 371.273 1279.75 376.291 1279.01 383.2C1278.56 387.435 1279.95 391.573 1283.9 392.867C1285.74 393.472 1286.53 390.334 1284.69 389.722Z" fill="black"/>
<path d="M1303.94 92.7344C1299.07 92.8099 1294.2 92.7729 1289.33 92.6678C1289.81 90.7414 1289.33 87.98 1289.34 86.0803C1289.42 76.7772 1289.39 67.4712 1289.3 58.1667C1289.24 51.5881 1290.1 43.7302 1288.78 37.2434C1291.44 37.427 1294.02 37.2538 1296.69 37.1487C1299.82 37.0258 1303.58 36.5609 1306.69 36.9725C1306.88 38.3228 1306.8 39.9101 1306.85 41.182C1307.01 45.0895 1307.11 48.9984 1307.16 52.9104C1307.3 62.1171 1306.96 71.3151 1307.09 80.5234C1307.13 83.2019 1307.18 85.8804 1307.2 88.5574C1307.23 92.1658 1307.26 92.6826 1303.94 92.7344ZM1286.23 92.7951C1283.83 92.5019 1281.2 92.838 1278.78 92.8292C1272.78 92.807 1266.78 92.7329 1260.77 92.7107C1258.09 92.7033 1258.78 91.4921 1258.71 88.7529C1258.66 86.4119 1258.62 84.071 1258.59 81.7301C1268.21 82.3061 1277.84 81.2 1287.46 81.6235C1287.45 82.734 1287.46 83.843 1287.45 84.952C1287.43 87.4114 1287.76 90.3372 1287.36 92.804C1286.98 92.844 1286.51 92.8292 1286.23 92.7951ZM1265.44 26.3354C1266.26 25.0679 1267.07 23.3237 1268.12 22.2605C1269.27 21.1027 1268.44 21.655 1270.03 21.3366C1273.35 20.6733 1277.19 21.2004 1280.56 21.0894C1285.53 20.9265 1290.45 20.4808 1295.4 20.808C1292.47 25.3655 1289.96 30.2976 1287.15 34.9499C1286.74 34.8522 1286.24 34.7989 1285.59 34.7263C1280.38 34.1429 1274.91 33.8157 1269.68 34.2821C1266.56 34.4169 1263.44 34.5516 1260.33 34.6863C1261.97 31.8538 1263.68 29.0746 1265.44 26.3354ZM1269.49 11.693C1270.53 9.91476 1272.8 10.436 1274.59 10.3753C1278.51 10.242 1282.45 9.85406 1286.38 9.88664C1288.19 9.90144 1294.5 9.10188 1295.96 10.4389C1295.76 10.2509 1295.92 12.5326 1295.96 13.7512C1296.02 15.4332 1296.07 17.1138 1296.13 18.7958C1290.35 18.3175 1284.58 18.9172 1278.78 19.0668C1276.28 19.1319 1271.93 18.356 1269.18 19.0816C1269.07 16.6977 1268.76 12.9427 1269.49 11.693ZM1258.56 79.6557C1258.49 73.6915 1258.51 67.7244 1258.6 61.7603C1258.64 59.0818 1258.7 56.4018 1258.78 53.7218C1268.17 54.1053 1278.02 54.6753 1287.38 53.7395C1287.44 59.1928 1287.46 64.6491 1287.47 70.0994C1287.48 73.2503 1287.47 76.4012 1287.46 79.5506C1277.83 79.1271 1268.18 80.2376 1258.56 79.6557ZM1269.68 36.355C1274.79 35.899 1280.13 36.2129 1285.23 36.7622C1285.55 36.7963 1286.4 37.008 1286.81 36.9962C1286.83 37.0672 1286.85 37.1413 1286.86 37.2124C1287.17 38.3465 1287.03 39.8331 1287.07 41.0028C1287.21 44.5535 1287.29 48.1115 1287.34 51.6696C1278.02 52.5994 1268.2 52.0353 1258.84 51.6518C1258.91 49.3597 1258.98 47.0662 1259.08 44.7741C1259.16 42.6612 1258.55 37.9941 1260.4 36.7548C1262 35.6902 1267.91 36.432 1269.68 36.355ZM1306.04 34.861C1303.34 34.6893 1300.54 35.0728 1297.85 35.0595C1294.95 35.0447 1292.14 35.3245 1289.26 35.1897C1291.94 30.6796 1294.38 25.9534 1297.22 21.5809C1299.12 23.9145 1300.77 26.5056 1302.39 29.0775C1303.48 30.8158 1305.11 32.8429 1306.04 34.861ZM1308.77 41.7269C1308.65 38.4161 1308.81 36.05 1307.2 33.2797C1304.45 28.5416 1301.61 23.6065 1298.06 19.5021C1298.06 16.8576 1298.82 11.1171 1297.55 9.25735C1296.47 7.67748 1293.51 8.11871 1291.9 8.02099C1287.61 7.7589 1283.43 7.93067 1279.16 8.14685C1275.82 8.31565 1271.2 7.49092 1268.09 9.11373C1267.8 9.2692 1267.63 9.66451 1267.63 10.008C1267.56 13.3647 1267.4 16.717 1267.32 20.0722C1266.39 20.9754 1265.72 22.342 1265.01 23.4258C1262.47 27.2904 1259.99 31.2156 1257.73 35.2756C1257.7 35.3112 1257.71 35.3452 1257.69 35.3808C1257.68 35.397 1257.68 35.4163 1257.67 35.4326C1257.63 35.557 1257.6 35.6784 1257.6 35.7954C1257.6 35.7968 1257.6 35.7983 1257.6 35.7983C1256.6 55.1003 1256.37 74.423 1256.95 93.7442C1256.97 94.3039 1257.38 94.7807 1257.9 94.7807C1263.33 94.7777 1268.77 94.8399 1274.2 94.8769C1278.36 94.9051 1283.14 95.6069 1287.26 94.834C1287.49 94.7911 1287.69 94.7229 1287.87 94.6415C1287.97 94.683 1288.08 94.72 1288.21 94.7229C1294.86 94.8829 1301.51 94.874 1308.16 94.7229C1308.67 94.7111 1309.11 94.258 1309.11 93.6865C1309.18 76.3997 1309.43 59.0019 1308.77 41.7269Z" fill="#2E2D2D"/>
<path d="M1266.59 66.4748C1267.26 66.155 1267.94 65.4058 1268.55 64.5515C1268.45 67.6623 1268.41 70.7732 1268.63 73.8826C1268.72 75.2049 1270.62 75.2152 1270.53 73.8826C1270.23 69.5635 1270.41 65.2414 1270.59 60.9194C1270.64 59.8562 1269.3 59.5586 1268.82 60.3967C1268.3 61.3191 1267.22 63.321 1266.2 64.2642C1264.95 63.0071 1263.89 61.525 1262.49 60.3937C1261.89 59.9036 1261.07 60.5729 1261.06 61.2881C1261.01 65.4606 1260.94 69.6316 1261.04 73.8042C1261.07 75.1353 1262.97 75.1397 1262.94 73.8042C1262.86 70.3942 1262.89 66.9842 1262.94 63.5757C1263.76 64.507 1264.52 65.4976 1265.44 66.312C1265.81 66.6362 1266.17 66.6777 1266.59 66.4748Z" fill="#2E2D2D"/>
<path d="M1272.05 73.8826C1272.12 75.2093 1274.02 75.2167 1273.95 73.8826C1273.84 71.8038 1274.06 69.7234 1273.95 67.6446C1273.88 66.3179 1271.98 66.309 1272.05 67.6446C1272.16 69.7234 1271.94 71.8038 1272.05 73.8826Z" fill="#2E2D2D"/>
<path d="M1273.98 64.5277C1273.98 64.5115 1273.98 64.4966 1273.98 64.4804C1273.98 63.1477 1272.08 63.1448 1272.08 64.4804C1272.08 64.4966 1272.08 64.5115 1272.08 64.5277C1272.08 65.8618 1273.98 65.8633 1273.98 64.5277Z" fill="#2E2D2D"/>
<path d="M1277.89 73.973C1277.57 69.4628 1277.28 64.9601 1277.25 60.4352C1277.25 59.1026 1275.35 59.0996 1275.35 60.4352C1275.38 64.9601 1275.67 69.4628 1275.99 73.973C1276.08 75.2937 1277.98 75.3056 1277.89 73.973Z" fill="#2E2D2D"/>
<path d="M1281.61 73.8826C1281.54 73.1082 1281.47 72.3324 1281.41 71.558C1281.66 71.9355 1281.92 72.3042 1282.17 72.6877C1282.53 73.2415 1282.95 73.7938 1283.22 74.4068C1283.74 75.612 1285.38 74.5608 1284.86 73.3599C1284.55 72.6522 1284.05 72.0051 1283.63 71.3684C1283.06 70.4889 1282.47 69.6272 1281.86 68.7728C1282.6 68.0651 1283.35 67.3854 1284.15 66.765C1285.14 65.998 1284.19 64.2005 1283.19 64.9749C1282.46 65.5405 1281.76 66.1491 1281.08 66.7799C1280.97 64.5722 1280.9 62.3615 1280.89 60.145C1280.89 58.8124 1278.99 58.8094 1278.99 60.145C1279.02 64.741 1279.26 69.3148 1279.71 73.8826C1279.85 75.1945 1281.75 75.2093 1281.61 73.8826Z" fill="#2E2D2D"/>
<path d="M31.8782 560.368C28.3551 555.872 29.5032 552.02 33.0549 550.442C32.3984 551.748 32.279 553.369 32.7891 555.36C33.276 557.256 34.3733 558.953 35.4443 560.494C38.0082 564.185 38.7004 567.549 36.5721 570.682C36.6253 568.749 36.2418 566.79 35.4192 565.131C34.4863 563.249 33.1357 561.973 31.8782 560.368ZM33.8107 573.804C33.5973 574.374 33.8273 574.8 34.1995 575.023C34.4928 575.36 34.9306 575.494 35.3828 575.122C38.0912 572.905 40.8097 569.521 40.4584 565.546C40.0893 561.38 30.1673 552.629 37.2304 549.631C38.2967 549.179 38.2339 547.332 36.9461 547.337C32.3345 547.354 27.692 549.019 27.3574 554.737C26.9029 562.508 37.0273 565.192 33.8107 573.804Z" fill="#2E2D2D"/>
<path d="M51.3213 605.415C40.1718 606.261 28.8594 604.853 17.6567 605.438C17.3324 602.888 17.0146 600.335 16.6705 597.786C28.5607 597.778 40.4383 598.517 52.3295 598.227C51.9813 600.621 51.6457 603.016 51.3213 605.415ZM46.831 636.623C46.6184 637.822 46.6213 640.179 46.0037 641.254C44.5982 643.696 41.9573 642.964 39.5781 642.98C35.5077 643.007 30.2595 643.776 26.2764 642.862C21.061 641.664 21.8842 639.01 21.2993 634.531C21.2115 633.857 21.1279 633.184 21.0425 632.51C29.5099 633.266 39.0249 633.994 47.4899 632.627C47.2743 633.96 47.0663 635.293 46.831 636.623ZM47.8854 630.225C43.278 631.019 38.7365 630.607 34.0921 630.489C29.6281 630.375 25.1952 630.5 20.7396 630.137C20.6578 629.483 20.5729 628.83 20.4911 628.178C19.6412 621.373 18.8114 614.567 17.9572 607.764C28.9555 607.223 40.0571 608.556 51.004 607.769C50.2891 613.117 49.5949 618.471 48.8333 623.812C48.5275 625.951 48.2157 628.09 47.8854 630.225ZM19.9135 592.31C22.789 592.315 25.6641 592.361 28.5404 592.36C31.8814 592.356 35.221 592.283 38.5626 592.306C41.5624 592.33 44.5594 592.4 47.5568 592.51C48.9887 592.561 50.4258 592.555 51.856 592.643C54.1765 592.788 54.7787 593.569 54.1617 595.845C40.738 596.302 27.3355 595.304 13.9132 595.462C12.4813 591.714 18.6723 592.306 19.9135 592.31ZM18.7798 582.417C19.5682 581.107 19.1023 581.456 20.8997 581.122C24.0506 580.539 27.6187 580.917 30.7965 580.922C34.7289 580.929 38.6623 580.987 42.5953 581.049C45.0593 581.089 46.9165 580.647 48.792 582.487C50.7126 584.37 51.1498 587.488 51.6539 590.301C46.809 590.026 41.9316 589.962 37.0811 589.962C30.4149 589.959 23.6744 589.682 17.0175 589.991C17.2637 587.627 17.6579 584.282 18.7798 582.417ZM53.9054 590.663C52.998 586.062 53.1182 579.367 48.0885 578.804C42.2123 578.145 35.9964 578.585 30.0887 578.585C26.8361 578.587 21.7718 577.681 18.6746 579.044C15.581 580.403 15.1855 586.721 14.845 590.274C11.81 590.992 10.1182 593.072 12.3177 597.222C12.3421 597.269 12.3775 597.289 12.4042 597.329C12.4496 597.404 12.5029 597.466 12.5643 597.528C12.6079 597.568 12.6504 597.603 12.6969 597.633C12.7614 597.676 12.8332 597.708 12.9121 597.733C12.9717 597.751 13.0291 597.765 13.0895 597.77C13.1425 597.776 13.1832 597.801 13.2418 597.801C13.6712 597.795 14.0995 597.8 14.529 597.796C16.2691 610.58 17.6896 623.41 19.373 636.202C19.797 639.424 19.4326 643.554 22.7234 644.875C24.6146 645.634 27.1629 645.217 29.1305 645.249C32.2935 645.299 35.4563 645.331 38.6193 645.319C41.0476 645.309 45.3974 646.092 47.2832 643.836C49.3309 641.385 49.2874 635.041 49.7801 631.923C49.7963 631.82 49.81 631.715 49.8261 631.61C49.838 631.545 49.8536 631.485 49.8548 631.418C51.5853 620.367 52.8635 609.24 54.4908 598.172C54.6408 598.167 54.7906 598.167 54.94 598.16C55.3092 598.147 55.5713 597.963 55.7429 597.71C55.8354 597.599 55.9166 597.468 55.9727 597.304C57.2959 593.411 56.4381 591.417 53.9054 590.663Z" fill="#2E2D2D"/>
<path d="M40.3396 620.181C39.4687 623.445 36.9073 626.835 33.4916 626.828C33.0411 626.828 32.6153 626.78 32.2066 626.703C32.2169 626.64 32.2438 626.59 32.2455 626.52C32.3464 622.813 34.8751 620.885 36.7889 618.205C37.974 616.546 38.5684 614.767 38.7452 612.724C39.554 613.114 40.2393 613.74 40.5492 614.609C41.1221 616.215 40.7595 618.608 40.3396 620.181ZM28.7971 619.161C30.1346 616.387 32.672 613.755 35.3571 612.567C35.746 612.39 36.191 612.305 36.6498 612.285C36.4329 615.875 34.1194 617.648 32.2408 620.279C31.0305 621.974 30.334 623.816 30.1668 625.914C28.1668 624.618 27.3952 622.072 28.7971 619.161ZM41.0653 611.356C39.4459 610.001 36.6551 609.467 34.7872 610.315C30.7134 612.117 26.1073 616.809 25.8366 621.876C25.5684 626.905 30.4069 629.799 34.6086 629.084C39.6975 628.215 42.7923 622.458 42.9051 617.24C42.9505 615.141 42.6985 612.72 41.0653 611.356Z" fill="#2E2D2D"/>
<path d="M200.834 273.297C200.076 272.589 199.942 271.542 198.841 271.228C198.042 271.001 197.28 271.626 196.521 271.747C195.066 271.98 194.117 272.036 192.831 270.718C192.351 270.225 192.085 269.42 191.617 268.889C189.523 266.51 187.345 267.213 184.573 267.264C181.058 267.328 179.129 264.83 177.373 261.902C176.6 260.612 175.873 259.509 174.542 258.878C172.851 258.077 171.187 258.289 169.458 257.415C167.182 256.264 167.67 255.198 166.096 253.575C164.536 251.97 162.669 252.625 160.759 252.949C158.665 253.306 158.522 253.42 156.636 251.787C154.2 249.677 155.375 250.571 154.918 248.338C154.791 247.717 154.532 247.063 154.093 246.646C153.25 245.846 152.048 246.265 151.12 245.766C147.02 243.562 152.414 241.868 154.539 241.86C155.932 243.353 158.008 244.625 159.284 245.501C165.455 249.741 172.127 253.24 178.536 257.032C184.387 260.539 190.242 264.009 196.362 266.937C198.298 267.863 200.665 268.965 202.863 269.08C203.353 269.811 204.766 271.932 204.595 272.843C204.203 274.944 201.79 274.189 200.834 273.297ZM185.392 274.152C180.982 271.67 176.35 269.743 171.909 267.337C167.746 265.081 163.73 262.515 159.705 259.979C157.727 258.731 155.745 257.485 153.766 256.241C150.345 254.087 150.632 251.151 152.557 247.935C153.697 248.88 153.079 249.894 153.346 251.29C154.116 255.308 158.402 255.147 161.222 254.593C163.195 254.205 164.345 253.93 165.67 255.918C166.157 256.649 166.343 257.548 166.911 258.242C168.172 259.786 169.535 259.596 171.239 260.001C175.511 261.014 175.045 261.681 177.096 264.764C177.614 265.542 178.193 266.272 178.878 266.879C180.574 268.386 182.49 269.024 184.637 268.981C187.355 268.925 188.458 267.945 190.972 270.786C191.433 271.307 191.675 272.051 192.151 272.571C193.227 273.744 194.25 274.129 195.733 273.848C196.932 273.62 197.703 273.205 198.703 273.681C198.842 282.68 188.656 275.988 185.392 274.152ZM196.773 284.699C196.558 286.418 195.051 288.778 193.445 289.154C191.264 289.664 187.986 287.876 186.07 286.942C179.763 283.865 173.596 280.373 167.505 276.818C161.883 273.538 156.212 270.233 150.756 266.632C148.434 265.1 143.707 262.684 144.152 259.342C144.673 255.429 147.276 254.435 150.27 255.844C151.181 256.802 152.475 257.411 153.557 258.091C160.368 262.376 167.103 266.942 174.282 270.465C177.978 272.279 181.692 273.972 185.286 276.026C187.984 277.566 190.381 279.516 193.445 279.921C195.192 280.973 197.118 281.914 196.773 284.699ZM158.764 230.855C163.586 226.007 171.39 222.202 178.011 222.38C183.986 222.541 190.884 225.673 195.624 229.584C202.361 235.142 208.136 244.646 208.64 253.986C208.819 257.31 208.349 261.015 207.064 264.063C204.956 269.068 200.112 266.891 196.516 265.139C190.605 262.259 184.941 258.911 179.275 255.513C174.018 252.404 168.735 249.342 163.505 246.181C160.936 244.629 155.26 242.077 154.794 238.539C154.429 235.776 157.157 232.47 158.764 230.855ZM204.667 268.908C205.754 268.623 206.748 267.977 207.554 266.773C212.721 259.048 210.101 246.916 205.717 239.596C200.349 230.632 193.174 224.34 183.561 221.575C177.696 219.888 172.419 221.013 166.914 223.534C162.465 225.572 157.075 228.565 154.659 233.415C153.909 234.922 152.749 238.13 153.215 239.762C153.256 239.905 153.338 240.044 153.398 240.184C150.964 240.413 147.453 241.533 147.514 244.387C147.542 245.695 148.655 246.603 149.615 247.078C150.015 247.277 150.522 247.323 151.016 247.381C150.011 249.084 148.931 251.427 149.178 253.502C147.664 252.953 146.026 252.747 144.845 253.877C143.298 255.353 141.719 259.929 142.633 262.13C143.102 263.256 144.194 263.784 145.072 264.456C147.166 266.058 149.197 267.661 151.43 269.039C156.52 272.18 161.61 275.328 166.766 278.337C171.965 281.368 177.228 284.268 182.551 287.03C185.635 288.63 189.882 291.322 193.51 290.871C196.047 290.556 197.807 287.636 198.31 285.071C198.802 282.553 197.758 281.024 196.21 279.789C198.287 279.25 199.774 277.664 200.173 275.161C200.321 275.408 200.486 275.645 200.756 275.815C201.772 276.456 203.481 276.292 204.514 275.804C207.37 274.452 206.047 271.18 204.667 268.908Z" fill="#2E2D2D"/>
<path d="M161.955 242.71C162.865 243.186 163.609 241.671 162.693 241.192C161.103 240.364 158.08 238.968 159.555 236.638C160.563 235.049 162.509 233.982 164.128 233.389C165.089 233.037 164.63 231.393 163.667 231.746C161.474 232.549 158.009 234.542 157.322 237.224C156.644 239.872 160.297 241.846 161.955 242.71Z" fill="#2E2D2D"/>
<path d="M165.19 244.605C166.086 245.123 166.825 243.606 165.928 243.087C165.033 242.569 164.293 244.086 165.19 244.605Z" fill="#2E2D2D"/>
<path d="M177.714 226.804C178.126 227.049 178.537 226.827 178.78 226.448C178.945 226.19 179.111 225.93 179.277 225.67C179.522 225.287 179.291 224.712 178.95 224.509C178.539 224.265 178.128 224.486 177.885 224.865C177.72 225.125 177.554 225.384 177.388 225.642C177.142 226.027 177.374 226.603 177.714 226.804Z" fill="#2E2D2D"/>
<path d="M186.04 229.662C186.344 229.595 186.649 229.591 186.957 229.609C187.968 229.668 187.899 227.951 186.893 227.893C186.442 227.866 186.021 227.921 185.579 228.019C184.585 228.24 185.055 229.881 186.04 229.662Z" fill="#2E2D2D"/>
<path d="M193.64 233.706C194.242 234.589 195.585 233.69 194.979 232.801C194.693 232.383 194.448 231.951 194.231 231.485C193.771 230.498 192.435 231.411 192.892 232.39C193.108 232.855 193.354 233.288 193.64 233.706Z" fill="#2E2D2D"/>
<path d="M197.716 238.486C197.981 238.401 198.186 238.41 198.448 238.487C199.427 238.773 199.769 237.095 198.79 236.809C198.276 236.659 197.764 236.679 197.256 236.844C196.283 237.16 196.745 238.803 197.716 238.486Z" fill="#2E2D2D"/>
<path d="M186.88 237.676C187.074 238.761 188.578 238.247 188.385 237.171C188.341 236.928 188.284 236.698 188.206 236.463C187.862 235.427 186.355 235.924 186.701 236.968C186.777 237.201 186.836 237.432 186.88 237.676Z" fill="#2E2D2D"/>
<path d="M178.809 232.72C179.109 232.603 179.375 232.554 179.692 232.555C180.705 232.562 180.64 230.845 179.627 230.838C179.186 230.836 178.76 230.916 178.347 231.078C177.395 231.452 177.853 233.097 178.809 232.72Z" fill="#2E2D2D"/>
<path d="M193.179 241.552C193.758 242.457 195.099 241.556 194.518 240.648C194.307 240.317 194.184 240.004 194.154 239.599C194.076 238.501 192.501 238.563 192.58 239.67C192.63 240.354 192.817 240.987 193.179 241.552Z" fill="#2E2D2D"/>
<path d="M172.003 228.382C172.123 228.216 172.226 228.087 172.43 228.06C173.429 227.928 173.374 226.21 172.365 226.343C171.762 226.422 171.241 226.673 170.857 227.201C170.232 228.063 171.373 229.249 172.003 228.382Z" fill="#2E2D2D"/>
<path d="M200.147 243.513C200.528 244.529 202.038 244.033 201.653 243.009C201.538 242.701 201.423 242.394 201.306 242.086C200.925 241.068 199.417 241.565 199.802 242.589C199.917 242.897 200.032 243.205 200.147 243.513Z" fill="#2E2D2D"/>
<path d="M1083.63 107.721L1083.55 108.427C1083.46 109.384 1083.26 110.345 1083.08 111.273C1082.85 112.372 1082.63 113.508 1082.55 114.651C1082.42 116.804 1082.88 118.956 1083.32 121.037L1083.44 121.61C1083.67 122.713 1083.92 123.811 1084.16 124.911C1084.66 127.17 1085.18 129.508 1085.59 131.824C1085.67 132.277 1085.76 132.769 1085.86 133.292C1086.41 136.184 1087.16 140.144 1086.45 142.656C1085.43 146.251 1083.11 147.485 1080.75 148.284C1078.26 149.133 1077 149.435 1076.01 149.638C1075.5 149.742 1075.02 149.828 1074.5 149.918C1073.88 150.026 1073.2 150.142 1072.36 150.316L1072.24 150.341C1074.09 147.047 1073.12 141.875 1072.34 137.696C1072.15 136.669 1071.97 135.719 1071.86 134.898L1071.47 132.07C1071.16 129.807 1070.84 127.548 1070.51 125.289L1070.36 124.308C1070 121.996 1069.67 119.813 1070.01 117.504C1070.2 116.223 1070.61 115.008 1071 113.833C1071.23 113.172 1071.45 112.511 1071.64 111.831C1073.67 104.505 1071.89 96.8579 1067.1 92.3532C1064.28 89.7027 1060.8 88.0223 1056.49 87.2285C1057.69 87.0413 1058.79 86.8826 1059.81 86.7322C1061.87 86.4312 1063.66 86.1708 1065.52 85.7897C1065.81 85.7301 1066.68 85.545 1066.68 85.545C1071.66 84.5246 1076.14 86.5602 1079.98 91.6009C1081.72 93.8815 1082.97 96.4895 1083.59 99.1448C1084.23 101.847 1083.91 104.968 1083.63 107.721ZM1068.94 150.541C1067.72 151.198 1066.29 151.674 1064.29 152.084C1063.47 152.251 1062.65 152.389 1061.83 152.528C1061.05 152.661 1060.27 152.791 1059.53 152.943L1057.45 153.374C1054.56 153.971 1051.68 154.565 1048.81 155.223C1048.17 155.369 1047.53 155.503 1046.89 155.634C1045.86 155.843 1044.84 156.04 1043.81 156.236C1042.78 156.434 1041.76 156.632 1040.73 156.842L1039.08 157.187C1037.93 157.422 1036.59 157.659 1035.17 157.499C1032.42 157.19 1031.62 154.959 1030.98 152.503C1030.17 149.387 1029.53 146.168 1028.92 143.056C1028.26 139.756 1027.59 136.34 1026.67 132.924C1026.06 130.652 1025.43 128.304 1024.7 126.043C1024.2 124.523 1023.33 123.366 1022.41 122.138C1021.95 121.532 1021.48 120.906 1021.06 120.236C1016.79 113.386 1019.58 105.26 1023.61 99.936C1028 94.1429 1035.69 90.8247 1041.42 89.6512C1041.7 89.5947 1041.97 89.5408 1042.24 89.4931C1045.61 88.8981 1049.08 89.0298 1052.35 89.2155C1055.46 89.3901 1059.32 89.61 1062.5 91.5894C1069.21 95.77 1071.92 103.728 1069.39 111.862L1069.08 112.831C1068.37 115.06 1067.7 117.167 1067.69 119.589C1067.67 121.889 1068.08 124.253 1068.48 126.539C1068.65 127.515 1068.82 128.483 1068.95 129.438L1069.45 133.049C1069.71 134.965 1069.97 136.881 1070.25 138.795C1070.33 139.294 1070.43 139.853 1070.53 140.449C1071.16 144.001 1072.03 148.872 1068.94 150.541ZM1084.07 94.2298C1081.66 89.3077 1078.83 86.3059 1075.16 84.7784C1070.51 82.8442 1070.17 82.9061 1066 83.6687L1064.98 83.8518C1058.81 84.9565 1056.41 85.235 1053.62 85.5592C1051.33 85.8233 1048.73 86.1249 1043.45 86.9748C1043.39 86.986 1043.34 87.0023 1043.32 87.013C1042.58 87.1123 1041.84 87.2378 1041.1 87.3889C1035.78 88.4775 1030.6 90.8824 1026.12 94.3443C1020.34 98.8058 1016.85 105.62 1016.78 112.575C1016.74 115.971 1017.56 118.797 1019.43 121.733C1019.81 122.316 1020.26 122.89 1020.7 123.445C1021.38 124.295 1022.07 125.175 1022.5 126.117C1022.91 127.041 1023.18 128.125 1023.44 129.174C1023.55 129.65 1023.67 130.117 1023.8 130.565C1024.9 134.42 1025.88 138.611 1026.79 143.381C1026.96 144.242 1027.11 145.13 1027.27 146.032C1027.88 149.547 1028.51 153.183 1029.94 156.22C1031.21 158.907 1033.46 160.065 1037.03 159.859C1038.56 159.769 1040.22 159.537 1042.24 159.123C1043.69 158.827 1045.14 158.475 1046.56 158.13C1047.46 157.917 1048.34 157.703 1049.2 157.505C1052.06 156.851 1054.94 156.26 1057.81 155.667L1059.96 155.221C1060.67 155.075 1061.4 154.943 1062.13 154.809C1062.88 154.675 1063.63 154.539 1064.38 154.385L1064.68 154.318C1064.78 154.325 1064.87 154.322 1064.99 154.298C1064.99 154.298 1064.99 154.298 1064.99 154.298C1065.82 154.107 1066.63 153.934 1067.41 153.773C1069.62 153.321 1071.69 152.962 1073.65 152.624C1075.38 152.327 1077.02 152.044 1078.58 151.725C1078.58 151.725 1078.58 151.725 1078.58 151.725C1079.31 151.575 1080.02 151.416 1080.72 151.245C1085.81 150 1088.47 148.12 1088.9 141.307C1089.14 137.61 1087.89 132.054 1087.07 128.381L1086.98 128C1086.35 125.179 1085.69 122.156 1085.12 119.159C1084.58 116.297 1084.91 114.094 1085.34 111.306L1085.44 110.611C1086.25 105.209 1086.64 99.4819 1084.07 94.2298Z" fill="#2E2D2D"/>
<path d="M1063.96 127.232C1064.55 131.053 1065.3 134.84 1066.07 138.619C1066.69 141.7 1068.28 145.475 1064.85 147.601C1063.12 148.674 1060.31 148.732 1058.36 149.116C1053.95 149.981 1049.54 150.783 1045.14 151.653C1042.92 152.091 1040.6 152.926 1038.37 153.169C1034.11 153.632 1035.74 153.706 1034.7 151.619C1032.5 147.205 1031.95 140.587 1031.01 135.7C1030.44 132.771 1030.2 129.743 1029.45 126.863C1028.56 123.466 1026.76 121.395 1024.51 118.921C1018.01 109.752 1027.34 100.157 1034.23 96.2062C1040.52 92.6005 1047.74 92.3239 1054.68 93.3751C1060.4 94.2371 1065.07 98.2885 1065.65 104.99C1065.87 107.489 1065.1 110.013 1064.5 112.379C1063.08 117.977 1063.07 121.388 1063.96 127.232ZM1067.46 107.748C1068.08 102.07 1065.34 95.341 1060.43 92.7927C1055.14 90.0531 1047.1 90.1773 1041.45 91.2635C1035.16 92.4713 1028.32 96.2392 1024.2 101.662C1020.46 106.588 1019.26 114.981 1023.04 120.312C1028.32 126.136 1028.54 133.813 1030.2 141.431C1030.98 144.973 1031.39 151.582 1033.67 154.437C1034.75 155.789 1036.45 155.656 1037.91 155.452C1042.79 154.77 1047.72 153.315 1052.58 152.389C1056.94 151.554 1066.86 151.878 1068.68 146.09C1069.76 142.675 1067.94 138.084 1067.28 134.752C1066.51 130.791 1065.82 126.814 1065.32 122.801C1064.63 117.382 1066.89 113.026 1067.46 107.748Z" fill="#2E2D2D"/>
<path d="M1029.85 111.821C1028.62 112.074 1028.98 114.163 1030.21 113.91C1031.44 113.659 1031.09 111.569 1029.85 111.821Z" fill="#2E2D2D"/>
<path d="M1034.16 104.036C1032.93 104.288 1033.29 106.376 1034.52 106.123C1035.75 105.871 1035.4 103.783 1034.16 104.036Z" fill="#2E2D2D"/>
<path d="M1040.18 110.079C1038.94 110.331 1039.3 112.419 1040.53 112.167C1041.77 111.914 1041.41 109.826 1040.18 110.079Z" fill="#2E2D2D"/>
<path d="M1044.96 101.087C1043.73 101.339 1044.08 103.425 1045.32 103.173C1046.55 102.921 1046.19 100.834 1044.96 101.087Z" fill="#2E2D2D"/>
<path d="M1052.6 107.412C1052.57 107.419 1052.53 107.427 1052.49 107.434C1051.26 107.686 1051.62 109.776 1052.85 109.523C1052.89 109.516 1052.93 109.508 1052.96 109.501C1054.19 109.249 1053.83 107.159 1052.6 107.412Z" fill="#2E2D2D"/>
<path d="M1057.21 100.672C1055.98 100.923 1056.33 103.01 1057.56 102.758C1058.8 102.506 1058.44 100.419 1057.21 100.672Z" fill="#2E2D2D"/>
<path d="M1035.42 123.202C1034.19 123.454 1034.55 125.542 1035.78 125.29C1037.01 125.037 1036.66 122.949 1035.42 123.202Z" fill="#2E2D2D"/>
<path d="M1046.84 118.948C1045.61 119.2 1045.97 121.289 1047.2 121.037C1048.43 120.785 1048.07 118.695 1046.84 118.948Z" fill="#2E2D2D"/>
<path d="M1056.94 117.499C1055.7 117.751 1056.06 119.837 1057.29 119.585C1058.53 119.333 1058.17 117.246 1056.94 117.499Z" fill="#2E2D2D"/>
<path d="M1042.26 130.034C1041.03 130.285 1041.39 132.374 1042.62 132.121C1043.85 131.869 1043.49 129.781 1042.26 130.034Z" fill="#2E2D2D"/>
<path d="M1055.07 128.977C1053.84 129.229 1054.19 131.317 1055.43 131.065C1056.66 130.813 1056.3 128.725 1055.07 128.977Z" fill="#2E2D2D"/>
<path d="M1037.36 140.384C1036.13 140.636 1036.49 142.724 1037.72 142.472C1038.96 142.22 1038.6 140.131 1037.36 140.384Z" fill="#2E2D2D"/>
<path d="M1048.45 138.468C1047.22 138.72 1047.58 140.808 1048.81 140.556C1050.04 140.304 1049.68 138.216 1048.45 138.468Z" fill="#2E2D2D"/>
<path d="M1060.73 136.941C1059.5 137.193 1059.86 139.281 1061.09 139.028C1062.32 138.776 1061.96 136.689 1060.73 136.941Z" fill="#2E2D2D"/>
<path d="M1043.13 147.764C1043.1 147.812 1043.07 147.859 1043.04 147.905C1042.34 149.036 1043.94 150.235 1044.65 149.104C1044.68 149.057 1044.71 149.012 1044.74 148.962C1045.45 147.834 1043.84 146.633 1043.13 147.764Z" fill="#2E2D2D"/>
<path d="M1055.68 144.387C1055.65 144.394 1055.61 144.401 1055.57 144.409C1054.34 144.661 1054.7 146.747 1055.93 146.495C1055.97 146.487 1056.01 146.48 1056.04 146.472C1057.27 146.22 1056.92 144.134 1055.68 144.387Z" fill="#2E2D2D"/>
<path d="M277.455 513.516L277.474 512.948C277.492 512.469 277.499 511.989 277.505 511.509L277.507 511.355C277.539 509.08 277.479 506.641 277.321 503.89L277.205 501.744C276.941 496.707 276.667 491.501 275.376 486.64C275.292 486.326 275.205 485.991 275.107 485.646C275.315 485.499 275.554 485.385 275.819 485.306C277.127 484.916 278.898 485.421 280.321 485.826C280.767 485.954 281.181 486.072 281.542 486.152L282.178 486.291C284 486.688 285.886 487.099 287.537 488.076C290.142 489.616 291.376 491.695 291.424 494.612C291.459 496.893 290.822 499.426 290.256 501.659L290.06 502.448C289.163 506.06 288.015 509.58 287.01 512.546C286.678 513.524 286.344 514.502 286.006 515.478C285.886 515.819 285.78 516.194 285.671 516.578C285.459 517.311 285.241 518.069 284.926 518.668C284.516 519.45 283.966 519.934 283.247 520.148C282.423 520.394 281.494 520.26 280.613 520.106C280.287 520.046 279.949 520.001 279.604 519.954C278.544 519.811 277.451 519.666 276.581 519.14C277.327 517.443 277.394 515.358 277.455 513.516ZM235.487 535.566C235.307 535.245 235.137 534.945 234.98 534.677C232.493 530.45 231.506 526.366 231.878 521.826C232.161 518.381 232.622 514.794 234.062 511.843L234.685 512.693C238.324 517.703 241.772 521.732 245.225 525.009C246.195 525.929 247.185 526.803 248.169 527.61C246.126 529.712 244.745 531.975 243.828 534.718C243.719 535.047 243.609 535.48 243.487 535.962C243.037 537.752 242.419 540.202 240.9 540.655C240.9 540.655 240.9 540.655 240.899 540.655C240.46 540.773 239.961 540.708 239.417 540.463C237.842 539.753 236.481 537.332 235.487 535.566ZM253.563 527.811C251.683 528.371 249.873 526.567 248.419 525.117C248.124 524.825 247.842 524.544 247.574 524.293L246.772 523.534C243.581 520.5 240.592 517.201 237.888 513.726C237.614 513.376 237.312 513.008 236.999 512.626C235.69 511.032 234.206 509.224 233.73 507.338C233.2 505.232 234.513 503.058 236.01 501.024C238.009 498.308 241.44 495.145 244.592 494.205C245.274 494.002 245.926 493.907 246.535 493.926C246.529 496.528 247.647 499.424 248.636 501.983C248.938 502.767 249.228 503.517 249.469 504.216C251.121 509.017 252.69 513.221 254.264 517.073C254.378 517.351 254.491 517.64 254.604 517.938L254.842 518.555C255.582 520.507 256.422 522.713 257.667 524.267C256.642 525.936 255.166 527.239 253.699 527.765L253.563 527.811ZM259.435 523.317C258.22 522.059 257.423 519.965 256.72 518.119C256.577 517.743 256.438 517.378 256.253 516.915L256.166 516.701C254.785 513.363 253.4 509.703 251.813 505.178C251.205 503.446 250.612 501.705 250.041 499.961C249.907 499.55 249.75 499.114 249.586 498.662C248.915 496.809 248.157 494.71 248.483 492.934C249.19 489.089 253.337 485.834 260.473 483.517C260.698 483.444 260.921 483.376 261.147 483.309C263.849 482.503 266.29 482.197 268.614 482.374C270.187 482.496 271.544 482.601 272.534 484.175C272.727 484.479 272.902 484.854 273.064 485.269C273.058 485.527 273.142 485.786 273.282 485.951C273.516 486.735 273.689 487.573 273.841 488.315L273.942 488.788C275.069 494.129 275.297 499.859 275.517 505.401L275.547 506.162C275.626 508.119 275.655 509.835 275.636 511.409C275.617 512.871 275.564 514.073 275.467 515.183C275.193 518.357 273.699 520.232 270.314 521.654C269.273 522.093 267.701 522.755 266.025 523.254C262.988 524.159 260.765 524.174 259.435 523.317ZM294.474 525.438L294.36 525.114C294.244 524.79 294.137 524.464 294.029 524.138C293.697 523.136 293.355 522.1 292.787 521.179C291.513 519.114 289.57 518.348 287.509 517.712C287.871 516.679 288.17 515.584 288.46 514.526C288.572 514.115 288.682 513.713 288.793 513.325C288.916 512.889 289.042 512.471 289.172 512.079C290.255 508.835 291.479 504.976 292.357 500.948L292.449 500.526C292.608 499.798 292.773 499.043 292.916 498.276C296.639 500.123 299.061 505.865 299.786 509.316C300.811 514.198 300.508 518.924 298.888 523.365C298.825 523.537 298.756 523.747 298.684 523.977C298.391 524.867 297.992 526.088 297.431 526.556C296.998 526.919 296.608 527.154 296.274 527.253C296.168 527.285 296.066 527.305 295.97 527.31C295.128 527.36 294.781 526.34 294.474 525.438ZM293.232 496.201C293.439 494.306 293.34 492.729 292.928 491.384C292.031 488.449 289.296 486.686 287.747 485.897C285.66 484.831 283.294 484.356 281.007 483.899C280.544 483.807 280.084 483.714 279.526 483.596C278.124 483.297 276.535 482.96 275.163 483.369C274.907 483.446 274.662 483.547 274.435 483.671C274.016 482.695 273.532 481.991 272.956 481.527C271.512 480.36 269.3 480.31 267.686 480.274C265.462 480.223 263.097 480.564 260.653 481.293C258.672 481.883 256.627 482.733 254.572 483.812C251.577 485.39 247.809 488.067 246.791 491.905C245.938 491.872 245.034 491.998 244.104 492.275C240.307 493.407 236.729 496.803 234.646 499.603C233.219 501.522 231.876 503.613 231.709 505.881C231.612 507.221 231.968 508.535 232.832 510.014C231.099 513.028 230.155 517.174 229.945 522.684C229.741 528.096 231.331 532.966 235.107 538.482C237.418 541.857 239.465 543.224 241.365 542.658C241.988 542.472 242.595 542.073 243.169 541.466C244.278 540.291 244.694 538.71 245.094 537.181C245.23 536.668 245.365 536.153 245.525 535.652C246.384 532.991 247.741 530.803 249.68 528.802L249.809 528.9C251.137 529.892 252.662 530.17 254.221 529.706C256.051 529.16 257.91 527.58 259.205 525.468C261.453 526.392 264.454 525.601 266.653 525.021L266.846 524.971C267.429 524.817 268.07 524.646 268.736 524.447C270.784 523.836 273.697 522.802 275.467 520.84C276.636 521.621 278.037 521.811 279.394 521.997C279.777 522.047 280.161 522.101 280.542 522.166C281.962 522.408 283.106 522.393 284.039 522.115C284.898 521.859 285.587 521.373 286.086 520.671C286.301 520.371 286.507 520.022 286.718 519.61C289.015 520.327 290.856 521.109 291.915 523.781C292.098 524.25 292.252 524.75 292.406 525.257C292.779 526.478 293.163 527.739 294.023 528.632C294.927 529.57 295.836 529.908 296.728 529.642C296.729 529.641 296.729 529.641 296.729 529.641C298.197 529.204 299.584 527.147 300.844 523.522C302.631 518.384 302.765 512.575 301.217 507.162C300.03 503.011 297.032 497.833 293.232 496.201Z" fill="#2E2D2D"/>
<path d="M254.19 501.057C253.429 498.788 251.706 494.973 253.676 492.987C254.502 492.156 253.254 490.823 252.429 491.654C249.83 494.273 251.49 498.53 252.506 501.559C252.889 502.701 254.577 502.21 254.19 501.057Z" fill="#2E2D2D"/>
<path d="M255.11 489.079C255.078 489.088 255.045 489.098 255.014 489.107C253.93 489.43 254.389 491.266 255.474 490.943C255.505 490.933 255.538 490.924 255.57 490.914C256.653 490.591 256.195 488.755 255.11 489.079Z" fill="#2E2D2D"/>
<path d="M377.235 55.9769C377.215 58.0517 377.155 60.125 377.071 62.1979C376.357 62.3573 375.644 62.5179 374.932 62.6778C374.327 60.155 373.723 57.6304 373.12 55.1069C372.932 54.32 372.769 53.4646 372.602 52.6014C372.47 51.3214 372.188 49.3569 372.58 48.6385C372.989 47.8907 374.295 48.1749 374.963 48.3137C376.16 48.565 376.83 48.7539 377.191 50.2483C377.596 51.9191 377.249 54.2538 377.235 55.9769ZM381.389 77.0577C382.63 85.1129 384.558 94.8887 383.255 103.069C382.149 110.007 372.618 110.459 367.508 111.945C360.921 113.861 354.561 116.386 347.788 117.483C345.629 117.832 343.521 118.712 341.522 116.858C340.353 115.773 339.462 113.176 338.718 111.717C337.011 108.378 335.465 104.943 334.027 101.456C332.42 97.5641 330.959 93.6022 329.59 89.6042C329.059 88.0547 325.325 79.5441 326.327 77.8961C340.493 73.1553 354.829 69.1309 369.314 65.7386C371.307 65.2713 373.301 64.8156 375.296 64.367C377.994 63.7611 378.509 63.0897 379.489 65.9046C380.659 69.26 380.843 73.5109 381.389 77.0577ZM324.732 68.4053C324.32 67.4959 323.614 66.2565 323.395 65.2673C322.898 63.0275 323.927 62.4884 325.626 61.9257C328.015 61.1355 328.373 62.1385 329.332 64.0268C329.858 65.0673 330.386 66.1061 330.914 67.1451C331.996 69.2785 333.079 71.4104 334.161 73.5438C332.235 74.1455 330.312 74.7633 328.393 75.3932C327.065 73.1295 325.825 70.8153 324.732 68.4053ZM334.371 69.9327C334.08 67.909 333.598 65.9421 333.141 63.9575C332.692 62.0055 331.591 59.1458 334.402 59.1895C335.932 59.2124 336.047 59.6738 336.642 61.2033C337.062 62.2789 337.229 63.558 337.495 64.698C338.065 67.1313 338.575 69.5785 339.055 72.034C337.952 72.3657 336.852 72.7143 335.75 73.0533C335.284 72.1324 334.822 71.209 334.358 70.2851C334.38 70.1763 334.39 70.0593 334.371 69.9327ZM332.274 54.5131C332.152 53.5589 332.41 53.6935 333.086 53.4674C333.626 53.2875 334.203 53.1913 334.753 53.0538C335.6 52.844 336.538 52.7096 337.368 52.4178C337.375 52.4596 337.384 52.5037 337.391 52.547C337.376 53.0269 337.576 53.6084 337.632 54.087C337.632 54.0894 337.632 54.0894 337.633 54.0918C337.399 55.3974 338.344 57.0294 338.769 58.0543C340.495 62.2199 342.104 66.4286 343.535 70.7246C342.558 71.0075 341.582 71.2917 340.605 71.581C340.126 69.1251 339.616 66.6779 339.047 64.2443C338.61 62.3822 338.41 59.3754 337.326 57.8877C336.485 56.7345 334.519 56.9958 332.905 57.5894C332.64 56.5787 332.407 55.5557 332.274 54.5131ZM345.445 54.3615C345.48 54.4407 345.528 54.4902 345.573 54.5483C345.556 54.7411 345.549 54.9479 345.557 55.1839C345.74 59.9961 346.623 64.7955 346.786 69.6408C346.788 69.6949 346.809 69.7339 346.818 69.7833C346.239 69.9472 345.662 70.1068 345.084 70.2719C343.749 66.2575 342.267 62.3145 340.67 58.4158C340.363 57.6699 339.221 55.6574 339.299 54.9949C339.392 54.1682 340.018 54.116 340.775 53.7109C343.056 52.4898 344.204 51.4391 345.445 54.3615ZM350.888 45.3629C351.634 46.2954 352.19 47.5488 352.695 48.6759C352.328 48.7665 351.976 48.8446 351.648 48.894C351.334 48.9404 351.019 49.3888 351.052 49.7339C351.143 50.6738 351.187 51.0509 351.334 51.8034C350.498 51.9726 349.629 52.2915 348.943 52.4143C348.012 52.5813 347.196 52.6293 346.597 52.8926C346.27 52.0529 345.906 51.1165 345.317 50.5539C345.301 50.4771 345.293 50.4029 345.255 50.3247C344.92 49.6285 344.668 48.9186 344.449 48.1832C345.696 47.3459 347.001 46.8439 348.423 46.3531C349.229 46.0749 350.057 45.6216 350.888 45.3629ZM347.84 60.7607C347.724 59.577 347.584 58.396 347.44 57.2152C347.371 56.6358 346.952 55.2594 347.148 54.7382C347.3 54.3403 347.285 54.6529 347.847 54.342C348.448 54.0084 350.409 53.7086 351.1 53.7515C352.993 53.8691 352.639 55.8213 352.73 57.493C352.921 60.9531 353.111 64.416 353.301 67.8777C353.304 67.9222 353.322 67.9532 353.33 67.9949C351.676 68.4368 350.027 68.893 348.378 69.3518C348.277 66.4819 348.12 63.617 347.84 60.7607ZM358.034 54.4905C358.728 58.38 359.423 62.1681 359.691 66.1368C359.696 66.2065 359.723 66.2598 359.739 66.3211C358.119 66.7335 356.505 67.1587 354.891 67.5853C354.751 65.0391 354.611 62.4944 354.471 59.9482C354.361 57.9232 354.695 54.9367 354.075 52.9957C353.856 52.3086 353.461 51.9561 352.976 51.7987C352.659 50.2668 355.545 49.418 356.622 49.9039C357.919 50.4911 357.812 53.2392 358.034 54.4905ZM362.105 46.1287C362.73 46.0198 363.99 45.47 364.423 45.9396C364.832 46.3834 364.693 47.3336 364.669 47.9144C364.668 47.9354 364.678 47.9495 364.678 47.9689C363.919 48.3953 363.638 49.1265 363.901 50.7687C364.067 51.8031 364.26 52.8349 364.462 53.8669C364.459 53.8936 364.445 53.9145 364.443 53.9422C364.227 57.6678 364.675 61.3882 364.596 65.1125C363.489 65.3829 362.384 65.6606 361.28 65.938C360.918 60.7077 360.223 55.1655 359.147 50.0792C358.961 49.1996 358.589 48.654 358.103 48.3257C358.103 48.2987 358.112 48.2767 358.108 48.2491C358.048 47.7524 357.879 47.1075 357.85 46.5383C359.215 46.2765 360.746 46.3679 362.105 46.1287ZM366.975 64.5337C366.717 64.5961 366.458 64.6549 366.2 64.7173C366.213 63.5943 366.193 62.4719 366.149 61.3499C366.416 62.4156 366.695 63.4768 366.975 64.5337ZM369.996 48.9859C370.551 49.4959 370.838 51.9899 371.052 53.2852C371.052 53.3058 371.054 53.3313 371.055 53.3516C371.058 53.4933 371.087 53.6181 371.135 53.7235C371.141 53.7528 371.147 53.7976 371.153 53.823C371.887 56.8937 372.622 59.963 373.356 63.0337C371.752 63.4016 370.15 63.7803 368.549 64.1615C367.819 61.3954 367.15 58.61 366.548 55.8064C366.237 54.3558 365.831 52.8604 365.651 51.3816C365.402 49.3118 365.562 49.3595 367.439 49.0079C368.426 48.8228 369.488 48.5177 369.996 48.9859ZM377.169 46.7428C375.922 46.4194 372.738 45.7721 371.59 46.7815C371.368 46.9771 371.207 47.2484 371.087 47.5644C370.148 46.3739 368.57 47.019 367.023 47.3157C366.762 47.3648 366.524 47.4111 366.292 47.4581C366.338 45.977 366.26 44.0333 364.622 43.8928C363.432 43.7923 362.068 44.392 360.882 44.5625C359.592 44.7504 358.138 44.5937 356.889 44.9511C356.632 45.0235 356.373 45.2702 356.322 45.5649C356.19 46.3214 356.318 47.1309 356.442 47.9124C355.767 47.9269 355.03 48.0749 354.294 48.259C353.583 46.7064 352.492 43.0859 350.521 43.6684C348.023 44.4063 345.204 45.4065 343.081 47.0466C342.792 47.2711 342.612 47.6359 342.712 48.029C342.907 48.7958 343.16 49.5069 343.447 50.2106C342.415 50.5914 341.176 51.5521 340.492 51.9152C340.152 52.0975 339.613 52.2965 339.099 52.5427C339.001 51.7577 338.805 50.9755 338.296 50.6801C337.923 50.4638 337.475 50.6001 337.084 50.682C336.164 50.8794 335.251 51.136 334.338 51.3628C333.213 51.6411 331.329 51.666 330.759 52.979C330.145 54.3944 331.019 56.8737 331.409 58.2871C331.28 58.3623 331.159 58.4364 331.053 58.5076C330.838 58.656 330.624 58.9595 330.657 59.2582C330.881 61.2669 331.324 63.2241 331.772 65.1828C331.074 63.8051 330.381 62.4246 329.662 61.0622C328.268 58.4188 327.209 59.2207 324.812 60.4148C322.489 61.572 320.45 61.9709 321.514 64.8754C322.928 68.7359 324.762 72.4047 326.801 75.9129C326.41 76.0427 326.017 76.164 325.626 76.295C325.604 76.3027 325.593 76.3178 325.574 76.3257C325.541 76.3382 325.509 76.367 325.476 76.3843C325.416 76.42 325.352 76.4503 325.307 76.4973C325.292 76.5094 325.277 76.5112 325.263 76.5257C324.036 77.7575 324.486 78.6207 324.871 80.2585C325.647 83.5746 326.939 86.8516 328.038 90.058C330.195 96.3568 332.574 102.583 335.37 108.579C337.038 112.155 339.287 119.772 343.644 120.05C346.077 120.207 349.375 119.038 351.793 118.51C355.078 117.793 358.286 116.762 361.486 115.696C366.756 113.943 372.253 112.886 377.464 110.97C380.87 109.717 384.028 108.134 384.777 103.985C385.865 97.9601 384.742 90.7344 384.048 84.7245C383.177 77.1842 381.821 69.7249 380.464 62.2746C380.376 61.79 379.883 61.5674 379.481 61.6565C379.215 61.7148 378.953 61.7761 378.687 61.8344C378.829 58.1693 378.886 54.5022 378.811 50.8332C378.772 48.9168 379.096 47.2429 377.169 46.7428Z" fill="#2E2D2D"/>
<path d="M372.466 91.1567C371.354 95.8345 367.994 97.765 364.02 99.0302C358.129 100.908 348.046 104.311 344.304 96.9222C342.392 93.144 342.92 88.5786 345.361 85.1731C347.755 81.8303 351.438 80.9377 354.978 79.7463C359.849 78.1177 364.457 77.6401 369.149 80.3532C372.959 82.557 373.477 86.8996 372.466 91.1567ZM354.562 78.0542C350.671 79.364 346.566 80.4434 343.983 84.1675C341.766 87.3638 340.933 91.7697 341.882 95.6521C344.501 106.373 357.539 102.92 364.436 100.722C368.147 99.5419 371.725 97.72 373.367 93.6671C374.628 90.5546 375.335 85.6984 373.841 82.5779C370.376 75.3372 360.453 76.0848 354.562 78.0542Z" fill="#2E2D2D"/>
<path d="M347.065 91.5654C346.926 90.4519 345.377 90.9149 345.514 92.0188C345.86 94.8026 346.831 97.3196 349.017 98.9334C349.875 99.5663 350.673 98.0452 349.82 97.4162C348.001 96.0733 347.348 93.8379 347.065 91.5654Z" fill="#2E2D2D"/>
<path d="M346.447 89.1901C347.446 88.8983 347.031 87.2058 346.032 87.4979C345.033 87.7897 345.447 89.4825 346.447 89.1901Z" fill="#2E2D2D"/>
<path d="M1040.07 358.334C1038.52 359.365 1035.85 359.711 1034.07 359.82C1033.95 359.827 1033.84 359.867 1033.74 359.914C1032.79 357.418 1030.59 355.394 1027.99 354.07C1024.54 352.32 1020.77 351.985 1017.12 350.996C1013.86 350.109 1010.66 348.814 1007.54 347.427C1000.49 344.288 993.317 339.654 985.871 337.791C982.819 337.029 979.638 337.273 977.327 338.951C977.3 338.933 977.283 338.905 977.252 338.89C971.772 336.02 972.301 327.574 978.995 327.987C981.218 328.125 983.643 329.413 985.674 330.309C992.934 333.506 1000.04 337.068 1007.4 339.997C1015.69 343.295 1024.21 345.496 1032.7 348.032C1035.21 348.78 1038.67 349.441 1040.75 351.273C1042.89 353.168 1042.28 356.855 1040.07 358.334ZM1031.52 365.703C1025.67 376.392 1007.48 369.459 999.212 366.372C991.748 363.32 975.676 357.03 975.788 346.36C975.949 331.026 1000.95 346.64 1006.93 349.301C1010.59 350.928 1014.33 352.372 1018.2 353.282C1023.07 354.43 1036.35 356.88 1031.52 365.703ZM1000.9 330.032C1004.21 331.932 1007.57 333.686 1011.05 335.182C1014.98 336.873 1019.02 338.265 1023.13 339.35C1026.28 340.18 1036.03 340.808 1035.22 346.316C1035.21 346.402 1035.23 346.47 1035.23 346.546C1032.72 345.782 1030.12 345.243 1027.83 344.6C1020.32 342.496 1012.92 340.158 1005.66 337.169C999.715 334.721 993.913 331.92 988.057 329.236C986.491 328.518 984.75 327.62 982.971 326.937C986.131 320.4 997.489 328.07 1000.9 330.032ZM1043.78 357.19C1044.87 354.301 1043.83 351.136 1041.54 349.459C1040.13 348.421 1038.48 347.657 1036.75 347.04C1036.89 346.897 1037 346.715 1037.04 346.463C1037.77 341.504 1033.3 339.927 1029.66 338.919C1022.73 336.997 1015.93 335.348 1009.31 332.262C1003.55 329.575 985.936 315.572 981.214 326.358C980.248 326.092 979.282 325.92 978.339 325.928C975.775 325.953 972.455 328.296 971.486 331.004C970.089 334.914 973.016 338.518 975.891 340.326C975.139 341.281 974.567 342.486 974.243 343.975C971.358 357.242 990.049 364.75 998.6 368.246C1007.46 371.553 1027.13 378.751 1033.23 366.562C1034.08 364.868 1034.35 363.266 1034.19 361.786C1037.37 361.57 1042.43 360.798 1043.78 357.19Z" fill="#2E2D2D"/>
<path d="M1032.54 350.217C1031.23 349.809 1029.71 350.555 1028.39 350.265C1025.87 349.711 1025.14 347.26 1023.07 346.134C1021.11 345.074 1018.94 345.835 1016.85 346.039C1013.98 346.318 1013.97 345.157 1012.09 343.367C1011.36 342.666 1011.07 342.385 1010.19 342.155C1009.14 341.881 1007.76 342.243 1006.7 342.327C1003.95 342.544 1003.13 341.831 1001.31 339.69C999.851 337.977 999.486 337.215 997.301 337.157C995.384 337.105 993.52 337.829 991.755 336.646C990.334 335.692 989.611 333.512 988.196 332.623C986.196 331.371 983.524 332.832 981.473 333.265C980.322 333.507 980.655 335.463 981.811 335.219C983.017 334.966 984.451 334.223 985.671 334.243C987.738 334.277 988.53 336.088 989.868 337.437C991.631 339.216 992.761 339.389 995.176 339.282C998.725 339.128 998.771 339.931 1001.23 342.458C1002.63 343.901 1003.4 344.424 1005.31 344.435C1006.5 344.442 1008.17 343.756 1009.3 344.11C1010.85 344.597 1011.39 346.928 1012.69 347.656C1014.23 348.518 1016.04 348.115 1017.7 347.926C1019.3 347.746 1021.03 347.17 1022.51 348.045C1023.82 348.815 1024.54 350.621 1025.84 351.477C1027.54 352.61 1033.53 351.233 1033.49 354.341C1033.48 355.614 1035.3 355.772 1035.31 354.488C1035.33 352.312 1034.5 350.823 1032.54 350.217Z" fill="#2E2D2D"/>
<path d="M987.423 355.749C985.69 355.308 983.819 353.466 982.621 352.082C981.065 350.285 980.467 348.299 980.131 345.901C979.955 344.636 978.162 345.003 978.34 346.27C978.722 349.006 979.462 351.313 981.226 353.363C982.663 355.031 984.724 357.092 986.81 357.623C987.94 357.909 988.565 356.039 987.423 355.749Z" fill="#2E2D2D"/>
<path d="M990.948 357.594C989.843 357.164 989.229 359.035 990.336 359.466C991.441 359.896 992.055 358.024 990.948 357.594Z" fill="#2E2D2D"/>
</svg>
