<svg width="119" height="112" viewBox="0 0 119 112" fill="none" xmlns="http://www.w3.org/2000/svg">
<path d="M102.775 38.4123L102.67 39.3563C102.528 40.6351 102.245 41.9197 101.972 43.1591C101.65 44.6286 101.315 46.1457 101.212 47.673C101.014 50.5509 101.681 53.4272 102.329 56.2082L102.505 56.9734C102.844 58.4468 103.202 59.9144 103.556 61.3848C104.287 64.4038 105.045 67.5273 105.634 70.6225C105.747 71.2283 105.883 71.8857 106.027 72.5849C106.826 76.4497 107.92 81.7416 106.885 85.0979C105.404 89.9022 102.021 91.5521 98.5862 92.6189C94.9477 93.7538 93.1112 94.158 91.6645 94.4294C90.9252 94.5681 90.2268 94.6831 89.4694 94.8025C88.5662 94.947 87.5805 95.1031 86.343 95.3353L86.176 95.3689C88.8694 90.9667 87.459 84.0547 86.3182 78.4695C86.0403 77.0982 85.7814 75.8286 85.6148 74.7315L85.0458 70.9517C84.5939 67.9277 84.1408 64.908 83.6507 61.8891L83.4337 60.5787C82.9118 57.4894 82.422 54.5715 82.9261 51.4857C83.2073 49.7744 83.8021 48.1507 84.374 46.5808C84.697 45.6971 85.0202 44.8133 85.2954 43.9056C88.2649 34.1148 85.6687 23.8955 78.6785 17.8755C74.5668 14.3335 69.4936 12.0879 63.2069 11.0272C64.9691 10.777 66.5611 10.5649 68.0499 10.3639C71.0626 9.96161 73.6647 9.61365 76.3788 9.10439C76.8033 9.02475 78.0668 8.77737 78.0668 8.77737C85.3343 7.41374 91.8581 10.1339 97.4603 16.8703C99.996 19.9179 101.816 23.4032 102.727 26.9516C103.654 30.5631 103.186 34.7333 102.775 38.4123ZM81.3576 95.6355C79.5874 96.5141 77.4973 97.1497 74.58 97.6971C73.3863 97.9211 72.1872 98.1048 71.005 98.2912C69.8585 98.4694 68.7275 98.6428 67.6435 98.8462L64.6076 99.4216C60.4025 100.219 56.1945 101.013 52.0109 101.892C51.0821 102.088 50.1482 102.267 49.2156 102.442C47.723 102.722 46.2251 102.984 44.7292 103.247C43.2317 103.511 41.7341 103.775 40.2375 104.056L37.8342 104.518C36.1603 104.832 34.2 105.148 32.1259 104.934C28.1268 104.521 26.9567 101.539 26.0232 98.2572C24.8397 94.0934 23.9107 89.7914 23.0151 85.6335C22.0616 81.2224 21.0773 76.6583 19.7399 72.0924C18.8527 69.0572 17.9358 65.9183 16.8655 62.8968C16.1441 60.8662 14.8741 59.32 13.5266 57.6791C12.861 56.8695 12.1738 56.033 11.5642 55.1366C5.34135 45.9835 9.40368 35.1233 15.2828 28.0089C21.6795 20.2672 32.8886 15.8329 41.2462 14.2648C41.6488 14.1892 42.0437 14.1172 42.4381 14.0535C47.3472 13.2582 52.4116 13.4343 57.1802 13.6825C61.7087 13.9158 67.344 14.2096 71.9806 16.8548C81.7632 22.4416 85.706 33.0767 82.019 43.9468L81.5729 45.2415C80.5373 48.2207 79.5597 51.0364 79.5398 54.2727C79.5183 57.3464 80.1173 60.5057 80.6945 63.5599C80.9394 64.8651 81.184 66.158 81.3823 67.4349L82.1082 72.26C82.4897 74.8207 82.8711 77.3814 83.2809 79.9388C83.3854 80.6061 83.5296 81.3527 83.6852 82.1487C84.6049 86.8963 85.8653 93.4053 81.3576 95.6355ZM103.419 20.3834C99.9074 13.8056 95.7799 9.79417 90.4315 7.75286C83.6587 5.16808 83.1627 5.25084 77.0826 6.26993L75.5917 6.51462C66.5918 7.99082 63.0907 8.36305 59.0338 8.79626C55.6901 9.14929 51.904 9.5523 44.2017 10.6881C44.122 10.703 44.0498 10.7248 44.0174 10.7391C42.9366 10.8718 41.8561 11.0395 40.78 11.2414C33.0262 12.6963 25.4746 15.91 18.9368 20.5363C10.5125 26.4986 5.41973 35.6047 5.3173 44.8988C5.26321 49.437 6.4589 53.2147 9.18978 57.1375C9.73205 57.9167 10.3957 58.6833 11.0362 59.4254C12.0208 60.5609 13.0379 61.7378 13.6536 62.9962C14.2588 64.2317 14.648 65.6791 15.0266 67.0809C15.1975 67.7173 15.3682 68.3413 15.5528 68.9399C17.1548 74.0916 18.5812 79.6929 19.9197 86.0678C20.1581 87.2175 20.3829 88.4048 20.6111 89.6101C21.5027 94.3069 22.4227 99.1657 24.5086 103.224C26.3542 106.816 29.6398 108.363 34.8485 108.088C37.0788 107.968 39.492 107.658 42.4413 107.105C44.5536 106.708 46.6644 106.238 48.7421 105.778C50.0417 105.492 51.3269 105.206 52.5914 104.942C56.7617 104.069 60.9557 103.278 65.1433 102.485L68.2764 101.889C69.3126 101.695 70.3729 101.519 71.4388 101.34C72.5293 101.16 73.6278 100.978 74.7218 100.773L75.1548 100.684C75.303 100.693 75.4363 100.689 75.6077 100.657C75.6097 100.656 75.6097 100.656 75.6117 100.656C76.814 100.401 77.9898 100.17 79.1376 99.9547C82.3579 99.3504 85.3787 98.8707 88.2233 98.4193C90.7563 98.0222 93.1464 97.6436 95.4162 97.2178C95.4162 97.2178 95.4161 97.2178 95.4181 97.2174C96.4842 97.0174 97.5211 96.8044 98.5367 96.5768C105.952 94.9131 109.832 92.401 110.467 83.2962C110.81 78.3548 108.992 70.931 107.791 66.0219L107.664 65.5133C106.74 61.7424 105.776 57.7027 104.952 53.6984C104.166 49.8727 104.652 46.9287 105.267 43.2032L105.418 42.2753C106.595 35.0551 107.164 27.4022 103.419 20.3834Z" fill="#2E2D2D"/>
<path d="M74.1102 64.4859C74.9632 69.5925 76.0572 74.6538 77.178 79.7039C78.0889 83.8216 80.4091 88.8651 75.4054 91.7063C72.873 93.1405 68.7803 93.2178 65.9329 93.7312C59.5156 94.8877 53.0802 95.959 46.6641 97.1219C43.43 97.7076 40.0479 98.8233 36.7935 99.1472C30.5827 99.7661 32.9655 99.8654 31.4499 97.0763C28.245 91.1772 27.4398 82.334 26.0638 75.8032C25.2384 71.888 24.8795 67.8419 23.7881 63.993C22.4989 59.4531 19.8715 56.6867 16.598 53.3793C7.11598 41.1266 20.7204 28.3048 30.7642 23.0248C39.9312 18.2062 50.4548 17.8366 60.5811 19.2413C68.9107 20.3932 75.7213 25.8074 76.5745 34.7633C76.8938 38.1031 75.7731 41.4758 74.8975 44.6374C72.8233 52.1189 72.8059 56.6771 74.1102 64.4859ZM79.2072 38.4488C80.1084 30.8615 76.1106 21.8685 68.9508 18.4631C61.252 14.8019 49.5267 14.968 41.2854 16.4194C32.1113 18.0335 22.1516 23.0688 16.1405 30.3153C10.6817 36.8991 8.9387 48.1141 14.4528 55.2383C22.1514 63.0212 22.4653 73.2809 24.8913 83.462C26.0187 88.1953 26.6176 97.0273 29.9431 100.843C31.5198 102.649 33.997 102.471 36.1305 102.199C43.2375 101.288 50.431 99.3425 57.5096 98.1047C63.8729 96.9898 78.3264 97.4229 80.9883 89.6872C82.5601 85.1237 79.899 78.9891 78.95 74.536C77.8185 69.2424 76.8193 63.9281 76.0812 58.5648C75.0855 51.3231 78.3687 45.5024 79.2072 38.4488Z" fill="#2E2D2D"/>
<path d="M24.3816 43.8921C22.5842 44.2294 23.106 47.0216 24.9055 46.684C26.699 46.3475 26.1791 43.5549 24.3816 43.8921Z" fill="#2E2D2D"/>
<path d="M30.6664 33.4875C28.869 33.8248 29.3905 36.615 31.1899 36.2774C32.9834 35.9409 32.4639 33.1503 30.6664 33.4875Z" fill="#2E2D2D"/>
<path d="M39.4288 41.5638C37.6354 41.9003 38.1568 44.6905 39.9523 44.3536C41.7498 44.0164 41.2303 41.2258 39.4288 41.5638Z" fill="#2E2D2D"/>
<path d="M46.4036 29.5467C44.6081 29.8836 45.1273 32.6722 46.9267 32.3345C48.7202 31.998 48.1991 29.2098 46.4036 29.5467Z" fill="#2E2D2D"/>
<path d="M57.5449 37.9996C57.4931 38.0093 57.4393 38.0194 57.3855 38.0295C55.5901 38.3664 56.1099 41.159 57.9094 40.8213C57.9632 40.8112 58.0169 40.8011 58.0688 40.7914C59.8642 40.4545 59.3424 37.6623 57.5449 37.9996Z" fill="#2E2D2D"/>
<path d="M64.2571 28.992C62.4636 29.3285 62.9827 32.1171 64.7802 31.7798C66.5757 31.4429 66.0546 28.6547 64.2571 28.992Z" fill="#2E2D2D"/>
<path d="M32.5018 59.1007C30.7084 59.4373 31.2279 62.2278 33.0253 61.8906C34.8208 61.5537 34.3013 58.7631 32.5018 59.1007Z" fill="#2E2D2D"/>
<path d="M49.145 53.4158C47.3496 53.7527 47.8714 56.5449 49.6689 56.2076C51.4643 55.8708 50.9445 53.0782 49.145 53.4158Z" fill="#2E2D2D"/>
<path d="M63.8636 51.4792C62.0681 51.816 62.5872 54.6046 64.3867 54.267C66.1801 53.9305 65.661 51.1419 63.8636 51.4792Z" fill="#2E2D2D"/>
<path d="M42.4662 68.2304C40.6727 68.567 41.1922 71.3575 42.9897 71.0203C44.7851 70.6834 44.2657 67.8928 42.4662 68.2304Z" fill="#2E2D2D"/>
<path d="M61.1393 66.8186C59.3458 67.1551 59.8653 69.9457 61.6628 69.6085C63.4582 69.2716 62.9368 66.4814 61.1393 66.8186Z" fill="#2E2D2D"/>
<path d="M35.331 82.0623C33.5355 82.3992 34.057 85.1894 35.8544 84.8521C37.6499 84.5152 37.1304 81.7246 35.331 82.0623Z" fill="#2E2D2D"/>
<path d="M51.4923 79.5022C49.6988 79.8387 50.2183 82.6293 52.0158 82.2921C53.8093 81.9556 53.2898 79.165 51.4923 79.5022Z" fill="#2E2D2D"/>
<path d="M69.3966 77.461C67.6031 77.7975 68.1226 80.5881 69.9201 80.2509C71.7175 79.9136 71.1941 77.1238 69.3966 77.461Z" fill="#2E2D2D"/>
<path d="M43.7399 91.9249C43.6981 91.9885 43.6521 92.0512 43.6101 92.1129C42.5775 93.6242 44.9206 95.2273 45.9531 93.7153C45.9971 93.653 46.0392 93.5919 46.0825 93.5258C47.1157 92.0177 44.7725 90.4138 43.7399 91.9249Z" fill="#2E2D2D"/>
<path d="M62.0365 87.4112C61.9847 87.421 61.9328 87.4307 61.877 87.4412C60.0836 87.7777 60.6046 90.5655 62.4001 90.2286C62.4558 90.2181 62.5077 90.2084 62.5595 90.1987C64.3569 89.8614 63.8359 87.0736 62.0365 87.4112Z" fill="#2E2D2D"/>
</svg>
