<svg width="109" height="78" viewBox="0 0 109 78" fill="none" xmlns="http://www.w3.org/2000/svg">
<path d="M73.0545 7.44787C73.1685 7.17944 73.2843 6.91103 73.4093 6.6757C74.6209 9.87659 75.8086 13.2907 76.1708 16.8483C76.8106 23.0809 75.8914 26.4565 73.4351 26.8867C73.2126 26.9253 72.9957 26.9419 72.7824 26.9419C67.9802 26.9437 65.8971 16.9844 64.8969 12.1987L64.7076 11.2978C64.8767 11.3217 65.0422 11.3493 65.2113 11.375C65.8346 11.4688 66.4817 11.568 67.1363 11.568C67.7227 11.568 68.2596 11.4908 68.7799 11.329C70.0834 10.9172 71.3723 9.98138 72.4092 8.68154C72.6611 8.36899 72.8596 7.90015 73.0545 7.44787ZM51.7183 27.7913C52.5365 31.4683 53.3252 35.6676 52.3581 38.9493C51.8452 40.6849 51.0399 41.5656 49.9625 41.5656C47.7085 41.5656 44.7944 37.8278 43.8071 35.9231C42.3969 33.2021 41.5861 30.1501 40.8029 27.1974L40.369 25.5924C40.6246 25.5869 40.8765 25.5813 41.1247 25.5795C42.4135 25.5648 43.6306 25.5538 44.993 25.0114C46.3424 24.4745 47.4584 23.6472 48.3042 22.5551C48.7509 21.9741 48.9918 21.2645 49.2216 20.575C49.3503 20.1908 49.4753 19.8212 49.6297 19.4885C50.4442 22.0624 51.0399 24.743 51.619 27.3408L51.7183 27.7913ZM26.0266 56.044C26.8613 56.044 27.6133 55.8252 28.2586 55.395C31.1856 53.4407 30.8693 48.6384 30.7186 46.3311C30.4244 41.8524 29.1245 37.644 27.5802 33.009C28.2053 32.4372 29.1264 31.9114 29.9445 31.4444C30.4244 31.1705 30.8804 30.9094 31.2481 30.6594C33.0774 29.4165 37.1222 26.6826 37.1222 26.6826C37.4016 26.4914 37.6406 26.3296 37.8649 26.1917C38.0231 26.758 38.1757 27.3279 38.3301 27.9016C39.4498 32.0677 40.6099 36.3754 43.2721 39.8888C45.5169 42.8544 47.6698 44.3546 49.6702 44.3546C50.5306 44.3546 51.3671 44.0752 52.1577 43.5218C55.8697 40.9239 55.3843 35.4451 55.0957 32.1743C54.7078 27.7913 53.5109 22.6103 51.7201 17.569C51.9739 17.4274 52.2313 17.2914 52.4795 17.159C52.86 16.9605 53.2222 16.7674 53.5219 16.5836L54.2886 16.111C55.7226 15.223 57.1567 14.3406 58.6 13.4673C58.9107 13.2797 59.2342 13.0683 59.5652 12.8476C60.3944 12.3034 61.2493 11.7445 62.1042 11.4301C62.2108 11.8898 62.3248 12.4027 62.4462 12.958C63.7276 18.7696 66.114 29.5857 72.9056 29.5857C73.4663 29.5857 74.0565 29.5103 74.654 29.3632C78.0737 28.523 78.5793 23.5829 78.7429 21.9613C79.3386 16.1092 77.649 10.5936 75.6726 5.41631L76.0844 5.30784C76.4926 5.19753 76.8658 5.0964 77.1324 5.00263C81.6478 3.39391 86.0548 2.57394 90.2338 2.57394C90.949 2.57394 91.6642 2.59782 92.3775 2.6493C95.5508 2.87177 98.2314 3.60167 100.342 4.82062C103.8 6.81727 104.881 10.134 105.481 13.0977C105.802 16.1203 104.736 19.9187 102.311 24.3845C99.842 28.9275 95.7531 32.1964 91.7984 35.3513L90.7026 36.2265C82.1718 43.086 72.7898 49.5172 62.027 55.8822C54.8034 60.155 46.2211 65.0694 37.3354 69.1322C33.0039 71.1123 28.2034 72.7361 23.0739 73.9549C20.1635 74.6463 17.0724 75.3207 14.0897 75.3207C12.3898 75.3207 10.8975 75.1074 9.52798 74.6666C3.38543 72.6922 1.64673 65.8416 3.10377 60.0907C4.53304 54.4519 8.43056 50.0081 12.3001 45.9431C12.5766 45.6526 12.8833 45.2978 13.2085 44.9209C13.7163 44.3271 14.2837 43.667 14.8353 43.1522C15.9787 46.6068 17.3022 50.1534 19.5826 52.6795C21.0497 54.2993 23.6898 56.044 26.0266 56.044ZM28.1556 49.4566C28.0122 51.4404 26.7437 52.8248 25.0724 52.8248C24.4565 52.8248 23.8149 52.6446 23.1622 52.2824C21.9065 51.593 21.2188 50.6204 20.4503 49.4216C18.9409 47.0683 17.9679 44.3822 17.1779 42.0234C17.4796 41.9756 17.7883 41.9406 18.1009 41.9039C18.9483 41.8101 19.8271 41.7108 20.6489 41.3505C22.1878 40.6776 23.6181 39.5744 24.7893 38.1569C25.3004 37.5373 25.6368 36.8056 25.9016 36.1456C27.2033 40.1793 28.4939 44.8161 28.1556 49.4566ZM108.02 12.7649L107.998 12.5719C106.964 7.32285 104.749 4.10911 100.816 2.15475C97.9372 0.726204 94.4459 -1.52588e-05 90.4378 -1.52588e-05C89.5609 -1.52588e-05 88.6894 0.0349045 87.829 0.0992508C83.2896 0.426514 78.6142 1.58479 73.5344 3.63843C71.9514 4.28192 71.7969 4.59631 71.3833 5.43468C71.2362 5.72885 71.0578 6.09289 70.7618 6.57275C69.8315 8.07667 68.3111 8.92054 66.2409 9.01614C65.693 9.01614 65.1157 8.84701 64.5605 8.68154C63.9997 8.51424 63.4206 8.34142 62.8635 8.34142C62.79 8.34142 62.7183 8.34509 62.6447 8.35059C61.7438 8.42782 60.7639 9.07684 59.8979 9.6523C59.6295 9.83247 59.374 9.99976 59.1423 10.1376C57.3792 11.1764 55.6381 12.2483 53.897 13.322L53.3325 13.6732C52.8472 13.9728 52.3066 14.2596 51.7533 14.5557C50.6373 15.1513 49.4845 15.7691 48.6204 16.5468C47.8813 17.2123 47.5945 18.0434 47.3169 18.8523C47.1054 19.459 46.8885 20.0878 46.4803 20.6706C44.9782 22.8125 42.8988 22.9835 40.3396 22.9835H39.2935C37.9771 22.989 37.4531 23.3475 36.4125 24.0554L30.7149 27.9089C30.1854 28.2693 29.5915 28.626 28.9811 28.9918C27.639 29.7934 26.2491 30.6263 25.271 31.654C24.5852 32.3729 24.2561 33.2848 23.9344 34.1655C23.6347 34.9891 23.324 35.844 22.7191 36.5666C21.559 37.9565 20.3051 38.8298 18.7795 39.306C18.2502 39.4715 17.6304 39.4715 17.0307 39.4715C16.3936 39.4752 15.7904 39.4752 15.2749 39.6517C14.1171 40.0598 13.0377 41.299 12.0861 42.3892C11.7901 42.7294 11.5101 43.0511 11.2516 43.3195C8.84423 45.7942 7.00789 47.8865 5.46812 49.907C2.31099 54.0474 -0.742084 60.6955 0.160821 66.921C0.669911 70.432 2.37846 73.2733 5.2383 75.3632C7.61461 77.1026 10.6892 77.9831 14.3771 77.9851C20.0532 77.9851 26.1645 75.9556 30.6285 74.4768C39.7072 71.4677 48.2527 66.6652 56.5187 62.0195L57.2964 61.5835C70.1901 54.3379 81.3628 46.9194 91.4564 38.9071L92.6147 37.9878C97.2257 34.3493 101.995 30.5822 104.795 25.21C107.391 20.2312 108.454 16.1975 108.02 12.7649Z" fill="#2E2D2D"/>
</svg>
