<svg width="77" height="117" viewBox="0 0 77 117" fill="none" xmlns="http://www.w3.org/2000/svg">
<path d="M68.9661 113.385C61.8645 113.486 54.7689 113.437 47.6673 113.296C48.3677 110.722 47.6593 107.032 47.6811 104.493C47.7959 92.0606 47.7484 79.6244 47.6178 67.1901C47.5248 58.3987 48.7892 47.8977 46.8619 39.229C50.7323 39.4744 54.4958 39.2428 58.3978 39.1023C62.9489 38.9381 68.4398 38.3168 72.971 38.8669C73.2481 40.6715 73.1353 42.7926 73.2085 44.4923C73.4321 49.7142 73.5785 54.938 73.6616 60.1657C73.8575 72.4693 73.3608 84.7612 73.5547 97.0668C73.6102 100.646 73.6794 104.226 73.7131 107.803C73.7566 112.625 73.7962 113.316 68.9661 113.385ZM43.1439 113.466C39.6456 113.075 35.8088 113.524 32.2887 113.512C23.5349 113.482 14.7811 113.383 6.02726 113.354C2.12128 113.344 3.12647 111.725 3.02951 108.064C2.94838 104.936 2.89695 101.808 2.84946 98.6794C16.8667 99.4491 30.9155 97.971 44.9327 98.5369C44.9248 100.021 44.9366 101.503 44.9248 102.985C44.899 106.272 45.3779 110.182 44.7942 113.478C44.2362 113.532 43.5555 113.512 43.1439 113.466ZM12.84 24.6518C14.0272 22.958 15.2164 20.6271 16.7479 19.2064C18.418 17.659 17.205 18.3971 19.526 17.9717C24.36 17.0852 29.9598 17.7896 34.8788 17.6412C42.1209 17.4236 49.2898 16.828 56.5161 17.2653C52.246 23.3558 48.5834 29.9469 44.4815 36.164C43.8899 36.0334 43.1617 35.9622 42.2139 35.8652C34.6137 35.0856 26.6395 34.6483 19.0175 35.2716C14.4724 35.4516 9.92532 35.6317 5.38022 35.8118C7.76852 32.0265 10.2696 28.3124 12.84 24.6518ZM18.7405 5.08434C20.2522 2.70791 23.5587 3.40444 26.1666 3.32331C31.893 3.14523 37.6293 2.62679 43.3576 2.67033C45.9972 2.69012 55.2022 1.6216 57.3333 3.40838C57.0325 3.15708 57.264 6.20625 57.3293 7.83473C57.4203 10.0826 57.4935 12.3284 57.5806 14.5762C49.1434 13.9371 40.7358 14.7385 32.2867 14.9383C28.642 15.0254 22.2962 13.9885 18.2874 14.9581C18.1211 11.7724 17.6759 6.75438 18.7405 5.08434ZM2.79801 95.9072C2.70699 87.937 2.72875 79.9627 2.8633 71.9925C2.92464 68.413 3.01369 64.8316 3.12055 61.2501C16.8113 61.7626 31.1727 62.5244 44.814 61.2738C44.9129 68.5614 44.9307 75.853 44.9545 83.1366C44.9664 87.3473 44.9465 91.558 44.9367 95.7667C30.9016 95.2008 16.833 96.6849 2.79801 95.9072ZM19.0175 38.0418C26.4654 37.4323 34.2556 37.8518 41.6837 38.5859C42.1467 38.6314 43.3893 38.9144 43.9829 38.8985C44.0126 38.9935 44.0423 39.0925 44.068 39.1875C44.5132 40.7032 44.3054 42.6898 44.3727 44.2529C44.5745 48.9979 44.6853 53.7527 44.7665 58.5076C31.1707 59.7502 16.8607 58.9963 3.21552 58.4838C3.31643 55.4208 3.42328 52.3558 3.55783 49.2927C3.68249 46.4691 2.78614 40.2322 5.48906 38.576C7.81602 37.1533 16.4392 38.1447 19.0175 38.0418ZM72.0272 36.0452C68.0935 35.8157 64.0035 36.3282 60.0837 36.3104C55.8611 36.2906 51.7553 36.6646 47.5644 36.4845C51.4625 30.4574 55.0221 24.1413 59.1576 18.2982C61.9397 21.4166 64.3458 24.8794 66.6965 28.3164C68.2855 30.6394 70.6619 33.3483 72.0272 36.0452ZM76.0084 45.2206C75.8244 40.7962 76.0658 37.6342 73.721 33.932C69.7062 27.6001 65.5588 21.0051 60.3963 15.5201C60.3904 11.9861 61.5024 4.31464 59.6444 1.82938C58.0694 -0.281906 53.7498 0.307724 51.411 0.177132C45.1602 -0.173103 39.0658 0.0564423 32.8289 0.345337C27.9633 0.570908 21.2376 -0.531227 16.7044 1.63744C16.2691 1.84521 16.0277 2.37348 16.0198 2.83254C15.9208 7.31828 15.6893 11.7981 15.5805 16.2819C14.2211 17.4889 13.2476 19.3152 12.2088 20.7637C8.51054 25.9281 4.89149 31.1737 1.58704 36.5993C1.55736 36.6468 1.55934 36.6923 1.53758 36.7398C1.52768 36.7615 1.52175 36.7873 1.51185 36.809C1.4426 36.9753 1.39905 37.1375 1.39905 37.2938C1.39905 37.2958 1.39905 37.2978 1.39905 37.2978C-0.0572805 63.0923 -0.3897 88.9144 0.463125 114.735C0.486869 115.483 1.07652 116.12 1.84624 116.12C9.76505 116.116 17.6819 116.199 25.5987 116.248C31.6654 116.286 38.6424 117.224 44.6478 116.191C44.9762 116.134 45.2691 116.043 45.5382 115.934C45.6846 115.989 45.839 116.039 46.0249 116.043C55.7226 116.256 65.4124 116.244 75.112 116.043C75.8619 116.027 76.4932 115.421 76.4951 114.657C76.596 91.556 76.9641 68.3062 76.0084 45.2206Z" fill="#2E2D2D"/>
<path d="M14.5158 78.2929C15.4913 77.8655 16.4707 76.8643 17.3711 75.7225C17.2187 79.8798 17.1653 84.0371 17.4779 88.1924C17.6125 89.9594 20.3846 89.9732 20.2481 88.1924C19.8128 82.4205 20.0779 76.6446 20.3431 70.8688C20.4084 69.448 18.4554 69.0503 17.7629 70.1703C17.0011 71.403 15.422 74.0782 13.942 75.3387C12.1215 73.6588 10.5722 71.678 8.53811 70.1663C7.65561 69.5113 6.46837 70.4057 6.45452 71.3615C6.36944 76.9375 6.27444 82.5115 6.41295 88.0875C6.45846 89.8664 9.22668 89.8723 9.18315 88.0875C9.06838 83.5305 9.11983 78.9735 9.18513 74.4186C10.3882 75.6632 11.4903 76.9869 12.8378 78.0752C13.3741 78.5085 13.8945 78.564 14.5158 78.2929Z" fill="#2E2D2D"/>
<path d="M22.4683 88.1923C22.5752 89.9652 25.3454 89.9751 25.2385 88.1923C25.0743 85.4142 25.4048 82.6341 25.2385 79.856C25.1337 78.083 22.3635 78.0712 22.4683 79.856C22.6346 82.6341 22.3041 85.4142 22.4683 88.1923Z" fill="#2E2D2D"/>
<path d="M25.2841 75.6908C25.2841 75.669 25.2841 75.6492 25.2841 75.6274C25.2841 73.8466 22.5139 73.8426 22.5139 75.6274C22.5139 75.6492 22.5139 75.669 22.5139 75.6908C22.5139 77.4736 25.2841 77.4756 25.2841 75.6908Z" fill="#2E2D2D"/>
<path d="M30.9829 88.3131C30.5238 82.2859 30.0885 76.2687 30.0568 70.2217C30.047 68.4409 27.2768 68.4369 27.2866 70.2217C27.3183 76.2687 27.7536 82.2859 28.2127 88.3131C28.3472 90.0781 31.1174 90.0939 30.9829 88.3131Z" fill="#2E2D2D"/>
<path d="M36.4124 88.1923C36.2996 87.1574 36.2086 86.1206 36.1136 85.0857C36.4817 85.5903 36.8656 86.083 37.2237 86.5955C37.7421 87.3355 38.3654 88.0736 38.7493 88.8928C39.5091 90.5034 41.8975 89.0985 41.1416 87.4938C40.6964 86.548 39.9603 85.6833 39.3568 84.8324C38.5257 83.6571 37.659 82.5055 36.7765 81.3638C37.845 80.4179 38.9452 79.5097 40.1126 78.6806C41.5551 77.6556 40.174 75.2535 38.7157 76.2884C37.6511 77.0442 36.6321 77.8575 35.6348 78.7004C35.4726 75.7502 35.3776 72.7959 35.3618 69.8338C35.3539 68.053 32.5836 68.049 32.5935 69.8338C32.6252 75.9757 32.9735 82.088 33.6423 88.1923C33.8342 89.9454 36.6063 89.9652 36.4124 88.1923Z" fill="#2E2D2D"/>
</svg>
