<svg width="103" height="96" viewBox="0 0 103 96" fill="none" xmlns="http://www.w3.org/2000/svg">
<path d="M99.0364 53.4384C98.0458 57.8828 95.4884 62.9826 93.5016 67.1859C88.7371 77.2668 75.0743 83.4702 65.3418 87.8694C53.7298 93.1198 43.1084 93.1744 30.7601 91.5982C12.2066 88.2818 0.750887 70.41 2.76405 52.0316C3.46838 45.6022 5.57573 39.058 7.74708 33.0016C10.9749 23.996 17.408 12.0714 25.5454 6.5837C35.4889 -0.122467 46.4982 5.77393 57.2853 5.14494C60.3926 4.96227 63.3436 4.07335 66.3625 3.37091C73.1195 1.8003 77.3153 2.76263 82.6825 7.24094C86.4057 10.3483 90.1175 13.804 93.1175 17.6232C97.6956 23.4518 98.7935 29.9225 99.3208 37.1296C99.7087 42.4704 100.213 48.1559 99.0364 53.4384ZM102.293 42.7529C101.865 30.1429 99.897 20.1222 90.6956 11.0337C83.7691 4.19386 77.5356 -1.6554 67.4095 0.427444C60.483 1.85493 54.8993 2.81537 47.7223 1.78525C42.4945 1.03572 37.116 -0.0772781 31.8524 1.06207C21.4701 3.30876 15.6924 12.772 10.4702 21.1617C5.56818 29.0393 2.50982 38.6362 0.765955 47.7567C-3.202 68.4947 8.49471 90.3138 30.0991 94.1499C30.1706 94.1631 30.229 94.1424 30.2968 94.1462C30.3514 94.1593 30.391 94.1895 30.4494 94.197C42.1592 95.713 52.4963 96.1348 63.5941 91.5059C73.4961 87.3816 86.2926 81.5493 93.1965 72.9618C96.3509 69.0352 98.285 63.1991 100.183 58.6059C102.262 53.5702 102.471 48.1258 102.293 42.7529Z" fill="#2E2D2D"/>
<path d="M36.7225 57.5665C27.7263 53.4704 23.199 42.9282 26.1877 33.5233C29.7753 22.2353 40.6584 20.5592 50.6018 23.207C71.8974 32.1203 58.4587 67.4647 36.7225 57.5665ZM51.3043 20.6647C39.8298 17.6101 27.7075 20.1807 23.6454 32.8247C20.1237 43.7813 25.9241 56.2633 36.6773 60.461C61.6319 70.2048 75.3041 30.7117 51.3043 20.6647Z" fill="#2E2D2D"/>
<path d="M33.3364 31.4989C28.1857 34.706 28.4456 41.237 30.8825 46.1221C31.6396 47.6418 33.9145 46.3066 33.1593 44.7925C31.3966 41.2596 30.8185 36.173 34.6659 33.7756C36.1028 32.8811 34.7808 30.5987 33.3364 31.4989Z" fill="#2E2D2D"/>
<path d="M37.8168 28.0507C36.1219 28.0507 36.1181 30.6891 37.8168 30.6891C39.5136 30.6891 39.5173 28.0507 37.8168 28.0507Z" fill="#2E2D2D"/>
</svg>
