<svg width="47" height="47" viewBox="0 0 47 47" fill="none" xmlns="http://www.w3.org/2000/svg">
<path d="M23.5 0C10.5421 0 0 10.5421 0 23.5C0 29.1753 2.02257 34.3868 5.38463 38.4523C5.39325 38.464 5.39403 38.4789 5.40343 38.4899C7.83098 41.4172 10.8797 43.6614 14.277 45.1114C14.3162 45.1278 14.3546 45.1459 14.3938 45.1623C14.6687 45.2782 14.9468 45.3856 15.2257 45.4905C15.3353 45.532 15.445 45.5743 15.5562 45.6143C15.7967 45.7005 16.0388 45.7819 16.2824 45.8603C16.4383 45.9104 16.5941 45.9597 16.7516 46.0067C16.967 46.071 17.1832 46.1329 17.401 46.1916C17.5921 46.2433 17.7848 46.2911 17.9775 46.3373C18.1726 46.3843 18.3684 46.4313 18.565 46.4728C18.7843 46.5198 19.006 46.5613 19.2285 46.6021C19.4071 46.635 19.5849 46.6694 19.7651 46.6984C20.0118 46.7384 20.2601 46.7697 20.5092 46.8018C20.6698 46.8222 20.8296 46.8457 20.991 46.8629C21.273 46.8927 21.5573 46.9138 21.8425 46.9334C21.9749 46.9428 22.1065 46.9569 22.2396 46.964C22.6556 46.9875 23.0762 47 23.5 47C23.9238 47 24.3444 46.9875 24.762 46.9655C24.8951 46.9585 25.0267 46.9444 25.1591 46.935C25.4442 46.9146 25.7286 46.8943 26.0106 46.8645C26.172 46.8473 26.3318 46.8238 26.4923 46.8034C26.7414 46.7713 26.9898 46.7399 27.2365 46.7C27.4159 46.671 27.5945 46.6365 27.7731 46.6036C27.9948 46.5629 28.2164 46.5214 28.4366 46.4744C28.6332 46.4321 28.8282 46.3859 29.0241 46.3389C29.2168 46.2919 29.4095 46.2441 29.6006 46.1932C29.8184 46.1352 30.0346 46.0725 30.25 46.0083C30.4074 45.9613 30.5633 45.912 30.7192 45.8618C30.9628 45.7835 31.2049 45.702 31.4454 45.6159C31.5558 45.5759 31.6655 45.5336 31.7759 45.4921C32.0556 45.3871 32.3329 45.279 32.6078 45.1639C32.647 45.1474 32.6854 45.1294 32.7245 45.113C36.1211 43.663 39.1706 41.4188 41.5981 38.4914C41.6075 38.4805 41.6083 38.4648 41.6169 38.4538C44.9774 34.3868 47 29.1753 47 23.5C47 10.5421 36.4579 0 23.5 0ZM33.023 43.2557C33.0112 43.2612 33.0003 43.2674 32.9885 43.2729C32.7089 43.4076 32.4245 43.5345 32.1378 43.6583C32.0728 43.6857 32.0086 43.7139 31.9436 43.7413C31.6929 43.8463 31.4391 43.9458 31.1837 44.0414C31.0772 44.0813 30.9707 44.1205 30.8633 44.1581C30.637 44.2388 30.4098 44.3163 30.1803 44.3899C30.0377 44.4354 29.8944 44.4785 29.751 44.5208C29.5473 44.5819 29.3429 44.6406 29.1361 44.6954C28.9622 44.7417 28.7867 44.784 28.6113 44.8255C28.4272 44.8693 28.2439 44.914 28.0582 44.9532C27.8553 44.9962 27.6509 45.0331 27.4472 45.0699C27.2819 45.1004 27.1174 45.1325 26.9506 45.1592C26.7211 45.1952 26.4892 45.2242 26.2581 45.2532C26.1116 45.272 25.9659 45.2939 25.8179 45.3096C25.5539 45.3378 25.2876 45.3558 25.022 45.3746C24.9037 45.3824 24.7862 45.3957 24.6664 45.402C24.2786 45.4224 23.8901 45.4333 23.5 45.4333C23.1099 45.4333 22.7214 45.4224 22.3344 45.402C22.2153 45.3957 22.0978 45.3832 21.9788 45.3746C21.7124 45.3566 21.4469 45.3378 21.1829 45.3096C21.0349 45.2939 20.8892 45.272 20.7427 45.2532C20.5116 45.2242 20.2797 45.1952 20.0502 45.1592C19.8834 45.1325 19.7189 45.1004 19.5536 45.0699C19.3491 45.0331 19.1447 44.9955 18.9426 44.9532C18.7569 44.914 18.5728 44.8693 18.3895 44.8255C18.2141 44.7832 18.0386 44.7417 17.8647 44.6954C17.6587 44.6406 17.4535 44.5811 17.2498 44.5208C17.1064 44.4785 16.9631 44.4354 16.8205 44.3899C16.591 44.3163 16.3631 44.2388 16.1375 44.1581C16.0301 44.1197 15.9236 44.0805 15.8171 44.0414C15.5617 43.9458 15.3079 43.8463 15.0572 43.7413C14.9922 43.7147 14.9288 43.6865 14.8638 43.6591C14.5771 43.5361 14.2927 43.4084 14.0123 43.2737C14.0005 43.2682 13.9896 43.2627 13.9778 43.2565C11.2448 41.9342 8.83052 40.0573 6.8714 37.7778C8.38558 32.2021 12.672 27.7073 18.1866 25.9189C18.2955 25.9855 18.4091 26.045 18.5211 26.1077C18.5869 26.1445 18.652 26.1837 18.7185 26.219C18.952 26.3427 19.1885 26.4587 19.4306 26.5628C19.6162 26.6443 19.8082 26.7132 19.9993 26.7837C20.0369 26.7971 20.0745 26.8119 20.1121 26.8253C21.1743 27.2013 22.3109 27.4167 23.5 27.4167C24.6891 27.4167 25.8257 27.2013 26.8871 26.8253C26.9247 26.8119 26.9623 26.7971 26.9999 26.7837C27.1911 26.7132 27.383 26.6443 27.5686 26.5628C27.8107 26.4587 28.0473 26.3427 28.2807 26.219C28.3473 26.1829 28.4123 26.1445 28.4781 26.1077C28.5901 26.045 28.7045 25.9855 28.8141 25.9182C34.3288 27.7073 38.6144 32.2021 40.1294 37.777C38.1703 40.0558 35.756 41.9326 33.023 43.2557ZM14.8833 17.2333C14.8833 12.4824 18.7491 8.61667 23.5 8.61667C28.2509 8.61667 32.1167 12.4824 32.1167 17.2333C32.1167 20.2554 30.5492 22.9149 28.1875 24.4533C27.8788 24.6539 27.5577 24.8332 27.2279 24.9899C27.1887 25.0087 27.1503 25.0283 27.1112 25.0463C24.8426 26.078 22.1574 26.078 19.8888 25.0463C19.8497 25.0283 19.8105 25.0087 19.7721 24.9899C19.4416 24.8332 19.1212 24.6539 18.8125 24.4533C16.4508 22.9149 14.8833 20.2554 14.8833 17.2333ZM41.3044 36.2864C39.5286 31.0427 35.4772 26.8049 30.3009 24.7917C32.3713 22.9266 33.6833 20.2335 33.6833 17.2333C33.6833 11.6184 29.1149 7.05 23.5 7.05C17.8851 7.05 13.3167 11.6184 13.3167 17.2333C13.3167 20.2335 14.6288 22.9266 16.6999 24.7917C11.5236 26.8057 7.47222 31.0427 5.6964 36.2864C3.10122 32.6838 1.56667 28.2689 1.56667 23.5C1.56667 11.4061 11.4061 1.56667 23.5 1.56667C35.5939 1.56667 45.4333 11.4061 45.4333 23.5C45.4333 28.2689 43.8988 32.6838 41.3044 36.2864Z" fill="black"/>
</svg>
